<svg width="32" height="32" viewBox="0 0 32 32" fill="none" xmlns="http://www.w3.org/2000/svg">
<circle cx="16" cy="16" r="16" fill="#56E2D6" fill-opacity="0.2"/>
<path fill-rule="evenodd" clip-rule="evenodd" d="M25.1381 22.1616H8.96367C8.78619 22.1616 8.64209 22.0488 8.64209 21.9099V9.25167C8.64209 9.11278 8.78619 9 8.96367 9H25.1381C25.3156 9 25.4597 9.11278 25.4597 9.25167V21.9099C25.4597 22.049 25.3162 22.1616 25.1381 22.1616ZM9.28525 21.6583H24.8165V9.50337H9.28525V21.6583Z" fill="#2ADACC"/>
<path fill-rule="evenodd" clip-rule="evenodd" d="M14.3553 22.1616H8.96367C8.78619 22.1616 8.64209 22.0488 8.64209 21.9099V17.6904C8.64209 17.5515 8.78619 17.4387 8.96367 17.4387H14.3553C14.5328 17.4387 14.6769 17.5515 14.6769 17.6904V21.9099C14.6769 22.0489 14.5328 22.1616 14.3551 22.1616H14.3553ZM9.28525 21.6583H14.0337V17.9421H9.28525V21.6583V21.6583Z" fill="#2ADACC"/>
<path fill-rule="evenodd" clip-rule="evenodd" d="M19.7473 22.1616H8.96403C8.78656 22.1616 8.64246 22.0488 8.64246 21.9099V13.4715C8.64246 13.3326 8.78656 13.2198 8.96403 13.2198H19.7469C19.9243 13.2198 20.0684 13.3326 20.0684 13.4715V21.9103C20.0689 22.0491 19.9248 22.1618 19.7473 22.1618L19.7473 22.1616ZM9.28562 21.6583H19.4253V13.7232H9.28562V21.6583Z" fill="#2ADACC"/>
<path fill-rule="evenodd" clip-rule="evenodd" d="M6.48393 22.1407C6.30646 22.1407 6.16235 22.0279 6.16235 21.889V13.4922C6.16235 13.3533 6.30646 13.2405 6.48393 13.2405C6.6614 13.2405 6.8055 13.3533 6.8055 13.4922V21.889C6.8055 22.0279 6.6614 22.1407 6.48393 22.1407Z" fill="#2ADACC"/>
<path fill-rule="evenodd" clip-rule="evenodd" d="M7.64668 14.6408C7.56457 14.6408 7.48197 14.6163 7.41948 14.5669L6.48437 13.8351L5.54925 14.5669C5.42363 14.6652 5.21982 14.6652 5.09421 14.5669C4.9686 14.4686 4.96859 14.3091 5.09421 14.2108L6.25716 13.3007C6.38278 13.2024 6.58659 13.2024 6.7122 13.3007L7.87515 14.2108C8.00077 14.3091 8.00077 14.4686 7.87515 14.5669C7.81136 14.6163 7.72876 14.6408 7.64665 14.6408H7.64668Z" fill="#2ADACC"/>
<path fill-rule="evenodd" clip-rule="evenodd" d="M19.6929 24.1973H8.96367C8.78619 24.1973 8.64209 24.0845 8.64209 23.9456C8.64209 23.8067 8.78619 23.694 8.96367 23.694H19.6929C19.8704 23.694 20.0145 23.8067 20.0145 23.9456C20.0145 24.0847 19.8704 24.1973 19.6929 24.1973Z" fill="#2ADACC"/>
<path fill-rule="evenodd" clip-rule="evenodd" d="M18.5472 25.1077C18.4651 25.1077 18.3825 25.0833 18.32 25.0339C18.1944 24.9356 18.1944 24.7761 18.32 24.6778L19.2552 23.9459L18.32 23.2141C18.1944 23.1158 18.1944 22.9563 18.32 22.858C18.4457 22.7597 18.6495 22.7597 18.7751 22.858L19.938 23.7677C20.0637 23.8661 20.0637 24.0256 19.938 24.1239L18.7751 25.034C18.7119 25.0833 18.6293 25.1077 18.5472 25.1077L18.5472 25.1077Z" fill="#2ADACC"/>
</svg>
