<svg width="32" height="32" viewBox="0 0 32 32" fill="none" xmlns="http://www.w3.org/2000/svg">
<circle cx="16" cy="16" r="16" fill="#56E2D6" fill-opacity="0.2"/>
<path d="M16.0016 6C10.4828 6 6 10.48 6 15.9984C6 21.5172 10.4828 26 16.0016 26C21.5204 26 26 21.5172 26 15.9984C26 10.4796 21.52 6 16.0016 6V6ZM16.0016 6.69029C21.1476 6.69029 25.31 10.8527 25.31 15.9987C25.31 18.2959 24.4787 20.3967 23.1023 22.0195C22.6755 21.589 22.2143 21.2007 21.7236 20.8585C22.8743 19.5037 23.5184 17.7851 23.5184 15.9986C23.5184 11.8516 20.1486 8.48177 16.0015 8.48177C11.8545 8.48177 8.48469 11.8515 8.48469 15.9986C8.48469 17.7845 9.12217 19.5083 10.2721 20.8633C9.78349 21.2047 9.32441 21.5922 8.89955 22.021C7.52193 20.3978 6.68989 18.2966 6.68989 15.9986C6.68989 10.8526 10.8554 6.69021 16.0018 6.69021L16.0016 6.69029ZM15.6494 9.18089C15.6514 9.18073 15.6534 9.18104 15.6554 9.18089V10.3636C15.6534 10.4563 15.6888 10.546 15.7536 10.6124C15.8185 10.6787 15.9074 10.7161 16.0002 10.7161C16.093 10.7161 16.1818 10.6787 16.2468 10.6124C16.3116 10.546 16.347 10.4563 16.345 10.3636V9.18089C17.9726 9.2614 19.4439 9.91567 20.5752 10.9387L19.7434 11.7711C19.6729 11.8345 19.6315 11.9241 19.6292 12.0189C19.6268 12.1137 19.6635 12.2053 19.7308 12.2722C19.7979 12.3391 19.8898 12.3753 19.9847 12.3724C20.0793 12.3694 20.1688 12.3276 20.2317 12.2568L21.0629 11.4264C22.0852 12.5577 22.739 14.0283 22.8193 15.6554H21.6366V15.6552C21.6257 15.6548 21.6146 15.6548 21.6036 15.6552C21.4165 15.6685 21.2741 15.8287 21.283 16.0162C21.2919 16.2037 21.4491 16.3497 21.6366 16.3449H22.8118C22.734 17.873 22.1467 19.3289 21.1401 20.4828C19.6018 19.5615 17.8296 19.0584 16.0016 19.0584C14.1732 19.0584 12.4006 19.5613 10.8623 20.4828C9.85551 19.3289 9.26839 17.8732 9.19064 16.3449H10.3634C10.4562 16.3469 10.5459 16.3115 10.6123 16.2467C10.6786 16.1817 10.716 16.0929 10.716 16.0001C10.716 15.9072 10.6786 15.8184 10.6123 15.7534C10.5459 15.6886 10.4562 15.6532 10.3634 15.6552H9.18343C9.26394 14.0282 9.91758 12.5576 10.9399 11.4263L11.771 12.2566V12.2568C11.8344 12.3262 11.9233 12.3667 12.0173 12.369C12.1112 12.3713 12.202 12.3353 12.2687 12.2689C12.3355 12.2027 12.3723 12.1122 12.3706 12.0182C12.3689 11.9242 12.3289 11.835 12.2599 11.7711L11.4276 10.9387C12.5572 9.91732 14.0252 9.26306 15.6498 9.18089L15.6494 9.18089ZM18.5824 13.0514C18.493 13.0544 18.4083 13.0918 18.346 13.1558L16.8158 14.6834C16.5776 14.5357 16.3006 14.4463 16.0016 14.4463C15.1438 14.4463 14.4411 15.149 14.4411 16.0068C14.4411 16.8646 15.1438 17.5673 16.0016 17.5673C16.8594 17.5673 17.5613 16.8646 17.5613 16.0068C17.5613 15.6966 17.4673 15.408 17.3095 15.1643L18.8342 13.6421C18.9354 13.5427 18.9654 13.3913 18.9097 13.261C18.8541 13.1304 18.7242 13.0473 18.5824 13.0514L18.5824 13.0514ZM16.0016 15.136C16.4867 15.136 16.8717 15.5217 16.8717 16.0068C16.8717 16.4919 16.4865 16.877 16.0016 16.877C15.5165 16.877 15.1307 16.4919 15.1307 16.0068C15.1307 15.5217 15.5165 15.136 16.0016 15.136ZM16.0016 19.7488C17.7471 19.7488 19.4368 20.2402 20.893 21.1403H20.8929V21.1409C20.9474 21.2266 21.0368 21.284 21.1375 21.2979C21.6747 21.6536 22.1769 22.0662 22.6353 22.5323C20.9475 24.2469 18.6003 25.3105 16.0012 25.3105C13.4026 25.3105 11.055 24.2468 9.36676 22.5323C9.83384 22.0574 10.3462 21.6372 10.8949 21.277H10.8948C10.9643 21.2585 11.0262 21.2186 11.072 21.1632C12.5367 20.2485 14.2411 19.7489 16.0012 19.7489L16.0016 19.7488Z" fill="#2ADACC"/>
</svg>
