<svg width="32" height="32" viewBox="0 0 32 32" fill="none" xmlns="http://www.w3.org/2000/svg">
<circle cx="16" cy="16" r="16" fill="#56E2D6" fill-opacity="0.2"/>
<path d="M16 6C10.4828 6 6 10.4824 6 16C6 21.5176 10.4824 26 16 26C21.5176 26 26 21.5176 26 16C26 13.3302 24.9508 10.8989 23.2434 9.10554C23.1601 9.01834 23.0457 8.96766 22.9252 8.96492C22.8046 8.96203 22.6879 9.00723 22.6007 9.09048C22.4196 9.26367 22.4127 9.55084 22.5856 9.73243C24.1387 11.3637 25.0908 13.5679 25.0908 16C25.0908 21.0259 21.0261 25.0907 16.0002 25.0907C10.9743 25.0907 6.9095 21.0259 6.9095 16C6.9095 10.9741 10.9743 6.90935 16.0002 6.90935C17.9648 6.90935 19.7796 7.53042 21.2653 8.588C21.4698 8.73365 21.7537 8.68601 21.8993 8.48147C22.0448 8.27708 21.9972 7.99326 21.7928 7.84758C20.1586 6.68453 18.1567 6.00015 16.0001 6.00015L16 6Z" fill="#2ADACC"/>
<path d="M16 8.27283C11.7377 8.27283 8.27295 11.7377 8.27295 15.9999C8.27295 20.262 11.7379 23.7269 16 23.7269C20.2621 23.7269 23.727 20.262 23.727 15.9999C23.727 11.7377 20.2621 8.27283 16 8.27283V8.27283ZM16 9.18185C19.7709 9.18185 22.8181 12.229 22.8181 15.9999C22.8181 17.4071 22.3927 18.713 21.6648 19.7978C21.1044 17.9012 19.6254 16.402 17.7489 15.8161C18.346 15.3149 18.7271 14.5638 18.7271 13.7273C18.7271 12.2264 17.5008 11 15.9999 11C14.499 11 13.2726 12.2264 13.2726 13.7273C13.2726 14.5639 13.6537 15.3151 14.2509 15.8162C12.3736 16.4023 10.8946 17.902 10.335 19.7995C9.60676 18.7144 9.18182 17.4074 9.18182 15.9998C9.18182 12.2289 12.229 9.18174 15.9999 9.18174L16 9.18185ZM16 11.9091C17.0095 11.9091 17.8182 12.7177 17.8182 13.7273C17.8182 14.7368 17.0096 15.5455 16 15.5455C14.9905 15.5455 14.1818 14.7369 14.1818 13.7273C14.1818 12.7178 14.9904 11.9091 16 11.9091ZM16 16.4546C18.4979 16.4546 20.5611 18.2917 20.9379 20.697C19.6966 22.0017 17.9469 22.818 16 22.818C14.0527 22.818 12.3027 22.0015 11.0614 20.6961C11.4383 18.2909 13.5023 16.4545 16 16.4545V16.4546Z" fill="#2ADACC"/>
</svg>
