<svg width="32" height="32" viewBox="0 0 32 32" fill="none" xmlns="http://www.w3.org/2000/svg">
<circle cx="16" cy="16" r="16" fill="#56E2D6" fill-opacity="0.2"/>
<path d="M24.1234 11.0035C23.932 10.6195 23.5972 10.3263 23.1911 10.1876C22.7852 10.049 22.341 10.0759 21.9548 10.2625L13.378 14.4949C13.2936 13.548 13.1045 12.6134 12.8141 11.7083C12.5733 11.0637 12.1669 10.494 11.6359 10.0565C11.1867 9.63321 10.5612 9.45144 9.95513 9.56867C8.73719 9.90473 8.87079 10.8229 9.18168 12.2902H9.18193C9.33421 13.0586 9.37807 13.8444 9.31202 14.625C9.28605 14.9613 9.19403 15.2893 9.04075 15.5901C8.70292 16.2544 8.40594 16.9386 8.15184 17.6392C7.91209 18.3269 7.95772 19.0818 8.2784 19.7355L10.5012 24.228H10.501C10.8706 24.9828 11.5253 25.5594 12.3207 25.8307C13.1161 26.102 13.9868 26.0455 14.7404 25.6736L21.9689 22.0955C22.3443 21.9112 22.6312 21.5855 22.7668 21.1896C22.9024 20.7941 22.8755 20.3607 22.6917 19.9848C22.519 19.6364 22.2225 19.3646 21.8605 19.2222C22.0455 18.9872 22.1602 18.7049 22.1915 18.4076C22.2227 18.1102 22.1695 17.8101 22.0377 17.5416C21.8564 17.1723 21.537 16.8895 21.1485 16.7538C21.2264 16.6419 21.2895 16.5204 21.3363 16.3923C21.4682 16.0083 21.4397 15.5875 21.2569 15.225C21.1238 14.9502 20.9093 14.7231 20.6425 14.5743L23.3749 13.1903C23.7551 12.9951 24.0437 12.6588 24.1789 12.2534C24.314 11.848 24.2848 11.4058 24.0977 11.0216L24.1234 11.0035ZM23.5702 12.0263C23.4875 12.2671 23.3136 12.4655 23.0859 12.5794L17.8635 15.1709C17.7833 15.2097 17.7223 15.279 17.6938 15.3632C17.6653 15.4474 17.6716 15.5394 17.7115 15.6189C17.7513 15.6993 17.8211 15.7603 17.9058 15.7888C17.9908 15.8173 18.0833 15.8107 18.1632 15.7706L19.5004 15.1093H19.5007C19.811 14.9551 20.1839 15.0032 20.4449 15.2311C20.706 15.459 20.8041 15.8218 20.6934 16.1503C20.6213 16.3669 20.4648 16.5453 20.2596 16.6454L19.9197 16.8116L18.9259 17.3032C18.7593 17.3851 18.6905 17.5866 18.7724 17.7532C18.8543 17.9199 19.0558 17.9887 19.2224 17.9067L20.22 17.4116C20.4356 17.3072 20.6834 17.2918 20.9103 17.3682C21.1382 17.4436 21.3257 17.6077 21.4306 17.8235C21.6527 18.2728 21.4702 18.8171 21.0222 19.0417L20.0284 19.5334V19.5331C19.9399 19.5669 19.8696 19.6362 19.835 19.7244C19.8002 19.8127 19.8045 19.9113 19.8464 19.9962C19.8882 20.0812 19.9641 20.1445 20.0554 20.1704C20.1464 20.1966 20.2442 20.183 20.3246 20.1331L20.8775 19.8621H20.8778C21.0918 19.7557 21.3396 19.7391 21.566 19.8157C21.7924 19.8923 21.9792 20.056 22.0849 20.2705C22.194 20.4846 22.2109 20.7339 22.1318 20.9608C22.0559 21.1882 21.8917 21.3757 21.6764 21.4811L14.448 25.0555V25.0558C13.8555 25.3488 13.171 25.3944 12.5448 25.1829C11.9186 24.9716 11.402 24.5203 11.1085 23.9281L8.88216 19.4356C8.64064 18.9455 8.60661 18.3787 8.78813 17.8634C9.03015 17.1893 9.31504 16.5315 9.64102 15.8937C9.8412 15.5158 9.96423 15.1016 10.0025 14.6757C10.0721 13.8297 10.0222 12.9778 9.85431 12.1456C9.49278 10.4721 9.63396 10.3385 10.1508 10.2119V10.2122C10.211 10.1973 10.2728 10.19 10.3351 10.1905C10.6636 10.2212 10.9732 10.3581 11.217 10.5807C11.6476 10.9445 11.9766 11.4142 12.1709 11.9434C12.4735 12.9505 12.6638 13.988 12.7384 15.037C12.7462 15.1492 12.81 15.2498 12.9083 15.3045C13.0062 15.3585 13.1249 15.3585 13.2227 15.3045L22.2332 10.8664C22.4616 10.7527 22.7258 10.735 22.9676 10.8172C23.2091 10.8994 23.4077 11.0744 23.5197 11.3035C23.6306 11.5287 23.6488 11.7881 23.5704 12.0263L23.5702 12.0263Z" fill="#2ADACC"/>
<path d="M13.8737 8.96528C13.9395 9.03234 14.029 9.07142 14.123 9.07369C14.2077 9.07369 14.2891 9.04142 14.3506 8.98318C14.4807 8.85234 14.4807 8.64082 14.3506 8.50972L13.3026 7.37853C13.1736 7.26004 12.9752 7.26055 12.8468 7.37954C12.7183 7.49854 12.7026 7.69644 12.811 7.83409L13.8737 8.96528Z" fill="#2ADACC"/>
<path d="M16.7431 8.22443C16.9234 8.22468 17.0716 8.08274 17.0794 7.90273L17.1372 6.36313C17.1442 6.27212 17.1137 6.18212 17.0532 6.11404C16.9925 6.04597 16.9067 6.00539 16.8155 6.0016C16.724 5.99253 16.633 6.02228 16.5644 6.08328C16.4956 6.1443 16.4557 6.23153 16.4542 6.3233L16.3927 7.8629C16.3854 7.95895 16.4194 8.05349 16.4865 8.12257C16.5535 8.1919 16.6471 8.22871 16.7431 8.22442L16.7431 8.22443Z" fill="#2ADACC"/>
<path d="M19.2661 9.58302C19.3498 9.5815 19.4302 9.55075 19.4937 9.49629L20.6249 8.44829C20.7608 8.32148 20.7681 8.10869 20.6413 7.97306C20.5145 7.83717 20.3017 7.82986 20.1661 7.95667L19.0384 9.00119C18.967 9.06245 18.9244 9.15044 18.9201 9.24422C18.9161 9.338 18.9511 9.42927 19.0167 9.49632C19.0857 9.55582 19.175 9.58658 19.266 9.58305L19.2661 9.58302Z" fill="#2ADACC"/>
</svg>
