<svg width="32" height="32" viewBox="0 0 32 32" fill="none" xmlns="http://www.w3.org/2000/svg">
<circle cx="16" cy="16" r="16" fill="#56E2D6" fill-opacity="0.2"/>
<path d="M24.6088 12.9129H7.39121C7.17517 12.9129 7 12.7378 7 12.5217V9.39121C7 9.17517 7.17517 9 7.39121 9H24.6088C24.7125 9 24.812 9.04114 24.8855 9.11451C24.9589 9.18801 25 9.28745 25 9.39122V12.5217C25 12.6255 24.9589 12.7249 24.8855 12.7984C24.812 12.8718 24.7125 12.913 24.6088 12.913V12.9129ZM7.78263 12.1304H24.2174V9.78256H7.78263V12.1304Z" fill="#2ADACC"/>
<path d="M9.348 10.9565C9.348 11.1726 9.1727 11.3479 8.95666 11.3479C8.74061 11.3479 8.56531 11.1726 8.56531 10.9565C8.56531 10.7405 8.74061 10.5652 8.95666 10.5652C9.1727 10.5652 9.348 10.7405 9.348 10.9565Z" fill="#2ADACC"/>
<path d="M10.9129 10.9565C10.9129 11.1726 10.7378 11.3479 10.5217 11.3479C10.3055 11.3479 10.1304 11.1726 10.1304 10.9565C10.1304 10.7405 10.3055 10.5652 10.5217 10.5652C10.7378 10.5652 10.9129 10.7405 10.9129 10.9565Z" fill="#2ADACC"/>
<path d="M12.4782 10.9565C12.4782 11.1726 12.3031 11.3479 12.0869 11.3479C11.8708 11.3479 11.6957 11.1726 11.6957 10.9565C11.6957 10.7405 11.8708 10.5652 12.0869 10.5652C12.3031 10.5652 12.4782 10.7405 12.4782 10.9565Z" fill="#2ADACC"/>
<path d="M21.8695 11.3479H16C15.7839 11.3479 15.6086 11.1726 15.6086 10.9566C15.6086 10.7405 15.7839 10.5652 16 10.5652H21.8695C22.0856 10.5652 22.2609 10.7405 22.2609 10.9566C22.2609 11.1726 22.0856 11.3479 21.8695 11.3479Z" fill="#2ADACC"/>
<path d="M24.6088 17.6086H7.39121C7.17517 17.6086 7 17.4334 7 17.2173V14.0868C7 13.8708 7.17517 13.6956 7.39121 13.6956H24.6088C24.7125 13.6956 24.812 13.7368 24.8855 13.8101C24.9589 13.8836 25 13.9831 25 14.0868V17.2174C25 17.3211 24.9589 17.4206 24.8855 17.4941C24.812 17.5674 24.7125 17.6086 24.6088 17.6086V17.6086ZM7.78263 16.826H24.2174V14.4782H7.78263V16.826Z" fill="#2ADACC"/>
<path d="M9.348 15.6522C9.348 15.8683 9.1727 16.0436 8.95666 16.0436C8.74061 16.0436 8.56531 15.8683 8.56531 15.6522C8.56531 15.4362 8.74061 15.2609 8.95666 15.2609C9.1727 15.2609 9.348 15.4362 9.348 15.6522Z" fill="#2ADACC"/>
<path d="M10.9129 15.6522C10.9129 15.8683 10.7378 16.0436 10.5217 16.0436C10.3055 16.0436 10.1304 15.8683 10.1304 15.6522C10.1304 15.4362 10.3055 15.2609 10.5217 15.2609C10.7378 15.2609 10.9129 15.4362 10.9129 15.6522Z" fill="#2ADACC"/>
<path d="M12.4782 15.6522C12.4782 15.8683 12.3031 16.0436 12.0869 16.0436C11.8708 16.0436 11.6957 15.8683 11.6957 15.6522C11.6957 15.4362 11.8708 15.2609 12.0869 15.2609C12.3031 15.2609 12.4782 15.4362 12.4782 15.6522Z" fill="#2ADACC"/>
<path d="M21.8695 16.0436H16C15.7839 16.0436 15.6086 15.8683 15.6086 15.6522C15.6086 15.4362 15.7839 15.2609 16 15.2609H21.8695C22.0856 15.2609 22.2609 15.4362 22.2609 15.6522C22.2609 15.8683 22.0856 16.0436 21.8695 16.0436Z" fill="#2ADACC"/>
<path d="M24.6088 22.3042H7.39121C7.17517 22.3042 7 22.1291 7 21.913V18.7825C7 18.5665 7.17517 18.3913 7.39121 18.3913H24.6088C24.7125 18.3913 24.812 18.4324 24.8855 18.5058C24.9589 18.5793 25 18.6787 25 18.7825V21.913C25 22.0168 24.9589 22.1162 24.8855 22.1897C24.812 22.2631 24.7125 22.3042 24.6088 22.3042V22.3042ZM7.78263 21.5217H24.2174V19.1739H7.78263V21.5217Z" fill="#2ADACC"/>
<path d="M9.348 20.3478C9.348 20.5639 9.1727 20.7392 8.95666 20.7392C8.74061 20.7392 8.56531 20.5639 8.56531 20.3478C8.56531 20.1318 8.74061 19.9565 8.95666 19.9565C9.1727 19.9565 9.348 20.1318 9.348 20.3478Z" fill="#2ADACC"/>
<path d="M10.9129 20.3478C10.9129 20.5639 10.7378 20.7392 10.5217 20.7392C10.3055 20.7392 10.1304 20.5639 10.1304 20.3478C10.1304 20.1318 10.3055 19.9565 10.5217 19.9565C10.7378 19.9565 10.9129 20.1318 10.9129 20.3478Z" fill="#2ADACC"/>
<path d="M12.4782 20.3478C12.4782 20.5639 12.3031 20.7392 12.0869 20.7392C11.8708 20.7392 11.6957 20.5639 11.6957 20.3478C11.6957 20.1318 11.8708 19.9565 12.0869 19.9565C12.3031 19.9565 12.4782 20.1318 12.4782 20.3478Z" fill="#2ADACC"/>
<path d="M21.8695 20.7392H16C15.7839 20.7392 15.6086 20.5639 15.6086 20.3479C15.6086 20.1318 15.7839 19.9565 16 19.9565H21.8695C22.0856 19.9565 22.2609 20.1318 22.2609 20.3479C22.2609 20.5639 22.0856 20.7392 21.8695 20.7392Z" fill="#2ADACC"/>
</svg>
