<svg width="32" height="32" viewBox="0 0 32 32" fill="none" xmlns="http://www.w3.org/2000/svg">
<circle cx="16" cy="16" r="16" fill="#56E2D6" fill-opacity="0.2"/>
<path d="M24.3871 9.22581H20.0763C19.6375 7.37932 17.9785 6 16 6C14.0215 6 12.3623 7.37932 11.9237 9.22581H7.6129C6.7235 9.22581 6 9.94931 6 10.8387V22.4516C6 23.341 6.7235 24.0645 7.6129 24.0645H11.4839V25.3548H10.1935V26H21.8065V25.3548H20.5161V24.0645H24.3871C25.2765 24.0645 26 23.341 26 22.4516V10.8387C26 9.94931 25.2765 9.22581 24.3871 9.22581ZM20.1935 19.5484V20.1935H11.8065V19.5484H20.1935ZM12.4516 18.9032V14.0645H19.5484V18.9032H12.4516ZM11.8065 13.4194V12.7742H20.1935V13.4194H11.8065ZM14.3871 10.1935C14.3871 10.0832 14.3983 9.97523 14.4196 9.87097H17.5803C17.6017 9.97523 17.6129 10.0832 17.6129 10.1935V12.129H14.3871L14.3871 10.1935ZM14.718 9.22581C15.0125 8.83642 15.4752 8.58065 16 8.58065C16.5247 8.58065 16.9875 8.83641 17.2819 9.22581H14.718ZM12.4516 10.1935C12.4516 8.23705 14.0435 6.64516 16 6.64516C17.9565 6.64516 19.5484 8.23705 19.5484 10.1935V12.129H18.258V10.1935C18.258 8.94846 17.2448 7.93548 16 7.93548C14.7552 7.93548 13.7419 8.94846 13.7419 10.1935V12.129H12.4516V10.1935ZM19.871 25.3548H12.129V24.0645H19.871V25.3548ZM24.3871 23.4194H7.61289C7.07932 23.4194 6.64515 22.9852 6.64515 22.4516V22.129H24.0645V21.4839H6.64515V10.8387C6.64515 10.3051 7.07932 9.87097 7.61289 9.87097H11.823C11.8147 9.97768 11.8066 10.0845 11.8066 10.1935V12.129H11.1614V14.0645H11.8066V18.9032H11.1614V20.8387H20.8389V18.9032H20.1937V14.0645H20.8389V12.129H20.1937V10.1935C20.1937 10.0845 20.1856 9.97768 20.1773 9.87097H24.3874C24.921 9.87097 25.3552 10.3051 25.3552 10.8387V21.4839H24.71V22.129H25.3552V22.4516C25.3552 22.9852 24.921 23.4194 24.3874 23.4194H24.3871Z" fill="#2ADACC"/>
<path d="M17.2904 16C17.2904 15.2884 16.7116 14.7097 16 14.7097C15.2885 14.7097 14.7097 15.2884 14.7097 16C14.7097 16.5994 15.1223 17.1004 15.6775 17.2445V18.258H16.3226V17.2445C16.8778 17.1004 17.2904 16.5994 17.2904 16ZM16 16.6451C15.6442 16.6451 15.3549 16.3558 15.3549 16C15.3549 15.6441 15.6442 15.3548 16 15.3548C16.3559 15.3548 16.6452 15.6441 16.6452 16C16.6452 16.3558 16.3559 16.6451 16 16.6451Z" fill="#2ADACC"/>
</svg>
