<svg width="20" height="16" viewBox="0 0 20 16" fill="none" xmlns="http://www.w3.org/2000/svg">
<path d="M19.0661 3.70411L10.0303 0.0526032C9.85662 -0.0175344 9.66241 -0.0175344 9.48859 0.0526032L0.452798 3.70411C0.179282 3.8147 0.000439044 4.08017 0.000732783 4.3752C0.00116304 4.67023 0.18059 4.93529 0.454377 5.04514L9.49017 8.67084C9.57651 8.70555 9.66802 8.72291 9.75938 8.72291C9.85074 8.72291 9.94225 8.70555 10.0286 8.67084L19.0644 5.04514C19.3382 4.93528 19.5178 4.67008 19.518 4.3752C19.5186 4.08017 19.3396 3.81452 19.0661 3.70411H19.0661ZM9.75934 7.22109L2.65856 4.37189L9.75934 1.5025L16.8601 4.37189L9.75934 7.22109Z" fill="#2ADACC"/>
<path d="M18.5538 11.3939L9.75922 14.5103L0.964661 11.3939C0.588307 11.2605 0.175236 11.4574 0.041842 11.8338C-0.091545 12.2101 0.105525 12.6232 0.481717 12.7566L9.51751 15.9585C9.59567 15.9862 9.67729 16.0001 9.75889 16.0001C9.8405 16.0001 9.92226 15.9862 10.0003 15.9585L19.0361 12.7566C19.4124 12.6232 19.6093 12.2101 19.4759 11.8338C19.3428 11.4576 18.9296 11.2605 18.5534 11.3939H18.5538Z" fill="#2ADACC"/>
<path d="M18.5556 7.54292L9.75917 10.6349L0.962779 7.54292C0.586131 7.41054 0.173501 7.60861 0.0410979 7.98526C-0.0913051 8.3619 0.106789 8.77453 0.483286 8.90694L9.51908 12.0831C9.59667 12.1104 9.67771 12.124 9.75874 12.124C9.83978 12.124 9.92096 12.1104 9.99841 12.0831L19.0342 8.90694C19.4108 8.77455 19.6089 8.3619 19.4764 7.98526C19.3443 7.60861 18.9318 7.41055 18.555 7.54292H18.5556Z" fill="#2ADACC"/>
</svg>
