<svg width="14" height="16" viewBox="0 0 14 16" fill="none" xmlns="http://www.w3.org/2000/svg">
<path fill-rule="evenodd" clip-rule="evenodd" d="M5.57746 1.95768L4.32261 1.61501C3.69355 1.44313 3.04604 1.82418 2.87731 2.46498L2.47912 3.97819H1.18017C0.528714 3.97819 0 4.51676 0 5.18037V14.7978C0 15.4614 0.528714 16 1.18017 16H7.4745C8.12595 16 8.65466 15.4614 8.65466 14.7978V14.5646L9.02793 13.146L13.8379 5.01549C13.8391 5.01348 13.8407 5.01107 13.8419 5.00905C14.1676 4.43441 13.9737 3.69874 13.41 3.36691L7.95898 0.161136C7.39486 -0.170673 6.67266 0.0264264 6.3469 0.6011L5.57781 1.95799L5.57746 1.95768ZM2.78839 4.77958H2.77496H1.18015C0.962953 4.77958 0.786717 4.9591 0.786717 5.18035V14.7978C0.786717 15.0191 0.962953 15.1986 1.18015 15.1986H7.47448C7.69168 15.1986 7.86791 15.0191 7.86791 14.7978V14.5189V14.5052V5.18037C7.86791 4.95912 7.69168 4.7796 7.47448 4.7796H2.78855L2.78839 4.77958ZM4.52954 7.27009C4.4052 7.19361 4.24939 7.19361 4.12519 7.27009L2.15829 8.47227C2.03948 8.54446 1.96704 8.675 1.96704 8.81575V11.2201C1.96704 11.3607 2.03948 11.4914 2.15829 11.5636L4.12519 12.7658C4.24952 12.8423 4.40534 12.8423 4.52954 12.7658L6.49644 11.5636C6.61525 11.4914 6.68769 11.3609 6.68769 11.2201V8.81575C6.68769 8.67514 6.61525 8.54446 6.49644 8.47227L4.52954 7.27009ZM4.32736 8.08077L5.90096 9.04252V10.9932L4.32736 11.955L2.75376 10.9932V9.04252L4.32736 8.08077ZM5.6598 2.80972L4.11925 2.38937C3.90956 2.33208 3.69354 2.45914 3.6373 2.67274L3.29391 3.97838H7.47439C8.12584 3.97838 8.65456 4.51696 8.65456 5.18056V11.468L10.4771 4.53997C10.5333 4.32596 10.4086 4.10632 10.1989 4.04903L5.67214 2.81357C5.66819 2.81236 5.66384 2.81115 5.6595 2.80994L5.6598 2.80972ZM9.76341 10.3501C11.1891 7.94015 13.1626 4.60406 13.1643 4.60166C13.2677 4.41127 13.2025 4.17004 13.0168 4.06068L7.56577 0.854905C7.37768 0.744345 7.13703 0.809957 7.02836 1.00155L6.36463 2.17207L10.4028 3.27443C11.0323 3.4459 11.406 4.1059 11.2376 4.74669L9.76341 10.3501Z" fill="#2ADACC"/>
</svg>
