<svg width="18" height="14" viewBox="0 0 18 14" fill="none" xmlns="http://www.w3.org/2000/svg">
<path d="M7.97732 0C6.75413 0 5.93184 0.978407 5.93184 1.96869V2.40616H0.409057C0.396215 2.40554 0.383517 2.40554 0.370675 2.40616C0.159793 2.42752 -0.00101789 2.61718 4.85107e-06 2.84378V5.68744C-0.000280493 5.86322 0.0978847 6.02222 0.249268 6.09088L0.81813 6.34372V13.5625C0.81813 13.8041 1.00133 14 1.22719 14H16.7728C16.9987 14 17.1819 13.8041 17.1819 13.5625V6.34372L17.7507 6.09088C17.9021 6.02221 18.0003 5.86321 18 5.68744V2.84378C18 2.60208 17.8169 2.40631 17.5909 2.40616H12.0682V1.96869C12.0682 0.978368 11.2459 0 10.0227 0H7.97732ZM7.97732 0.87493H10.0228C10.8451 0.87493 11.2502 1.50482 11.2502 1.96869V2.40616H6.75011V1.96869C6.75011 1.50482 7.15504 0.87493 7.97732 0.87493ZM0.818152 3.28128H17.182V5.39357L10.1441 8.53125H7.85576L0.81786 5.39357L0.818152 3.28128ZM9.00006 5.4688C8.32703 5.4688 7.7727 6.06162 7.7727 6.78124C7.7727 7.50101 8.32703 8.09382 9.00006 8.09382C9.6731 8.09382 10.2274 7.50101 10.2274 6.78124C10.2274 6.06162 9.6731 5.4688 9.00006 5.4688ZM9.00006 6.34373C9.23078 6.34373 9.40912 6.53447 9.40912 6.7812C9.40912 7.02808 9.23077 7.21882 9.00006 7.21882C8.76935 7.21882 8.591 7.02808 8.591 6.7812C8.591 6.53446 8.76935 6.34373 9.00006 6.34373ZM1.63634 6.70613L7.61279 9.37217C7.66344 9.3949 7.7178 9.4065 7.77259 9.40635H10.2273C10.2821 9.4065 10.3364 9.3949 10.3871 9.37217L16.3635 6.70613V13.1249H1.63609L1.63634 6.70613Z" fill="#2ADACC"/>
</svg>
