<svg width="18" height="20" viewBox="0 0 18 20" fill="none" xmlns="http://www.w3.org/2000/svg">
<path d="M13.0232 0.000400362C12.8851 0.00828546 12.7589 0.0813748 12.6835 0.19738C12.4229 0.588297 12.257 1.02459 12.0721 1.32483C11.8873 1.62508 11.7755 1.74595 11.5218 1.74595C11.1233 1.74595 11.0491 1.62812 10.8967 1.34517C10.7443 1.06221 10.6392 0.616092 10.3601 0.197419C10.279 0.0782305 10.1441 0.0069609 10.0001 0.0071123H7.39127C7.24721 0.00696067 7.1124 0.0782305 7.03128 0.197419C6.75211 0.616092 6.64702 1.06237 6.49463 1.34517C6.34223 1.62813 6.26823 1.74595 5.86955 1.74595C5.61586 1.74595 5.5041 1.62509 5.31924 1.32483C5.13439 1.02458 4.96849 0.588297 4.70783 0.19738C4.6179 0.0631799 4.46096 -0.0100655 4.30022 0.0070735C4.23531 0.0134423 4.17269 0.0343686 4.11688 0.0683352L1.29075 1.80704V1.80689C1.08634 1.93275 1.0225 2.20025 1.14806 2.40464C1.79146 3.47673 2.17392 4.25254 2.17392 5.22316C2.17392 5.77681 1.68381 6.69269 1.13459 7.73613C0.58521 8.77957 0 9.98147 0 11.3086C0 12.6972 0.415179 13.7864 1.07329 14.6366C1.73141 15.4867 2.6132 16.0975 3.53261 16.6266C5.37108 17.6849 7.36697 18.4536 8.3424 19.8188V19.8186C8.42414 19.9325 8.55561 20 8.69572 20C8.83584 20 8.96731 19.9325 9.04905 19.8186C10.0244 18.4534 12.0203 17.6847 13.8588 16.6265C14.7781 16.0972 15.66 15.4866 16.3182 14.6365C16.9763 13.7864 17.3914 12.6972 17.3914 11.3086C17.3914 9.98155 16.8063 8.77953 16.2569 7.73609C15.7076 6.69265 15.2175 5.77689 15.2175 5.22312C15.2175 4.25231 15.6 3.47669 16.2434 2.4046C16.3689 2.20019 16.3051 1.93271 16.1007 1.80685L13.2746 0.0681484V0.0683001C13.1997 0.0203807 13.112 -0.00327612 13.0233 0.000365192L13.0232 0.000400362ZM7.66333 0.876566H9.72852C9.8471 1.11858 9.94946 1.41306 10.1361 1.75956C10.3642 2.18293 10.8335 2.61527 11.522 2.61527C12.1379 2.61527 12.5695 2.18596 12.8196 1.77987C12.9848 1.51146 13.0886 1.28779 13.2068 1.0532L15.2992 2.33682C14.7573 3.28228 14.3481 4.16423 14.3481 5.22327C14.3481 6.1909 14.9449 7.11574 15.4827 8.1369C16.0202 9.15821 16.522 10.245 16.522 11.3088C16.522 12.5282 16.1764 13.3882 15.6252 14.1001C15.0741 14.8121 14.2983 15.3695 13.4241 15.8728C11.8334 16.7884 9.93032 17.5049 8.69585 18.8883C7.46149 17.5049 5.55843 16.7884 3.96759 15.8728C3.09336 15.3697 2.31758 14.8121 1.76654 14.1001C1.21549 13.3882 0.869718 12.5282 0.869718 11.3088C0.869718 10.2452 1.3715 9.15821 1.90904 8.1369C2.44662 7.11574 3.04363 6.1909 3.04363 5.22327C3.04363 4.16423 2.63435 3.28228 2.09254 2.33682L4.18486 1.0532C4.30314 1.28779 4.40686 1.51147 4.57215 1.77987C4.82221 2.18596 5.25379 2.61527 5.86975 2.61527C6.55818 2.61527 7.02751 2.18293 7.25558 1.75956C7.44225 1.41306 7.5446 1.11857 7.66319 0.876566H7.66333ZM8.69602 4.35398C5.33946 4.35398 2.60906 7.08364 2.60906 10.4394C2.60906 13.7952 5.3395 16.5182 8.69602 16.5182C12.0525 16.5182 14.783 13.7953 14.783 10.4394C14.783 7.0836 12.0525 4.35398 8.69602 4.35398ZM8.69602 5.21652C11.5826 5.21652 13.9134 7.55344 13.9134 10.4393C13.9134 13.3252 11.5827 15.6556 8.69602 15.6556C5.80933 15.6556 3.47863 13.3255 3.47863 10.4393C3.47863 7.55348 5.80933 5.21652 8.69602 5.21652ZM8.66888 5.43382H8.66873C8.50965 5.44398 8.36878 5.54042 8.30191 5.68509L7.10622 8.2795L4.53153 8.47648V8.47663C4.36275 8.49058 4.21763 8.60113 4.15925 8.76005C4.10102 8.91882 4.14014 9.09715 4.25979 9.21696L6.26386 11.2206L5.65928 14.0391H5.65913C5.62516 14.207 5.69295 14.3792 5.8323 14.4788C5.97166 14.5786 6.15651 14.5871 6.30451 14.5008L8.69589 13.1085L11.0873 14.5008C11.2353 14.5873 11.4201 14.5786 11.5595 14.4788C11.6988 14.3792 11.7666 14.207 11.7327 14.0389L11.1281 11.2204L13.1322 9.2168H13.132C13.2516 9.09701 13.2908 8.91883 13.2325 8.75989C13.1742 8.60113 13.029 8.49058 12.8603 8.47648L10.2856 8.2795L9.08988 5.68508C9.01466 5.52253 8.84755 5.4229 8.66876 5.43382L8.66888 5.43382ZM8.69602 6.90762L9.60631 8.87726H9.60616C9.67197 9.01996 9.80966 9.11594 9.9663 9.12853L11.8548 9.27107L10.3466 10.7788V10.779C10.24 10.8829 10.1939 11.034 10.2244 11.1796L10.6728 13.258L8.9133 12.2323C8.77864 12.1547 8.61305 12.1547 8.4784 12.2323L6.71892 13.2578L7.16733 11.1795V11.1796C7.19781 11.0339 7.15171 10.8827 7.04511 10.779L5.53688 9.27122L7.42539 9.12868V9.12853C7.58204 9.11594 7.71972 9.0198 7.78554 8.87726L8.69582 6.90761L8.69602 6.90762Z" fill="#2ADACC"/>
</svg>
