<svg width="18" height="20" viewBox="0 0 18 20" fill="none" xmlns="http://www.w3.org/2000/svg">
<path d="M0.388949 5.56909L1.9362 7.57365C1.97884 7.63394 2.04604 7.67276 2.12 7.68025C2.19396 7.68584 2.26748 7.66202 2.32085 7.61188C2.42378 7.51587 2.53347 7.42235 2.64904 7.33266C3.01722 7.04873 3.41836 6.83214 3.81841 6.69159L6.95338 10.7832L3.29583 16.819C3.18349 17.0034 3.19614 17.2353 3.32715 17.4091C3.4464 17.5672 3.59637 17.7018 3.77328 17.809C4.00795 17.9508 4.26777 18.0299 4.52434 18.0374C4.71313 18.0405 4.89076 17.9467 4.98868 17.7858L8.22585 12.4441L9.72782 14.4042L9.63695 14.4751C9.30876 14.7311 9.09981 15.0997 9.0488 15.5129C8.99734 15.9261 9.11027 16.3345 9.36626 16.663L10.1402 17.6552L9.90925 17.8353C9.7972 17.9225 9.7775 18.0841 9.86469 18.1962L10.5686 19.099C10.6106 19.1526 10.6721 19.1875 10.7396 19.1959C10.809 19.2034 10.8754 19.1851 10.9294 19.1435L15.327 15.7146C15.3807 15.6726 15.4156 15.6111 15.4239 15.5436C15.4325 15.4758 15.4136 15.4077 15.3716 15.3538L14.6673 14.4505C14.6164 14.3855 14.5408 14.3517 14.4644 14.3517C14.4092 14.3517 14.3537 14.3694 14.3066 14.406L14.0744 14.587L13.3009 13.5948C13.0449 13.2663 12.6762 13.0574 12.2631 13.0062C12.1978 12.9981 12.1332 12.9943 12.0686 12.9943C11.7232 12.9943 11.3897 13.1081 11.1129 13.3239L11.0333 13.3861C10.3832 12.5504 9.74403 11.7294 9.13337 10.9459L12.428 5.50821C12.6026 5.59173 12.7961 5.62437 12.9879 5.57835C13.2063 5.52439 13.391 5.38882 13.5081 5.19621L13.5942 5.05433C14.8675 6.07874 16.0194 7.35738 17.0998 8.97356C17.2291 9.16676 17.4602 9.22293 17.6771 9.11574C17.9007 9.0034 18.0717 8.7155 17.9698 8.42878L17.4742 7.02957C16.8822 5.35923 15.9979 3.98618 14.8579 2.92929C14.9337 2.75916 14.9647 2.5739 14.9196 2.39041C14.8656 2.17206 14.73 1.98693 14.5378 1.87092L14.5136 1.85622L14.7422 1.47879C14.8768 1.25602 14.9169 0.994451 14.8548 0.741538C14.7931 0.48937 14.6362 0.275423 14.4134 0.141043C14.2562 0.0457647 14.0821 -0.000112756 13.9103 -0.000112771C13.5806 -0.000112799 13.2583 0.167364 13.0751 0.469241L12.8332 0.868579C12.7482 0.840936 12.6616 0.822998 12.5747 0.822998C12.3214 0.822998 12.0784 0.942246 11.915 1.1506C10.9348 0.807704 9.88293 0.630391 8.76634 0.630391C8.2095 0.630391 7.63724 0.67303 7.05131 0.759048L5.58446 0.974313C5.282 1.01769 5.10762 1.30368 5.11319 1.55467C5.11819 1.79243 5.2814 1.97505 5.50903 1.99771C7.46021 2.19312 9.13202 2.61172 10.623 3.25753L10.5386 3.39692C10.3126 3.76893 10.4202 4.24092 10.7617 4.49839L7.85152 9.30144C6.63479 7.74139 5.63421 6.46011 5.06398 5.73036C5.30056 5.37938 5.61095 5.04664 5.97942 4.76271C6.09426 4.6736 6.21218 4.59141 6.3301 4.51671C6.39098 4.47775 6.43303 4.4157 6.44553 4.34424C6.45802 4.27337 6.44053 4.2 6.39597 4.1428L4.84503 2.12999C4.30864 1.43539 3.73886 1.41657 3.01735 1.39275L0.912964 1.32555C0.882233 1.31923 0.851503 1.31481 0.82136 1.31481C0.77872 1.31481 0.737842 1.32481 0.70285 1.35304C0.643302 1.40201 0.611832 1.44965 0.611832 1.52626L0.138076 3.61491C-0.0221938 4.31922 -0.147615 4.87514 0.388777 5.56963L0.388949 5.56909ZM4.5393 17.5237C4.37109 17.519 4.19803 17.4653 4.03923 17.3693C3.92072 17.2974 3.81647 17.2046 3.73501 17.0859L7.2889 11.221L7.89015 12.0056L4.5393 17.5237ZM14.4202 14.9693L14.8082 15.4672L10.816 18.5798L10.4282 18.0823L14.4202 14.9693ZM11.4737 16.615L10.9678 15.8757C10.9079 15.7877 10.926 15.667 11.0098 15.6009L11.8519 14.9342C11.9394 14.8652 12.0631 14.8783 12.1342 14.9621L12.7136 15.6481L12.672 15.6806L11.4737 16.615ZM11.146 13.9502C11.1461 13.9502 11.1461 13.9501 11.1463 13.9501C11.1464 13.9499 11.1464 13.9499 11.1464 13.9499L11.1466 13.9498L11.4292 13.7292C11.6491 13.5576 11.9238 13.4827 12.2 13.5162C12.477 13.5504 12.7239 13.6906 12.8955 13.9108L13.669 14.9029L13.1193 15.3315L12.5266 14.6301C12.3841 14.4616 12.1828 14.3747 11.9792 14.3747C11.8229 14.3747 11.6654 14.4259 11.5328 14.531L10.6904 15.198C10.3965 15.4307 10.3318 15.8558 10.5436 16.1658L11.0675 16.9317L10.5456 17.3388L9.77158 16.3465C9.59999 16.1265 9.52441 15.8527 9.55852 15.5757C9.59308 15.2987 9.73291 15.0518 9.95316 14.8802L11.146 13.9502ZM14.5987 3.39632C15.6319 4.38542 16.4421 5.65541 16.9898 7.20149L17.4855 8.6007C17.4871 8.60512 17.4852 8.61203 17.4811 8.61952C16.3698 6.96861 15.1816 5.65951 13.8635 4.60995L14.5987 3.39632ZM13.5145 0.734949C13.6462 0.51851 13.9295 0.450138 14.1472 0.579972C14.3639 0.711717 14.4336 0.995345 14.3022 1.21239L14.0741 1.5888L13.2864 1.11196L13.5145 0.734949ZM12.2913 1.49485C12.3854 1.34046 12.5874 1.29033 12.743 1.38384L14.2714 2.3099C14.3464 2.35563 14.3995 2.42782 14.42 2.51252C14.4411 2.5978 14.4275 2.68631 14.3821 2.7616L13.3274 4.50267C13.3267 4.5037 13.3253 4.50414 13.3246 4.50517C13.3218 4.5087 13.3214 4.51311 13.3189 4.51678L13.0686 4.92997C13.0227 5.00467 12.9507 5.05804 12.8657 5.07863C12.7813 5.09936 12.6922 5.08554 12.6166 5.0404L11.2402 4.20656C11.2399 4.20642 11.2398 4.20612 11.2395 4.20583C11.2392 4.20568 11.239 4.20583 11.2388 4.20568L11.0889 4.11496C10.9339 4.02085 10.8841 3.8175 10.9782 3.66251L11.227 3.25199C11.2293 3.24758 11.2333 3.24493 11.2355 3.24023C11.2361 3.23905 11.236 3.23758 11.2364 3.2364L12.2913 1.49485ZM5.64378 1.49427C5.64878 1.48794 5.65378 1.48294 5.65819 1.48236L7.12504 1.26709C8.75699 1.02727 10.269 1.14167 11.63 1.59513L10.8926 2.81231C9.35752 2.13785 7.64069 1.70113 5.64385 1.49425L5.64378 1.49427ZM11.1925 4.77849L11.9799 5.25548L8.79493 10.5117C8.58879 10.2472 8.3866 9.98785 8.18928 9.73478L11.1925 4.77849ZM7.66949 9.90375L7.66949 9.9039C8.57612 11.0668 9.58845 12.3663 10.6276 13.7023L10.1328 14.0881L4.11768 6.23799C4.11253 6.23094 4.10783 6.22403 4.10195 6.21741L3.76067 5.77219L3.72994 5.29226L4.18736 5.44341C4.24794 5.5209 4.37072 5.67793 4.53598 5.88939C4.5379 5.89203 4.53995 5.89439 4.54201 5.89718C5.11544 6.63074 6.26042 8.09672 7.66964 9.90412L7.66949 9.90375ZM0.638437 3.72829L1.06631 1.84166L2.99939 1.90562C3.74665 1.93076 4.06408 1.95958 4.43816 2.44333L5.82163 4.23894C5.769 4.27658 5.71621 4.31555 5.66474 4.35569C5.30142 4.6358 4.98486 4.95957 4.73105 5.30437C4.61312 5.15351 4.54416 5.06528 4.54416 5.06528C4.51285 5.02514 4.47021 4.99559 4.42242 4.97927L3.5302 4.68372C3.50388 4.6749 3.47624 4.67049 3.44933 4.67049C3.39346 4.67049 3.33758 4.68931 3.29244 4.72445C3.22466 4.7765 3.1876 4.85869 3.19275 4.94412L3.2523 5.87959C3.2548 5.93164 3.27362 5.98119 3.30494 6.02207L3.48962 6.26306C3.09114 6.42171 2.69737 6.64595 2.33436 6.92619C2.28231 6.96692 2.23085 7.00838 2.18056 7.04985L0.795166 5.25541C0.421985 4.77164 0.474039 4.45669 0.638423 3.72829L0.638437 3.72829Z" fill="#2ADACC"/>
</svg>
