<svg width="14" height="14" viewBox="0 0 14 14" fill="none" xmlns="http://www.w3.org/2000/svg">
<path fill-rule="evenodd" clip-rule="evenodd" d="M1.58335 0.499999C0.985052 0.499999 0.499999 0.985052 0.499999 1.58335V12.4167C0.499999 13.0149 0.985052 13.5 1.58335 13.5H12.4167C13.0149 13.5 13.5 13.0149 13.5 12.4167V1.58335C13.5 0.985052 13.0149 0.499999 12.4167 0.499999H1.58335ZM0 1.58335C0 0.708911 0.708911 0 1.58335 0H12.4167C13.2911 0 14 0.70891 14 1.58335V12.4167C14 13.2911 13.2911 14 12.4167 14H1.58335C0.708911 14 0 13.2911 0 12.4167V1.58335Z" fill="#2ADACC"/>
<path fill-rule="evenodd" clip-rule="evenodd" d="M0.166534 2.91663C0.166534 2.77855 0.278463 2.66663 0.416534 2.66663H13.5832C13.7213 2.66663 13.8332 2.77855 13.8332 2.91663C13.8332 3.0547 13.7213 3.16663 13.5832 3.16663H0.416534C0.278463 3.16663 0.166534 3.0547 0.166534 2.91663Z" fill="#2ADACC"/>
<path fill-rule="evenodd" clip-rule="evenodd" d="M1.50003 1.58337C1.50003 1.4453 1.61195 1.33337 1.75001 1.33337H3.75005C3.88811 1.33337 4.00003 1.4453 4.00003 1.58337C4.00003 1.72145 3.88811 1.83337 3.75005 1.83337H1.75001C1.61195 1.83337 1.50003 1.72145 1.50003 1.58337Z" fill="#2ADACC"/>
<path d="M9.33336 1.58341C9.33336 1.81358 9.14687 2.00008 8.9167 2.00008C8.68652 2.00008 8.50003 1.81359 8.50003 1.58341C8.50003 1.35324 8.68652 1.16675 8.9167 1.16675C9.14687 1.16675 9.33336 1.35324 9.33336 1.58341Z" fill="#2ADACC"/>
<path d="M10.9999 1.58341C10.9999 1.81358 10.8134 2.00008 10.5833 2.00008C10.3531 2.00008 10.1666 1.81359 10.1666 1.58341C10.1666 1.35324 10.3531 1.16675 10.5833 1.16675C10.8134 1.16675 10.9999 1.35324 10.9999 1.58341Z" fill="#2ADACC"/>
<path d="M12.6666 1.58341C12.6666 1.81358 12.4802 2.00008 12.25 2.00008C12.0198 2.00008 11.8333 1.81359 11.8333 1.58341C11.8333 1.35324 12.0198 1.16675 12.25 1.16675C12.4802 1.16675 12.6666 1.35324 12.6666 1.58341Z" fill="#2ADACC"/>
<path fill-rule="evenodd" clip-rule="evenodd" d="M4.92461 6.07253C5.02515 6.16907 5.02515 6.3256 4.92461 6.42214L3.45487 7.83346L4.92461 9.24477C5.02515 9.34131 5.02515 9.49784 4.92461 9.59438C4.82407 9.69092 4.66106 9.69092 4.56052 9.59438L2.90875 8.00826C2.80821 7.91172 2.80821 7.75519 2.90875 7.65865L4.56052 6.07253C4.66106 5.97599 4.82407 5.97599 4.92461 6.07253Z" fill="#2ADACC"/>
<path fill-rule="evenodd" clip-rule="evenodd" d="M9.06957 6.07253C9.16238 5.97599 9.31285 5.97599 9.40565 6.07253L10.9304 7.65865C11.0232 7.75519 11.0232 7.91172 10.9304 8.00826L9.40565 9.59438C9.31285 9.69092 9.16238 9.69092 9.06957 9.59438C8.97677 9.49784 8.97677 9.34131 9.06957 9.24477L10.4262 7.83346L9.06957 6.42214C8.97677 6.3256 8.97677 6.16907 9.06957 6.07253Z" fill="#2ADACC"/>
<path d="M7.33334 6.16663L6.33334 9.33329Z" fill="#2ADACC"/>
<path fill-rule="evenodd" clip-rule="evenodd" d="M7.49429 6.01428C7.62854 6.05989 7.69914 6.2021 7.65197 6.33192L6.50076 9.50017C6.45359 9.62998 6.30651 9.69825 6.17226 9.65263C6.038 9.60702 5.96741 9.46481 6.01458 9.33499L7.16579 6.16674C7.21296 6.03693 7.36003 5.96866 7.49429 6.01428Z" fill="#2ADACC"/>
</svg>
