<svg width="266" height="353" viewBox="0 0 266 353" fill="none" xmlns="http://www.w3.org/2000/svg">
<g clip-path="url(#clip0_18_55)">
<path d="M169.458 173L211.016 144.5" stroke="#202932"/>
<g opacity="0.87">
<path d="M160.446 206L172.963 245" stroke="#202932"/>
<g opacity="0.87">
<path opacity="0.87" d="M173.189 260.616L206.809 240.603L216.469 278.412L182.946 298.424L173.189 260.616Z" stroke="#202932" stroke-width="2"/>
<path opacity="0.87" d="M171.191 260.876L180.846 298.291L153.541 287.171L143.886 249.756L171.191 260.876Z" stroke="#202932" stroke-width="2"/>
<path opacity="0.87" d="M171.95 259.026L144.656 247.91L177.817 228.114L205.206 239.23L171.95 259.026Z" stroke="#202932" stroke-width="2"/>
</g>
</g>
<g opacity="0.87">
<g opacity="0.87">
<g opacity="0.87">
<g opacity="0.87">
<path opacity="0.87" d="M221.158 129.584L254.778 109.572L264.438 147.381L230.915 167.393L221.158 129.584Z" stroke="#202932" stroke-width="2"/>
</g>
<g opacity="0.87">
<path opacity="0.87" d="M219.16 129.845L228.815 167.26L201.51 156.14L191.855 118.725L219.16 129.845Z" stroke="#202932" stroke-width="2"/>
</g>
<g opacity="0.87">
<path opacity="0.87" d="M219.919 127.994L192.625 116.879L225.786 97.0823L253.175 108.198L219.919 127.994Z" stroke="#202932" stroke-width="2"/>
</g>
</g>
</g>
<g opacity="0.87">
<path d="M220 112L207 60" stroke="#202932"/>
</g>
<g opacity="0.87">
<path d="M183.203 30.6154L216.823 10.6033L226.483 48.4122L192.96 68.4243L183.203 30.6154Z" stroke="#202932" stroke-width="2"/>
</g>
<path opacity="0.87" d="M181.205 30.8761L190.86 68.2912L163.555 57.1712L153.9 19.7561L181.205 30.8761Z" stroke="#202932" stroke-width="2"/>
<path opacity="0.87" d="M181.964 29.0256L154.67 17.91L187.831 -1.88621L215.22 9.22984L181.964 29.0256Z" stroke="#202932" stroke-width="2"/>
</g>
<path d="M102.468 166.504C102.468 166.403 103.282 165.896 104.808 164.882C106.335 163.869 108.675 162.45 111.728 160.626C117.732 156.978 126.382 151.809 136.965 145.424L137.27 145.222L137.575 145.323C146.022 148.87 155.791 152.924 166.374 157.383L166.679 157.484L166.781 157.89C169.732 170.051 172.989 183.327 176.347 197.312L176.448 197.921L175.94 198.225C163.626 205.42 151.924 212.311 141.239 218.595L140.934 218.797L140.628 218.696C130.045 214.136 120.276 209.98 111.83 206.433L111.525 206.332L111.423 206.028C108.573 193.867 106.233 184.036 104.706 177.145C103.892 173.699 103.384 171.064 102.977 169.24C102.569 167.517 102.468 166.605 102.468 166.504C102.569 166.504 102.773 167.416 103.282 169.24C103.791 171.064 104.503 173.699 105.317 177.044C107.047 183.834 109.489 193.664 112.542 205.724C112.44 205.623 112.339 205.42 112.237 205.319C120.683 208.866 130.452 212.919 141.137 217.379C140.934 217.379 140.73 217.379 140.425 217.379C151.11 210.994 162.914 204.103 175.126 196.907C175.024 197.211 174.922 197.515 174.718 197.819C171.36 183.834 168.206 170.558 165.255 158.396C165.356 158.599 165.56 158.7 165.662 158.903C155.078 154.343 145.309 150.188 136.965 146.64C137.168 146.64 137.372 146.64 137.474 146.64C126.789 152.822 118.037 157.89 111.932 161.335C108.879 163.058 106.538 164.376 104.91 165.288C103.384 166.2 102.569 166.605 102.468 166.504Z" fill="#2ADACC"/>
<path d="M140.832 218.088C140.628 218.189 139.509 214.237 137.779 208.055C136.151 201.772 133.912 193.056 131.572 183.428C131.165 181.908 130.859 180.287 130.452 178.868C130.656 179.071 130.757 179.273 130.961 179.375C122.82 175.929 115.697 172.787 110.609 170.456C105.521 168.125 102.468 166.707 102.569 166.504C102.671 166.301 105.826 167.517 111.117 169.544C116.307 171.571 123.532 174.51 131.673 177.956L132.08 178.158L132.182 178.564C132.589 179.983 132.894 181.604 133.302 183.124C135.642 192.752 137.677 201.468 139 207.852C140.323 214.136 141.035 218.088 140.832 218.088Z" fill="#2ADACC"/>
<path d="M131.266 178.665C131.063 178.26 138.593 173.395 148.26 167.72C157.826 162.045 165.865 157.788 166.069 158.194C166.272 158.599 158.742 163.464 149.075 169.139C139.509 174.814 131.47 179.071 131.266 178.665Z" fill="#2ADACC"/>
<path d="M68.5 229L122.5 195" stroke="#202932"/>
<g opacity="0.87">
<g opacity="0.87">
<g opacity="0.87">
<g opacity="0.87">
<path opacity="0.87" d="M58.0293 313.616L91.649 293.603L101.309 331.412L67.7862 351.424L58.0293 313.616Z" stroke="#202932" stroke-width="2"/>
<path d="M95.5 313L161.5 278" stroke="#202932"/>
</g>
<g opacity="0.87">
<path opacity="0.87" d="M56.0311 313.876L65.6863 351.291L38.3817 340.171L28.7265 302.756L56.0311 313.876Z" stroke="#202932" stroke-width="2"/>
</g>
<g opacity="0.87">
<path opacity="0.87" d="M56.7899 312.026L29.4961 300.91L62.6576 281.114L90.0463 292.23L56.7899 312.026Z" stroke="#202932" stroke-width="2"/>
</g>
</g>
</g>
</g>
<g opacity="0.87">
<g opacity="0.87">
<path d="M31.0933 235.615L64.6148 215.603L74.3719 253.413L40.8504 273.424L31.0933 235.615Z" stroke="#202932" stroke-width="2"/>
</g>
<path d="M29.0955 235.877L38.7531 273.301L11.344 262.27L1.68689 224.753L29.0955 235.877Z" stroke="#202932" stroke-width="2"/>
<path d="M29.8529 234.026L2.46412 222.91L35.7205 203.114L63.0144 214.229L47.0811 223.741L29.8529 234.026Z" stroke="#202932" stroke-width="2"/>
</g>
<circle cx="160.5" cy="278.5" r="1.5" fill="#202932"/>
<circle cx="172.5" cy="245.5" r="1.5" fill="#202932"/>
<circle cx="122.5" cy="194.5" r="1.5" fill="#202932"/>
<circle cx="210.5" cy="144.5" r="1.5" fill="#202932"/>
<circle cx="220.5" cy="113.5" r="1.5" fill="#202932"/>
</g>
<defs>
<clipPath id="clip0_18_55">
<rect width="266" height="353" fill="white"/>
</clipPath>
</defs>
</svg>
