<svg width="452" height="381" viewBox="0 0 452 381" fill="none" xmlns="http://www.w3.org/2000/svg">
<g filter="url(#filter0_df_283_27)">
<path d="M236.234 315.27C227.98 315.27 219.676 314.765 211.32 313.754C168.024 308.547 128.83 290.451 100.979 262.699C73.0264 234.897 59.8098 200.726 63.7089 166.505C67.1524 136.276 83.9644 107.918 110.955 86.5865C145.743 59.1384 193.04 46.6528 240.64 52.3648C262.415 54.9934 283.278 61.2109 302.571 70.8658C321.054 80.1162 337.36 92.0458 350.981 106.351C364.502 120.555 374.68 136.327 381.162 153.109C387.846 170.498 390.226 188.089 388.251 205.377C386.58 219.985 381.82 233.937 374.123 246.878C366.679 259.363 356.704 270.585 344.398 280.29C327.84 293.383 307.23 303.341 284.797 309.154C269.099 313.248 252.844 315.27 236.234 315.27ZM218.005 53.5274C178.861 53.5274 141.338 65.8614 112.474 88.6085C86.0406 109.485 69.583 137.237 66.1902 166.808C62.3417 200.221 75.3558 233.634 102.701 260.93C130.197 288.277 168.835 306.172 211.574 311.277C260.946 317.191 308.8 305.211 342.829 278.37C354.881 268.866 364.704 257.847 371.946 245.664C379.44 233.027 384.099 219.429 385.719 205.175C387.644 188.241 385.314 171.054 378.782 154.069C372.452 137.59 362.476 122.122 349.158 108.12C335.739 94.0172 319.687 82.2393 301.457 73.1405C282.366 63.6372 261.807 57.4703 240.336 54.8923C232.842 53.9824 225.398 53.5274 218.005 53.5274Z" fill="#2ADACC"/>
</g>
<path d="M236.234 315.27C227.98 315.27 219.676 314.765 211.32 313.754C168.024 308.547 128.83 290.451 100.979 262.699C73.0264 234.897 59.8098 200.726 63.7089 166.505C67.1524 136.276 83.9644 107.918 110.955 86.5865C145.743 59.1384 193.04 46.6528 240.64 52.3648C262.415 54.9934 283.278 61.2109 302.571 70.8658C321.054 80.1162 337.36 92.0458 350.981 106.351C364.502 120.555 374.68 136.327 381.162 153.109C387.846 170.498 390.226 188.089 388.251 205.377C386.58 219.985 381.82 233.937 374.123 246.878C366.679 259.363 356.704 270.585 344.398 280.29C327.84 293.383 307.23 303.341 284.797 309.154C269.099 313.248 252.844 315.27 236.234 315.27ZM218.005 53.5274C178.861 53.5274 141.338 65.8614 112.474 88.6085C86.0406 109.485 69.583 137.237 66.1902 166.808C62.3417 200.221 75.3558 233.634 102.701 260.93C130.197 288.277 168.835 306.172 211.574 311.277C260.946 317.191 308.8 305.211 342.829 278.37C354.881 268.866 364.704 257.847 371.946 245.664C379.44 233.027 384.099 219.429 385.719 205.175C387.644 188.241 385.314 171.054 378.782 154.069C372.452 137.59 362.476 122.122 349.158 108.12C335.739 94.0172 319.687 82.2393 301.457 73.1405C282.366 63.6372 261.807 57.4703 240.336 54.8923C232.842 53.9824 225.398 53.5274 218.005 53.5274Z" fill="url(#paint0_linear_283_27)"/>
<g filter="url(#filter1_df_283_27)">
<path d="M236.234 315.27C227.98 315.27 219.676 314.765 211.32 313.754C168.024 308.547 128.83 290.451 100.979 262.699C73.0264 234.897 59.8098 200.726 63.7089 166.505C67.1524 136.276 83.9644 107.918 110.955 86.5865C145.743 59.1384 193.04 46.6528 240.64 52.3648C262.415 54.9934 283.278 61.2109 302.571 70.8658C321.054 80.1162 337.36 92.0458 350.981 106.351C364.502 120.555 374.68 136.327 381.162 153.109C387.846 170.498 390.226 188.089 388.251 205.377C386.58 219.985 381.82 233.937 374.123 246.878C366.679 259.363 356.704 270.585 344.398 280.29C327.84 293.383 307.23 303.341 284.797 309.154C269.099 313.248 252.844 315.27 236.234 315.27ZM218.005 53.5274C178.861 53.5274 141.338 65.8614 112.474 88.6085C86.0406 109.485 69.583 137.237 66.1902 166.808C62.3417 200.221 75.3558 233.634 102.701 260.93C130.197 288.277 168.835 306.172 211.574 311.277C260.946 317.191 308.8 305.211 342.829 278.37C354.881 268.866 364.704 257.847 371.946 245.664C379.44 233.027 384.099 219.429 385.719 205.175C387.644 188.241 385.314 171.054 378.782 154.069C372.452 137.59 362.476 122.122 349.158 108.12C335.739 94.0172 319.687 82.2393 301.457 73.1405C282.366 63.6372 261.807 57.4703 240.336 54.8923C232.842 53.9824 225.398 53.5274 218.005 53.5274Z" fill="#2ADACC"/>
</g>
<path d="M236.234 315.27C227.98 315.27 219.676 314.765 211.32 313.754C168.024 308.547 128.83 290.451 100.979 262.699C73.0264 234.897 59.8098 200.726 63.7089 166.505C67.1524 136.276 83.9644 107.918 110.955 86.5865C145.743 59.1384 193.04 46.6528 240.64 52.3648C262.415 54.9934 283.278 61.2109 302.571 70.8658C321.054 80.1162 337.36 92.0458 350.981 106.351C364.502 120.555 374.68 136.327 381.162 153.109C387.846 170.498 390.226 188.089 388.251 205.377C386.58 219.985 381.82 233.937 374.123 246.878C366.679 259.363 356.704 270.585 344.398 280.29C327.84 293.383 307.23 303.341 284.797 309.154C269.099 313.248 252.844 315.27 236.234 315.27ZM218.005 53.5274C178.861 53.5274 141.338 65.8614 112.474 88.6085C86.0406 109.485 69.583 137.237 66.1902 166.808C62.3417 200.221 75.3558 233.634 102.701 260.93C130.197 288.277 168.835 306.172 211.574 311.277C260.946 317.191 308.8 305.211 342.829 278.37C354.881 268.866 364.704 257.847 371.946 245.664C379.44 233.027 384.099 219.429 385.719 205.175C387.644 188.241 385.314 171.054 378.782 154.069C372.452 137.59 362.476 122.122 349.158 108.12C335.739 94.0172 319.687 82.2393 301.457 73.1405C282.366 63.6372 261.807 57.4703 240.336 54.8923C232.842 53.9824 225.398 53.5274 218.005 53.5274Z" fill="url(#paint1_linear_283_27)"/>
<g filter="url(#filter2_f_283_27)">
<path d="M314.121 215.879C325.652 166.106 294.651 116.41 244.879 104.879C195.107 93.3478 145.41 124.348 133.879 174.121C122.348 223.893 153.349 273.59 203.121 285.121C252.893 296.652 302.59 265.651 314.121 215.879Z" fill="#0C1013"/>
</g>
<g filter="url(#filter3_b_283_27)">
<path d="M244.766 105.366C294.27 116.835 325.103 166.263 313.634 215.766C302.165 265.27 252.737 296.103 203.234 284.634C153.73 273.165 122.897 223.737 134.366 174.234C145.835 124.731 195.263 93.8974 244.766 105.366Z" stroke="#2ADACC"/>
</g>
<path d="M224.093 276.803H224.092C173.195 276.895 131.993 237.856 131.993 189.873C131.993 175.465 135.663 161.884 142.27 149.955L142.272 149.952C157.508 122.05 188.451 102.943 224.001 102.943C262.123 102.943 294.808 124.806 308.758 156.01L308.76 156.014C313.531 166.474 316.101 177.852 316.101 189.873C316.101 237.856 274.898 276.803 224.093 276.803Z" stroke="#2ADACC"/>
<path d="M300.499 193.435L300.498 193.455V193.474V193.645C298.475 231.849 265.022 262.216 224.093 262.216C183.071 262.216 149.71 231.849 147.688 193.645V193.474V193.455L147.686 193.435C147.595 192.258 147.595 191.077 147.595 189.873C147.595 150.014 181.782 117.531 224.092 117.53C266.313 117.622 300.59 150.016 300.59 189.873C300.59 191.077 300.59 192.258 300.499 193.435Z" stroke="#2ADACC"/>
<path d="M298.573 180.944L298.574 180.947C299.581 184.975 300.222 189.185 300.405 193.484V193.645C298.383 231.849 264.93 262.216 224 262.216C182.979 262.216 149.618 231.849 147.595 193.645V193.489C147.963 187.35 149.063 181.488 150.894 175.81C160.519 146.389 189.587 124.916 224 124.916C260.343 124.916 290.783 148.867 298.573 180.944Z" stroke="#2ADACC"/>
<path d="M241.819 241.205C242.278 241.403 242.278 241.403 242.278 241.403L242.278 241.402L242.279 241.4L242.282 241.394L242.292 241.369L242.334 241.272C242.37 241.187 242.423 241.062 242.491 240.902C242.627 240.58 242.821 240.116 243.057 239.543C243.529 238.398 244.165 236.818 244.825 235.081C246.136 231.631 247.563 227.501 247.944 224.945C248.302 222.982 248.834 221.648 249.366 220.581C250.118 219.34 251.443 218.521 252.833 218.439C254.684 218.346 257.623 218.161 260.459 217.883C263.277 217.607 266.055 217.234 267.546 216.754L267.546 216.754L267.554 216.751C268.661 216.373 269.359 215.573 269.776 214.624C270.187 213.687 270.332 212.592 270.35 211.555C270.386 209.509 269.925 207.547 269.82 207.126C269.822 207.118 269.825 207.099 269.835 207.07C269.859 207.001 269.906 206.905 269.985 206.779C270.143 206.528 270.382 206.232 270.66 205.902C270.725 205.824 270.793 205.745 270.861 205.664C271.075 205.413 271.297 205.151 271.491 204.902C271.742 204.58 271.988 204.226 272.109 203.893C272.248 203.509 272.216 203.155 272.062 202.84C271.923 202.554 271.693 202.325 271.491 202.14C271.398 202.056 271.308 201.977 271.221 201.901C270.886 201.608 270.601 201.359 270.424 201.005L270.417 200.991L270.409 200.977C270.339 200.857 270.341 200.77 270.396 200.648C270.466 200.491 270.619 200.307 270.857 200.075C270.934 200.001 271.027 199.914 271.125 199.822C271.289 199.67 271.468 199.503 271.611 199.355C271.85 199.105 272.11 198.787 272.214 198.406C272.405 197.703 272.138 197.023 271.861 196.504C271.719 196.238 271.557 195.985 271.416 195.765L271.413 195.759C271.265 195.529 271.149 195.345 271.071 195.189C270.906 194.859 270.777 194.477 270.689 194.167C270.668 194.093 270.649 194.024 270.633 193.962C270.692 193.92 270.759 193.872 270.833 193.818C271.125 193.607 271.531 193.311 271.984 192.975C272.884 192.305 273.983 191.464 274.738 190.803L274.744 190.798L274.751 190.792C275.548 190.045 275.906 189.363 276.048 188.794C276.118 188.512 276.133 188.271 276.129 188.081C276.127 187.987 276.121 187.907 276.116 187.847L276.114 187.82C276.113 187.802 276.111 187.788 276.11 187.774C276.109 187.758 276.109 187.751 276.109 187.75C276.109 187.75 276.109 187.75 276.109 187.75C276.109 187.587 276.031 187.473 276.015 187.448L276.013 187.447C275.985 187.404 275.954 187.37 275.932 187.347C275.887 187.299 275.832 187.251 275.778 187.207C275.668 187.115 275.517 187.002 275.34 186.874C274.985 186.618 274.497 186.285 273.959 185.926C272.881 185.207 271.585 184.374 270.706 183.819L270.704 183.818C269.992 183.372 269.287 182.843 268.675 182.232C268.563 182.113 268.446 181.987 268.323 181.856C267.73 181.223 267.022 180.468 266.361 179.712C265.551 178.787 264.849 177.902 264.51 177.267L264.51 177.267L264.506 177.259C264.345 176.971 264.269 176.466 264.303 175.772C264.335 175.098 264.467 174.322 264.648 173.554L264.648 173.553C265.324 170.657 264.841 167.66 263.295 165.147C263.295 165.146 263.294 165.146 263.294 165.146L260.987 161.362L260.982 161.353L260.976 161.345C259.9 159.73 259.087 157.928 258.451 156.021C257.876 154.203 256.639 151.639 254.267 149.267L254.262 149.263C252.264 147.313 248.589 145.904 244.412 144.944C240.219 143.98 235.422 143.446 231.067 143.305C230.824 143.263 230.576 143.201 230.307 143.134L230.298 143.132C230.027 143.064 229.734 142.991 229.437 142.942C228.799 142.835 228.146 142.717 227.485 142.598C226.166 142.36 224.816 142.116 223.487 141.946C221.481 141.69 219.462 141.591 217.544 141.927L217.544 141.926L217.53 141.929C212.066 143.041 206.397 144.726 202.132 149.086L202.124 149.094L202.117 149.101C201.761 149.497 201.295 149.786 200.751 150.099C200.699 150.129 200.645 150.159 200.591 150.19C200.107 150.466 199.567 150.774 199.108 151.188C198.298 151.916 197.372 152.301 196.379 152.712C196.333 152.732 196.286 152.751 196.238 152.771C195.216 153.196 194.124 153.67 193.255 154.64C192.962 154.963 192.732 155.44 192.524 155.916C192.441 156.108 192.36 156.301 192.279 156.497C192.141 156.827 192 157.166 191.834 157.523C191.313 158.644 190.655 159.693 189.604 160.259C185.61 162.395 182.598 164.828 181.523 166.096C181.128 166.542 180.787 167.054 180.467 167.547C180.438 167.591 180.409 167.635 180.381 167.678C180.084 168.135 179.799 168.573 179.48 168.973C179.347 169.139 179.052 169.379 178.611 169.682C178.183 169.975 177.666 170.295 177.127 170.625C177.079 170.654 177.031 170.684 176.982 170.714C176.494 171.012 175.996 171.317 175.557 171.607C175.08 171.921 174.639 172.239 174.346 172.532C173.237 173.641 171.878 176.276 172.446 179.307C172.452 179.479 172.481 179.62 172.504 179.722C172.533 179.852 172.538 179.879 172.538 179.902V179.964L172.553 180.024C172.65 180.41 172.793 180.87 172.944 181.345C172.962 181.404 172.981 181.463 173 181.522C173.136 181.948 173.275 182.388 173.4 182.822C173.542 183.316 173.66 183.787 173.726 184.201C173.793 184.624 173.798 184.94 173.751 185.145L173.749 185.152L173.748 185.159C173.728 185.261 173.682 185.434 173.622 185.666C173.317 186.834 172.619 189.509 172.688 192.286C172.73 193.963 173.048 195.725 173.92 197.266C174.798 198.818 176.221 200.114 178.409 200.869C179.207 201.164 179.739 201.57 180.097 202.073C180.458 202.58 180.67 203.225 180.757 204.043C180.857 205.418 181.345 206.863 181.997 208.354L182.004 208.371L182.013 208.387C182.465 209.241 183.087 209.909 183.597 210.37C183.853 210.602 184.085 210.785 184.257 210.915C184.343 210.98 184.415 211.032 184.465 211.069C184.475 211.076 184.483 211.082 184.49 211.087C184.502 211.096 184.511 211.103 184.518 211.108C184.764 211.354 185.461 212.051 186.123 212.736C186.462 213.087 186.79 213.432 187.043 213.71C187.17 213.85 187.275 213.969 187.352 214.062C187.411 214.134 187.44 214.174 187.451 214.189C187.456 214.196 187.457 214.198 187.455 214.193L187.46 214.204L187.466 214.214C188.213 215.551 188.724 216.724 189.16 217.772C189.226 217.931 189.29 218.087 189.354 218.241C189.707 219.097 190.032 219.886 190.418 220.591C190.88 221.437 191.439 222.184 192.265 222.839C193.086 223.491 194.148 224.034 195.594 224.508L195.6 224.51C197.035 224.958 198.379 225.586 199.634 226.392L199.645 226.399L199.656 226.406C201.627 227.532 203.51 228.287 204.844 228.668L204.852 228.67L204.861 228.672C205.119 228.737 205.32 228.863 205.551 229.095L206.076 229.62L206.366 228.936C206.555 228.487 206.745 228.036 206.935 227.584C207.764 225.61 208.599 223.623 209.495 221.756L209.651 221.431L209.391 221.18C206.983 218.861 205.269 215.494 204.478 211.867C203.721 208.397 203.817 204.728 204.923 201.559C208.939 205.503 210.978 212.361 210.027 218.322L210.971 218.62C212.628 215.214 214.377 211.9 216.218 208.678L216.4 208.36L216.151 208.09C211.765 203.355 210.206 195.063 212.741 188.916C216.486 192.838 218.259 199.419 217.14 205.102L218.052 205.467C218.246 205.162 218.44 204.857 218.633 204.554C220.364 201.828 222.033 199.201 223.85 196.724L224.041 196.463L223.881 196.181C220.641 190.489 221.255 182.006 225.23 176.599C227.755 180.939 228.016 186.999 226.118 192.004L226.983 192.485C228.185 190.913 229.375 189.357 230.655 187.894L230.746 187.79L230.771 187.653C231.49 183.608 233.652 179.655 236.62 176.518C239.422 173.555 242.917 171.348 246.538 170.471C245.319 178.277 238.711 185.692 231.34 187.823L231.191 187.866L231.093 187.986L231.09 187.989C229.799 189.557 228.503 191.131 227.206 192.798L227.195 192.812L227.185 192.827C227.106 192.945 227.027 193.045 226.934 193.162C226.842 193.276 226.737 193.407 226.631 193.566L227.333 194.253C231.898 191.067 238.263 189.869 243.338 191.481C238.866 196.435 230.732 198.706 224.612 196.782L224.267 196.674L224.056 196.967C221.923 199.935 219.884 203.086 217.94 206.326L218.648 206.999C223.663 203.626 230.832 202.759 236.056 204.981C231.253 209.482 223.033 210.977 217.076 208.612L216.676 208.453L216.46 208.825C214.513 212.161 212.66 215.682 210.9 219.387L211.657 219.998C216.499 216.28 223.661 214.984 229.124 217.017C224.486 221.704 216.353 223.629 210.316 221.529L209.885 221.38L209.697 221.795C208.31 224.844 206.922 227.991 205.625 231.233L205.619 231.248L205.614 231.264C204.353 235.139 201.887 241.821 198.916 245.76C177.395 236.248 162.175 215.003 161.628 189.955L241.819 241.205ZM241.819 241.205L242.278 241.403L242.26 241.444L242.236 241.481L242.235 241.481L242.235 241.481L242.235 241.482L242.235 241.482L242.235 241.482M241.819 241.205L242.235 241.482M242.235 241.482L242.235 241.482L242.232 241.487C242.228 241.492 242.222 241.502 242.214 241.515C242.198 241.542 242.173 241.584 242.142 241.64C242.081 241.753 241.998 241.919 241.914 242.129L241.909 242.14L241.905 242.15C241.683 242.637 241.437 243.285 241.259 243.886C241.171 244.186 241.101 244.467 241.059 244.705C241.018 244.94 241.01 245.098 241.019 245.183C241.05 245.316 241.165 245.566 241.404 245.924C241.641 246.28 241.971 246.7 242.375 247.148L242.387 247.162L242.398 247.176C242.899 247.82 243.771 248.054 244.602 247.752L244.608 247.749C269.245 239.14 287.014 215.234 286.465 187.298C285.732 152.494 256.79 125.018 221.894 126.208C187.823 127.399 160.896 155.884 161.628 189.955L242.235 241.482Z" stroke="#2ADACC"/>
<g filter="url(#filter4_df_283_27)">
<path d="M107.359 318C99.2065 318 92.0158 317.141 85.8886 315.371C76.8243 312.692 70.4944 308.143 67.051 301.723C58.7463 286.255 68.5195 261.992 94.5477 233.431C120.272 205.175 158.96 175.907 203.37 150.986C275.175 110.698 347.032 90.5799 382.276 100.791C391.34 103.419 397.67 108.019 401.114 114.388C409.418 129.856 399.645 154.12 373.617 182.68C347.892 210.937 309.205 240.205 264.795 265.126C205.497 298.438 146.098 318 107.359 318ZM360.957 100.74C346.272 100.74 328.194 103.571 308.04 109.182C275.783 118.129 240.032 133.344 204.636 153.21C160.429 177.979 121.994 207.095 96.4214 235.15C84.0656 248.748 75.3557 261.334 70.6463 272.556C65.8357 283.93 65.3799 293.383 69.2791 300.561C72.3681 306.323 78.1915 310.519 86.5975 312.945C103.004 317.697 129.134 315.624 160.125 307.031C192.381 298.084 228.132 282.868 263.529 263.003C307.736 238.234 346.171 209.117 371.743 181.063C384.099 167.465 392.809 154.878 397.518 143.656C402.329 132.283 402.785 122.83 398.885 115.652C395.796 109.89 389.973 105.694 381.567 103.268C375.845 101.549 368.907 100.74 360.957 100.74Z" fill="#2ADACC"/>
</g>
<path d="M107.359 318C99.2065 318 92.0158 317.141 85.8886 315.371C76.8243 312.692 70.4944 308.143 67.051 301.723C58.7463 286.255 68.5195 261.992 94.5477 233.431C120.272 205.175 158.96 175.907 203.37 150.986C275.175 110.698 347.032 90.5799 382.276 100.791C391.34 103.419 397.67 108.019 401.114 114.388C409.418 129.856 399.645 154.12 373.617 182.68C347.892 210.937 309.205 240.205 264.795 265.126C205.497 298.438 146.098 318 107.359 318ZM360.957 100.74C346.272 100.74 328.194 103.571 308.04 109.182C275.783 118.129 240.032 133.344 204.636 153.21C160.429 177.979 121.994 207.095 96.4214 235.15C84.0656 248.748 75.3557 261.334 70.6463 272.556C65.8357 283.93 65.3799 293.383 69.2791 300.561C72.3681 306.323 78.1915 310.519 86.5975 312.945C103.004 317.697 129.134 315.624 160.125 307.031C192.381 298.084 228.132 282.868 263.529 263.003C307.736 238.234 346.171 209.117 371.743 181.063C384.099 167.465 392.809 154.878 397.518 143.656C402.329 132.283 402.785 122.83 398.885 115.652C395.796 109.89 389.973 105.694 381.567 103.268C375.845 101.549 368.907 100.74 360.957 100.74Z" fill="url(#paint2_linear_283_27)"/>
<defs>
<filter id="filter0_df_283_27" x="33.0392" y="21.0073" width="395.885" height="334.263" filterUnits="userSpaceOnUse" color-interpolation-filters="sRGB">
<feFlood flood-opacity="0" result="BackgroundImageFix"/>
<feColorMatrix in="SourceAlpha" type="matrix" values="0 0 0 0 0 0 0 0 0 0 0 0 0 0 0 0 0 0 127 0" result="hardAlpha"/>
<feOffset dx="20" dy="20"/>
<feGaussianBlur stdDeviation="10"/>
<feComposite in2="hardAlpha" operator="out"/>
<feColorMatrix type="matrix" values="0 0 0 0 0.164706 0 0 0 0 0.854902 0 0 0 0 0.8 0 0 0 1 0"/>
<feBlend mode="normal" in2="BackgroundImageFix" result="effect1_dropShadow_283_27"/>
<feBlend mode="normal" in="SourceGraphic" in2="effect1_dropShadow_283_27" result="shape"/>
<feGaussianBlur stdDeviation="15" result="effect2_foregroundBlur_283_27"/>
</filter>
<filter id="filter1_df_283_27" x="33.0392" y="21.0073" width="395.885" height="334.263" filterUnits="userSpaceOnUse" color-interpolation-filters="sRGB">
<feFlood flood-opacity="0" result="BackgroundImageFix"/>
<feColorMatrix in="SourceAlpha" type="matrix" values="0 0 0 0 0 0 0 0 0 0 0 0 0 0 0 0 0 0 127 0" result="hardAlpha"/>
<feOffset dx="20" dy="20"/>
<feGaussianBlur stdDeviation="10"/>
<feComposite in2="hardAlpha" operator="out"/>
<feColorMatrix type="matrix" values="0 0 0 0 0.164706 0 0 0 0 0.854902 0 0 0 0 0.8 0 0 0 1 0"/>
<feBlend mode="normal" in2="BackgroundImageFix" result="effect1_dropShadow_283_27"/>
<feBlend mode="normal" in="SourceGraphic" in2="effect1_dropShadow_283_27" result="shape"/>
<feGaussianBlur stdDeviation="15" result="effect2_foregroundBlur_283_27"/>
</filter>
<filter id="filter2_f_283_27" x="91.4714" y="62.4714" width="265.057" height="265.057" filterUnits="userSpaceOnUse" color-interpolation-filters="sRGB">
<feFlood flood-opacity="0" result="BackgroundImageFix"/>
<feBlend mode="normal" in="SourceGraphic" in2="BackgroundImageFix" result="shape"/>
<feGaussianBlur stdDeviation="20" result="effect1_foregroundBlur_283_27"/>
</filter>
<filter id="filter3_b_283_27" x="91.4714" y="62.4717" width="265.057" height="265.057" filterUnits="userSpaceOnUse" color-interpolation-filters="sRGB">
<feFlood flood-opacity="0" result="BackgroundImageFix"/>
<feGaussianBlur in="BackgroundImage" stdDeviation="20"/>
<feComposite in2="SourceAlpha" operator="in" result="effect1_backgroundBlur_283_27"/>
<feBlend mode="normal" in="SourceGraphic" in2="effect1_backgroundBlur_283_27" result="shape"/>
</filter>
<filter id="filter4_df_283_27" x="34.1672" y="68.1619" width="399.83" height="279.838" filterUnits="userSpaceOnUse" color-interpolation-filters="sRGB">
<feFlood flood-opacity="0" result="BackgroundImageFix"/>
<feColorMatrix in="SourceAlpha" type="matrix" values="0 0 0 0 0 0 0 0 0 0 0 0 0 0 0 0 0 0 127 0" result="hardAlpha"/>
<feOffset dy="4"/>
<feGaussianBlur stdDeviation="2"/>
<feComposite in2="hardAlpha" operator="out"/>
<feColorMatrix type="matrix" values="0 0 0 0 0.164706 0 0 0 0 0.854902 0 0 0 0 0.8 0 0 0 1 0"/>
<feBlend mode="normal" in2="BackgroundImageFix" result="effect1_dropShadow_283_27"/>
<feBlend mode="normal" in="SourceGraphic" in2="effect1_dropShadow_283_27" result="shape"/>
<feGaussianBlur stdDeviation="15" result="effect2_foregroundBlur_283_27"/>
</filter>
<linearGradient id="paint0_linear_283_27" x1="136" y1="275" x2="271.36" y2="60.5239" gradientUnits="userSpaceOnUse">
<stop offset="0.0611272" stop-color="#00090F" stop-opacity="0"/>
<stop offset="0.814305" stop-color="#2ADACC"/>
<stop offset="1" stop-color="#C3F7F3"/>
</linearGradient>
<linearGradient id="paint1_linear_283_27" x1="136" y1="275" x2="271.36" y2="60.5239" gradientUnits="userSpaceOnUse">
<stop offset="0.0611272" stop-color="#00090F" stop-opacity="0"/>
<stop offset="0.814305" stop-color="#2ADACC"/>
<stop offset="1" stop-color="#C3F7F3"/>
</linearGradient>
<linearGradient id="paint2_linear_283_27" x1="207.5" y1="180" x2="257.989" y2="271.831" gradientUnits="userSpaceOnUse">
<stop stop-color="#00090F" stop-opacity="0"/>
<stop offset="0.784108" stop-color="#2ADACC"/>
<stop offset="1" stop-color="#DAF8F6"/>
</linearGradient>
</defs>
</svg>
