<svg width="404" height="352" viewBox="0 0 404 352" fill="none" xmlns="http://www.w3.org/2000/svg">
<g clip-path="url(#clip0_32_25)">
<g filter="url(#filter0_df_32_25)">
<path d="M202.234 298.27C193.98 298.27 185.676 297.765 177.32 296.754C134.024 291.547 94.8301 273.451 66.9789 245.699C39.0264 217.897 25.8098 183.726 29.7089 149.505C33.1524 119.276 49.9644 90.9182 76.9547 69.5865C111.743 42.1384 159.04 29.6528 206.64 35.3648C228.415 37.9934 249.278 44.2109 268.571 53.8658C287.054 63.1162 303.36 75.0458 316.981 89.3512C330.502 103.555 340.68 119.327 347.162 136.109C353.846 153.498 356.226 171.089 354.251 188.377C352.58 202.985 347.82 216.937 340.123 229.878C332.679 242.363 322.704 253.585 310.398 263.29C293.84 276.383 273.23 286.341 250.797 292.154C235.099 296.248 218.844 298.27 202.234 298.27ZM184.005 36.5274C144.861 36.5274 107.338 48.8614 78.4739 71.6085C52.0406 92.4852 35.583 120.237 32.1902 149.808C28.3417 183.221 41.3558 216.634 68.7006 243.93C96.1974 271.277 134.835 289.172 177.574 294.277C226.946 300.191 274.799 288.211 308.829 261.37C320.881 251.866 330.704 240.847 337.946 228.664C345.44 216.027 350.099 202.429 351.719 188.175C353.644 171.241 351.314 154.054 344.782 137.069C338.452 120.59 328.476 105.122 315.158 91.1204C301.739 77.0172 285.687 65.2393 267.457 56.1405C248.366 46.6372 227.807 40.4703 206.336 37.8923C198.842 36.9824 191.398 36.5274 184.005 36.5274Z" fill="#2ADACC"/>
</g>
<path d="M202.234 298.27C193.98 298.27 185.676 297.765 177.32 296.754C134.024 291.547 94.8301 273.451 66.9789 245.699C39.0264 217.897 25.8098 183.726 29.7089 149.505C33.1524 119.276 49.9644 90.9182 76.9547 69.5865C111.743 42.1384 159.04 29.6528 206.64 35.3648C228.415 37.9934 249.278 44.2109 268.571 53.8658C287.054 63.1162 303.36 75.0458 316.981 89.3512C330.502 103.555 340.68 119.327 347.162 136.109C353.846 153.498 356.226 171.089 354.251 188.377C352.58 202.985 347.82 216.937 340.123 229.878C332.679 242.363 322.704 253.585 310.398 263.29C293.84 276.383 273.23 286.341 250.797 292.154C235.099 296.248 218.844 298.27 202.234 298.27ZM184.005 36.5274C144.861 36.5274 107.338 48.8614 78.4739 71.6085C52.0406 92.4852 35.583 120.237 32.1902 149.808C28.3417 183.221 41.3558 216.634 68.7006 243.93C96.1974 271.277 134.835 289.172 177.574 294.277C226.946 300.191 274.799 288.211 308.829 261.37C320.881 251.866 330.704 240.847 337.946 228.664C345.44 216.027 350.099 202.429 351.719 188.175C353.644 171.241 351.314 154.054 344.782 137.069C338.452 120.59 328.476 105.122 315.158 91.1204C301.739 77.0172 285.687 65.2393 267.457 56.1405C248.366 46.6372 227.807 40.4703 206.336 37.8923C198.842 36.9824 191.398 36.5274 184.005 36.5274Z" fill="url(#paint0_linear_32_25)"/>
<g filter="url(#filter1_df_32_25)">
<path d="M202.234 298.27C193.98 298.27 185.676 297.765 177.32 296.754C134.024 291.547 94.8301 273.451 66.9789 245.699C39.0264 217.897 25.8098 183.726 29.7089 149.505C33.1524 119.276 49.9644 90.9182 76.9547 69.5865C111.743 42.1384 159.04 29.6528 206.64 35.3648C228.415 37.9934 249.278 44.2109 268.571 53.8658C287.054 63.1162 303.36 75.0458 316.981 89.3512C330.502 103.555 340.68 119.327 347.162 136.109C353.846 153.498 356.226 171.089 354.251 188.377C352.58 202.985 347.82 216.937 340.123 229.878C332.679 242.363 322.704 253.585 310.398 263.29C293.84 276.383 273.23 286.341 250.797 292.154C235.099 296.248 218.844 298.27 202.234 298.27ZM184.005 36.5274C144.861 36.5274 107.338 48.8614 78.4739 71.6085C52.0406 92.4852 35.583 120.237 32.1902 149.808C28.3417 183.221 41.3558 216.634 68.7006 243.93C96.1974 271.277 134.835 289.172 177.574 294.277C226.946 300.191 274.799 288.211 308.829 261.37C320.881 251.866 330.704 240.847 337.946 228.664C345.44 216.027 350.099 202.429 351.719 188.175C353.644 171.241 351.314 154.054 344.782 137.069C338.452 120.59 328.476 105.122 315.158 91.1204C301.739 77.0172 285.687 65.2393 267.457 56.1405C248.366 46.6372 227.807 40.4703 206.336 37.8923C198.842 36.9824 191.398 36.5274 184.005 36.5274Z" fill="#2ADACC"/>
</g>
<path d="M202.234 298.27C193.98 298.27 185.676 297.765 177.32 296.754C134.024 291.547 94.8301 273.451 66.9789 245.699C39.0264 217.897 25.8098 183.726 29.7089 149.505C33.1524 119.276 49.9644 90.9182 76.9547 69.5865C111.743 42.1384 159.04 29.6528 206.64 35.3648C228.415 37.9934 249.278 44.2109 268.571 53.8658C287.054 63.1162 303.36 75.0458 316.981 89.3512C330.502 103.555 340.68 119.327 347.162 136.109C353.846 153.498 356.226 171.089 354.251 188.377C352.58 202.985 347.82 216.937 340.123 229.878C332.679 242.363 322.704 253.585 310.398 263.29C293.84 276.383 273.23 286.341 250.797 292.154C235.099 296.248 218.844 298.27 202.234 298.27ZM184.005 36.5274C144.861 36.5274 107.338 48.8614 78.4739 71.6085C52.0406 92.4852 35.583 120.237 32.1902 149.808C28.3417 183.221 41.3558 216.634 68.7006 243.93C96.1974 271.277 134.835 289.172 177.574 294.277C226.946 300.191 274.799 288.211 308.829 261.37C320.881 251.866 330.704 240.847 337.946 228.664C345.44 216.027 350.099 202.429 351.719 188.175C353.644 171.241 351.314 154.054 344.782 137.069C338.452 120.59 328.476 105.122 315.158 91.1204C301.739 77.0172 285.687 65.2393 267.457 56.1405C248.366 46.6372 227.807 40.4703 206.336 37.8923C198.842 36.9824 191.398 36.5274 184.005 36.5274Z" fill="url(#paint1_linear_32_25)"/>
<g filter="url(#filter2_f_32_25)">
<path d="M280.121 198.879C291.652 149.106 260.651 99.4101 210.879 87.8789C161.107 76.3478 111.41 107.348 99.879 157.121C88.3478 206.893 119.349 256.59 169.121 268.121C218.893 279.652 268.59 248.651 280.121 198.879Z" fill="#0C1013"/>
</g>
<g filter="url(#filter3_b_32_25)">
<path d="M210.766 88.3661C260.27 99.8349 291.103 149.263 279.634 198.766C268.165 248.27 218.737 279.103 169.234 267.634C119.73 256.165 88.8973 206.737 100.366 157.234C111.835 107.73 161.263 76.8973 210.766 88.3661Z" stroke="#2ADACC"/>
</g>
<path d="M190.093 259.803H190.092C139.195 259.895 97.9927 220.856 97.9927 172.873C97.9927 158.465 101.663 144.884 108.27 132.955L108.272 132.952C123.508 105.05 154.451 85.9432 190 85.9432C228.123 85.9432 260.808 107.805 274.758 139.01L274.76 139.013C279.531 149.474 282.1 160.852 282.1 172.873C282.1 220.856 240.898 259.803 190.093 259.803Z" stroke="#2ADACC"/>
<path d="M266.499 176.435L266.498 176.455V176.474V176.645C264.475 214.849 231.022 245.216 190.093 245.216C149.071 245.216 115.71 214.849 113.688 176.645V176.474V176.455L113.686 176.435C113.595 175.258 113.595 174.077 113.595 172.873C113.595 133.014 147.782 100.531 190.092 100.53C232.313 100.622 266.59 133.016 266.59 172.873C266.59 174.077 266.59 175.258 266.499 176.435Z" stroke="#2ADACC"/>
<path d="M264.573 163.944L264.574 163.947C265.581 167.975 266.222 172.184 266.405 176.484V176.645C264.383 214.849 230.93 245.216 190 245.216C148.979 245.216 115.618 214.849 113.595 176.645V176.489C113.963 170.35 115.063 164.488 116.894 158.81C126.519 129.389 155.587 107.916 190 107.916C226.343 107.916 256.783 131.867 264.573 163.944Z" stroke="#2ADACC"/>
<path d="M207.819 224.205C208.278 224.403 208.278 224.403 208.278 224.402L208.278 224.402L208.279 224.4L208.282 224.394L208.292 224.369L208.334 224.272C208.37 224.187 208.423 224.062 208.491 223.902C208.627 223.58 208.821 223.116 209.057 222.543C209.529 221.397 210.165 219.818 210.825 218.081C212.136 214.631 213.563 210.501 213.944 207.945C214.301 205.982 214.834 204.648 215.366 203.581C216.118 202.34 217.443 201.521 218.833 201.439C220.684 201.346 223.623 201.161 226.459 200.883C229.277 200.607 232.055 200.234 233.546 199.753L233.546 199.754L233.554 199.751C234.661 199.373 235.359 198.573 235.776 197.623C236.187 196.687 236.332 195.592 236.35 194.555C236.385 192.509 235.925 190.547 235.82 190.126C235.822 190.117 235.825 190.099 235.835 190.07C235.859 190.001 235.906 189.905 235.985 189.779C236.143 189.528 236.382 189.232 236.66 188.902C236.725 188.824 236.793 188.745 236.861 188.664C237.074 188.413 237.297 188.151 237.491 187.901C237.742 187.58 237.988 187.226 238.109 186.893C238.248 186.509 238.216 186.155 238.062 185.84C237.923 185.554 237.693 185.325 237.491 185.14C237.398 185.056 237.308 184.977 237.221 184.901C236.886 184.608 236.601 184.359 236.424 184.005L236.417 183.991L236.409 183.977C236.339 183.857 236.341 183.77 236.396 183.648C236.466 183.491 236.619 183.307 236.857 183.075C236.934 183 237.027 182.914 237.125 182.822C237.289 182.67 237.468 182.503 237.611 182.355C237.85 182.105 238.11 181.787 238.214 181.406C238.405 180.703 238.138 180.023 237.861 179.504C237.719 179.238 237.557 178.985 237.416 178.765L237.413 178.759C237.265 178.529 237.149 178.345 237.071 178.189C236.906 177.859 236.777 177.477 236.689 177.167C236.668 177.093 236.649 177.024 236.633 176.962C236.692 176.92 236.759 176.872 236.833 176.818C237.125 176.607 237.531 176.311 237.984 175.975C238.884 175.305 239.983 174.464 240.738 173.803L240.744 173.798L240.751 173.792C241.548 173.045 241.906 172.363 242.048 171.794C242.118 171.512 242.133 171.271 242.129 171.081C242.127 170.987 242.121 170.907 242.116 170.847L242.114 170.821C242.113 170.802 242.111 170.788 242.11 170.774C242.109 170.758 242.109 170.751 242.109 170.75C242.109 170.75 242.109 170.75 242.109 170.75C242.109 170.587 242.031 170.473 242.014 170.448L242.013 170.447C241.985 170.404 241.953 170.37 241.932 170.347C241.886 170.299 241.832 170.251 241.778 170.207C241.668 170.115 241.517 170.002 241.34 169.874C240.985 169.618 240.497 169.285 239.959 168.926C238.881 168.207 237.585 167.374 236.706 166.819L236.704 166.817C235.992 166.372 235.287 165.843 234.675 165.232C234.563 165.113 234.445 164.987 234.323 164.856C233.73 164.223 233.022 163.467 232.361 162.712C231.551 161.787 230.849 160.902 230.51 160.267L230.51 160.267L230.506 160.259C230.345 159.971 230.269 159.466 230.303 158.772C230.335 158.098 230.467 157.322 230.648 156.554L230.648 156.553C231.324 153.657 230.841 150.66 229.295 148.146C229.295 148.146 229.294 148.146 229.294 148.146L226.987 144.362L226.982 144.353L226.976 144.345C225.9 142.73 225.087 140.928 224.451 139.021C223.876 137.203 222.639 134.639 220.267 132.267L220.262 132.262C218.264 130.313 214.589 128.904 210.412 127.944C206.219 126.98 201.422 126.446 197.067 126.305C196.823 126.263 196.576 126.201 196.307 126.134L196.298 126.132C196.027 126.064 195.734 125.991 195.437 125.941C194.799 125.835 194.146 125.717 193.485 125.598C192.166 125.36 190.816 125.116 189.487 124.946C187.481 124.69 185.462 124.591 183.544 124.927L183.544 124.926L183.53 124.929C178.066 126.041 172.397 127.726 168.132 132.086L168.124 132.093L168.117 132.101C167.761 132.497 167.295 132.786 166.751 133.098C166.699 133.129 166.645 133.159 166.591 133.19C166.107 133.466 165.567 133.774 165.108 134.187C164.298 134.916 163.371 135.301 162.379 135.712C162.332 135.732 162.286 135.751 162.238 135.771C161.216 136.196 160.124 136.67 159.255 137.64C158.962 137.963 158.732 138.44 158.524 138.916C158.441 139.108 158.36 139.301 158.278 139.497C158.141 139.827 157.999 140.166 157.834 140.523C157.313 141.643 156.655 142.693 155.604 143.259C151.61 145.395 148.598 147.828 147.523 149.095C147.128 149.541 146.787 150.054 146.466 150.547C146.438 150.591 146.409 150.634 146.381 150.678C146.084 151.135 145.799 151.573 145.479 151.973C145.347 152.139 145.052 152.379 144.611 152.682C144.183 152.975 143.666 153.295 143.127 153.625C143.079 153.654 143.031 153.684 142.982 153.713C142.494 154.012 141.996 154.317 141.557 154.607C141.08 154.921 140.639 155.239 140.346 155.532C139.237 156.641 137.878 159.276 138.446 162.307C138.452 162.479 138.481 162.62 138.504 162.722C138.532 162.851 138.538 162.879 138.538 162.902V162.964L138.553 163.024C138.65 163.41 138.793 163.869 138.944 164.345C138.962 164.403 138.981 164.463 139 164.522C139.136 164.948 139.275 165.388 139.4 165.822C139.542 166.316 139.66 166.787 139.726 167.201C139.793 167.624 139.798 167.94 139.751 168.145L139.749 168.152L139.748 168.159C139.727 168.261 139.682 168.434 139.622 168.666C139.317 169.834 138.619 172.509 138.688 175.286C138.73 176.962 139.048 178.725 139.92 180.266C140.798 181.817 142.221 183.114 144.409 183.869C145.207 184.164 145.739 184.57 146.097 185.073C146.458 185.58 146.67 186.225 146.757 187.043C146.857 188.418 147.345 189.862 147.997 191.354L148.004 191.371L148.013 191.387C148.465 192.241 149.087 192.909 149.597 193.37C149.853 193.602 150.085 193.785 150.257 193.915C150.343 193.98 150.415 194.032 150.465 194.069C150.489 194.087 150.506 194.099 150.518 194.108C150.764 194.354 151.461 195.051 152.123 195.736C152.462 196.087 152.79 196.432 153.043 196.71C153.17 196.85 153.275 196.969 153.352 197.062C153.411 197.134 153.44 197.174 153.451 197.189C153.456 197.196 153.457 197.197 153.455 197.193L153.46 197.203L153.466 197.214C154.213 198.55 154.724 199.724 155.16 200.772C155.226 200.931 155.29 201.087 155.354 201.241C155.707 202.097 156.032 202.886 156.418 203.591C156.88 204.437 157.439 205.184 158.265 205.839C159.086 206.491 160.148 207.034 161.594 207.508L161.6 207.51C163.035 207.958 164.379 208.586 165.634 209.392L165.645 209.399L165.656 209.406C167.627 210.532 169.51 211.287 170.844 211.668L170.852 211.67L170.861 211.672C171.119 211.737 171.32 211.863 171.551 212.095L172.076 212.62L172.365 211.936C172.555 211.487 172.745 211.036 172.935 210.584C173.764 208.61 174.599 206.623 175.495 204.756L175.651 204.431L175.391 204.18C172.983 201.861 171.269 198.494 170.478 194.866C169.721 191.397 169.817 187.728 170.923 184.559C174.939 188.503 176.978 195.361 176.027 201.322L176.971 201.62C178.628 198.214 180.377 194.9 182.218 191.678L182.4 191.36L182.15 191.09C177.765 186.355 176.206 178.063 178.74 171.916C182.486 175.838 184.259 182.419 183.139 188.102L184.052 188.467C184.246 188.162 184.44 187.857 184.633 187.554C186.364 184.828 188.033 182.201 189.85 179.724L190.041 179.462L189.881 179.181C186.641 173.489 187.255 165.006 191.23 159.599C193.755 163.939 194.016 169.999 192.118 175.004L192.983 175.485C194.184 173.913 195.375 172.357 196.655 170.894L196.746 170.79L196.771 170.653C197.49 166.608 199.652 162.655 202.619 159.518C205.422 156.555 208.917 154.347 212.537 153.471C211.319 161.277 204.71 168.692 197.34 170.823L197.191 170.866L197.093 170.986L197.092 170.987C195.8 172.555 194.503 174.13 193.206 175.798L193.195 175.812L193.185 175.827C193.106 175.945 193.027 176.045 192.934 176.161C192.842 176.276 192.737 176.407 192.631 176.566L193.333 177.253C197.898 174.067 204.263 172.869 209.338 174.481C204.866 179.435 196.732 181.706 190.612 179.782L190.267 179.674L190.056 179.967C187.923 182.935 185.884 186.086 183.94 189.326L184.648 189.999C189.663 186.626 196.832 185.758 202.056 187.981C197.253 192.481 189.033 193.977 183.076 191.612L182.676 191.453L182.46 191.824C180.513 195.161 178.66 198.682 176.9 202.387L177.657 202.998C182.499 199.28 189.661 197.983 195.124 200.017C190.486 204.704 182.353 206.629 176.316 204.529L175.885 204.38L175.697 204.795C174.31 207.844 172.922 210.991 171.625 214.233L171.619 214.248L171.614 214.264C170.353 218.138 167.887 224.821 164.916 228.76C143.395 219.248 128.175 198.003 127.628 172.955L207.819 224.205ZM207.819 224.205L208.278 224.403L208.26 224.444L208.236 224.481L208.235 224.481L208.235 224.481L208.235 224.482L208.235 224.482L208.235 224.482M207.819 224.205L208.235 224.482M208.235 224.482L208.235 224.482L208.232 224.487C208.228 224.492 208.222 224.502 208.214 224.515C208.201 224.536 208.184 224.566 208.163 224.603C208.156 224.615 208.149 224.627 208.142 224.64C208.081 224.753 207.998 224.919 207.914 225.129L207.909 225.14L207.905 225.15C207.683 225.637 207.437 226.285 207.259 226.886C207.17 227.186 207.101 227.467 207.059 227.704C207.018 227.94 207.01 228.098 207.019 228.183C207.05 228.316 207.165 228.566 207.404 228.924C207.641 229.28 207.971 229.7 208.375 230.148L208.387 230.162L208.398 230.176C208.899 230.82 209.771 231.054 210.602 230.751L210.608 230.749C235.245 222.14 253.014 198.234 252.465 170.298C251.732 135.494 222.79 108.018 187.894 109.208C153.823 110.399 126.896 138.884 127.628 172.955L208.235 224.482Z" stroke="#2ADACC"/>
<g filter="url(#filter4_df_32_25)">
<path d="M73.3594 301C65.2066 301 58.0159 300.141 51.8886 298.371C42.8243 295.692 36.4945 291.143 33.0511 284.723C24.7464 269.255 34.5196 244.992 60.5478 216.431C86.2722 188.175 124.96 158.907 169.37 133.986C241.176 93.6984 313.032 73.5799 348.276 83.7908C357.34 86.4193 363.67 91.0193 367.114 97.3884C375.418 112.856 365.645 137.12 339.617 165.68C313.892 193.937 275.205 223.205 230.795 248.126C171.497 281.438 112.098 301 73.3594 301ZM326.957 83.7402C312.272 83.7402 294.194 86.571 274.04 92.1819C241.783 101.129 206.032 116.344 170.636 136.21C126.429 160.979 87.9939 190.095 62.4214 218.15C50.0656 231.748 41.3558 244.334 36.6464 255.556C31.8357 266.93 31.38 276.383 35.2792 283.561C38.3681 289.323 44.1916 293.519 52.5976 295.945C69.0044 300.697 95.1339 298.624 126.125 290.031C158.381 281.084 194.132 265.868 229.529 246.003C273.736 221.234 312.171 192.117 337.743 164.063C350.099 150.465 358.809 137.878 363.518 126.656C368.329 115.283 368.785 105.83 364.885 98.6522C361.797 92.8896 355.973 88.694 347.567 86.2677C341.845 84.549 334.908 83.7402 326.957 83.7402Z" fill="#2ADACC"/>
</g>
<path d="M73.3594 301C65.2066 301 58.0159 300.141 51.8886 298.371C42.8243 295.692 36.4945 291.143 33.0511 284.723C24.7464 269.255 34.5196 244.992 60.5478 216.431C86.2722 188.175 124.96 158.907 169.37 133.986C241.176 93.6984 313.032 73.5799 348.276 83.7908C357.34 86.4193 363.67 91.0193 367.114 97.3884C375.418 112.856 365.645 137.12 339.617 165.68C313.892 193.937 275.205 223.205 230.795 248.126C171.497 281.438 112.098 301 73.3594 301ZM326.957 83.7402C312.272 83.7402 294.194 86.571 274.04 92.1819C241.783 101.129 206.032 116.344 170.636 136.21C126.429 160.979 87.9939 190.095 62.4214 218.15C50.0656 231.748 41.3558 244.334 36.6464 255.556C31.8357 266.93 31.38 276.383 35.2792 283.561C38.3681 289.323 44.1916 293.519 52.5976 295.945C69.0044 300.697 95.1339 298.624 126.125 290.031C158.381 281.084 194.132 265.868 229.529 246.003C273.736 221.234 312.171 192.117 337.743 164.063C350.099 150.465 358.809 137.878 363.518 126.656C368.329 115.283 368.785 105.83 364.885 98.6522C361.797 92.8896 355.973 88.694 347.567 86.2677C341.845 84.549 334.908 83.7402 326.957 83.7402Z" fill="url(#paint2_linear_32_25)"/>
</g>
<defs>
<filter id="filter0_df_32_25" x="-0.960815" y="4.00732" width="395.885" height="334.263" filterUnits="userSpaceOnUse" color-interpolation-filters="sRGB">
<feFlood flood-opacity="0" result="BackgroundImageFix"/>
<feColorMatrix in="SourceAlpha" type="matrix" values="0 0 0 0 0 0 0 0 0 0 0 0 0 0 0 0 0 0 127 0" result="hardAlpha"/>
<feOffset dx="20" dy="20"/>
<feGaussianBlur stdDeviation="10"/>
<feComposite in2="hardAlpha" operator="out"/>
<feColorMatrix type="matrix" values="0 0 0 0 0.164706 0 0 0 0 0.854902 0 0 0 0 0.8 0 0 0 1 0"/>
<feBlend mode="normal" in2="BackgroundImageFix" result="effect1_dropShadow_32_25"/>
<feBlend mode="normal" in="SourceGraphic" in2="effect1_dropShadow_32_25" result="shape"/>
<feGaussianBlur stdDeviation="15" result="effect2_foregroundBlur_32_25"/>
</filter>
<filter id="filter1_df_32_25" x="-0.960815" y="4.00732" width="395.885" height="334.263" filterUnits="userSpaceOnUse" color-interpolation-filters="sRGB">
<feFlood flood-opacity="0" result="BackgroundImageFix"/>
<feColorMatrix in="SourceAlpha" type="matrix" values="0 0 0 0 0 0 0 0 0 0 0 0 0 0 0 0 0 0 127 0" result="hardAlpha"/>
<feOffset dx="20" dy="20"/>
<feGaussianBlur stdDeviation="10"/>
<feComposite in2="hardAlpha" operator="out"/>
<feColorMatrix type="matrix" values="0 0 0 0 0.164706 0 0 0 0 0.854902 0 0 0 0 0.8 0 0 0 1 0"/>
<feBlend mode="normal" in2="BackgroundImageFix" result="effect1_dropShadow_32_25"/>
<feBlend mode="normal" in="SourceGraphic" in2="effect1_dropShadow_32_25" result="shape"/>
<feGaussianBlur stdDeviation="15" result="effect2_foregroundBlur_32_25"/>
</filter>
<filter id="filter2_f_32_25" x="57.4714" y="45.4714" width="265.057" height="265.057" filterUnits="userSpaceOnUse" color-interpolation-filters="sRGB">
<feFlood flood-opacity="0" result="BackgroundImageFix"/>
<feBlend mode="normal" in="SourceGraphic" in2="BackgroundImageFix" result="shape"/>
<feGaussianBlur stdDeviation="20" result="effect1_foregroundBlur_32_25"/>
</filter>
<filter id="filter3_b_32_25" x="57.4714" y="45.4714" width="265.057" height="265.057" filterUnits="userSpaceOnUse" color-interpolation-filters="sRGB">
<feFlood flood-opacity="0" result="BackgroundImageFix"/>
<feGaussianBlur in="BackgroundImage" stdDeviation="20"/>
<feComposite in2="SourceAlpha" operator="in" result="effect1_backgroundBlur_32_25"/>
<feBlend mode="normal" in="SourceGraphic" in2="effect1_backgroundBlur_32_25" result="shape"/>
</filter>
<filter id="filter4_df_32_25" x="0.167297" y="51.1619" width="399.83" height="279.838" filterUnits="userSpaceOnUse" color-interpolation-filters="sRGB">
<feFlood flood-opacity="0" result="BackgroundImageFix"/>
<feColorMatrix in="SourceAlpha" type="matrix" values="0 0 0 0 0 0 0 0 0 0 0 0 0 0 0 0 0 0 127 0" result="hardAlpha"/>
<feOffset dy="4"/>
<feGaussianBlur stdDeviation="2"/>
<feComposite in2="hardAlpha" operator="out"/>
<feColorMatrix type="matrix" values="0 0 0 0 0.164706 0 0 0 0 0.854902 0 0 0 0 0.8 0 0 0 1 0"/>
<feBlend mode="normal" in2="BackgroundImageFix" result="effect1_dropShadow_32_25"/>
<feBlend mode="normal" in="SourceGraphic" in2="effect1_dropShadow_32_25" result="shape"/>
<feGaussianBlur stdDeviation="15" result="effect2_foregroundBlur_32_25"/>
</filter>
<linearGradient id="paint0_linear_32_25" x1="102" y1="258" x2="237.36" y2="43.5239" gradientUnits="userSpaceOnUse">
<stop offset="0.0611272" stop-color="#00090F" stop-opacity="0"/>
<stop offset="0.814305" stop-color="#2ADACC"/>
<stop offset="1" stop-color="#C3F7F3"/>
</linearGradient>
<linearGradient id="paint1_linear_32_25" x1="102" y1="258" x2="237.36" y2="43.5239" gradientUnits="userSpaceOnUse">
<stop offset="0.0611272" stop-color="#00090F" stop-opacity="0"/>
<stop offset="0.814305" stop-color="#2ADACC"/>
<stop offset="1" stop-color="#C3F7F3"/>
</linearGradient>
<linearGradient id="paint2_linear_32_25" x1="173.5" y1="163" x2="223.989" y2="254.831" gradientUnits="userSpaceOnUse">
<stop stop-color="#00090F" stop-opacity="0"/>
<stop offset="0.784108" stop-color="#2ADACC"/>
<stop offset="1" stop-color="#DAF8F6"/>
</linearGradient>
<clipPath id="clip0_32_25">
<rect width="404" height="352" fill="white"/>
</clipPath>
</defs>
</svg>
