<svg width="440" height="339" viewBox="0 0 440 339" fill="none" xmlns="http://www.w3.org/2000/svg">
<g filter="url(#filter0_df_6_24)">
<path d="M230.234 297.27C221.98 297.27 213.676 296.765 205.32 295.754C162.024 290.547 122.83 272.451 94.9789 244.699C67.0264 216.897 53.8098 182.726 57.7089 148.505C61.1524 118.276 77.9644 89.9182 104.955 68.5865C139.743 41.1384 187.04 28.6528 234.64 34.3648C256.415 36.9934 277.278 43.2109 296.571 52.8658C315.054 62.1162 331.36 74.0458 344.981 88.3512C358.502 102.555 368.68 118.327 375.162 135.109C381.846 152.498 384.226 170.089 382.251 187.377C380.58 201.985 375.82 215.937 368.123 228.878C360.679 241.363 350.704 252.585 338.398 262.29C321.84 275.383 301.23 285.341 278.797 291.154C263.099 295.248 246.844 297.27 230.234 297.27ZM212.005 35.5274C172.861 35.5274 135.338 47.8614 106.474 70.6085C80.0406 91.4852 63.583 119.237 60.1902 148.808C56.3417 182.221 69.3558 215.634 96.7006 242.93C124.197 270.277 162.835 288.172 205.574 293.277C254.946 299.191 302.799 287.211 336.829 260.37C348.881 250.866 358.704 239.847 365.946 227.664C373.44 215.027 378.099 201.429 379.719 187.175C381.644 170.241 379.314 153.054 372.782 136.069C366.452 119.59 356.476 104.122 343.158 90.1204C329.739 76.0172 313.687 64.2393 295.457 55.1405C276.366 45.6372 255.807 39.4703 234.336 36.8923C226.842 35.9824 219.398 35.5274 212.005 35.5274Z" fill="#2ADACC"/>
</g>
<path d="M230.234 297.27C221.98 297.27 213.676 296.765 205.32 295.754C162.024 290.547 122.83 272.451 94.9789 244.699C67.0264 216.897 53.8098 182.726 57.7089 148.505C61.1524 118.276 77.9644 89.9182 104.955 68.5865C139.743 41.1384 187.04 28.6528 234.64 34.3648C256.415 36.9934 277.278 43.2109 296.571 52.8658C315.054 62.1162 331.36 74.0458 344.981 88.3512C358.502 102.555 368.68 118.327 375.162 135.109C381.846 152.498 384.226 170.089 382.251 187.377C380.58 201.985 375.82 215.937 368.123 228.878C360.679 241.363 350.704 252.585 338.398 262.29C321.84 275.383 301.23 285.341 278.797 291.154C263.099 295.248 246.844 297.27 230.234 297.27ZM212.005 35.5274C172.861 35.5274 135.338 47.8614 106.474 70.6085C80.0406 91.4852 63.583 119.237 60.1902 148.808C56.3417 182.221 69.3558 215.634 96.7006 242.93C124.197 270.277 162.835 288.172 205.574 293.277C254.946 299.191 302.799 287.211 336.829 260.37C348.881 250.866 358.704 239.847 365.946 227.664C373.44 215.027 378.099 201.429 379.719 187.175C381.644 170.241 379.314 153.054 372.782 136.069C366.452 119.59 356.476 104.122 343.158 90.1204C329.739 76.0172 313.687 64.2393 295.457 55.1405C276.366 45.6372 255.807 39.4703 234.336 36.8923C226.842 35.9824 219.398 35.5274 212.005 35.5274Z" fill="url(#paint0_linear_6_24)"/>
<g filter="url(#filter1_df_6_24)">
<path d="M230.234 297.27C221.98 297.27 213.676 296.765 205.32 295.754C162.024 290.547 122.83 272.451 94.9789 244.699C67.0264 216.897 53.8098 182.726 57.7089 148.505C61.1524 118.276 77.9644 89.9182 104.955 68.5865C139.743 41.1384 187.04 28.6528 234.64 34.3648C256.415 36.9934 277.278 43.2109 296.571 52.8658C315.054 62.1162 331.36 74.0458 344.981 88.3512C358.502 102.555 368.68 118.327 375.162 135.109C381.846 152.498 384.226 170.089 382.251 187.377C380.58 201.985 375.82 215.937 368.123 228.878C360.679 241.363 350.704 252.585 338.398 262.29C321.84 275.383 301.23 285.341 278.797 291.154C263.099 295.248 246.844 297.27 230.234 297.27ZM212.005 35.5274C172.861 35.5274 135.338 47.8614 106.474 70.6085C80.0406 91.4852 63.583 119.237 60.1902 148.808C56.3417 182.221 69.3558 215.634 96.7006 242.93C124.197 270.277 162.835 288.172 205.574 293.277C254.946 299.191 302.799 287.211 336.829 260.37C348.881 250.866 358.704 239.847 365.946 227.664C373.44 215.027 378.099 201.429 379.719 187.175C381.644 170.241 379.314 153.054 372.782 136.069C366.452 119.59 356.476 104.122 343.158 90.1204C329.739 76.0172 313.687 64.2393 295.457 55.1405C276.366 45.6372 255.807 39.4703 234.336 36.8923C226.842 35.9824 219.398 35.5274 212.005 35.5274Z" fill="#2ADACC"/>
</g>
<path d="M230.234 297.27C221.98 297.27 213.676 296.765 205.32 295.754C162.024 290.547 122.83 272.451 94.9789 244.699C67.0264 216.897 53.8098 182.726 57.7089 148.505C61.1524 118.276 77.9644 89.9182 104.955 68.5865C139.743 41.1384 187.04 28.6528 234.64 34.3648C256.415 36.9934 277.278 43.2109 296.571 52.8658C315.054 62.1162 331.36 74.0458 344.981 88.3512C358.502 102.555 368.68 118.327 375.162 135.109C381.846 152.498 384.226 170.089 382.251 187.377C380.58 201.985 375.82 215.937 368.123 228.878C360.679 241.363 350.704 252.585 338.398 262.29C321.84 275.383 301.23 285.341 278.797 291.154C263.099 295.248 246.844 297.27 230.234 297.27ZM212.005 35.5274C172.861 35.5274 135.338 47.8614 106.474 70.6085C80.0406 91.4852 63.583 119.237 60.1902 148.808C56.3417 182.221 69.3558 215.634 96.7006 242.93C124.197 270.277 162.835 288.172 205.574 293.277C254.946 299.191 302.799 287.211 336.829 260.37C348.881 250.866 358.704 239.847 365.946 227.664C373.44 215.027 378.099 201.429 379.719 187.175C381.644 170.241 379.314 153.054 372.782 136.069C366.452 119.59 356.476 104.122 343.158 90.1204C329.739 76.0172 313.687 64.2393 295.457 55.1405C276.366 45.6372 255.807 39.4703 234.336 36.8923C226.842 35.9824 219.398 35.5274 212.005 35.5274Z" fill="url(#paint1_linear_6_24)"/>
<g filter="url(#filter2_f_6_24)">
<path d="M308.121 197.879C319.652 148.106 288.651 98.4101 238.879 86.8789C189.107 75.3478 139.41 106.348 127.879 156.121C116.348 205.893 147.349 255.59 197.121 267.121C246.893 278.652 296.59 247.651 308.121 197.879Z" fill="#0C1013"/>
</g>
<g filter="url(#filter3_b_6_24)">
<path d="M238.766 87.3661C288.27 98.8349 319.103 148.263 307.634 197.766C296.165 247.27 246.737 278.103 197.234 266.634C147.73 255.165 116.897 205.737 128.366 156.234C139.835 106.73 189.263 75.8973 238.766 87.3661Z" stroke="#2ADACC"/>
</g>
<path d="M218.093 258.803H218.092C167.195 258.895 125.993 219.856 125.993 171.873C125.993 157.465 129.663 143.884 136.27 131.955L136.272 131.952C151.508 104.05 182.451 84.9432 218 84.9432C256.123 84.9432 288.808 106.805 302.758 138.01L302.76 138.013C307.531 148.474 310.1 159.852 310.1 171.873C310.1 219.856 268.898 258.803 218.093 258.803Z" stroke="#2ADACC"/>
<path d="M294.499 175.435L294.498 175.455V175.474V175.645C292.475 213.849 259.022 244.216 218.093 244.216C177.071 244.216 143.71 213.849 141.688 175.645V175.474V175.455L141.686 175.435C141.595 174.258 141.595 173.077 141.595 171.873C141.595 132.014 175.782 99.5305 218.092 99.5303C260.313 99.6223 294.59 132.016 294.59 171.873C294.59 173.077 294.59 174.258 294.499 175.435Z" stroke="#2ADACC"/>
<path d="M292.573 162.944L292.574 162.947C293.581 166.975 294.222 171.184 294.405 175.484V175.645C292.383 213.849 258.93 244.216 218 244.216C176.979 244.216 143.618 213.849 141.595 175.645V175.489C141.963 169.35 143.063 163.488 144.894 157.81C154.519 128.389 183.587 106.916 218 106.916C254.343 106.916 284.783 130.867 292.573 162.944Z" stroke="#2ADACC"/>
<path d="M235.819 223.205C236.278 223.403 236.278 223.403 236.278 223.402L236.278 223.402L236.279 223.4L236.282 223.394L236.292 223.369L236.334 223.272C236.37 223.187 236.423 223.062 236.491 222.902C236.627 222.58 236.821 222.116 237.057 221.543C237.529 220.397 238.165 218.818 238.825 217.081C240.136 213.631 241.563 209.501 241.944 206.945C242.301 204.982 242.834 203.648 243.366 202.581C244.118 201.34 245.443 200.521 246.833 200.439C248.684 200.346 251.623 200.161 254.459 199.883C257.277 199.607 260.055 199.234 261.546 198.753L261.546 198.754L261.554 198.751C262.661 198.373 263.359 197.573 263.776 196.623C264.187 195.687 264.332 194.592 264.35 193.555C264.385 191.509 263.925 189.547 263.82 189.126C263.822 189.117 263.825 189.099 263.835 189.07C263.859 189.001 263.906 188.905 263.985 188.779C264.143 188.528 264.382 188.232 264.66 187.902C264.725 187.824 264.792 187.745 264.861 187.664C265.074 187.413 265.297 187.151 265.491 186.901C265.742 186.58 265.987 186.226 266.109 185.893C266.248 185.509 266.216 185.155 266.062 184.84C265.923 184.554 265.693 184.325 265.491 184.14C265.398 184.056 265.308 183.977 265.221 183.901C264.886 183.608 264.601 183.359 264.424 183.005L264.417 182.991L264.409 182.977C264.339 182.857 264.341 182.77 264.396 182.648C264.466 182.491 264.619 182.307 264.857 182.075C264.934 182 265.027 181.914 265.125 181.822C265.289 181.67 265.468 181.503 265.611 181.355C265.85 181.105 266.11 180.787 266.214 180.406C266.405 179.703 266.138 179.023 265.861 178.504C265.719 178.238 265.557 177.985 265.416 177.765L265.413 177.759C265.265 177.529 265.149 177.345 265.071 177.189C264.906 176.859 264.777 176.477 264.689 176.167C264.668 176.093 264.649 176.024 264.633 175.962C264.692 175.92 264.759 175.872 264.833 175.818C265.125 175.607 265.531 175.311 265.984 174.975C266.884 174.305 267.983 173.464 268.738 172.803L268.744 172.798L268.751 172.792C269.548 172.045 269.906 171.363 270.048 170.794C270.118 170.512 270.133 170.271 270.129 170.081C270.127 169.987 270.121 169.907 270.116 169.847L270.114 169.821C270.113 169.802 270.111 169.788 270.11 169.774C270.109 169.758 270.109 169.751 270.109 169.75C270.109 169.75 270.109 169.75 270.109 169.75C270.109 169.587 270.031 169.473 270.014 169.448L270.013 169.447C269.984 169.404 269.953 169.37 269.932 169.347C269.886 169.299 269.832 169.251 269.778 169.207C269.668 169.115 269.517 169.002 269.34 168.874C268.985 168.618 268.497 168.285 267.959 167.926C266.881 167.207 265.585 166.374 264.706 165.819L264.704 165.817C263.992 165.372 263.287 164.843 262.675 164.232C262.563 164.113 262.445 163.987 262.323 163.856C261.73 163.223 261.022 162.467 260.361 161.712C259.551 160.787 258.849 159.902 258.51 159.267L258.51 159.267L258.506 159.259C258.345 158.971 258.269 158.466 258.303 157.772C258.335 157.098 258.467 156.322 258.648 155.554L258.648 155.553C259.324 152.657 258.841 149.66 257.295 147.146C257.295 147.146 257.294 147.146 257.294 147.146L254.987 143.362L254.982 143.353L254.976 143.345C253.9 141.73 253.087 139.928 252.451 138.021C251.876 136.203 250.638 133.639 248.267 131.267L248.262 131.262C246.263 129.313 242.589 127.904 238.412 126.944C234.219 125.98 229.422 125.446 225.067 125.305C224.823 125.263 224.576 125.201 224.307 125.134L224.298 125.132C224.027 125.064 223.734 124.991 223.437 124.941C222.799 124.835 222.146 124.717 221.485 124.598C220.166 124.36 218.816 124.116 217.487 123.946C215.481 123.69 213.462 123.591 211.544 123.927L211.544 123.926L211.53 123.929C206.066 125.041 200.397 126.726 196.132 131.086L196.124 131.093L196.117 131.101C195.761 131.497 195.295 131.786 194.751 132.098C194.699 132.129 194.645 132.159 194.591 132.19C194.107 132.466 193.567 132.774 193.108 133.187C192.298 133.916 191.371 134.301 190.379 134.712C190.332 134.732 190.286 134.751 190.238 134.771C189.216 135.196 188.124 135.67 187.255 136.64C186.962 136.963 186.732 137.44 186.524 137.916C186.441 138.108 186.36 138.301 186.278 138.497C186.141 138.827 185.999 139.166 185.834 139.523C185.313 140.643 184.655 141.693 183.604 142.259C179.61 144.395 176.598 146.828 175.523 148.095C175.128 148.541 174.787 149.054 174.466 149.547C174.438 149.591 174.409 149.634 174.381 149.678C174.084 150.135 173.799 150.573 173.479 150.973C173.347 151.139 173.052 151.379 172.611 151.682C172.183 151.975 171.666 152.295 171.127 152.625C171.079 152.654 171.031 152.684 170.982 152.713C170.494 153.012 169.996 153.317 169.557 153.607C169.08 153.921 168.639 154.239 168.346 154.532C167.237 155.641 165.878 158.276 166.446 161.307C166.451 161.479 166.481 161.62 166.504 161.722C166.532 161.851 166.538 161.879 166.538 161.902V161.964L166.553 162.024C166.65 162.41 166.793 162.869 166.944 163.345C166.962 163.403 166.981 163.463 167 163.522C167.136 163.948 167.275 164.388 167.4 164.822C167.542 165.316 167.66 165.787 167.726 166.201C167.793 166.624 167.798 166.94 167.751 167.145L167.749 167.152L167.748 167.159C167.727 167.261 167.682 167.434 167.622 167.666C167.317 168.834 166.619 171.509 166.688 174.286C166.73 175.962 167.048 177.725 167.92 179.266C168.798 180.817 170.221 182.114 172.409 182.869C173.207 183.164 173.739 183.57 174.097 184.073C174.458 184.58 174.67 185.225 174.757 186.043C174.856 187.418 175.345 188.862 175.997 190.354L176.004 190.371L176.013 190.387C176.465 191.241 177.087 191.909 177.597 192.37C177.853 192.602 178.085 192.785 178.257 192.915C178.343 192.98 178.415 193.032 178.465 193.069C178.489 193.087 178.506 193.099 178.518 193.108C178.764 193.354 179.461 194.051 180.123 194.736C180.462 195.087 180.79 195.432 181.043 195.71C181.17 195.85 181.275 195.969 181.352 196.062C181.411 196.134 181.44 196.174 181.451 196.189C181.456 196.196 181.457 196.197 181.455 196.193L181.46 196.203L181.466 196.214C182.213 197.55 182.724 198.724 183.16 199.772C183.226 199.931 183.29 200.087 183.354 200.241C183.707 201.097 184.032 201.886 184.418 202.591C184.88 203.437 185.439 204.184 186.265 204.839C187.086 205.491 188.148 206.034 189.594 206.508L189.6 206.51C191.035 206.958 192.379 207.586 193.634 208.392L193.645 208.399L193.656 208.406C195.627 209.532 197.51 210.287 198.844 210.668L198.852 210.67L198.86 210.672C199.119 210.737 199.32 210.863 199.551 211.095L200.076 211.62L200.365 210.936C200.555 210.487 200.745 210.036 200.935 209.584C201.764 207.61 202.599 205.623 203.495 203.756L203.651 203.431L203.391 203.18C200.983 200.861 199.269 197.494 198.478 193.866C197.721 190.397 197.817 186.728 198.923 183.559C202.939 187.503 204.978 194.361 204.027 200.322L204.971 200.62C206.628 197.214 208.377 193.9 210.218 190.678L210.4 190.36L210.15 190.09C205.765 185.355 204.206 177.063 206.74 170.916C210.486 174.838 212.259 181.419 211.139 187.102L212.052 187.467C212.246 187.162 212.44 186.857 212.633 186.554C214.364 183.828 216.033 181.201 217.85 178.724L218.041 178.462L217.881 178.181C214.641 172.489 215.255 164.006 219.23 158.599C221.755 162.939 222.016 168.999 220.118 174.004L220.983 174.485C222.184 172.913 223.375 171.357 224.655 169.894L224.746 169.79L224.771 169.653C225.49 165.608 227.652 161.655 230.619 158.518C233.422 155.555 236.917 153.347 240.537 152.471C239.319 160.277 232.71 167.692 225.34 169.823L225.191 169.866L225.093 169.986L225.092 169.987C223.8 171.555 222.503 173.13 221.206 174.798L221.195 174.812L221.185 174.827C221.106 174.945 221.027 175.045 220.934 175.161C220.842 175.276 220.737 175.407 220.631 175.566L221.333 176.253C225.898 173.067 232.263 171.869 237.338 173.481C232.866 178.435 224.732 180.706 218.612 178.782L218.267 178.674L218.056 178.967C215.923 181.935 213.884 185.086 211.94 188.326L212.648 188.999C217.663 185.626 224.832 184.758 230.056 186.981C225.253 191.481 217.033 192.977 211.076 190.612L210.676 190.453L210.46 190.824C208.513 194.161 206.66 197.682 204.9 201.387L205.657 201.998C210.499 198.28 217.661 196.983 223.124 199.017C218.486 203.704 210.353 205.629 204.316 203.529L203.885 203.38L203.697 203.795C202.31 206.844 200.922 209.991 199.625 213.233L199.619 213.248L199.614 213.264C198.353 217.138 195.887 223.821 192.916 227.76C171.395 218.248 156.175 197.003 155.628 171.955L235.819 223.205ZM235.819 223.205L236.278 223.403L236.26 223.444L236.235 223.481L236.235 223.481L236.235 223.481L236.235 223.482L236.235 223.482L236.235 223.482M235.819 223.205L236.235 223.482M236.235 223.482L236.235 223.482L236.232 223.487C236.228 223.492 236.222 223.502 236.214 223.515C236.201 223.536 236.184 223.566 236.163 223.603C236.156 223.615 236.149 223.627 236.142 223.64C236.081 223.753 235.998 223.919 235.914 224.129L235.909 224.14L235.905 224.15C235.683 224.637 235.437 225.285 235.259 225.886C235.17 226.186 235.101 226.467 235.059 226.704C235.018 226.94 235.01 227.098 235.019 227.183C235.05 227.316 235.165 227.566 235.404 227.924C235.641 228.28 235.971 228.7 236.375 229.148L236.387 229.162L236.398 229.176C236.899 229.82 237.771 230.054 238.602 229.751L238.608 229.749C263.245 221.14 281.014 197.234 280.465 169.298C279.732 134.494 250.79 107.018 215.894 108.208C181.823 109.399 154.896 137.884 155.628 171.955L236.235 223.482Z" stroke="#2ADACC"/>
<g filter="url(#filter4_df_6_24)">
<path d="M101.359 300C93.2066 300 86.0159 299.141 79.8886 297.371C70.8243 294.692 64.4945 290.143 61.0511 283.723C52.7464 268.255 62.5196 243.992 88.5478 215.431C114.272 187.175 152.96 157.907 197.37 132.986C269.176 92.6984 341.032 72.5799 376.276 82.7908C385.34 85.4193 391.67 90.0193 395.114 96.3884C403.418 111.856 393.645 136.12 367.617 164.68C341.892 192.937 303.205 222.205 258.795 247.126C199.497 280.438 140.098 300 101.359 300ZM354.957 82.7402C340.272 82.7402 322.194 85.571 302.04 91.1819C269.783 100.129 234.032 115.344 198.636 135.21C154.429 159.979 115.994 189.095 90.4214 217.15C78.0656 230.748 69.3558 243.334 64.6464 254.556C59.8357 265.93 59.38 275.383 63.2792 282.561C66.3681 288.323 72.1916 292.519 80.5976 294.945C97.0044 299.697 123.134 297.624 154.125 289.031C186.381 280.084 222.132 264.868 257.529 245.003C301.736 220.234 340.171 191.117 365.743 163.063C378.099 149.465 386.809 136.878 391.518 125.656C396.329 114.283 396.785 104.83 392.885 97.6522C389.797 91.8896 383.973 87.694 375.567 85.2677C369.845 83.549 362.908 82.7402 354.957 82.7402Z" fill="#2ADACC"/>
</g>
<path d="M101.359 300C93.2066 300 86.0159 299.141 79.8886 297.371C70.8243 294.692 64.4945 290.143 61.0511 283.723C52.7464 268.255 62.5196 243.992 88.5478 215.431C114.272 187.175 152.96 157.907 197.37 132.986C269.176 92.6984 341.032 72.5799 376.276 82.7908C385.34 85.4193 391.67 90.0193 395.114 96.3884C403.418 111.856 393.645 136.12 367.617 164.68C341.892 192.937 303.205 222.205 258.795 247.126C199.497 280.438 140.098 300 101.359 300ZM354.957 82.7402C340.272 82.7402 322.194 85.571 302.04 91.1819C269.783 100.129 234.032 115.344 198.636 135.21C154.429 159.979 115.994 189.095 90.4214 217.15C78.0656 230.748 69.3558 243.334 64.6464 254.556C59.8357 265.93 59.38 275.383 63.2792 282.561C66.3681 288.323 72.1916 292.519 80.5976 294.945C97.0044 299.697 123.134 297.624 154.125 289.031C186.381 280.084 222.132 264.868 257.529 245.003C301.736 220.234 340.171 191.117 365.743 163.063C378.099 149.465 386.809 136.878 391.518 125.656C396.329 114.283 396.785 104.83 392.885 97.6522C389.797 91.8896 383.973 87.694 375.567 85.2677C369.845 83.549 362.908 82.7402 354.957 82.7402Z" fill="url(#paint2_linear_6_24)"/>
<defs>
<filter id="filter0_df_6_24" x="27.0392" y="3.00732" width="395.885" height="334.263" filterUnits="userSpaceOnUse" color-interpolation-filters="sRGB">
<feFlood flood-opacity="0" result="BackgroundImageFix"/>
<feColorMatrix in="SourceAlpha" type="matrix" values="0 0 0 0 0 0 0 0 0 0 0 0 0 0 0 0 0 0 127 0" result="hardAlpha"/>
<feOffset dx="20" dy="20"/>
<feGaussianBlur stdDeviation="10"/>
<feComposite in2="hardAlpha" operator="out"/>
<feColorMatrix type="matrix" values="0 0 0 0 0.164706 0 0 0 0 0.854902 0 0 0 0 0.8 0 0 0 1 0"/>
<feBlend mode="normal" in2="BackgroundImageFix" result="effect1_dropShadow_6_24"/>
<feBlend mode="normal" in="SourceGraphic" in2="effect1_dropShadow_6_24" result="shape"/>
<feGaussianBlur stdDeviation="15" result="effect2_foregroundBlur_6_24"/>
</filter>
<filter id="filter1_df_6_24" x="27.0392" y="3.00732" width="395.885" height="334.263" filterUnits="userSpaceOnUse" color-interpolation-filters="sRGB">
<feFlood flood-opacity="0" result="BackgroundImageFix"/>
<feColorMatrix in="SourceAlpha" type="matrix" values="0 0 0 0 0 0 0 0 0 0 0 0 0 0 0 0 0 0 127 0" result="hardAlpha"/>
<feOffset dx="20" dy="20"/>
<feGaussianBlur stdDeviation="10"/>
<feComposite in2="hardAlpha" operator="out"/>
<feColorMatrix type="matrix" values="0 0 0 0 0.164706 0 0 0 0 0.854902 0 0 0 0 0.8 0 0 0 1 0"/>
<feBlend mode="normal" in2="BackgroundImageFix" result="effect1_dropShadow_6_24"/>
<feBlend mode="normal" in="SourceGraphic" in2="effect1_dropShadow_6_24" result="shape"/>
<feGaussianBlur stdDeviation="15" result="effect2_foregroundBlur_6_24"/>
</filter>
<filter id="filter2_f_6_24" x="85.4714" y="44.4714" width="265.057" height="265.057" filterUnits="userSpaceOnUse" color-interpolation-filters="sRGB">
<feFlood flood-opacity="0" result="BackgroundImageFix"/>
<feBlend mode="normal" in="SourceGraphic" in2="BackgroundImageFix" result="shape"/>
<feGaussianBlur stdDeviation="20" result="effect1_foregroundBlur_6_24"/>
</filter>
<filter id="filter3_b_6_24" x="85.4714" y="44.4714" width="265.057" height="265.057" filterUnits="userSpaceOnUse" color-interpolation-filters="sRGB">
<feFlood flood-opacity="0" result="BackgroundImageFix"/>
<feGaussianBlur in="BackgroundImage" stdDeviation="20"/>
<feComposite in2="SourceAlpha" operator="in" result="effect1_backgroundBlur_6_24"/>
<feBlend mode="normal" in="SourceGraphic" in2="effect1_backgroundBlur_6_24" result="shape"/>
</filter>
<filter id="filter4_df_6_24" x="28.1673" y="50.1619" width="399.83" height="279.838" filterUnits="userSpaceOnUse" color-interpolation-filters="sRGB">
<feFlood flood-opacity="0" result="BackgroundImageFix"/>
<feColorMatrix in="SourceAlpha" type="matrix" values="0 0 0 0 0 0 0 0 0 0 0 0 0 0 0 0 0 0 127 0" result="hardAlpha"/>
<feOffset dy="4"/>
<feGaussianBlur stdDeviation="2"/>
<feComposite in2="hardAlpha" operator="out"/>
<feColorMatrix type="matrix" values="0 0 0 0 0.164706 0 0 0 0 0.854902 0 0 0 0 0.8 0 0 0 1 0"/>
<feBlend mode="normal" in2="BackgroundImageFix" result="effect1_dropShadow_6_24"/>
<feBlend mode="normal" in="SourceGraphic" in2="effect1_dropShadow_6_24" result="shape"/>
<feGaussianBlur stdDeviation="15" result="effect2_foregroundBlur_6_24"/>
</filter>
<linearGradient id="paint0_linear_6_24" x1="130" y1="257" x2="265.36" y2="42.5239" gradientUnits="userSpaceOnUse">
<stop offset="0.0611272" stop-color="#00090F" stop-opacity="0"/>
<stop offset="0.814305" stop-color="#2ADACC"/>
<stop offset="1" stop-color="#C3F7F3"/>
</linearGradient>
<linearGradient id="paint1_linear_6_24" x1="130" y1="257" x2="265.36" y2="42.5239" gradientUnits="userSpaceOnUse">
<stop offset="0.0611272" stop-color="#00090F" stop-opacity="0"/>
<stop offset="0.814305" stop-color="#2ADACC"/>
<stop offset="1" stop-color="#C3F7F3"/>
</linearGradient>
<linearGradient id="paint2_linear_6_24" x1="201.5" y1="162" x2="251.989" y2="253.831" gradientUnits="userSpaceOnUse">
<stop stop-color="#00090F" stop-opacity="0"/>
<stop offset="0.784108" stop-color="#2ADACC"/>
<stop offset="1" stop-color="#DAF8F6"/>
</linearGradient>
</defs>
</svg>
