<svg width="118" height="20" viewBox="0 0 118 20" fill="none" xmlns="http://www.w3.org/2000/svg">
<path d="M0.935045 1.06897H5.19677L9.92683 8.59919L14.6569 1.06897H18.9342V18.8761H15.0003V7.25671L9.92683 14.8641H9.81755L4.80651 7.33386V18.8761H0.919434V1.06897H0.935045Z" fill="white"/>
<path d="M33.0464 1.06897H46.6277V4.55633H36.9803V8.16713H45.4725V11.6545H36.9803V15.3887H46.7526V18.8761H33.0308V1.06897H33.0464Z" fill="white"/>
<path d="M64.2678 4.67977H58.7885V1.06897H73.7123V4.67977H68.2329V18.8761H64.2678V4.67977Z" fill="white"/>
<path d="M86.7004 1.06897H90.6656V18.8761H86.7004V1.06897Z" fill="white"/>
<path d="M103.716 16.2683L106.058 13.4907C107.713 14.8178 109.383 15.651 111.444 15.651C113.098 15.651 114.035 15.0184 114.035 13.9691V13.9228C114.035 12.9352 113.41 12.3951 110.413 11.6545C106.76 10.7595 104.45 9.72562 104.45 6.2074V6.16111C104.45 2.93608 107.041 0.791199 110.757 0.791199C113.41 0.791199 115.596 1.60903 117.454 3.05952L115.393 6.0068C113.769 4.91122 112.255 4.24769 110.71 4.24769C109.164 4.24769 108.399 4.91122 108.399 5.8062V5.85249C108.399 7.04066 109.164 7.38014 112.286 8.19797C115.939 9.17011 118 10.4354 118 13.537V13.5833C118 17.117 115.268 19.1075 111.381 19.1075C108.602 19.123 105.87 18.2125 103.716 16.2683Z" fill="white"/>
</svg>
