<svg width="39" height="36" viewBox="0 0 39 36" fill="none" xmlns="http://www.w3.org/2000/svg">
<path d="M38.3251 18.0652C38.1065 7.7883 29.4426 -0.343718 19.0146 0.0111899C8.83642 0.350667 0.781277 8.77587 0.999827 18.8522C1.15593 26.2898 5.7611 32.6164 12.2396 35.394C13.1606 34.2366 13.9255 32.1689 14.3002 31.0116C14.6748 30.0703 15.0807 29.1445 15.5022 28.2495C17.3911 28.8976 19.9356 28.2804 21.3406 26.7836L21.4031 26.7219C19.7171 25.9966 17.3911 26.367 15.8612 27.5397C16.3764 26.475 16.9384 25.4411 17.516 24.4381C19.3737 25.1788 21.9494 24.6696 23.4012 23.2499L23.4637 23.1882C21.8402 22.4012 19.5454 22.6481 17.9687 23.6974C18.5463 22.7562 19.1395 21.8303 19.7639 20.9662C21.6997 21.5526 24.2442 20.8273 25.5711 19.2688L25.618 19.2071C24.0413 18.6053 21.9807 18.9602 20.5132 19.9786C20.5601 19.9169 20.6225 19.8397 20.6694 19.778C21.044 19.2997 21.4343 18.8213 21.8245 18.3584C24.1037 17.7257 26.1331 15.4265 26.4609 13.0502L26.4765 12.9576H26.4609C24.1037 13.4205 21.9182 15.7197 21.4811 18.1424C21.1065 18.5898 20.7318 19.0373 20.3727 19.5003C20.966 17.9263 20.8567 15.9975 19.9981 14.6704L19.9513 14.7322C18.6556 16.3524 18.4526 18.991 19.4517 20.7502C18.8585 21.5834 18.2809 22.4321 17.7345 23.3271C18.078 21.5371 17.5004 19.454 16.2203 18.2812L16.1891 18.3584C15.3461 20.2255 15.7988 22.8024 17.1882 24.2684C16.6418 25.2096 16.1266 26.1818 15.6271 27.1848C15.9237 25.3177 15.2524 23.1574 13.9099 22L13.8787 22.0772C13.1138 24.0369 13.707 26.691 15.19 28.1106C14.8622 28.805 14.5499 29.4994 14.2533 30.2246C14.1753 30.1475 14.0816 30.1012 13.9723 30.0549C13.5821 29.9469 13.0513 29.7463 12.4581 29.3914C12.0678 29.1599 11.6463 28.9748 11.2249 28.8359C9.5389 28.2958 9.78867 27.4934 8.91447 25.8732C8.85203 25.7652 8.16516 25.0553 8.00905 24.9165C7.97783 24.8856 7.52512 24.6233 7.30656 24.1604C7.10363 23.7283 6.97874 23.3271 6.94752 22.9413C6.88507 22.4167 6.66652 22.0772 6.15137 21.892C3.66926 21.0433 4.77763 17.8646 4.87129 17.448C4.94934 17.0931 4.62152 16.3061 4.51224 15.874C4.49663 15.8277 4.48102 15.766 4.46541 15.6734C4.29369 14.8247 4.68396 14.0995 4.98057 13.8063C5.27717 13.5131 6.30748 13.0348 6.52603 12.757C6.74458 12.4793 6.90069 12.1706 7.11924 11.9083C7.41584 11.5534 8.29004 10.859 9.49207 10.2264C10.2102 9.84059 10.335 8.85302 10.616 8.54441C11.0844 8.01976 11.8025 8.01976 12.3332 7.55684C12.5986 7.32538 12.9889 7.20193 13.2386 6.95504C14.4719 5.70515 16.111 5.21136 17.7345 4.90275C18.8273 4.70215 20.0449 5.01076 21.2001 5.21136C21.3718 5.24222 21.5279 5.27308 21.6841 5.31938C24.2598 5.41196 27.3507 5.93661 28.4747 7.01676C29.1772 7.69572 29.5206 8.42096 29.6767 8.93018C29.8641 9.50112 30.1138 10.0412 30.4261 10.535L31.1129 11.646C31.55 12.3404 31.6905 13.1891 31.5032 13.9915C31.3939 14.4544 31.3471 14.9327 31.472 15.1951C31.6905 15.6117 32.3462 16.2907 32.7365 16.6764C32.9238 16.8616 33.1423 17.0313 33.3609 17.1702C33.8916 17.4943 34.8907 18.1424 34.8907 18.1886C34.8907 18.2658 34.9688 18.5744 34.5317 18.9602C34.0946 19.346 33.2516 19.9478 33.2516 19.9478C33.2516 19.9478 33.2984 20.2255 33.4077 20.4415C33.5326 20.6576 33.8136 20.997 33.7199 21.2902C33.6263 21.5834 33.0174 21.8303 33.1892 22.1544C33.3609 22.4938 33.798 22.5864 33.6731 22.895C33.5482 23.1882 32.9394 23.7129 33.0018 23.9289C33.0643 24.1449 33.5638 26.2126 32.4086 26.5676C31.55 26.8453 29.1772 26.9842 28.0688 27.0459C27.5849 27.0768 27.1634 27.3391 26.9293 27.7557C26.7575 28.0643 26.5858 28.4964 26.5078 29.0673C26.2892 30.5178 24.8374 33.8663 24.8374 33.8663C24.8374 33.8663 24.7906 33.9589 24.7281 34.0978C24.6033 34.4064 24.4159 34.8693 24.4472 35.0699C24.4628 35.1934 24.6345 35.4403 24.8843 35.7334C25.0872 35.9649 25.415 36.0575 25.7116 35.9649C33.1892 33.3725 38.4968 26.2898 38.3251 18.0652Z" fill="#00DACC"/>
</svg>
