<svg width="60" height="60" viewBox="0 0 60 60" fill="none" xmlns="http://www.w3.org/2000/svg">
<path d="M59.4957 24.3119L49.3548 18.7802V11.6132C49.3548 11.0792 48.9223 10.6455 48.3871 10.6455H41.6129V6.77452C41.6129 6.42026 41.4193 6.09408 41.1087 5.92472L30.4635 0.118269C30.1762 -0.039423 29.825 -0.039423 29.5373 0.118269L18.8921 5.92472C18.5806 6.09407 18.3871 6.42026 18.3871 6.77452V10.6455H11.6129C11.0776 10.6455 10.6451 11.0792 10.6451 11.6132V18.7802L0.504177 24.3119C0.193549 24.4812 0 24.8074 0 25.1617V34.8391C0 35.1934 0.193549 35.5195 0.504177 35.6889L11.1493 41.4954C11.2936 41.5736 11.4531 41.6133 11.6129 41.6133C11.7728 41.6133 11.9322 41.5736 12.0765 41.4954L22.7216 35.6889C23.0323 35.5196 23.2258 35.1934 23.2258 34.8391V25.1617C23.2258 24.8074 23.0323 24.4812 22.7216 24.3119L12.5807 18.7802V12.581H18.3871V16.4519C18.3871 16.8062 18.5807 17.1324 18.8913 17.3017L29.5365 23.1082C29.6808 23.1864 29.8402 23.2261 30 23.2261C30.1599 23.2261 30.3193 23.1864 30.4636 23.1082L41.1088 17.3017C41.4194 17.1324 41.613 16.8062 41.613 16.4519V12.581H47.4194V18.7802L37.2785 24.3119C36.9678 24.4812 36.7743 24.8074 36.7743 25.1617V34.8391C36.7743 35.1934 36.9678 35.5195 37.2785 35.6889L47.9236 41.4954C48.0679 41.5736 48.2273 41.6133 48.3872 41.6133C48.547 41.6133 48.7065 41.5736 48.8508 41.4954L59.4959 35.6889C59.8065 35.5196 60.0001 35.1934 60.0001 34.8391V25.1617C60.0001 24.8074 59.8065 24.4812 59.4959 24.3119H59.4957ZM1.93555 26.7913L10.6452 31.5419V39.0146L1.93555 34.264V26.7913ZM12.5807 39.0147V31.542L21.2904 26.7914V34.2641L12.5807 39.0147ZM20.2375 25.1611L11.613 29.8654L2.98845 25.1611L10.6452 20.9851V23.2256H12.5807V20.9851L20.2375 25.1611ZM30.0001 2.06908L38.6246 6.77341L30.0001 11.4777L21.3756 6.77341L30.0001 2.06908ZM20.3227 12.5799H22.2581V10.6444H20.3227V8.40298L29.0323 13.1535V20.6263L20.3227 15.8757V12.5799ZM39.6775 15.8758L30.9678 20.6264V13.1537L39.6775 8.40309V10.6445H37.742V12.58H39.6775V15.8758ZM47.4194 20.9845V23.225H49.3549V20.9845L57.0117 25.1605L48.3872 29.8648L39.7627 25.1605L47.4194 20.9845ZM38.7098 26.7901L47.4194 31.5406V39.0134L38.7098 34.2628V26.7901ZM49.3549 39.0135V31.5408L58.0646 26.7902V34.2629L49.3549 39.0135Z" fill="#2ADACC"/>
<path d="M47.4195 47.4194H41.613V43.5484C41.613 43.1942 41.4195 42.868 41.1088 42.6986L30.4637 36.8922C30.1764 36.7345 29.8251 36.7345 29.5374 36.8922L18.8922 42.6986C18.5807 42.868 18.3872 43.1942 18.3872 43.5484V47.4194H12.5807V43.5484H10.6453V48.3872C10.6453 48.9211 11.0777 49.3549 11.613 49.3549H18.3872V53.2259C18.3872 53.5801 18.5807 53.9063 18.8914 54.0757L29.5365 59.8821C29.6808 59.9603 29.8403 60.0001 30.0001 60.0001C30.16 60.0001 30.3194 59.9603 30.4637 59.8821L41.1088 54.0757C41.4195 53.9063 41.613 53.5801 41.613 53.2259V49.3549H48.3872C48.9225 49.3549 49.3549 48.9211 49.3549 48.3872V43.5484H47.4195V47.4194ZM30.0001 38.8441L38.6246 43.5484L30.0001 48.2528L21.3756 43.5484L30.0001 38.8441ZM20.3227 49.3549H22.2582V47.4194H20.3227V45.178L29.0324 49.9286V57.4013L20.3227 52.6508V49.3549ZM39.6775 52.6509L30.9678 57.4014V49.9287L39.6775 45.1781V47.4195H37.742V49.355H39.6775V52.6509Z" fill="#2ADACC"/>
</svg>
