<svg width="60" height="60" viewBox="0 0 60 60" fill="none" xmlns="http://www.w3.org/2000/svg">
<path d="M57.4938 7.06496C57.4938 7.75704 58.0539 8.31804 58.7469 8.31804C59.439 8.31804 60 7.75704 60 7.06496C60 3.16941 56.8306 0 52.935 0H7.06496C3.16941 0 0 3.16941 0 7.06496V52.935C0 56.8087 3.13451 59.9606 6.99941 59.9964C7.00553 59.9964 7.0099 59.9999 7.01601 59.9999C7.01951 59.9999 7.02213 59.9982 7.02563 59.9982C7.03873 59.9982 7.05184 59.9999 7.06495 59.9999H52.935C52.9482 59.9999 52.9613 59.9982 52.9752 59.9982C52.9787 59.9982 52.9814 59.9999 52.9857 59.9999C52.9918 59.9999 52.9971 59.9964 53.0023 59.9964C56.8663 59.9597 59.9999 56.8078 59.9999 52.935V11.3444C59.9999 10.6523 59.4398 10.0913 58.7469 10.0913H7.61306C6.92097 10.0913 6.35997 10.6523 6.35997 11.3444C6.35997 12.0365 6.9201 12.5975 7.61306 12.5975H57.4941V52.9354C57.4941 54.9933 56.1143 56.7173 54.2372 57.2819V24.183C54.2372 21.2033 51.8123 18.7783 48.8326 18.7783L11.1657 18.7775C8.18596 18.7775 5.76192 21.2024 5.76192 24.1821V57.2811C3.88493 56.7166 2.50438 54.9926 2.50438 52.9336V7.06578C2.50438 4.55182 4.55002 2.50606 7.06409 2.50606H52.9342C55.4482 2.50606 57.493 4.55171 57.493 7.06578L57.4938 7.06496ZM8.2682 57.4941V29.9228H51.7313V57.4941H8.2682ZM11.1667 21.2835H48.8337C50.4328 21.2835 51.7331 22.5837 51.7331 24.1829V27.4169H8.26776V24.1829C8.26776 22.5837 9.56802 21.2835 11.1663 21.2835H11.1667Z" fill="#2ADACC"/>
<path d="M7.61271 5.09192C6.92062 5.09192 6.35962 5.65292 6.35962 6.34501C6.35962 7.0371 6.91974 7.5981 7.61271 7.5981H10.3296C11.0217 7.5981 11.5827 7.0371 11.5827 6.34501C11.5827 5.65292 11.0225 5.09192 10.3296 5.09192H7.61271Z" fill="#2ADACC"/>
<path d="M11.0868 25.6948H13.8028C14.4949 25.6948 15.0559 25.1338 15.0559 24.4417C15.0559 23.7496 14.4958 23.1886 13.8028 23.1886H11.0868C10.3947 23.1886 9.83374 23.7496 9.83374 24.4417C9.83374 25.1338 10.3939 25.6948 11.0868 25.6948Z" fill="#2ADACC"/>
<path d="M15.1112 5.09192C14.4192 5.09192 13.8582 5.65292 13.8582 6.34501C13.8582 7.0371 14.4183 7.5981 15.1112 7.5981H17.8272C18.5193 7.5981 19.0803 7.0371 19.0803 6.34501C19.0803 5.65292 18.5202 5.09192 17.8272 5.09192H15.1112Z" fill="#2ADACC"/>
<path d="M51.5165 5.09192C50.8244 5.09192 50.2634 5.65292 50.2634 6.34501C50.2634 7.0371 50.8236 7.5981 51.5165 7.5981H54.2325C54.9246 7.5981 55.4856 7.0371 55.4856 6.34501C55.4856 5.65292 54.9254 5.09192 54.2325 5.09192H51.5165Z" fill="#2ADACC"/>
<path d="M25.764 39.2579C25.2746 38.7685 24.482 38.7685 23.9927 39.2579L18.8082 44.4433C18.3188 44.9326 18.3188 45.7252 18.8082 46.2146L23.9533 51.3597C24.198 51.6044 24.5187 51.7267 24.8394 51.7267C25.1601 51.7267 25.4808 51.6044 25.7254 51.3597C26.2148 50.8704 26.2148 50.0778 25.7254 49.5884L21.4655 45.3285L25.7648 41.0292C26.2533 40.5398 26.2533 39.7472 25.7639 39.2579H25.764Z" fill="#2ADACC"/>
<path d="M40.2979 44.4433L35.1134 39.2579C34.624 38.7685 33.8315 38.7685 33.3421 39.2579C32.8528 39.7472 32.8528 40.5398 33.3421 41.0292L37.6414 45.3285L33.3815 49.5884C32.8921 50.0778 32.8921 50.8704 33.3815 51.3597C33.6262 51.6044 33.9468 51.7267 34.2675 51.7267C34.5882 51.7267 34.9089 51.6044 35.1536 51.3597L40.2988 46.2146C40.7872 45.7252 40.7872 44.9326 40.2979 44.4433H40.2979Z" fill="#2ADACC"/>
</svg>
