<svg width="76" height="60" viewBox="0 0 76 60" fill="none" xmlns="http://www.w3.org/2000/svg">
<path d="M68.9574 36.5804H66.2513C67.506 34.4057 67.9398 31.8529 67.474 29.3855C66.8781 26.2948 64.9148 23.6403 62.1349 22.1645C59.3551 20.6886 56.0564 20.5498 53.1621 21.787C52.6207 17.8791 50.3345 14.4283 46.9476 12.4046C43.5608 10.381 39.4391 10.0035 35.7409 11.3782C34.445 6.77969 31.1151 3.02751 26.7024 1.19439C22.2903 -0.638135 17.2818 -0.350112 13.109 1.97678C8.9363 4.30357 6.05875 8.41307 5.29847 13.1301C4.53872 17.8472 5.98037 22.6524 9.21154 26.1718H6.50543C4.78026 26.1718 3.12558 26.8572 1.90509 28.0769C0.685322 29.2972 0 30.952 0 32.6772V58.6989C0 59.0439 0.137079 59.375 0.381032 59.619C0.624985 59.8629 0.956068 60 1.30109 60H74.1619C74.5069 60 74.838 59.8629 75.0819 59.619C75.3259 59.375 75.463 59.0439 75.463 58.6989V43.0859C75.463 41.3607 74.7776 39.706 73.5579 38.4855C72.3375 37.2658 70.6827 36.5805 68.9575 36.5805L68.9574 36.5804ZM58.8479 23.7258C60.3489 24.0389 61.7237 24.787 62.8023 25.8773C63.8804 26.967 64.614 28.35 64.9114 29.8537C65.2239 31.451 65.0293 33.1058 64.3556 34.5876C63.6812 36.0687 62.5608 37.3025 61.151 38.1157V37.8816C61.151 36.1565 60.4656 34.5018 59.2459 33.2813C58.0256 32.0615 56.3708 31.3762 54.6456 31.3762H50.7423C52.2381 29.4304 53.1412 27.0954 53.3445 24.6495C55.0028 23.6743 56.9626 23.3449 58.848 23.726L58.8479 23.7258ZM41.6349 36.5804C44.0025 36.3312 46.2543 35.4309 48.1404 33.9782H54.6458C55.6809 33.9782 56.6741 34.3895 57.4059 35.1213C58.1376 35.8532 58.549 36.8465 58.549 37.8814V57.3977H41.6349L41.6349 36.5804ZM40.4901 13.1609C43.1642 13.2253 45.7136 14.3069 47.6187 16.1847C49.5234 18.0632 50.6408 20.5968 50.7425 23.2704C50.8145 25.8552 49.9218 28.3742 48.2379 30.3368C46.5546 32.2989 44.2005 33.5646 41.6349 33.8869V32.6771C41.6349 30.9519 40.9495 29.2972 39.7298 28.0767C38.5095 26.8569 36.8546 26.1716 35.1295 26.1716H32.4234C34.9948 23.3138 36.4219 19.6075 36.4306 15.7629C36.4288 15.1676 36.394 14.5722 36.3266 13.9804C37.6451 13.4297 39.0613 13.1509 40.4901 13.1608L40.4901 13.1609ZM20.8177 2.75218C24.2685 2.75218 27.5775 4.12298 30.0176 6.5631C32.4577 9.00322 33.8285 12.3123 33.8285 15.763C33.8285 19.2138 32.4577 22.5229 30.0176 24.963C27.5775 27.4031 24.2685 28.7739 20.8177 28.7739C17.3669 28.7739 14.0578 27.4031 11.6177 24.963C9.17765 22.5229 7.80683 19.2138 7.80683 15.763C7.80683 12.3123 9.17762 9.00319 11.6177 6.5631C14.0579 4.12301 17.3669 2.75218 20.8177 2.75218V2.75218ZM2.60248 32.6772C2.60248 31.6421 3.01372 30.6488 3.74558 29.9171C4.47744 29.1853 5.47075 28.774 6.50567 28.774H12.2043C14.7595 30.4636 17.7548 31.3645 20.8176 31.3645C23.8804 31.3645 26.8758 30.4637 29.4309 28.774H35.1296C36.1646 28.774 37.1579 29.1852 37.8896 29.9171C38.6214 30.6489 39.0327 31.6422 39.0327 32.6772V57.3978H2.60233L2.60248 32.6772ZM72.8611 57.3978H61.1513V41.0309C62.2393 40.5906 63.2429 39.9656 64.1177 39.1832H68.9579C69.9929 39.1832 70.9862 39.5944 71.7179 40.3263C72.4497 41.0581 72.861 42.0514 72.861 43.0864L72.8611 57.3978Z" fill="#2ADACC"/>
<path d="M23.0418 8.28209C24.7355 8.78625 26.2079 9.85097 27.2186 11.3008C27.4637 11.6545 27.868 11.8636 28.2984 11.8601C28.5638 11.8595 28.8223 11.7776 29.0401 11.626C29.6285 11.216 29.7737 10.4068 29.3654 9.81729C28.0138 7.88663 26.0523 6.46644 23.7969 5.78393C23.1069 5.57541 22.3785 5.96574 22.1705 6.65577C21.962 7.34581 22.3523 8.07362 23.0417 8.28221L23.0418 8.28209Z" fill="#2ADACC"/>
<path d="M35.1292 31.3761C34.4107 31.3761 33.8281 31.9587 33.8281 32.6772V37.8815C33.8281 38.6 34.4107 39.1826 35.1292 39.1826C35.8477 39.1826 36.4303 38.6 36.4303 37.8815V32.6772C36.4303 32.3322 36.2932 32.0011 36.0493 31.7571C35.8053 31.5132 35.4742 31.3761 35.1292 31.3761Z" fill="#2ADACC"/>
<path d="M41.3744 18.4693C42.6221 18.7243 43.7332 19.4283 44.497 20.4471C44.7427 20.7747 45.1284 20.9676 45.5379 20.9676C45.8196 20.9676 46.0932 20.8764 46.3186 20.7074C46.8936 20.2764 47.0098 19.4609 46.5788 18.8858C45.4328 17.3571 43.7664 16.3017 41.8949 15.9195C41.5499 15.8504 41.1915 15.9213 40.8987 16.1164C40.606 16.3116 40.4027 16.6154 40.3336 16.9604C40.1901 17.6789 40.6559 18.3776 41.3744 18.5217V18.4693Z" fill="#2ADACC"/>
<path d="M54.6455 36.5803C53.927 36.5803 53.3444 37.1629 53.3444 37.8814V43.0858C53.3444 43.8042 53.927 44.3868 54.6455 44.3868C55.364 44.3868 55.9466 43.8042 55.9466 43.0858V37.8814C55.9466 37.5364 55.8095 37.2053 55.5656 36.9614C55.3216 36.7174 54.9905 36.5803 54.6455 36.5803Z" fill="#2ADACC"/>
<path d="M68.9575 41.7848C68.239 41.7848 67.6564 42.3674 67.6564 43.0859V48.2902C67.6564 49.0087 68.239 49.5913 68.9575 49.5913C69.676 49.5913 70.2585 49.0087 70.2585 48.2902V43.0859C70.2585 42.7409 70.1215 42.4098 69.8775 42.1658C69.6336 41.9219 69.3025 41.7848 68.9575 41.7848Z" fill="#2ADACC"/>
</svg>
