<svg width="42" height="40" viewBox="0 0 42 40" fill="none" xmlns="http://www.w3.org/2000/svg">
<path d="M18.8933 33.278H17.4437C17.2703 31.9434 16.6492 30.7074 15.6824 29.7711L16.3591 28.7906C16.6015 28.441 16.5143 27.9617 16.1651 27.7197C15.8156 27.4776 15.3363 27.5645 15.0942 27.9136L14.4673 28.8482C13.5815 28.3473 12.5817 28.0826 11.564 28.0791C11.1767 28.0795 10.7901 28.1179 10.4104 28.1945L9.94894 26.7717C9.8171 26.3672 9.38244 26.1457 8.97797 26.2776C8.57351 26.4091 8.35206 26.8438 8.4839 27.2486L8.9529 28.6868C7.06799 29.5994 5.80169 31.4362 5.61939 33.523C5.43674 35.6095 6.36513 37.6379 8.06367 38.8641C9.7618 40.0901 11.9795 40.3325 13.9025 39.5027C15.8256 38.6728 17.1708 36.893 17.4437 34.8161H18.8933C19.318 34.8161 19.6624 34.4721 19.6624 34.047C19.6624 33.6223 19.318 33.278 18.8933 33.278H18.8933ZM11.5448 38.4617C10.3727 38.4617 9.24891 37.9962 8.42006 37.167C7.59158 36.3382 7.12599 35.2141 7.12634 34.0419C7.12668 32.8701 7.59259 31.746 8.42173 30.9179C9.2509 30.0894 10.3754 29.6242 11.5472 29.6249C12.7194 29.6255 13.8431 30.0921 14.6712 30.9213C15.4994 31.7508 15.9643 32.8752 15.9632 34.047C15.9622 35.2181 15.4963 36.3413 14.6678 37.1691C13.8394 37.9969 12.7159 38.4617 11.5448 38.4617Z" fill="#2ADACC"/>
<path d="M14.6822 11.0441C14.8439 11.0437 15.0011 10.9926 15.1323 10.8978L16.2859 10.048C17.228 11.0468 18.4881 11.6871 19.8505 11.8591V12.6976C19.8505 13.1223 20.1948 13.4666 20.6196 13.4666C21.0443 13.4666 21.3886 13.1223 21.3886 12.6976V11.8591C22.7456 11.6837 23.9997 11.0437 24.9381 10.048L26.1185 10.9057C26.2823 11.0386 26.4938 11.0983 26.7029 11.0712C26.912 11.0437 27.1008 10.9315 27.2251 10.7608C27.3494 10.5902 27.3978 10.3763 27.3594 10.1686C27.3212 9.96117 27.199 9.77852 27.0222 9.6635L25.8455 8.80996C26.3245 7.9365 26.5745 6.95625 26.5724 5.96058C26.5724 3.83088 25.4363 1.86318 23.5922 0.798504C21.7478 -0.266168 19.4759 -0.266168 17.6319 0.798504C15.7875 1.86318 14.6517 3.83088 14.6517 5.96058C14.6493 6.95625 14.8996 7.93646 15.3782 8.80996L14.2246 9.65217C14.0591 9.772 13.9482 9.95328 13.9166 10.1552C13.8847 10.3574 13.9348 10.5637 14.0557 10.7289C14.2016 10.9287 14.4347 11.0458 14.6823 11.0441L14.6822 11.0441ZM20.6195 1.54614C21.7917 1.54511 22.9165 2.00999 23.746 2.83846C24.5751 3.66694 25.0414 4.79105 25.0417 5.96321C25.0421 7.13538 24.5765 8.25982 23.7476 9.08867C22.9188 9.91784 21.7944 10.3834 20.6219 10.3831C19.4498 10.3828 18.3257 9.9165 17.4972 9.087C16.6687 8.25749 16.2038 7.1331 16.2048 5.96093C16.2059 4.79017 16.6714 3.6681 17.4993 2.84031C18.3267 2.01285 19.4491 1.54728 20.6195 1.54623V1.54614Z" fill="#2ADACC"/>
<path d="M35.3086 10.8094C33.7158 10.8142 32.1921 11.4587 31.0786 12.5976L29.8828 11.7323C29.7191 11.5991 29.5076 11.5394 29.2985 11.5669C29.089 11.5943 28.9002 11.7063 28.7762 11.8769C28.652 12.0475 28.6035 12.2618 28.642 12.4692C28.6801 12.6769 28.802 12.8595 28.9792 12.9742L30.1328 13.8277V13.8281C29.4262 15.0631 29.1886 16.5116 29.4636 17.908L28.5252 18.2232C28.1654 18.3416 27.945 18.7046 28.0065 19.0784C28.0679 19.4523 28.3924 19.726 28.7714 19.7229C28.8538 19.7219 28.9359 19.7078 29.0138 19.6807L29.9597 19.3655C30.5582 20.5912 31.5584 21.5749 32.7937 22.1534L32.3552 23.511V23.5106C32.224 23.9144 32.4441 24.348 32.8476 24.4798C32.9248 24.5035 33.0052 24.5166 33.0858 24.5183C33.4196 24.5176 33.7148 24.3016 33.8165 23.9837L34.2625 22.6186H34.2628C34.6061 22.6832 34.955 22.7168 35.3048 22.7185C37.4342 22.7185 39.4018 21.5824 40.4666 19.7384C41.5313 17.8943 41.5313 15.6221 40.4666 13.778C39.4019 11.934 37.4342 10.7979 35.3048 10.7979L35.3086 10.8094ZM35.3086 21.1916C34.1368 21.1916 33.013 20.726 32.1842 19.8975C31.3557 19.0687 30.8901 17.9449 30.8901 16.7731C30.8901 15.6013 31.3557 14.4776 32.1842 13.6487C33.013 12.8202 34.1368 12.3546 35.3086 12.3546C36.4804 12.3546 37.6041 12.8202 38.433 13.6487C39.2615 14.4775 39.7271 15.6013 39.7271 16.7731C39.7229 17.9426 39.2557 19.0629 38.4279 19.8889C37.5998 20.7146 36.478 21.1788 35.3087 21.1799L35.3086 21.1916Z" fill="#2ADACC"/>
<path d="M6.97206 22.619L7.42183 24.0033H7.42218C7.52518 24.3195 7.82011 24.5338 8.15281 24.5341C8.23383 24.5348 8.31452 24.5218 8.39108 24.4957C8.7945 24.3635 9.01459 23.9298 8.88343 23.5264L8.44122 22.1538C9.67658 21.5753 10.6767 20.5916 11.2751 19.3658L12.2211 19.681C12.299 19.7082 12.381 19.7222 12.4634 19.7233C12.8425 19.7263 13.167 19.4527 13.2284 19.0788C13.2899 18.7049 13.0694 18.342 12.7096 18.2236L11.775 17.9084C12.0501 16.512 11.8125 15.0635 11.1059 13.8285L12.2595 12.99C12.5771 12.7325 12.6375 12.2711 12.3968 11.9405C12.1561 11.6098 11.6988 11.5254 11.3558 11.7482L10.2022 12.598C8.80508 11.1738 6.78763 10.5441 4.82889 10.9208C2.8698 11.2974 1.22968 12.6302 0.460243 14.4709C-0.308839 16.3115 -0.104896 18.4152 1.00341 20.0739C2.11168 21.7325 3.97742 22.7255 5.9722 22.719C6.30764 22.7149 6.6424 22.6812 6.97201 22.6191L6.97206 22.619ZM1.51158 16.7623C1.51158 15.5904 1.97715 14.4667 2.80566 13.6382C3.63448 12.8094 4.75825 12.3441 5.93006 12.3441C7.10188 12.3441 8.22562 12.8094 9.05447 13.6382C9.88295 14.4667 10.3485 15.5904 10.3485 16.7623C10.3485 17.9341 9.88297 19.0582 9.05447 19.8867C8.22564 20.7151 7.10188 21.1807 5.93006 21.1807C4.7586 21.1797 3.63521 20.7138 2.80706 19.8857C1.97858 19.0572 1.51264 17.9342 1.51167 16.7623L1.51158 16.7623Z" fill="#2ADACC"/>
<path d="M32.2902 28.6987L32.7362 27.3298C32.8087 27.1337 32.7977 26.9168 32.7067 26.7286C32.6157 26.5405 32.452 26.3976 32.2532 26.3327C32.0544 26.2682 31.8381 26.2867 31.6537 26.3849C31.469 26.4831 31.3323 26.652 31.275 26.8529L30.8328 28.2063V28.2066C30.453 28.1301 30.0668 28.0913 29.6791 28.0913C28.6615 28.0947 27.662 28.3594 26.7759 28.8604L26.1297 27.922H26.1301C25.8877 27.5725 25.4084 27.4856 25.0588 27.7277C24.7096 27.9697 24.6228 28.4494 24.8648 28.7986L25.5415 29.7791C24.5747 30.7154 23.954 31.9518 23.7802 33.2863H22.3461C21.9214 33.2863 21.577 33.6307 21.577 34.0554C21.577 34.4801 21.9214 34.8245 22.3461 34.8245H23.7957C24.0679 36.901 25.4121 38.6816 27.3349 39.5121C29.2572 40.3426 31.4749 40.1013 33.1737 38.8762C34.8726 37.6512 35.802 35.6231 35.6207 33.5366C35.4398 31.4502 34.1746 29.6125 32.2903 28.6986L32.2902 28.6987ZM29.6946 38.462C28.5224 38.4631 27.3977 37.9982 26.5682 37.1697C25.739 36.3412 25.2728 35.2171 25.2724 34.045C25.2721 32.8728 25.7377 31.7484 26.5665 30.9195C27.3953 30.0903 28.5198 29.6248 29.6922 29.6251C30.8644 29.6254 31.9885 30.0917 32.817 30.9212C33.6455 31.7507 34.1104 32.8751 34.1093 34.0473C34.1073 35.2177 33.6413 36.3394 32.8139 37.1668C31.9865 37.9943 30.8648 38.4598 29.6947 38.4619L29.6946 38.462Z" fill="#2ADACC"/>
<path d="M23.1694 26.322C23.3136 26.5297 23.5508 26.6533 23.8039 26.6527C23.9604 26.6523 24.1136 26.6039 24.242 26.5143C24.5898 26.2715 24.676 25.7936 24.4343 25.4451L23.9423 24.7337C24.7718 23.8785 25.2353 22.7334 25.2342 21.5421C25.2339 21.3464 25.2198 21.151 25.192 20.9577L26.1688 20.6309C26.3693 20.5718 26.5372 20.4338 26.634 20.2487C26.7305 20.0633 26.7476 19.8467 26.6814 19.6486C26.6148 19.4501 26.4706 19.2877 26.2817 19.1981C26.0929 19.1085 25.8759 19.0996 25.6802 19.1734L24.7456 19.4848H24.7459C24.0878 18.1674 22.8407 17.2431 21.3888 16.9969V16.1585C21.3888 15.7338 21.0444 15.3894 20.6197 15.3894C20.195 15.3894 19.8506 15.7338 19.8506 16.1585V16.9969C18.3986 17.2431 17.1516 18.1673 16.4935 19.4848L15.5589 19.1734H15.5592C15.1623 19.057 14.7448 19.275 14.6133 19.6668C14.4822 20.0589 14.684 20.4846 15.0706 20.6309L16.0474 20.9577C16.0196 21.151 16.0055 21.3464 16.0052 21.5421C16.0042 22.7335 16.4677 23.8785 17.2972 24.7338L16.8048 25.4452H16.8051C16.5634 25.7936 16.6496 26.2716 16.9974 26.5143C17.165 26.6314 17.3723 26.6771 17.5735 26.641C17.7751 26.605 17.9536 26.4899 18.07 26.322L18.5315 25.6529C19.8427 26.3244 21.3967 26.3244 22.7079 25.6529L23.1694 26.322ZM17.5434 21.542C17.5434 20.7263 17.8675 19.9437 18.4443 19.3666C19.0215 18.7898 19.804 18.4657 20.6197 18.4657C21.4355 18.4657 22.218 18.7898 22.7951 19.3666C23.3719 19.9438 23.6961 20.7263 23.6961 21.542C23.6961 22.3578 23.3719 23.1403 22.7951 23.7174C22.218 24.2942 21.4355 24.6184 20.6197 24.6184C19.804 24.6184 19.0215 24.2942 18.4443 23.7174C17.8675 23.1403 17.5434 22.3578 17.5434 21.542Z" fill="#2ADACC"/>
</svg>
