<svg width="39" height="23" viewBox="0 0 39 23" fill="none" xmlns="http://www.w3.org/2000/svg">
<path d="M38.9538 13.9808C38.8293 13.6222 38.5076 13.3701 38.1309 13.3356L34.1396 12.9677L32.4426 9.32239C32.2753 8.98425 31.9321 8.76937 31.5557 8.76765C31.1764 8.77283 30.8349 8.9998 30.6817 9.34832L29.1007 13.0519L25.122 13.5421C25.0509 13.5513 24.9817 13.5709 24.9163 13.6L24.6592 12.3485L29.1004 8.43875V8.43846C29.3836 8.18615 29.4933 7.79097 29.3811 7.42806C29.2689 7.06515 28.9555 6.80159 28.58 6.75465L22.731 6.02564L20.3979 0.573754C20.243 0.224659 19.8978 0 19.5173 0C19.1369 0 18.7916 0.224666 18.6367 0.573754L16.1363 5.94814L10.249 6.49022V6.48993C9.87138 6.52651 9.5503 6.78171 9.42834 7.14204C9.3061 7.50265 9.40596 7.9013 9.68343 8.16107L14.0027 12.2128L13.7006 13.5032L9.92765 13.0386L8.34666 9.33503V9.33532C8.19344 8.9868 7.85198 8.76012 7.47238 8.75465C7.09851 8.75379 6.75791 8.9701 6.5984 9.3094L4.8951 12.9613L0.87794 13.3288C0.499185 13.3631 0.175803 13.6175 0.0524405 13.9784C-0.0712301 14.3393 0.0280506 14.7393 0.305805 15L3.23656 17.7483L2.37543 21.6713C2.29193 22.046 2.4354 22.4348 2.74185 22.6647C3.04457 22.8929 3.4526 22.9208 3.78316 22.7359L7.29238 20.8003L10.7373 22.8586L10.7376 22.8583C11.0699 23.0619 11.492 23.0449 11.8071 22.8148C12.1218 22.5847 12.2682 22.1869 12.1772 21.8067L11.4188 17.8774L13.0449 16.4386L12.7044 17.9678C12.6183 18.3405 12.7589 18.729 13.0633 18.9594C13.3677 19.1896 13.7789 19.2181 14.112 19.0323L19.254 16.1612L24.3637 19.2258C24.5112 19.3145 24.6799 19.3612 24.8521 19.3612C25.0518 19.3612 25.2466 19.3004 25.4113 19.1872C25.7215 18.9654 25.8727 18.5812 25.797 18.2064L25.36 15.9223L27.6159 17.9094L26.8575 21.8065C26.7832 22.1815 26.9361 22.5652 27.2475 22.7858C27.5588 23.0061 27.97 23.022 28.2971 22.8258L31.7295 20.7872L35.2387 22.7228C35.5718 22.9085 35.983 22.88 36.2874 22.6499C36.5918 22.4195 36.7324 22.0309 36.6464 21.6582L35.7595 17.7355L38.6902 14.9872V14.9869C38.9657 14.7314 39.0684 14.3388 38.9539 13.9805L38.9538 13.9808ZM9.72859 16.7873C9.47236 17.0143 9.355 17.3602 9.42014 17.6969L9.87636 20.0778L7.80667 18.8389C7.6566 18.7508 7.48587 18.7041 7.3117 18.7035C7.14757 18.7027 6.98574 18.745 6.84256 18.826L4.73444 19.9939L5.26786 17.6327V17.6324C5.3416 17.2983 5.234 16.9501 4.98522 16.7162L3.21772 15.0583L5.62172 14.8388H5.62143C5.96346 14.8094 6.26302 14.5974 6.40565 14.2841L7.42771 12.0904L8.3789 14.3164C8.51634 14.6326 8.80931 14.853 9.15019 14.897L11.5413 15.1937L9.72859 16.7873ZM19.7935 14.2065C19.6435 14.1184 19.4727 14.0717 19.2986 14.0709C19.1344 14.0703 18.9726 14.1124 18.8294 14.1936L15.0565 16.2841L16.0077 12.0645H16.008C16.084 11.7283 15.9764 11.3769 15.7251 11.1419L12.5756 8.19332L16.8691 7.79987C17.2102 7.76761 17.5086 7.55648 17.6533 7.24484L19.4788 3.32216L21.1821 7.29638C21.3195 7.61264 21.6122 7.83327 21.9534 7.87705L26.2339 8.40616L22.988 11.2643C22.7318 11.4913 22.6144 11.8375 22.6796 12.1742L23.4959 16.4261L19.7935 14.2065ZM34.0492 16.7098C33.8004 16.9434 33.6928 17.2919 33.7665 17.626L34.2999 19.9939L32.1918 18.8262V18.8259C31.8931 18.6546 31.5264 18.6546 31.2277 18.8259L29.158 20.0778L29.6142 17.6969C29.6794 17.3602 29.562 17.0143 29.3058 16.7873L27.4932 15.1936L29.8843 14.897C30.2251 14.8529 30.5181 14.6326 30.6555 14.3163L31.6067 12.0904L32.6288 14.284C32.7714 14.5974 33.071 14.8094 33.413 14.8388L35.817 15.0582L34.0492 16.7098Z" fill="#2ADACC"/>
</svg>
