<svg width="39" height="36" viewBox="0 0 39 36" fill="none" xmlns="http://www.w3.org/2000/svg">
<path d="M19.4994 21.4672C20.2268 21.4672 20.8149 22.0553 20.8149 22.7828C20.8149 23.0846 21.0548 23.3245 21.3566 23.3245C21.6585 23.3245 21.8983 23.0846 21.8983 22.7828C21.8983 21.6452 21.1012 20.6933 20.0411 20.4457V19.904C20.0411 19.6022 19.8012 19.3623 19.4994 19.3623C19.1976 19.3623 18.9577 19.6022 18.9577 19.904V20.4457C17.8975 20.6933 17.1004 21.6452 17.1004 22.7828C17.1004 24.106 18.1761 25.1817 19.4994 25.1817C20.2268 25.1817 20.8149 25.7698 20.8149 26.4973C20.8149 27.217 20.2345 27.8051 19.5149 27.8129H19.4994H19.4839C18.7642 27.8051 18.1838 27.217 18.1838 26.4973C18.1838 26.1955 17.9439 25.9556 17.6421 25.9556C17.3403 25.9556 17.1004 26.1955 17.1004 26.4973C17.1004 27.6349 17.8975 28.5867 18.9577 28.8343V29.4612C18.9577 29.763 19.1976 30.0029 19.4994 30.0029C19.8012 30.0029 20.0411 29.763 20.0411 29.4612V28.8343C21.1012 28.5867 21.8984 27.6349 21.8984 26.4973C21.8984 25.174 20.8227 24.0983 19.4994 24.0983C18.772 24.0983 18.1838 23.5102 18.1838 22.7828C18.1838 22.0553 18.7719 21.4672 19.4994 21.4672H19.4994Z" fill="#2ADACC"/>
<path d="M19.2984 7.57611H19.5229C21.2486 7.57611 22.657 6.1677 22.657 4.44195V3.13415C22.657 1.40841 21.2486 0 19.5229 0H19.2984C17.5727 0 16.1643 1.40841 16.1643 3.13415V4.43424C16.1565 6.1677 17.565 7.57611 19.2984 7.57611ZM17.2399 3.13415C17.2399 2.0043 18.1609 1.08344 19.2906 1.08344H19.5151C20.6449 1.08344 21.5658 2.00437 21.5658 3.13415V4.43424C21.5658 5.5641 20.6449 6.48495 19.5151 6.48495H19.2906C18.1608 6.48495 17.2399 5.56403 17.2399 4.43424V3.13415Z" fill="#2ADACC"/>
<path d="M6.31238 26.1255H6.5368C8.26254 26.1255 9.67095 24.7171 9.67095 22.9914V21.6913C9.67095 19.9655 8.26254 18.5571 6.5368 18.5571H6.31238C4.58663 18.5571 3.17822 19.9655 3.17822 21.6913V22.9914C3.17822 24.7171 4.57892 26.1255 6.31238 26.1255ZM4.26167 21.6836C4.26167 20.5537 5.18259 19.6329 6.31238 19.6329H6.5368C7.66666 19.6329 8.58751 20.5538 8.58751 21.6836V22.9837C8.58751 24.1135 7.66658 25.0344 6.5368 25.0344H6.31238C5.18252 25.0344 4.26167 24.1134 4.26167 22.9837V21.6836Z" fill="#2ADACC"/>
<path d="M32.276 26.1255H32.5004C34.2262 26.1255 35.6346 24.7171 35.6346 22.9914V21.6913C35.6346 19.9655 34.2262 18.5571 32.5004 18.5571H32.276C30.5503 18.5571 29.1418 19.9655 29.1418 21.6913V22.9914C29.1418 24.7171 30.5503 26.1255 32.276 26.1255ZM30.2253 21.6836C30.2253 20.5537 31.1462 19.6329 32.276 19.6329H32.5004C33.6303 19.6329 34.5511 20.5538 34.5511 21.6836V22.9837C34.5511 24.1135 33.6302 25.0344 32.5004 25.0344H32.276C31.1461 25.0344 30.2253 24.1134 30.2253 22.9837V21.6836Z" fill="#2ADACC"/>
<path d="M35.6502 26.226H34.9692C34.7447 26.226 34.5435 26.3653 34.4584 26.5742L33.7852 28.3773L33.2357 27.3944C33.1429 27.2242 32.9571 27.1158 32.7637 27.1158H32.1214C31.9201 27.1158 31.7344 27.2319 31.6416 27.4099L31.185 28.2921L30.6046 26.5974C30.5272 26.3807 30.326 26.2337 30.0938 26.2337H29.3199C28.3758 26.2337 27.4704 26.6361 26.8359 27.3403C26.5031 27.7118 26.2555 28.1528 26.1162 28.6249L25.3655 28.0755C25.9537 27.0617 26.2633 25.9009 26.2633 24.6937C26.2633 22.8828 25.559 21.1881 24.2899 19.9112C23.1445 18.7658 21.651 18.0849 20.0491 17.9611V16.8467H25.4739C25.7757 16.8467 26.0156 16.6068 26.0156 16.305V11.3523C26.1007 10.4237 25.7911 9.48733 25.1643 8.79854C24.5298 8.09433 23.6243 7.69189 22.6803 7.69189H21.9993C21.7748 7.69189 21.5736 7.83119 21.4885 8.04013L20.8153 9.84321L20.2658 8.86038C20.1729 8.69013 19.9872 8.58178 19.7938 8.58178H19.1514C18.9502 8.58178 18.7645 8.69786 18.6717 8.87585L18.2151 9.75807L17.6347 8.06332C17.5573 7.84664 17.3561 7.69961 17.1239 7.69961H16.35C15.4059 7.69961 14.5005 8.10202 13.866 8.80626C13.2391 9.50274 12.9296 10.4314 13.0147 11.36V16.3127C13.0147 16.4598 13.0689 16.5913 13.1772 16.6919C13.2778 16.7925 13.4171 16.8545 13.5564 16.8545H18.9812V17.9688C17.3793 18.0926 15.8858 18.7736 14.7404 19.9189C13.4635 21.1958 12.767 22.8905 12.767 24.7014C12.767 25.9086 13.0843 27.0694 13.6648 28.0832L12.9141 28.6326C12.7748 28.1606 12.5272 27.7195 12.1944 27.348C11.5599 26.6438 10.6544 26.2414 9.71036 26.2414H9.02936C8.80494 26.2414 8.60374 26.3807 8.51861 26.5896L7.84535 28.3927L7.27269 27.3944C7.17983 27.2242 6.9941 27.1159 6.80063 27.1159H6.15833C5.95712 27.1159 5.77139 27.2319 5.67854 27.4099L5.22196 28.2921L4.63382 26.5897C4.55643 26.373 4.35523 26.226 4.12307 26.226H3.34917C2.40504 26.226 1.49961 26.6284 0.865099 27.3326C0.238268 28.0291 -0.0712489 28.9577 0.0138672 29.8864V34.8391C0.0138672 34.9861 0.0680376 35.1177 0.176381 35.226C0.276984 35.3266 0.416276 35.3808 0.563315 35.3808H12.4888C12.7906 35.3808 13.0305 35.1409 13.0305 34.8391V29.8864V29.8632L14.2609 28.9577C14.408 29.1357 14.555 29.306 14.7175 29.4685C15.9944 30.7454 17.6891 31.4419 19.5 31.4419C21.3109 31.4419 23.0056 30.7377 24.2825 29.4685C24.445 29.306 24.5998 29.1357 24.7391 28.9577L25.9695 29.8632V29.8864V34.8391C25.9695 34.9861 26.0237 35.1177 26.132 35.226C26.2327 35.3266 26.3719 35.3808 26.519 35.3808H38.4444C38.7462 35.3808 38.9861 35.1409 38.9861 34.8391V29.8864C39.0713 28.9578 38.7617 28.0214 38.1349 27.3326C37.5003 26.6284 36.5949 26.226 35.6508 26.226L35.6502 26.226ZM14.0747 11.2595C14.0128 10.625 14.2217 9.98266 14.6474 9.51059C15.0807 9.03853 15.6921 8.75997 16.3344 8.75997H16.7213L17.5881 11.2905C17.6577 11.4917 17.8357 11.631 18.0446 11.6542C18.2536 11.6775 18.4548 11.5769 18.5631 11.3911C18.5709 11.3834 18.5709 11.3679 18.5786 11.3602L19.4608 9.64993L20.4282 11.3757C20.5288 11.5614 20.73 11.6697 20.9389 11.6543C21.1479 11.6388 21.3336 11.4995 21.4032 11.306L22.3551 8.76775H22.6646C23.3069 8.76775 23.9183 9.0386 24.3439 9.51837C24.7695 9.99042 24.9862 10.6327 24.9165 11.2673V11.3215V15.7557H14.075V11.3215V11.2596L14.0747 11.2595ZM11.9388 29.8011V29.8553V34.2895H1.09729V29.8553V29.8011C1.03538 29.1665 1.24432 28.5242 1.66995 28.0522C2.09558 27.5801 2.71469 27.3015 3.35699 27.3015H3.74393L4.61065 29.8321C4.6803 30.0333 4.86603 30.1803 5.07497 30.1958C5.29165 30.2113 5.49285 30.103 5.59346 29.9172C5.59346 29.9172 5.59345 29.9095 5.60119 29.9095L6.48342 28.1992L7.45075 29.925C7.55136 30.1107 7.75256 30.219 7.96151 30.2036C8.17045 30.1881 8.35617 30.0488 8.42582 29.8553L9.37767 27.3171H9.68721C10.3295 27.3171 10.9409 27.5879 11.3665 28.0677C11.7998 28.532 12.0088 29.1666 11.9391 29.8011L11.9388 29.8011ZM19.4995 30.3583C17.9827 30.3583 16.5511 29.7702 15.4831 28.7022C14.4152 27.6343 13.8271 26.2027 13.8271 24.6859C13.8271 23.1691 14.4152 21.7374 15.4831 20.6695C16.551 19.6015 17.9827 19.0134 19.4995 19.0134C21.0163 19.0134 22.4479 19.6016 23.5159 20.6695C24.5838 21.7374 25.1719 23.1691 25.1719 24.6859C25.1719 26.2027 24.5838 27.6343 23.5159 28.7022C22.4479 29.7624 21.0163 30.3583 19.4995 30.3583ZM37.9017 29.8011V29.8553V34.2895H27.0602V29.8553V29.8011C26.9983 29.1665 27.2072 28.5242 27.6328 28.0522C28.0585 27.5801 28.6776 27.3015 29.3199 27.3015H29.7068L30.5735 29.8321C30.6354 30.0256 30.8057 30.1649 31.0069 30.1881C31.2081 30.219 31.4093 30.1339 31.5254 29.9714L31.5718 29.9017L32.454 28.1915L33.4214 29.9172C33.522 30.103 33.7232 30.2113 33.9321 30.1958C34.1411 30.1804 34.3268 30.0411 34.3964 29.8476L35.3483 27.3093H35.6578C36.3001 27.3093 36.9115 27.5802 37.3371 28.0599C37.7627 28.5397 37.9717 29.1666 37.902 29.8011L37.9017 29.8011Z" fill="#2ADACC"/>
</svg>
