<svg width="38" height="34" viewBox="0 0 38 34" fill="none" xmlns="http://www.w3.org/2000/svg">
<path fill-rule="evenodd" clip-rule="evenodd" d="M9.62336 23.4857L6.33907 18.5591L9.62336 13.6324C9.90005 13.2164 9.78817 12.6546 9.37293 12.3774C8.9569 12.1008 8.39505 12.2126 8.11793 12.6279L4.49881 18.0565C4.29605 18.3607 4.29605 18.7569 4.49881 19.0607L8.11793 24.4893C8.39461 24.9046 8.95646 25.0169 9.37293 24.7398C9.78816 24.4631 9.90045 23.9012 9.62336 23.4848V23.4857Z" fill="#2ADACC"/>
<path fill-rule="evenodd" clip-rule="evenodd" d="M20.4808 24.4905L24.0999 19.0618C24.3026 18.7577 24.3026 18.3614 24.0999 18.0577L20.4808 12.629C20.2041 12.2138 19.641 12.1015 19.2258 12.3786C18.8105 12.6553 18.6982 13.2171 18.9753 13.6336L22.2596 18.5602L18.9753 23.4869C18.6986 23.9029 18.8105 24.4648 19.2258 24.7419C19.641 25.0186 20.2036 24.9067 20.4808 24.4915V24.4905Z" fill="#2ADACC"/>
<path fill-rule="evenodd" clip-rule="evenodd" d="M15.2506 12.8441L11.6315 23.7014C11.474 24.1748 11.7301 24.6878 12.2043 24.8461C12.6777 25.0036 13.1907 24.7475 13.349 24.2733L16.9681 13.416C17.1256 12.9426 16.8695 12.4296 16.3953 12.2713C15.9219 12.1138 15.4089 12.3699 15.2506 12.8441Z" fill="#2ADACC"/>
<path fill-rule="evenodd" clip-rule="evenodd" d="M13.9419 4.09332C6.19954 4.37486 0 10.7487 0 18.5594C0 21.5371 0.901139 24.3055 2.44456 26.6083L0.615973 31.8326C0.519033 32.1093 0.562656 32.4154 0.731898 32.655C0.901944 32.8937 1.17702 33.0358 1.47026 33.0358H14.4763C18.1443 33.0358 21.4956 31.6685 24.0479 29.4167H36.5297C36.823 29.4167 37.0981 29.2746 37.2681 29.0358C37.4373 28.7959 37.4806 28.4902 37.384 28.2135L35.5554 22.9892C37.0988 20.6864 38 17.918 38 14.9403C38 6.95035 31.5135 0.463867 23.5236 0.463867C19.8504 0.463867 16.4953 1.83479 13.941 4.09311L13.9419 4.09332ZM4.30519 26.7707C4.40294 26.492 4.35851 26.1834 4.18564 25.9439C2.68991 23.8637 1.80974 21.3142 1.80974 18.5598C1.80974 11.5688 7.48565 5.89294 14.4766 5.89294C21.4676 5.89294 27.1435 11.5688 27.1435 18.5598C27.1435 25.5508 21.4676 31.2267 14.4766 31.2267H2.74554L4.30548 26.7707L4.30519 26.7707ZM25.7748 27.6076H35.2559L33.696 23.1515C33.5983 22.8728 33.6427 22.5642 33.8156 22.3247C35.3113 20.2446 36.1915 17.695 36.1915 14.9407C36.1915 7.94971 30.5156 2.27381 23.5246 2.27381C21.0219 2.27381 18.6877 3.00127 16.7214 4.25708C23.6466 5.33558 28.9529 11.3334 28.9529 18.5598C28.9529 21.9818 27.763 25.1283 25.7745 27.6076L25.7748 27.6076Z" fill="#2ADACC"/>
</svg>
