<svg width="39" height="36" viewBox="0 0 39 36" fill="none" xmlns="http://www.w3.org/2000/svg">
<path d="M37.1052 2.17814L17.5231 0.0133725H17.5234C17.0051 -0.0452154 16.4835 0.0900388 16.059 0.393025C15.6345 0.696347 15.3372 1.14563 15.2244 1.65488L1.9828 2.56182C1.41901 2.59999 0.894073 2.86079 0.523137 3.28697C0.151858 3.71283 -0.0342881 4.26856 0.00521391 4.832L1.74274 30.2404C1.77923 30.7781 2.01861 31.2819 2.41231 31.6499C2.80603 32.0182 3.32491 32.2227 3.86401 32.2227H4.01265L11.6345 31.6994C13.5074 34.3831 16.6181 35.9278 19.8881 35.7976C23.158 35.6673 26.1362 33.8802 27.7898 31.0563L33.8468 31.7188C33.9251 31.7235 34.0038 31.7235 34.0822 31.7188C34.6098 31.7188 35.1187 31.522 35.509 31.1671C35.8997 30.8119 36.1437 30.3241 36.194 29.7988L38.9871 4.52492C39.0491 3.96414 38.8857 3.40174 38.5328 2.96147C38.18 2.52122 37.6668 2.23932 37.1056 2.17806L37.1052 2.17814ZM10.1506 23.9389L5.89815 24.2315L5.89848 24.2319C5.56804 24.255 5.24363 24.3327 4.93866 24.4622L3.68589 6.0371L14.802 5.27379L13.3044 18.8274C11.737 20.1528 10.6321 21.9432 10.151 23.939L10.1506 23.9389ZM5.96071 25.1291L9.97785 24.8556C9.92294 25.2935 9.8975 25.7344 9.90118 26.1757C9.90051 27.1188 10.0398 28.0568 10.314 28.9591L6.25364 29.2373V29.2377C5.7056 29.2799 5.16389 29.1014 4.74813 28.7422C4.33265 28.3826 4.07822 27.8721 4.04105 27.324C4.00389 26.7756 4.18735 26.2356 4.5506 25.8235C4.91385 25.411 5.42678 25.1613 5.97513 25.1291L5.96071 25.1291ZM3.94962 31.3351C3.62487 31.3562 3.30482 31.2481 3.05904 31.0338C2.81364 30.8199 2.66265 30.5176 2.63956 30.1928L0.902034 4.7698C0.879603 4.44472 0.987406 4.12365 1.20167 3.87794C1.41594 3.6322 1.71893 3.48155 2.04433 3.45945L15.0991 2.56691L14.9022 4.36674L3.18192 5.16823C3.06307 5.17693 2.95259 5.23217 2.87459 5.3219C2.79859 5.4133 2.75941 5.52947 2.7641 5.64832L4.08886 25.0239C3.47252 25.591 3.12604 26.3938 3.13607 27.2315C3.14611 28.0692 3.5117 28.8633 4.14174 29.4153C4.67238 29.8827 5.35431 30.1422 6.06139 30.1448H6.26762L10.587 29.8472L10.5874 29.8475C10.73 30.1867 10.89 30.5184 11.0675 30.8409L3.94962 31.3351ZM19.5001 34.8916C17.1871 34.8916 14.9684 33.9726 13.333 32.3368C11.6975 30.701 10.7789 28.4823 10.7792 26.1689C10.7799 23.8559 11.6992 21.6376 13.3353 20.0024C14.9714 18.3673 17.1901 17.449 19.5035 17.45C21.8165 17.4507 24.0345 18.3707 25.6696 20.0072C27.3044 21.6436 28.222 23.8622 28.2211 26.1757C28.2171 28.4868 27.2971 30.7024 25.6623 32.3362C24.0276 33.9699 21.8116 34.8889 19.5002 34.8916H19.5001ZM28.9167 24.1937L32.1946 24.5587L32.1949 24.5583C32.737 24.6189 33.2327 24.8918 33.5739 25.3173C33.9148 25.7428 34.0731 26.2865 34.0139 26.8286C33.9546 27.3716 33.6824 27.8688 33.2566 28.2109C32.8307 28.5527 32.2867 28.7118 31.7437 28.6525L28.8638 28.3358H28.8641C29.1815 26.9749 29.1962 25.561 28.9073 24.1938L28.9167 24.1937ZM32.2763 23.6658L28.6575 23.2627C28.0381 21.3159 26.8168 19.6161 25.1693 18.4085C23.5218 17.2009 21.5332 16.5478 19.4903 16.5431C18.6905 16.5411 17.894 16.6412 17.1193 16.8407L18.5593 3.71823L35.2377 5.56125L33.2363 23.9341C32.9393 23.7874 32.6196 23.6934 32.2905 23.6555L32.2763 23.6658ZM38.0936 4.42474L35.3001 29.7423C35.2596 30.0701 35.0858 30.3671 34.8203 30.5632C34.5665 30.7678 34.2418 30.8629 33.9177 30.8271L28.2353 30.1983C28.381 29.8759 28.5089 29.5458 28.619 29.2097L31.6331 29.5458H31.9642L31.9646 29.5455C32.7081 29.5411 33.4233 29.2569 33.9669 28.7494C34.5106 28.2418 34.8437 27.5484 34.8997 26.8066C34.9552 26.065 34.7299 25.3292 34.2682 24.7459C34.206 24.6643 34.134 24.5876 34.0667 24.5156L36.2074 5.22658C36.2241 4.98586 36.0487 4.77428 35.809 4.74649L18.2332 2.78827C17.9972 2.78492 17.7936 2.95399 17.7535 3.18667L16.1934 17.1439C15.5204 17.393 14.8767 17.7147 14.2737 18.1037L16.0544 2.00127C16.1207 1.37823 16.647 0.905856 17.2734 0.907141C17.3183 0.902119 17.3632 0.902119 17.408 0.907141L36.9953 3.06685C37.3217 3.09933 37.6217 3.26136 37.8283 3.51647C38.0348 3.77159 38.1306 4.09868 38.0944 4.42513L38.0936 4.42474Z" fill="#2ADACC"/>
<path d="M14.3408 24.1786H23.5851L22.2844 25.4793C22.1987 25.5623 22.1505 25.6768 22.1505 25.796C22.1505 25.9155 22.1987 26.0297 22.2844 26.1127C22.3668 26.1994 22.4816 26.2483 22.6011 26.2473C22.722 26.2473 22.8378 26.1988 22.9229 26.1127L24.9865 24.0491C25.025 24.0113 25.0545 23.9654 25.0729 23.9145C25.0916 23.869 25.1013 23.8201 25.1017 23.7705C25.104 23.7565 25.104 23.7418 25.1017 23.7274C25.1063 23.6892 25.1063 23.6504 25.1017 23.6122V23.569C25.0786 23.5198 25.0478 23.4742 25.0106 23.4347L22.9466 21.3708C22.8619 21.2861 22.7474 21.2385 22.6276 21.2385C22.5077 21.2385 22.3929 21.2861 22.3085 21.3708C22.2228 21.4541 22.1742 21.5683 22.1742 21.6875C22.1742 21.807 22.2228 21.9212 22.3085 22.0045L23.6045 23.3052H14.3413C14.2141 23.2918 14.0876 23.3333 13.9928 23.4187C13.8977 23.5044 13.8435 23.6263 13.8435 23.7538C13.8435 23.8817 13.8977 24.0032 13.9928 24.089C14.0876 24.1743 14.2141 24.2158 14.3413 24.2028L14.3408 24.1786Z" fill="#2ADACC"/>
<path d="M24.6693 28.1674H15.425L16.721 26.8715H16.7206C16.817 26.7904 16.875 26.6726 16.8807 26.5467C16.8864 26.4208 16.8388 26.2983 16.7501 26.2089C16.6614 26.1195 16.5392 26.0713 16.4133 26.076C16.2874 26.0803 16.1692 26.1376 16.0872 26.2333L14.0185 28.302V28.3017C13.983 28.3402 13.9539 28.3837 13.9321 28.4316C13.9255 28.4775 13.9255 28.5243 13.9321 28.5705C13.9298 28.5866 13.9298 28.6027 13.9321 28.6187C13.9271 28.6552 13.9271 28.6924 13.9321 28.7289C13.9301 28.7433 13.9301 28.758 13.9321 28.7721C13.9506 28.823 13.98 28.8688 14.0185 28.9067L16.0872 30.9754C16.1545 31.0979 16.2747 31.1826 16.413 31.2044C16.5512 31.2261 16.6915 31.1826 16.7933 31.0862C16.8947 30.9901 16.9459 30.8522 16.9319 30.7129C16.9178 30.5736 16.8398 30.4491 16.7206 30.3754L15.4247 29.0794H24.6689C24.918 29.0794 25.1199 28.8776 25.1199 28.6282C25.1199 28.3791 24.918 28.1772 24.6689 28.1772L24.6693 28.1674Z" fill="#2ADACC"/>
</svg>
