<svg width="37" height="38" viewBox="0 0 37 38" fill="none" xmlns="http://www.w3.org/2000/svg">
<path d="M19.1168 9.25278V8.63612H19.7335C19.897 8.63612 20.0539 8.57115 20.1696 8.45552C20.2852 8.3399 20.3501 8.18298 20.3501 8.01945V5.55278C20.3501 5.38926 20.2852 5.23233 20.1696 5.11671C20.0539 5.00109 19.897 4.93612 19.7335 4.93612H17.8835V3.70278H19.1168V4.31945H20.3501V3.08612C20.3501 2.92259 20.2852 2.76567 20.1696 2.65005C20.0539 2.53442 19.897 2.46945 19.7335 2.46945H19.1168V1.85278H17.8835V2.46945H17.2668C16.9263 2.46945 16.6501 2.74558 16.6501 3.08612V5.55278C16.6501 5.71631 16.7151 5.87323 16.8307 5.98885C16.9464 6.10448 17.1033 6.16945 17.2668 6.16945H19.1168V7.40278H17.8835V6.78612H16.6501V8.01945C16.6501 8.18298 16.7151 8.3399 16.8307 8.45552C16.9464 8.57114 17.1033 8.63612 17.2668 8.63612H17.8835V9.25278H19.1168Z" fill="#2ADACC"/>
<path d="M36.3834 17.2694H30.8334V16.6527H31.4501C32.7581 16.6508 34.0118 16.1305 34.9365 15.2058C35.8612 14.2811 36.3815 13.0274 36.3834 11.7194C36.3834 11.5559 36.3184 11.399 36.2028 11.2833C36.0872 11.1677 35.9303 11.1027 35.7668 11.1027H34.5334C33.1151 11.1041 31.7661 11.7178 30.8334 12.7862V11.6638C32.0643 11.456 33.1074 10.6411 33.6073 9.49723C34.107 8.3534 33.9963 7.03444 33.3127 5.98991C32.6294 4.94517 31.4652 4.31554 30.2167 4.31554C28.9682 4.31554 27.804 4.94514 27.1207 5.98991C26.4371 7.03437 26.3264 8.35333 26.8261 9.49723C27.3261 10.6411 28.3692 11.456 29.6 11.6638V17.2694H23.9823C24.8145 16.4598 25.2839 15.3475 25.2833 14.1861V12.3361C25.2833 12.1726 25.2183 12.0156 25.1027 11.9C24.9871 11.7844 24.8302 11.7194 24.6667 11.7194H22.2C21.0385 11.7189 19.9263 12.1882 19.1167 13.0205V11.0659C21.0143 10.8536 22.6696 9.68089 23.4991 7.96106C24.3284 6.2413 24.2155 4.2156 23.2002 2.59881C22.1849 0.981733 20.4095 0 18.5 0C16.5906 0 14.8152 0.981733 13.7999 2.59881C12.7846 4.2156 12.6717 6.2413 13.5009 7.96106C14.3304 9.68082 15.9858 10.8536 17.8834 11.0659V13.0208V13.0205C17.0738 12.1882 15.9615 11.7189 14.8001 11.7194H12.3334C11.9929 11.7194 11.7168 11.9955 11.7168 12.3361V14.1861C11.7162 15.3475 12.1856 16.4598 13.0178 17.2694H7.4001V11.6638C8.63097 11.456 9.67408 10.6411 10.174 9.49724C10.6736 8.35341 10.563 7.03445 9.8794 5.98992C9.19611 4.94518 8.03187 4.31555 6.78338 4.31555C5.5349 4.31555 4.3707 4.94515 3.68736 5.98992C3.0038 7.03438 2.8931 8.35334 3.39279 9.49724C3.89274 10.6411 4.93587 11.456 6.16667 11.6638V12.7862C5.23398 11.7178 3.885 11.1042 2.46667 11.1028H1.23333C0.892792 11.1028 0.616667 11.3789 0.616667 11.7194C0.618594 13.0274 1.13891 14.2811 2.06361 15.2058C2.98832 16.1305 4.24203 16.6509 5.55 16.6528H6.16667V17.2694H0.616667C0.276126 17.2694 0 17.5455 0 17.8861V36.3861C0 36.5496 0.0649706 36.7065 0.180595 36.8222C0.29622 36.9378 0.453141 37.0028 0.616667 37.0028H36.3833C36.5469 37.0028 36.7038 36.9378 36.8194 36.8222C36.935 36.7065 37 36.5496 37 36.3861V17.8861C37 17.7226 36.935 17.5656 36.8194 17.45C36.7038 17.3344 36.5469 17.2694 36.3833 17.2694L36.3834 17.2694ZM34.5334 12.3361H35.1008C34.953 13.1978 34.5056 13.9796 33.8377 14.5437C33.1699 15.1078 32.3244 15.4177 31.4501 15.4194H30.8827C31.0305 14.5577 31.4779 13.7759 32.1458 13.2118C32.8136 12.6477 33.6591 12.3378 34.5334 12.3361ZM5.55008 15.4194C4.67576 15.4178 3.83032 15.1078 3.16242 14.5437C2.49455 13.9796 2.04721 13.1977 1.89935 12.3361H2.46674C3.34106 12.3377 4.1865 12.6477 4.8544 13.2118C5.52227 13.7759 5.96961 14.5578 6.11747 15.4194H5.55008ZM27.7501 8.01941C27.7501 7.36531 28.01 6.73788 28.4725 6.27513C28.9352 5.81263 29.5627 5.55275 30.2167 5.55275C30.8708 5.55275 31.4983 5.81263 31.961 6.27513C32.4235 6.7379 32.6834 7.36532 32.6834 8.01941C32.6834 8.6735 32.4235 9.30095 31.961 9.7637C31.4983 10.2262 30.8708 10.4861 30.2167 10.4861C29.5627 10.4861 28.9352 10.2262 28.4725 9.7637C28.01 9.30093 27.7501 8.6735 27.7501 8.01941ZM22.2001 12.9527H24.0501V14.1861C24.0501 15.0037 23.7252 15.788 23.1471 16.3665C22.5687 16.9446 21.7844 17.2694 20.9668 17.2694H19.1168V16.0361C19.1168 15.2184 19.4416 14.4342 20.0197 13.8557C20.5981 13.2776 21.3824 12.9527 22.2001 12.9527ZM14.1834 5.55275C14.1834 4.40779 14.6382 3.30991 15.4478 2.5005C16.2572 1.69086 17.3551 1.23608 18.5001 1.23608C19.6451 1.23608 20.7429 1.69087 21.5523 2.5005C22.362 3.30984 22.8167 4.40772 22.8167 5.55275C22.8167 6.69777 22.362 7.79558 21.5523 8.605C20.743 9.41463 19.6451 9.86941 18.5001 9.86941C17.3557 9.86804 16.2583 9.41297 15.4492 8.60359C14.6399 7.79453 14.1848 6.69714 14.1834 5.55275ZM12.9501 14.1861V12.9527H14.8001C15.6177 12.9527 16.402 13.2776 16.9805 13.8557C17.5586 14.4341 17.8834 15.2184 17.8834 16.0361V17.2694H16.0334C15.2158 17.2694 14.4315 16.9446 13.853 16.3665C13.2749 15.7881 12.9501 15.0037 12.9501 14.1861ZM4.31675 8.01941C4.31675 7.36531 4.57663 6.73788 5.03913 6.27513C5.50191 5.81263 6.12933 5.55275 6.78342 5.55275C7.43751 5.55275 8.06496 5.81263 8.5277 6.27513C8.9902 6.7379 9.25008 7.36532 9.25008 8.01941C9.25008 8.6735 8.9902 9.30095 8.5277 9.7637C8.06493 10.2262 7.43751 10.4861 6.78342 10.4861C6.12933 10.4861 5.50188 10.2262 5.03913 9.7637C4.57663 9.30093 4.31675 8.6735 4.31675 8.01941ZM35.7668 35.7694H1.23342V18.5027H35.7668V35.7694Z" fill="#2ADACC"/>
<path d="M18.5001 32.6859C19.9721 32.6859 21.3838 32.1012 22.4245 31.0603C23.4654 30.0197 24.0501 28.608 24.0501 27.1359C24.0501 25.6639 23.4653 24.2522 22.4245 23.2115C21.3838 22.1706 19.9721 21.5859 18.5001 21.5859C17.028 21.5859 15.6163 22.1707 14.5757 23.2115C13.5347 24.2522 12.9501 25.6639 12.9501 27.1359C12.952 28.6074 13.5373 30.0181 14.5776 31.0584C15.618 32.0987 17.0286 32.684 18.5001 32.6859ZM18.5001 22.8193C19.645 22.8193 20.7429 23.2741 21.5523 24.0837C22.362 24.893 22.8167 25.9909 22.8167 27.1359C22.8167 28.281 22.3619 29.3788 21.5523 30.1882C20.743 30.9978 19.6451 31.4526 18.5001 31.4526C17.355 31.4526 16.2572 30.9978 15.4478 30.1882C14.6382 29.3788 14.1834 28.281 14.1834 27.1359C14.1848 25.9915 14.6399 24.8942 15.4492 24.0851C16.2583 23.2757 17.3557 22.8207 18.5001 22.8193Z" fill="#2ADACC"/>
<path d="M4.93343 20.3528C4.93343 20.8433 4.73852 21.3141 4.39164 21.6609C4.04477 22.0077 3.57398 22.2027 3.08346 22.2027C2.74292 22.2027 2.4668 22.4788 2.4668 22.8194V31.4527C2.4668 31.6162 2.53177 31.7732 2.64739 31.8888C2.76302 32.0044 2.91994 32.0694 3.08346 32.0694C3.57404 32.0694 4.04483 32.2643 4.39164 32.6112C4.73846 32.958 4.93343 33.4288 4.93343 33.9193C4.93343 34.0829 4.9984 34.2398 5.11402 34.3554C5.22965 34.471 5.38657 34.536 5.55009 34.536H31.4501C31.6136 34.536 31.7705 34.471 31.8862 34.3554C32.0018 34.2398 32.0668 34.0829 32.0668 33.9193C32.0668 33.4288 32.2617 32.958 32.6085 32.6112C32.9554 32.2644 33.4262 32.0694 33.9167 32.0694C34.0803 32.0694 34.2372 32.0044 34.3528 31.8888C34.4684 31.7732 34.5334 31.6162 34.5334 31.4527V22.8194C34.5334 22.6559 34.4684 22.4989 34.3528 22.3833C34.2372 22.2677 34.0803 22.2027 33.9167 22.2027C33.4261 22.2027 32.9554 22.0078 32.6085 21.6609C32.2617 21.3141 32.0668 20.8433 32.0668 20.3528C32.0668 20.1892 32.0018 20.0323 31.8862 19.9167C31.7705 19.8011 31.6136 19.7361 31.4501 19.7361H5.55009C5.20955 19.7361 4.93343 20.0122 4.93343 20.3528ZM30.8954 20.9694C31.0171 21.5616 31.31 22.105 31.7376 22.5323C32.1648 22.9598 32.7082 23.2528 33.3004 23.3744V30.8977C32.7083 31.0194 32.1649 31.3123 31.7376 31.7399C31.31 32.1671 31.0171 32.7105 30.8954 33.3027H6.10545C5.98376 32.7106 5.69085 32.1672 5.26333 31.7399C4.83607 31.3123 4.29266 31.0194 3.70045 30.8977V23.3744C4.29261 23.2527 4.83603 22.9598 5.26333 22.5323C5.69086 22.105 5.98381 21.5616 6.10545 20.9694H30.8954Z" fill="#2ADACC"/>
</svg>
