<svg width="39" height="38" viewBox="0 0 39 38" fill="none" xmlns="http://www.w3.org/2000/svg">
<path d="M35.3335 22.8001H29.6335V17.7334C29.6335 17.2809 29.875 16.8629 30.267 16.6365C30.6588 16.4102 31.1418 16.4102 31.5335 16.6365C31.9255 16.8629 32.167 17.2809 32.167 17.7334V19.6334C32.167 20.3122 32.5291 20.9396 33.117 21.2789C33.7047 21.6182 34.4291 21.6182 35.017 21.2789C35.6047 20.9396 35.967 20.3122 35.967 19.6334V17.7334C35.9731 16.1644 35.2492 14.6819 34.0085 13.7218C32.7674 12.7618 31.1508 12.4334 29.6335 12.8333V2.53325C29.6335 1.86157 29.3666 1.21716 28.8915 0.741953C28.4165 0.266951 27.7722 0 27.1002 0H3.03325C2.36157 0 1.71716 0.266924 1.24195 0.741953C0.766951 1.21722 0.5 1.8616 0.5 2.53325V27.8671C0.5 28.5388 0.766924 29.1832 1.24195 29.6584C1.71722 30.1334 2.3616 30.4004 3.03325 30.4004H23.3002V34.8336C23.3013 35.6734 23.6353 36.4781 24.2288 37.0718C24.8225 37.6653 25.6273 37.9993 26.467 38.0004H35.3332C36.173 37.9993 36.9777 37.6654 37.5714 37.0718C38.1649 36.4781 38.4989 35.6734 38.5 34.8336V25.9674C38.4989 25.1277 38.165 24.3229 37.5714 23.7292C36.9777 23.1357 36.173 22.8017 35.3332 22.8006L35.3335 22.8001ZM34.7003 17.7334V19.6334C34.7003 19.9833 34.4166 20.2669 34.067 20.2669C33.7171 20.2669 33.4335 19.9833 33.4335 19.6334V17.7334C33.4335 16.8284 32.9508 15.9922 32.167 15.5394C31.3832 15.0869 30.4173 15.0869 29.6335 15.5394C28.8497 15.9921 28.367 16.8284 28.367 17.7334V22.8001H27.1003V17.7334C27.1003 16.376 27.8244 15.1214 29.0003 14.4426C30.1761 13.7637 31.6244 13.7637 32.8003 14.4426C33.9761 15.1214 34.7003 16.376 34.7003 17.7334H34.7003ZM23.3002 25.9672V26.6004H4.30016V6.33347H25.8333V22.8635C25.1187 23.0104 24.4765 23.3995 24.015 23.9647C23.5535 24.53 23.3009 25.2372 23.3001 25.967L23.3002 25.9672ZM3.03327 29.1337C2.69743 29.1337 2.3751 29.0004 2.13762 28.7629C1.90013 28.5254 1.76679 28.203 1.76679 27.8672V2.53333C1.76679 2.19749 1.90012 1.87517 2.13762 1.63768C2.37512 1.4002 2.69744 1.26686 3.03327 1.26686H27.1002C27.4361 1.26686 27.7584 1.40018 27.9959 1.63768C28.2334 1.87518 28.367 2.19751 28.367 2.53333V13.3518C27.8915 13.6286 27.4637 13.98 27.1002 14.393V6.33294C27.1002 5.9971 26.9669 5.67478 26.7291 5.43729C26.4916 5.19979 26.1696 5.06646 25.8335 5.06646H4.3003C3.96446 5.06646 3.64214 5.19979 3.40465 5.43729C3.16716 5.67479 3.03355 5.99711 3.03355 6.33294V26.5999C3.03355 26.9357 3.16715 27.2581 3.40465 27.4956C3.64215 27.733 3.96447 27.8667 4.3003 27.8667H23.3004V29.1334L3.03327 29.1337ZM37.2334 34.8337C37.2334 35.3376 37.0333 35.8211 36.677 36.1773C36.3208 36.5336 35.8373 36.7337 35.3334 36.7337H26.4671C25.9632 36.7337 25.4797 36.5336 25.1235 36.1773C24.7672 35.8211 24.5671 35.3376 24.5671 34.8337V25.9675C24.5671 25.4636 24.7672 24.9801 25.1235 24.6238C25.4797 24.2676 25.9632 24.0674 26.4671 24.0674H35.3334C35.8373 24.0674 36.3208 24.2676 36.677 24.6238C37.0333 24.9801 37.2334 25.4636 37.2334 25.9675V34.8337Z" fill="#2ADACC"/>
<path d="M32.5472 27.2036C31.863 26.6197 30.9204 26.4423 30.0706 26.7376C29.2211 27.0329 28.5916 27.7568 28.4172 28.6395C28.269 29.375 28.4582 30.1384 28.9327 30.72L28.5362 32.6834H28.5364C28.4614 33.055 28.5571 33.4409 28.797 33.7346C29.0369 34.0283 29.3958 34.1993 29.7751 34.2001H32.0261C32.4064 34.2003 32.7669 34.0296 33.0079 33.7349C33.2486 33.4401 33.344 33.0528 33.2679 32.6802L32.8732 30.7258L32.8486 30.7481L32.8488 30.7478C33.2745 30.2352 33.4813 29.5757 33.4243 28.9119C33.3673 28.2479 33.0511 27.6332 32.544 27.2009L32.5472 27.2036ZM31.6346 30.979L32.0261 32.9334H29.7751L30.1716 30.97C30.2498 30.6039 30.1565 30.2222 29.9182 29.9333C29.6768 29.6386 29.5805 29.251 29.6566 28.8775C29.7096 28.6289 29.8353 28.4015 30.0176 28.2247C30.2003 28.0476 30.4311 27.9288 30.6814 27.8838C30.754 27.8724 30.8271 27.8668 30.9006 27.8668C31.2025 27.8647 31.4948 27.9718 31.7239 28.1682C32.0059 28.4094 32.1681 28.7622 32.1673 29.1333C32.1681 29.4265 32.0661 29.7104 31.8792 29.936C31.6412 30.2273 31.5497 30.6116 31.6314 30.979L31.6346 30.979Z" fill="#2ADACC"/>
<path d="M4.30036 3.79996H4.9336C5.28349 3.79996 5.56711 3.51633 5.56711 3.16671C5.56711 2.81683 5.28349 2.5332 4.9336 2.5332H4.30036C3.95047 2.5332 3.66711 2.81683 3.66711 3.16671C3.66711 3.51633 3.95047 3.79996 4.30036 3.79996Z" fill="#2ADACC"/>
<path d="M7.46725 3.79996H8.10049C8.45038 3.79996 8.73374 3.51633 8.73374 3.16671C8.73374 2.81683 8.45038 2.5332 8.10049 2.5332H7.46725C7.11736 2.5332 6.83374 2.81683 6.83374 3.16671C6.83374 3.51633 7.11736 3.79996 7.46725 3.79996Z" fill="#2ADACC"/>
<path d="M10.6335 3.79996H11.267C11.6166 3.79996 11.9002 3.51633 11.9002 3.16671C11.9002 2.81683 11.6166 2.5332 11.267 2.5332H10.6335C10.2839 2.5332 10.0002 2.81683 10.0002 3.16671C10.0002 3.51633 10.2839 3.79996 10.6335 3.79996Z" fill="#2ADACC"/>
<path d="M22.0335 3.79996H25.8335C26.1834 3.79996 26.467 3.51633 26.467 3.16671C26.467 2.81683 26.1834 2.5332 25.8335 2.5332H22.0335C21.6839 2.5332 21.4003 2.81683 21.4003 3.16671C21.4003 3.51633 21.6839 3.79996 22.0335 3.79996Z" fill="#2ADACC"/>
<path d="M11.097 12.2349C10.8585 11.9793 10.4579 11.9653 10.2021 12.2039L6.60146 15.5561C6.3462 15.7899 6.20068 16.1205 6.20068 16.4669C6.20068 16.8131 6.3462 17.1436 6.60146 17.3777L10.2019 20.73L10.2022 20.7297C10.459 20.9588 10.8519 20.9407 11.0867 20.6892C11.3215 20.4374 11.3123 20.0443 11.066 19.8038L7.46747 16.482L11.0687 13.1297H11.0684C11.3234 12.8904 11.3361 12.4899 11.097 12.2348L11.097 12.2349Z" fill="#2ADACC"/>
<path d="M19.9326 12.2035C19.6754 11.9745 19.2826 11.9926 19.048 12.2444C18.8132 12.4959 18.8222 12.889 19.0684 13.1294L22.6673 16.4513L19.0661 19.8035C18.9388 19.917 18.8628 20.0768 18.8548 20.2473C18.8469 20.4174 18.9081 20.5836 19.0245 20.7085C19.1406 20.8331 19.3023 20.9054 19.4727 20.9094C19.6431 20.9134 19.808 20.8487 19.9299 20.7294L23.5304 17.3771V17.3774C23.7859 17.1434 23.9314 16.8128 23.9314 16.4666C23.9314 16.1202 23.7859 15.7896 23.5304 15.5558L19.9326 12.2035Z" fill="#2ADACC"/>
<path d="M17.2503 12.0995C17.1 12.0245 16.9259 12.012 16.7666 12.0653C16.607 12.1186 16.4753 12.2328 16.4003 12.3834L12.6003 19.9834C12.5252 20.1337 12.513 20.3076 12.5661 20.4672C12.6193 20.6265 12.7336 20.7582 12.8841 20.8332C13.1972 20.9896 13.5776 20.8627 13.7339 20.5496L17.5339 12.9496C17.6092 12.7993 17.6214 12.6251 17.5681 12.4658C17.5151 12.3063 17.4006 12.1745 17.2503 12.0995H17.2503Z" fill="#2ADACC"/>
</svg>
