<svg width="23" height="34" viewBox="0 0 23 34" fill="none" xmlns="http://www.w3.org/2000/svg">
<path d="M2.53032 0C1.14309 0 0 0.98775 0 2.18645V31.3374C0 32.5361 1.14309 33.5239 2.53032 33.5239H20.2415C21.6287 33.5239 22.7718 32.5361 22.7718 31.3374V2.18645C22.7718 0.98775 21.6287 0 20.2415 0H2.53032ZM2.53032 1.45742H20.2415C20.7233 1.45742 21.0848 1.7698 21.0848 2.18613V3.64355H1.68685V2.18613C1.68685 1.76979 2.04836 1.45742 2.53016 1.45742H2.53032ZM1.687 5.10129H21.0849V26.9645H1.687V5.10129ZM11.3596 9.10968C11.2208 9.11553 11.0837 9.15086 10.9643 9.21211L5.06071 12.1273C4.80568 12.2541 4.63919 12.5014 4.63889 12.7536V18.5839C4.63919 18.836 4.80567 19.0833 5.06071 19.2102L10.9643 22.1253C11.0987 22.194 11.2558 22.2298 11.4123 22.2278C11.5511 22.2219 11.6882 22.1866 11.8076 22.1253L17.7112 19.2102C17.9662 19.0833 18.1327 18.836 18.133 18.5839V12.7536C18.1327 12.5014 17.9662 12.2541 17.7112 12.1273L11.8076 9.21211C11.6732 9.14348 11.5161 9.10764 11.3596 9.10968ZM11.3861 10.681L15.5898 12.7536L11.3861 14.8261L7.1824 12.7536L11.3861 10.681ZM6.32583 14.0061L10.5428 16.0898V20.2461L6.32583 18.1624V14.0061ZM16.4465 14.0061V18.1624L12.2296 20.2461V16.0898L16.4465 14.0061ZM1.6872 28.4222H21.0851V31.3374C21.0851 31.7537 20.7236 32.0661 20.2418 32.0661H2.53066C2.04884 32.0661 1.68735 31.7537 1.68735 31.3374L1.6872 28.4222ZM8.43445 29.5154C7.96852 29.5154 7.59114 29.8418 7.59114 30.2441C7.59114 30.6468 7.96883 30.9728 8.43445 30.9728H14.338C14.804 30.9728 15.1813 30.6465 15.1813 30.2441C15.1813 29.8415 14.8036 29.5154 14.338 29.5154H8.43445Z" fill="#2ADACC"/>
</svg>
