<svg width="35" height="21" viewBox="0 0 35 21" fill="none" xmlns="http://www.w3.org/2000/svg">
<path d="M34.7903 3.30309C34.631 3.12701 34.4043 3.02693 34.1667 3.02768H27.329C27.1045 3.02768 26.8893 3.11873 26.7335 3.28051C25.34 2.28223 23.888 1.36851 22.3847 0.544564C20.6237 -0.302951 18.5451 -0.153212 16.9236 0.937853C16.9236 0.937853 15.8225 1.72995 14.6481 2.74127C13.1622 2.64596 11.6858 3.0405 10.4456 3.86495H8.51847C8.51847 3.39943 8.14124 3.02219 7.67571 3.02219H0.849489C0.605688 3.02194 0.373426 3.12653 0.212149 3.30939C0.050871 3.49199 -0.0238767 3.73553 0.00672605 3.9773L1.13041 16.585C1.17104 17.0172 1.53323 17.3481 1.96765 17.349H7.68714C8.15241 17.349 8.5299 16.9718 8.5299 16.5063V15.4949H9.29388C9.82763 16.3658 11.1144 18.4727 11.9119 19.7931H11.9122C12.2485 20.3589 12.7998 20.7645 13.4402 20.9167C13.6617 20.9659 13.8877 20.9905 14.1144 20.9897C14.8142 20.9687 15.501 20.7941 16.126 20.4786C16.5597 20.6765 17.0312 20.778 17.508 20.7763C17.6969 20.776 17.8852 20.7555 18.0698 20.7146C18.6292 20.5862 19.1343 20.2854 19.5138 19.8547C19.8602 19.9779 20.2249 20.0406 20.5926 20.0403C21.4216 20.0225 22.2177 19.712 22.84 19.1637C23.1277 19.3009 23.4379 19.3847 23.7557 19.4111H23.9524C24.7992 19.4183 25.5955 19.0087 26.0816 18.3155C26.5291 17.6263 26.6108 16.7617 26.3008 16.0006H26.4807V16.495C26.4807 16.9605 26.8579 17.3378 27.3234 17.3378H33.0316C33.4658 17.3368 33.8282 17.0059 33.8689 16.5738L34.9925 3.96606C35.0249 3.72628 34.9509 3.48423 34.7901 3.30315L34.7903 3.30309ZM6.83303 15.6354H2.75418L1.77645 4.71315H6.83303V15.6354ZM24.6771 17.3826C24.488 17.6299 24.1833 17.7598 23.8737 17.7255C23.6008 17.7174 23.3553 17.5569 23.2389 17.3096C22.6771 16.0904 21.3231 13.5227 21.2669 13.4161C21.0512 13.0035 20.5418 12.8437 20.1292 13.0594C19.7163 13.2748 19.5566 13.7843 19.7723 14.1971C19.7723 14.1971 21.0871 16.7141 21.6712 17.9334C21.4347 18.1521 21.1367 18.2939 20.8174 18.339C20.4984 18.3841 20.1728 18.3307 19.8846 18.1862L18.1484 14.8152H18.1487C17.936 14.4008 17.4278 14.2373 17.0137 14.45C16.5994 14.6624 16.4358 15.1706 16.6485 15.5847L18.261 18.7084V18.7087C18.1161 18.8833 17.9192 19.0074 17.6992 19.0626C17.3691 19.112 17.0317 19.0528 16.7383 18.894C16.0305 17.5905 15.345 16.2589 15.3392 16.2479H15.3394C15.1267 15.8335 14.6186 15.67 14.2045 15.8827C13.7901 16.0951 13.6266 16.6033 13.8393 17.0174C13.8393 17.0174 14.3504 18.0119 14.9629 19.1188C14.607 19.263 14.219 19.3094 13.8393 19.2538C13.6336 19.2056 13.4593 19.0702 13.3617 18.8828C12.3278 17.1973 10.4908 14.1746 10.4908 14.1746H10.4905C10.3358 13.9266 10.0639 13.7758 9.77144 13.7758H8.51856V5.56137H10.6929C10.8753 5.56137 11.0526 5.50218 11.1986 5.39282C11.6568 5.08129 12.1535 4.82997 12.6762 4.6456C11.9899 5.31756 11.4971 6.16155 11.249 7.08958C11.1692 7.53028 11.2816 7.98429 11.558 8.33668C12.8783 9.99408 15.1483 9.72446 16.6146 8.6176C16.755 8.51652 16.9236 8.38157 17.1147 8.22982C19.126 6.62854 19.7328 6.5443 19.9239 6.60048V6.60073C19.9488 6.62657 19.9678 6.65717 19.9801 6.69053C20.778 8.37605 23.6827 14.4497 24.604 16.2977C24.817 16.6205 24.8488 17.0303 24.6883 17.382L24.6771 17.3826ZM25.5254 14.3712C24.312 11.8765 22.1544 7.38771 21.4915 5.97187H21.4917C21.2808 5.46897 20.8458 5.0945 20.3174 4.96055C19.0587 4.66834 17.6037 5.71901 16.098 6.9157C15.924 7.05064 15.7722 7.17404 15.6373 7.26961C14.9857 7.76398 13.6821 8.20214 12.9404 7.32579C12.9404 6.82565 14.0247 5.57856 15.4574 4.28632C15.4863 4.265 15.5126 4.24042 15.5362 4.21333C16.2867 3.52962 17.0745 2.88822 17.8959 2.29177C19.0394 1.56491 20.4766 1.47784 21.6994 2.06152C23.3528 3.00715 24.9545 4.04049 26.4976 5.15717V14.2873C26.1793 14.3342 25.8585 14.3625 25.537 14.3715L25.5254 14.3712ZM32.2675 15.6354H28.1832V4.71321H33.2397L32.2675 15.6354Z" fill="#2ADACC"/>
</svg>
