<svg width="37" height="37" viewBox="0 0 37 37" fill="none" xmlns="http://www.w3.org/2000/svg">
<path d="M18.4785 19.0545C18.5004 19.0571 18.5224 19.0571 18.5444 19.0545C19.0904 19.0545 19.5525 19.3666 19.5525 19.7446C19.5525 20.1226 19.0904 20.4347 18.5444 20.4347C18.1152 20.4401 17.695 20.3099 17.3441 20.0626C17.1265 19.8769 16.7999 19.901 16.6118 20.1167C16.5132 20.2193 16.4599 20.3573 16.4645 20.4998C16.469 20.6421 16.5309 20.7766 16.636 20.8728C17.0362 21.1892 17.5118 21.396 18.0163 21.4729V22.073C18.0163 22.3613 18.2502 22.5952 18.5385 22.5952C18.8267 22.5952 19.0606 22.3613 19.0606 22.073V21.4729C19.4759 21.4116 19.8566 21.2071 20.1371 20.8947C20.4179 20.5826 20.5803 20.182 20.5969 19.7625C20.5524 19.2679 20.3172 18.81 19.9405 18.4861C19.564 18.1622 19.0761 17.998 18.5805 18.028H18.5146C17.9686 18.028 17.5064 17.71 17.5064 17.3379C17.5064 16.9657 17.9686 16.6418 18.5146 16.6418H18.5143C18.9449 16.6335 19.3666 16.7664 19.7146 17.0199C19.9351 17.2071 20.2655 17.1803 20.4528 16.9599C20.5428 16.854 20.587 16.7168 20.5757 16.5783C20.5645 16.4401 20.4986 16.3118 20.3927 16.2217C19.9946 15.9021 19.518 15.695 19.0124 15.6216V15.0214C19.0124 14.7332 18.7788 14.4993 18.4905 14.4993C18.202 14.4993 17.9683 14.7332 17.9683 15.0214V15.6216C17.5597 15.6829 17.1849 15.8825 16.9063 16.1874C16.6277 16.4923 16.4624 16.8837 16.438 17.2961C16.4747 17.8001 16.7105 18.2687 17.0933 18.5984C17.4762 18.9282 17.9745 19.0925 18.4785 19.0544V19.0545Z" fill="#2ADACC"/>
<path d="M18.5326 25.9619C20.4999 25.9619 22.3866 25.1803 23.7779 23.7893C25.169 22.3983 25.9505 20.5116 25.9505 18.5442C25.9505 16.5768 25.169 14.6902 23.7779 13.2991C22.3866 11.9078 20.4999 11.1262 18.5326 11.1262C16.5655 11.1262 14.6785 11.9078 13.2875 13.2991C11.8964 14.6901 11.1149 16.5768 11.1149 18.5442C11.1181 20.5105 11.9007 22.3953 13.2909 23.7858C14.6814 25.1763 16.5663 25.9587 18.5326 25.9619ZM18.5326 12.2244V12.2247C20.2087 12.2247 21.8162 12.8905 23.0012 14.0755C24.1865 15.2608 24.8522 16.868 24.8522 18.5441C24.8522 20.2202 24.1865 21.8275 23.0012 23.0125C21.8162 24.1977 20.2086 24.8635 18.5326 24.8635C16.8567 24.8635 15.2492 24.1977 14.0642 23.0125C12.8789 21.8275 12.2132 20.2202 12.2132 18.5441C12.2148 16.8685 12.8811 15.2621 14.0659 14.0773C15.2506 12.8926 16.8573 12.2263 18.5326 12.2246L18.5326 12.2244Z" fill="#2ADACC"/>
<path d="M1.6326 8.3417C1.75424 8.26105 1.83863 8.13513 1.86677 7.99179C1.8949 7.84873 1.86463 7.70029 1.78264 7.57946C1.21572 6.72884 0.978585 5.7005 1.11551 4.68726C1.25269 3.67422 1.75424 2.74588 2.52664 2.07612C3.29907 1.40659 4.289 1.04141 5.31144 1.04943C6.33353 1.0572 7.3179 1.43765 8.07984 2.11926C8.84178 2.80088 9.32889 3.73697 9.45002 4.75214C9.57138 5.76731 9.3182 6.79153 8.73842 7.63365C8.57044 7.88764 8.63714 8.2295 8.88846 8.40176C8.97982 8.46097 9.08565 8.4942 9.19442 8.49767C9.37955 8.4966 9.55209 8.40444 9.65658 8.25173C10.3733 7.19157 10.6806 5.9074 10.5217 4.63777C10.3628 3.36808 9.74822 2.19914 8.79224 1.34851C7.83654 0.497885 6.60416 0.0231214 5.32452 0.0126274C4.04494 0.00217879 2.80529 0.456575 1.83539 1.29145C0.865765 2.12657 0.232152 3.28502 0.052384 4.55204C-0.127391 5.81906 0.159017 7.10803 0.85829 8.17971C0.9384 8.30536 1.06566 8.39351 1.21141 8.42405C1.35716 8.45459 1.50906 8.42486 1.63258 8.3418L1.6326 8.3417Z" fill="#2ADACC"/>
<path d="M6.92001 3.64296C6.92001 3.05755 6.60788 2.51662 6.10101 2.22402C5.5941 1.93119 4.96958 1.93119 4.46265 2.22402C3.95575 2.51659 3.64337 3.0575 3.64337 3.64296C3.64337 4.54318 4.35764 5.58756 5.28173 5.58756C6.20608 5.58729 6.92008 4.54318 6.92008 3.64296H6.92001ZM4.63357 3.64296C4.66572 3.30726 4.94757 3.05139 5.28462 3.05139C5.62167 3.05139 5.90351 3.30726 5.93594 3.64296C5.93594 4.07512 5.57585 4.60319 5.28784 4.60319C4.99956 4.60319 4.63357 4.07485 4.63357 3.64296Z" fill="#2ADACC"/>
<path d="M7.97632 9.38027V8.63595C7.94685 7.95383 7.64517 7.31187 7.13879 6.85404C6.63216 6.39616 5.96341 6.16042 5.28158 6.19951C4.59945 6.16039 3.92964 6.3959 3.4225 6.85378C2.91507 7.31139 2.61207 7.95331 2.58093 8.63596V9.38027C2.56647 9.60854 2.69587 9.82181 2.90512 9.91451C3.66068 10.2494 4.47914 10.4193 5.30569 10.4126C6.13279 10.4198 6.9518 10.2478 7.70626 9.90834C7.89354 9.80198 7.99963 9.59434 7.97632 9.38027L7.97632 9.38027ZM3.57113 8.99017V8.61214C3.59846 8.1899 3.79592 7.79684 4.11823 7.52303C4.44081 7.24922 4.86063 7.11821 5.28155 7.15973C5.70165 7.11981 6.1199 7.2519 6.44082 7.52544C6.76205 7.79899 6.95871 8.19095 6.98603 8.61215V8.99018C5.88918 9.41644 4.67387 9.42501 3.57112 9.01429L3.57113 8.99017Z" fill="#2ADACC"/>
<path d="M6.92001 30.0554C6.92001 29.47 6.60788 28.929 6.10101 28.6364C5.59413 28.3438 4.96958 28.3439 4.46265 28.6364C3.95575 28.929 3.64337 29.4699 3.64337 30.0554C3.64337 30.9556 4.35764 32 5.28173 32C6.20608 32 6.92008 30.9856 6.92008 30.0554H6.92001ZM4.63357 30.0554C4.61589 29.8718 4.67644 29.6894 4.80049 29.553C4.92454 29.4164 5.10029 29.3387 5.28462 29.3387C5.46922 29.3387 5.64497 29.4164 5.76902 29.553C5.8928 29.6894 5.95362 29.8718 5.93594 30.0554C5.93594 30.4814 5.57585 31.0097 5.28784 31.0097C4.99956 31.0097 4.63357 30.4814 4.63357 30.0554Z" fill="#2ADACC"/>
<path d="M2.58045 35.0484V35.7265C2.56598 35.9548 2.69538 36.1681 2.90463 36.2608C4.41541 36.933 6.14087 36.933 7.65166 36.2608C7.8609 36.1681 7.99031 35.9548 7.97584 35.7265V35.0484C7.94637 34.3663 7.64469 33.7243 7.13832 33.2662C6.63168 32.8084 5.96293 32.5726 5.2811 32.6117C4.59844 32.571 3.92786 32.806 3.42011 33.2641C2.9124 33.7222 2.60995 34.365 2.58046 35.0485L2.58045 35.0484ZM5.28109 33.596C5.70119 33.5561 6.11943 33.6882 6.44036 33.9617C6.76159 34.2353 6.95825 34.6272 6.98557 35.0484V35.3364C5.88577 35.7549 4.67046 35.7549 3.57066 35.3364V35.0484C3.59799 34.6262 3.79544 34.2331 4.11776 33.9593C4.44033 33.6855 4.86015 33.5545 5.28107 33.596L5.28109 33.596Z" fill="#2ADACC"/>
<path d="M1.6326 34.7541C1.75585 34.6734 1.84158 34.5464 1.86971 34.4018C1.89811 34.2571 1.8665 34.1071 1.78264 33.986C1.21572 33.1353 0.978585 32.107 1.11551 31.0938C1.25269 30.0807 1.75424 29.1524 2.52664 28.4826C3.29907 27.8131 4.289 27.4479 5.31144 27.4559C6.33353 27.4637 7.3179 27.8441 8.07984 28.5258C8.84178 29.2074 9.32889 30.1435 9.45002 31.1586C9.57138 32.1738 9.3182 33.198 8.73842 34.0401C8.57044 34.2941 8.63714 34.636 8.88846 34.8083C8.98035 34.8653 9.08618 34.8964 9.19442 34.8983C9.37875 34.8993 9.55156 34.8096 9.65658 34.6582C10.3733 33.5981 10.6806 32.3139 10.5217 31.0443C10.3628 29.7746 9.74822 28.6056 8.79224 27.755C7.83654 26.9044 6.60416 26.4296 5.32452 26.4191C4.04494 26.4087 2.80529 26.8631 1.83539 27.6979C0.865765 28.5331 0.232152 29.6915 0.052384 30.9585C-0.127391 32.2256 0.159017 33.5145 0.85829 34.5862C0.936253 34.7143 1.06298 34.8048 1.20927 34.8364C1.35582 34.8683 1.5088 34.8386 1.63258 34.7542L1.6326 34.7541Z" fill="#2ADACC"/>
<path d="M33.2357 3.64296C33.2357 3.05755 32.9236 2.51662 32.4167 2.22402C31.9098 1.93119 31.2853 1.93119 30.7784 2.22402C30.2715 2.51659 29.9591 3.0575 29.9591 3.64296C29.9591 4.54318 30.6734 5.58756 31.5975 5.58756C32.5218 5.58729 33.2358 4.54318 33.2358 3.64296H33.2357ZM30.9431 3.64296H30.9434C30.9756 3.30726 31.2574 3.05139 31.5944 3.05139C31.9315 3.05139 32.2133 3.30726 32.2455 3.64296C32.2455 4.07512 31.8854 4.60319 31.5974 4.60319C31.3094 4.60319 30.9434 4.07485 30.9434 3.64296H30.9431Z" fill="#2ADACC"/>
<path d="M28.8969 8.63594V9.38026C28.8824 9.60853 29.0119 9.82179 29.2211 9.9145C29.9767 10.2494 30.7951 10.4193 31.6217 10.4126C32.4488 10.4198 33.2678 10.2478 34.0222 9.90833C34.2304 9.81804 34.3601 9.60692 34.3462 9.38026V8.63594C34.261 7.73141 33.7283 6.92983 32.9275 6.50033C32.1269 6.07085 31.1643 6.07085 30.3635 6.50033C29.5629 6.92981 29.0303 7.73141 28.9448 8.63594H28.8969ZM31.5976 7.18353V7.1838C32.0177 7.14388 32.4359 7.27569 32.7568 7.54951C33.0781 7.82306 33.2747 8.21502 33.302 8.63594V9.01424C32.2022 9.43274 30.9869 9.43274 29.8871 9.01424V8.63594C29.9145 8.21397 30.1119 7.82091 30.4342 7.54711C30.7568 7.27329 31.1766 7.14228 31.5975 7.18381L31.5976 7.18353Z" fill="#2ADACC"/>
<path d="M31.5979 0C30.3228 0.00321505 29.0917 0.466719 28.131 1.30529C27.1702 2.14391 26.5446 3.30106 26.3689 4.56403C26.1934 5.82701 26.4795 7.11117 27.1748 8.17991C27.3489 8.41326 27.6742 8.47167 27.9183 8.31306C28.1626 8.15446 28.2417 7.83375 28.0991 7.57979C27.5322 6.72917 27.2951 5.70083 27.432 4.68759C27.5692 3.67455 28.0707 2.74621 28.8431 2.07645C29.6156 1.40692 30.6055 1.04174 31.6279 1.04976C32.65 1.05753 33.6344 1.43798 34.3963 2.11959C35.1583 2.8012 35.6454 3.7373 35.7665 4.75247C35.8879 5.76764 35.6347 6.79186 35.0549 7.63398C34.8869 7.88796 34.9536 8.22983 35.2049 8.40209C35.2963 8.4613 35.4021 8.49453 35.5109 8.498C35.696 8.49693 35.8686 8.40477 35.9731 8.25206C36.6884 7.18572 36.9925 5.8962 36.8286 4.62281C36.6646 3.34941 36.0441 2.17882 35.082 1.32847C34.1199 0.478324 32.8818 0.00630319 31.5979 0.000130297L31.5979 0Z" fill="#2ADACC"/>
<path d="M33.2357 30.0554C33.2357 29.47 32.9236 28.929 32.4167 28.6364C31.9099 28.3438 31.2853 28.3439 30.7784 28.6364C30.2715 28.929 29.9591 29.4699 29.9591 30.0554C29.9591 30.9556 30.6734 32 31.5975 32C32.5218 32 33.2358 30.9856 33.2358 30.0554H33.2357ZM30.9431 30.0554H30.9434C30.9257 29.8718 30.9863 29.6894 31.1103 29.553C31.2344 29.4164 31.4101 29.3387 31.5944 29.3387C31.7788 29.3387 31.9545 29.4164 32.0786 29.553C32.2026 29.6894 32.2632 29.8718 32.2455 30.0554C32.2455 30.4814 31.8854 31.0097 31.5974 31.0097C31.3094 31.0097 30.9434 30.4814 30.9434 30.0554H30.9431Z" fill="#2ADACC"/>
<path d="M28.8969 35.0484V35.7265C28.8824 35.9547 29.0118 36.168 29.2211 36.2607C30.7319 36.9329 32.4573 36.9329 33.9681 36.2607C34.1773 36.168 34.3067 35.9548 34.2923 35.7265V35.0484C34.2068 34.1438 33.6742 33.342 32.8736 32.9125C32.0728 32.4833 31.1104 32.4833 30.3096 32.9125C29.5088 33.342 28.9762 34.1438 28.8909 35.0484H28.8969ZM31.5975 33.596C32.0176 33.556 32.4359 33.6881 32.7568 33.9617C33.078 34.2352 33.2747 34.6272 33.302 35.0484V35.3364C32.2022 35.7549 30.9869 35.7549 29.8871 35.3364V35.0484C29.9144 34.6261 30.1119 34.2331 30.4342 33.9593C30.7568 33.6855 31.1766 33.5544 31.5975 33.596L31.5975 33.596Z" fill="#2ADACC"/>
<path d="M31.5979 26.412C30.324 26.4163 29.0945 26.8798 28.1348 27.7176C27.1751 28.5554 26.5498 29.7112 26.3734 30.9728C26.1969 32.2345 26.4817 33.5173 27.1748 34.586C27.349 34.8194 27.6742 34.8778 27.9183 34.7192C28.1627 34.5606 28.2417 34.2399 28.0992 33.9859C27.5322 33.1353 27.2951 32.107 27.432 31.0937C27.5692 30.0807 28.0708 29.1523 28.8432 28.4826C29.6156 27.813 30.6055 27.4479 31.628 27.4559C32.65 27.4637 33.6344 27.8441 34.3964 28.5257C35.1583 29.2073 35.6454 30.1434 35.7665 31.1586C35.8879 32.1738 35.6347 33.198 35.0549 34.0401C34.887 34.2941 34.9537 34.636 35.205 34.8082C35.2969 34.8653 35.4027 34.8964 35.5109 34.8982C35.6953 34.8993 35.8681 34.8095 35.9731 34.6582C36.6885 33.5918 36.9925 32.3023 36.8286 31.0289C36.6646 29.7555 36.0441 28.5849 35.082 27.7346C34.1199 26.8844 32.8819 26.4124 31.598 26.4062L31.5979 26.412Z" fill="#2ADACC"/>
<path d="M33.0678 23.2252C32.7669 23.1266 32.4408 23.2791 32.3237 23.5733L32.2396 23.7833C32.1351 24.0813 32.2795 24.4092 32.5697 24.5335C32.6361 24.5619 32.7077 24.5761 32.7797 24.5756C33.0177 24.5694 33.2296 24.4237 33.3199 24.2035L33.4158 23.9454C33.5002 23.6518 33.3501 23.3418 33.0677 23.2253L33.0678 23.2252Z" fill="#2ADACC"/>
<path d="M34.196 14.0791C34.4601 14.0167 34.6493 13.785 34.6576 13.5138C34.6662 13.2427 34.4917 12.9997 34.2321 12.9209C33.827 12.8823 33.4348 12.7596 33.0798 12.5608C32.8941 12.4537 32.6653 12.4537 32.4796 12.5608C32.321 12.698 32.208 12.8799 32.1555 13.083C32.0384 13.3986 31.8634 13.6896 31.6394 13.9412C31.4942 14.1143 31.4589 14.3543 31.5475 14.5622C31.6362 14.7701 31.8342 14.9103 32.0595 14.9255C32.2198 14.9258 32.3725 14.8583 32.4796 14.7393C32.5464 14.6694 32.6085 14.5952 32.6656 14.5172C33.2362 16.524 33.3713 18.6295 33.0618 20.6928C33.0139 21.0349 32.9477 21.3771 32.8759 21.7189H32.8756C32.8183 22.0284 33.0096 22.3295 33.3139 22.4091C33.3557 22.415 33.3981 22.415 33.4399 22.4091C33.7072 22.4016 33.9371 22.218 34.0041 21.959C34.0882 21.593 34.1541 21.2208 34.2083 20.8487H34.208C34.3229 20.072 34.3811 19.2875 34.3821 18.5022C34.3797 16.9804 34.1595 15.4667 33.7279 14.007C33.8659 14.007 34.0159 14.055 34.1659 14.0671L34.196 14.0791Z" fill="#2ADACC"/>
<path d="M3.80548 13.8569C3.86898 13.8799 3.93596 13.8922 4.00348 13.8931C4.24648 13.8874 4.46216 13.7358 4.5495 13.5089L4.63363 13.2688C4.65962 13.0003 4.50315 12.7474 4.25104 12.6507C3.99919 12.554 3.71359 12.6376 3.55336 12.8549L3.43334 13.1129C3.33742 13.4204 3.50166 13.7492 3.80548 13.8569L3.80548 13.8569Z" fill="#2ADACC"/>
<path d="M2.09492 23.5434C2.09358 23.8547 2.33069 24.1154 2.64094 24.1435C2.9678 24.1701 3.28689 24.2553 3.58319 24.3957C3.78789 24.5425 4.04563 24.595 4.29129 24.5395C4.4507 24.476 4.57529 24.3472 4.63343 24.1856C4.76283 23.8014 4.96672 23.4467 5.23357 23.1412C5.39593 23.0461 5.50417 22.8803 5.52587 22.6933C5.54784 22.5065 5.48086 22.3201 5.34476 22.1901C5.20892 22.0599 5.01977 22.0012 4.8341 22.0312C4.64817 22.0612 4.48741 22.1767 4.39927 22.3431C4.33202 22.4189 4.26987 22.499 4.21334 22.5832C3.64267 20.5764 3.50764 18.4708 3.81735 16.4076C3.86531 16.0716 3.93149 15.7233 4.00329 15.3814C4.06062 15.072 3.86959 14.7709 3.56524 14.6913C3.25391 14.6343 2.95197 14.8288 2.87511 15.1355C2.79098 15.5015 2.72507 15.8737 2.67095 16.2399V16.2397C2.55601 17.0166 2.49788 17.8009 2.49707 18.5864C2.50108 20.102 2.72131 21.6096 3.15106 23.0633C3.01309 23.0633 2.86305 23.0154 2.71301 23.0033C2.39687 22.9923 2.12627 23.2286 2.09492 23.5434L2.09492 23.5434Z" fill="#2ADACC"/>
<path d="M23.7055 4.7412C23.7728 4.76558 23.844 4.7779 23.9156 4.7771C24.1535 4.77121 24.3654 4.62519 24.4557 4.40496C24.5602 4.10703 24.4158 3.77909 24.1256 3.65474L23.8676 3.55883C23.5954 3.53311 23.3401 3.69467 23.2471 3.95161C23.1539 4.20881 23.246 4.49629 23.4716 4.65113L23.7055 4.7412Z" fill="#2ADACC"/>
<path d="M12.3933 4.29115C12.4475 4.59711 12.6814 4.69919 12.9335 4.79538V4.79511C13.2678 4.91996 13.5754 5.1075 13.8399 5.34729C13.9473 5.4483 14.0885 5.5059 14.2358 5.50939C14.395 5.51126 14.5477 5.44589 14.6559 5.32934C14.8732 5.0984 14.8732 4.73804 14.6559 4.50711C14.5841 4.43826 14.5081 4.37396 14.4279 4.31501C16.4306 3.75801 18.5276 3.62296 20.5853 3.91903C20.9333 3.97315 21.2754 4.03317 21.6114 4.11113H21.6117C21.9249 4.17168 22.2306 3.97637 22.3077 3.66692C22.3648 3.35586 22.1703 3.05391 21.8635 2.97679C21.5034 2.89882 21.1312 2.82675 20.7532 2.77263V2.7729C18.4673 2.43693 16.1356 2.59848 13.9177 3.24685C13.9177 3.10887 13.9657 2.96473 13.9778 2.81469C13.9247 2.54758 13.6983 2.34959 13.4264 2.33271C13.1544 2.31583 12.9053 2.48408 12.8195 2.7429C12.7702 3.1488 12.6395 3.54078 12.4353 3.89496C12.3801 4.01955 12.3654 4.15806 12.3933 4.29121L12.3933 4.29115Z" fill="#2ADACC"/>
<path d="M13.1677 32.3414C13.0164 32.2345 12.8237 32.2031 12.6464 32.2572C12.469 32.3113 12.3265 32.4442 12.2603 32.6176C12.1941 32.7909 12.2121 32.9852 12.3085 33.1435C12.405 33.3019 12.5692 33.4069 12.7535 33.4278L13.0056 33.5237C13.2792 33.5529 13.5372 33.3924 13.6323 33.1344C13.7274 32.8761 13.6347 32.5868 13.4078 32.4314L13.1677 32.3414Z" fill="#2ADACC"/>
<path d="M24.4737 32.7857C24.4335 32.5735 24.2821 32.3994 24.0777 32.3297C23.6927 32.2022 23.3374 31.9981 23.0333 31.7296C22.7948 31.6002 22.4993 31.6471 22.3126 31.8437C22.1256 32.0407 22.0939 32.338 22.2351 32.5698C22.3069 32.6387 22.383 32.7027 22.4631 32.7616C20.4546 33.3216 18.3514 33.4564 16.2878 33.1579C15.9398 33.1038 15.5977 33.0437 15.2617 32.9658H15.2614C14.9882 32.9754 14.7559 33.1683 14.6967 33.4355C14.6372 33.7023 14.7658 33.9756 15.0096 34.1002C15.3756 34.1781 15.7477 34.2502 16.1199 34.3043V34.3041C18.4082 34.6475 20.7445 34.4814 22.9615 33.818C22.9296 33.9643 22.9077 34.1128 22.8953 34.262C22.894 34.5736 23.1314 34.8343 23.4416 34.8621C23.753 34.8635 24.0136 34.6264 24.0418 34.3161C24.0868 33.9126 24.209 33.5212 24.4019 33.1638C24.4712 33.051 24.497 32.9162 24.4737 32.7857L24.4737 32.7857Z" fill="#2ADACC"/>
</svg>
