<svg width="35" height="28" viewBox="0 0 35 28" fill="none" xmlns="http://www.w3.org/2000/svg">
<path d="M23.7672 6.10824H27.347C27.9089 6.12977 28.4563 5.92734 28.8691 5.54557C29.2819 5.1638 29.5263 4.6337 29.5489 4.07177C29.5255 3.5104 29.2805 2.98105 28.868 2.59932C28.4553 2.21781 27.9087 2.01511 27.347 2.0356H23.4209C23.1158 1.64279 22.6461 1.41358 22.1487 1.41437C21.9699 1.41568 21.7927 1.44876 21.6254 1.5123C21.6015 1.11451 21.4303 0.739576 21.1452 0.461232C20.8598 0.182652 20.4812 0.020384 20.0828 0.00594583C19.6845 -0.00849501 19.2951 0.125941 18.9906 0.382991C18.6266 0.0718517 18.1425 -0.059429 17.6712 0.0251162C17.2001 0.109661 16.7918 0.401375 16.5589 0.819618C16.0905 0.571756 15.5299 0.572543 15.0623 0.821456C14.5947 1.07037 14.2809 1.5351 14.225 2.06181H8.4698C8.37055 2.06181 8.27314 2.08754 8.18728 2.13716L5.64669 3.58259C5.47156 3.68342 5.36365 3.86984 5.36365 4.07175C5.36365 4.27392 5.47156 4.46034 5.64669 4.56117L8.19884 6.03288H8.19858C8.28391 6.08408 8.38159 6.11007 8.4811 6.10823H11.8049H11.8046C11.7671 6.23085 11.7432 6.35688 11.7332 6.48475V6.59766V8.61154C11.7366 9.40268 11.9651 10.1767 12.3915 10.8431C12.8181 11.5095 13.4252 12.0409 14.1423 12.3757V14.4872C14.1423 14.7992 14.3951 15.052 14.7068 15.052H14.9402V27.1349C14.9402 27.4468 15.1931 27.6994 15.505 27.6994C15.8166 27.6994 16.0695 27.4468 16.0695 27.1349V15.0594H19.6792V27.1349C19.6792 27.4468 19.9321 27.6994 20.244 27.6994C20.5557 27.6994 20.8085 27.4468 20.8085 27.1349V15.0594H21.0419C21.3536 15.0594 21.6065 14.8065 21.6065 14.4949V12.2665C22.2631 11.9081 22.8111 11.3796 23.1931 10.7365C23.5751 10.0935 23.7773 9.35939 23.7784 8.6116L23.7672 6.10824ZM22.6379 8.61126V8.61152C22.6371 9.41678 22.3165 10.1888 21.7472 10.7583C21.1777 11.3278 20.4055 11.6481 19.6003 11.6492H15.8889C15.0836 11.6481 14.3114 11.3278 13.7419 10.7583C13.1727 10.1888 12.8521 9.41685 12.8513 8.61152V6.83841L12.8061 6.81951V6.81977C12.8366 6.74966 12.8518 6.67405 12.8513 6.59764C12.8495 6.57007 12.8495 6.5425 12.8513 6.51467C12.8909 6.28282 13.0902 6.11215 13.3255 6.10822H16.1749C16.387 6.11215 16.5724 6.25184 16.6341 6.45454C16.6488 6.50101 16.6577 6.54906 16.6606 6.59763C16.6606 6.86571 16.4432 7.08312 16.1749 7.08312H14.7633C14.5365 7.08364 14.3317 7.22018 14.244 7.42944C14.2138 7.49823 14.1985 7.57254 14.1988 7.64789C14.1988 7.95956 14.4517 8.21241 14.7633 8.21241H16.1901C16.6026 8.21188 16.9993 8.05329 17.2984 7.76893C17.5975 7.48457 17.776 7.09623 17.7973 6.68426C17.8474 6.68767 17.8978 6.68767 17.948 6.68426C18.3266 6.68478 18.6932 6.55139 18.983 6.30773C19.2763 6.5598 19.6515 6.69607 20.0382 6.69134C20.4247 6.68635 20.7965 6.54063 21.0835 6.28147C21.2894 6.47026 21.5422 6.60049 21.8158 6.65799C22.0894 6.71576 22.3733 6.69869 22.6379 6.60889L22.6379 8.61126ZM20.4659 13.9301H15.2451V12.7784H20.4659V13.9301ZM8.46978 3.25873V4.88477L7.06192 4.07158L8.46978 3.25873ZM9.59909 3.16473L14.1987 3.16447V4.97878H9.59882L9.59909 3.16473ZM15.3319 2.22739H15.3317C15.3319 2.16123 15.3461 2.09585 15.3732 2.03545C15.4488 1.85481 15.6252 1.73718 15.8211 1.73718C16.0167 1.73718 16.1934 1.85481 16.269 2.03545C16.2929 2.09663 16.3058 2.16149 16.3066 2.22739V4.99403H16.1937H15.328V2.22739H15.3319ZM18.4147 1.47463V1.59121V5.08043V5.20095H18.4144C18.369 5.38107 18.2212 5.51708 18.0382 5.54727C18.0077 5.55751 17.9759 5.56381 17.9439 5.56618C17.9119 5.56355 17.8804 5.55725 17.8499 5.54727C17.6304 5.49949 17.4737 5.30519 17.4734 5.08043V1.58752C17.4734 1.31917 17.6908 1.10177 17.9591 1.10177C18.1758 1.10807 18.3614 1.25957 18.4108 1.47067L18.4147 1.47463ZM19.544 1.59121H19.5437C19.5466 1.5513 19.5556 1.51192 19.57 1.47463C19.6175 1.25644 19.8097 1.09995 20.0332 1.09811C20.1618 1.09916 20.285 1.15115 20.3753 1.24304C20.4656 1.33468 20.516 1.45861 20.515 1.58753V5.07675C20.5131 5.24558 20.4233 5.40128 20.2779 5.48714C20.2296 5.51366 20.1776 5.53257 20.1235 5.54359C20.093 5.55331 20.0613 5.55961 20.0292 5.56223C19.9972 5.56013 19.9657 5.55383 19.9352 5.54359H19.9014C19.7359 5.49843 19.6078 5.36741 19.5663 5.20094C19.5521 5.16208 19.5435 5.12165 19.5401 5.08042V1.5875L19.544 1.59121ZM22.1788 2.53594H22.1786C22.2608 2.53883 22.3411 2.5622 22.412 2.60368C22.5682 2.68666 22.6664 2.84839 22.668 3.02536V5.08045C22.6714 5.10802 22.6714 5.13585 22.668 5.16342C22.6333 5.35509 22.4834 5.50528 22.2915 5.53968C22.261 5.55018 22.2295 5.55648 22.1975 5.55858C22.1654 5.55596 22.1339 5.54966 22.1035 5.53968C21.8837 5.49215 21.7272 5.29785 21.727 5.0731V3.02165C21.739 2.7835 21.9139 2.58526 22.1486 2.54351L22.1788 2.53594ZM26.7522 3.1682V4.98251L26.2552 4.98277V3.16449L26.7522 3.1682ZM27.8815 4.87328L27.8812 3.27373C28.2228 3.39031 28.4523 3.71116 28.4523 4.07166C28.4523 4.43242 28.2228 4.7533 27.8812 4.86986L27.8815 4.87328ZM25.1563 3.1682V4.98251L23.7671 4.98277V3.16449L25.1563 3.1682Z" fill="#2ADACC"/>
<path d="M33.3926 9.51156C33.213 9.51339 33.035 9.54516 32.8656 9.60555C32.8417 9.20776 32.6705 8.8331 32.3854 8.55448C32.1002 8.27617 31.7216 8.11364 31.323 8.0992C30.9247 8.08476 30.5353 8.21919 30.2307 8.47651C29.9427 8.23206 29.577 8.09841 29.1994 8.09998C28.9142 8.10025 28.6341 8.17639 28.3881 8.32054C28.1421 8.46468 27.9388 8.67185 27.7991 8.9205C27.2992 8.65899 26.699 8.67841 26.2172 8.97222C25.7354 9.26577 25.4429 9.79066 25.4465 10.3546V13.0837H24.5809C24.1721 13.0845 23.779 13.2405 23.4807 13.5201C23.1825 13.7995 23.001 14.1815 22.9734 14.5893V14.7059V16.716C22.9771 17.5072 23.2053 18.2812 23.632 18.9476C24.0584 19.614 24.6654 20.1456 25.3825 20.4802V22.592C25.3846 22.9029 25.6361 23.1544 25.9473 23.1565H26.1618V27.1351C26.1618 27.4471 26.4146 27.6996 26.7263 27.6996C27.0382 27.6996 27.2911 27.4471 27.2911 27.1351V23.1678H30.9008V27.1351C30.9008 27.4471 31.1537 27.6996 31.4653 27.6996C31.7773 27.6996 32.0301 27.4471 32.0301 27.1351V23.1678H32.2635H32.2633C32.5752 23.1678 32.828 22.9149 32.828 22.6033V20.3749C33.4852 20.0162 34.034 19.4874 34.416 18.8436C34.7983 18.1998 35 17.4649 35 16.7161V11.1301C35 10.7029 34.8309 10.2927 34.5297 9.98973C34.2288 9.68646 33.82 9.51448 33.3925 9.51159L33.3926 9.51156ZM33.8783 16.7158C33.8773 17.5211 33.5569 18.2934 32.9874 18.8626C32.4179 19.4321 31.646 19.7524 30.8405 19.7535H27.1291C26.3238 19.7525 25.5519 19.4321 24.9823 18.8626C24.4128 18.2934 24.0925 17.5212 24.0914 16.7158V14.943H24.0463C24.0767 14.8742 24.0922 14.7999 24.0914 14.7245C24.0875 14.6972 24.0875 14.6694 24.0914 14.6418C24.1169 14.3927 24.3304 14.2055 24.5809 14.2128H27.4302C27.6429 14.2141 27.8296 14.3549 27.8895 14.5591C27.9073 14.6046 27.9176 14.6531 27.9197 14.702C27.9176 14.9708 27.6991 15.1877 27.4302 15.1877H26.0037C25.7766 15.1882 25.572 15.3245 25.4841 15.534C25.4555 15.6031 25.4402 15.6771 25.4389 15.7522C25.4389 16.0642 25.6918 16.3167 26.0037 16.3167H27.4302C27.844 16.3162 28.2421 16.1566 28.5411 15.8706C28.8404 15.5847 29.0182 15.1945 29.0376 14.781C29.0888 14.7847 29.1406 14.7847 29.1918 14.781C29.5696 14.7826 29.9353 14.6489 30.2231 14.4047C30.5164 14.6568 30.8916 14.7931 31.2784 14.7883C31.6651 14.7833 32.0366 14.6376 32.3237 14.3782C32.5295 14.5673 32.7826 14.6975 33.056 14.755C33.3296 14.8128 33.6137 14.7957 33.8783 14.7059L33.8783 16.7158ZM31.7064 22.0383H26.5005V20.8828H31.7064V22.0383ZM26.5683 10.3359C26.5562 10.1991 26.6022 10.0636 26.6949 9.96227C26.7875 9.86118 26.9186 9.80368 27.0559 9.80368C27.1929 9.80368 27.324 9.86118 27.4167 9.96227C27.5093 10.0636 27.5553 10.1991 27.5432 10.3359V13.0837H26.5683L26.5683 10.3359ZM29.655 9.58314V9.58288C29.6529 9.62174 29.6529 9.66086 29.655 9.69972V13.1889C29.6529 13.2278 29.6529 13.2669 29.655 13.3058C29.6062 13.5232 29.4148 13.6789 29.1919 13.682C28.9233 13.682 28.7045 13.4654 28.7027 13.1966V9.69578C28.7045 9.42717 28.9233 9.21029 29.1919 9.21029C29.4124 9.21265 29.6033 9.36468 29.655 9.5792V9.58314ZM31.2585 9.20662C31.3879 9.20662 31.5119 9.25835 31.6032 9.34998C31.6943 9.44188 31.745 9.56634 31.744 9.69578V13.1853C31.7432 13.3533 31.6529 13.5085 31.5069 13.5917C31.4339 13.6424 31.3472 13.67 31.2585 13.6708C31.2146 13.6694 31.1713 13.6605 31.1304 13.6445C30.9642 13.6006 30.8355 13.4691 30.7953 13.3018C30.7809 13.2646 30.772 13.2252 30.7691 13.1853V9.69578C30.772 9.65587 30.7809 9.61648 30.7953 9.57919C30.846 9.36389 31.0374 9.21134 31.2585 9.21029L31.2585 9.20662ZM33.8933 11.1263V13.1816C33.8951 13.2079 33.8951 13.2341 33.8933 13.2606C33.8592 13.4686 33.6938 13.6301 33.485 13.6595C33.276 13.6889 33.0725 13.5791 32.9825 13.3885C32.9507 13.3242 32.9339 13.2533 32.9334 13.1816V11.13C32.9213 10.9934 32.9672 10.8579 33.0599 10.7566C33.1526 10.6555 33.2836 10.5977 33.421 10.5977C33.558 10.5977 33.689 10.6555 33.7817 10.7566C33.8744 10.8579 33.9204 10.9934 33.9083 11.13L33.8933 11.1263Z" fill="#2ADACC"/>
<path d="M10.4273 13.0833H9.56924V10.3356C9.57265 9.77132 9.28016 9.24673 8.7986 8.95293C8.31679 8.65938 7.71628 8.63968 7.21666 8.90146C6.93571 8.40075 6.40898 8.08801 5.83502 8.08068C5.45745 8.07937 5.09167 8.21275 4.80364 8.4572C4.49907 8.20015 4.1097 8.06572 3.71137 8.08015C3.31306 8.0946 2.93441 8.25686 2.64901 8.53544C2.36386 8.81376 2.19267 9.18844 2.16878 9.58651C1.66912 9.39615 1.1075 9.46809 0.671865 9.77818C0.236529 10.0883 -0.0155613 10.5953 0.000745458 11.1296V16.7156C0.00048291 17.4645 0.202134 18.1994 0.584429 18.8432C0.966724 19.487 1.51525 20.0158 2.17242 20.3744V22.6028C2.17242 22.9145 2.42527 23.1673 2.7372 23.1673H2.97062V27.1346C2.97062 27.4466 3.22321 27.6992 3.53514 27.6992C3.84706 27.6992 4.09991 27.4466 4.09991 27.1346V23.1673H7.71698V27.1346C7.71698 27.4466 7.96983 27.6992 8.28175 27.6992C8.59342 27.6992 8.84627 27.4466 8.84627 27.1346V23.1673H9.07969C9.39057 23.1652 9.64237 22.9137 9.6442 22.6028V20.491C10.3613 20.1565 10.9686 19.6248 11.395 18.9584C11.8214 18.292 12.0498 17.5182 12.0533 16.7268V14.7056V14.5891V14.5888C12.0254 14.1779 11.8416 13.793 11.5394 13.5131C11.2372 13.2332 10.8391 13.0793 10.4272 13.0832L10.4273 13.0833ZM10.9167 14.9391V16.712C10.9157 17.5172 10.5954 18.2892 10.0259 18.8587C9.45634 19.4283 8.68441 19.7485 7.87909 19.7496H4.16772C3.36293 19.7486 2.59155 19.4288 2.02203 18.8601C1.45278 18.2914 1.13194 17.5204 1.12986 16.7157V14.7171C1.39453 14.8069 1.67862 14.824 1.95219 14.7662C2.22552 14.7087 2.47863 14.5785 2.68451 14.3894C2.9715 14.6488 3.34303 14.7945 3.7298 14.7995C4.11656 14.8043 4.49177 14.668 4.78504 14.4159C5.07281 14.6601 5.43857 14.7938 5.81641 14.7922C5.86761 14.7959 5.91933 14.7959 5.97054 14.7922C5.98997 15.2057 6.16773 15.5959 6.46705 15.8818C6.76611 16.1678 7.16415 16.3274 7.57794 16.3279H9.00448C9.31641 16.3279 9.56925 16.0754 9.56925 15.7634C9.56794 15.6886 9.55271 15.6143 9.52409 15.5452C9.43613 15.3357 9.23159 15.1994 9.00447 15.1989H7.57794C7.30907 15.1989 7.09061 14.982 7.08852 14.7132C7.09062 14.6643 7.10086 14.6158 7.11871 14.5703C7.17438 14.3616 7.36211 14.2153 7.57794 14.2127H10.4273C10.6631 14.2138 10.8627 14.3863 10.8978 14.6192C10.9018 14.6467 10.9018 14.6746 10.8978 14.7019C10.8973 14.7772 10.9125 14.8515 10.943 14.9203L10.9167 14.9391ZM8.5077 22.0379H3.30183V20.8824H8.5077V22.0379ZM4.21289 9.57858C4.22733 9.61586 4.23626 9.65525 4.23914 9.69516V13.1846C4.23626 13.2246 4.22733 13.2639 4.21289 13.3012C4.17272 13.4685 4.04406 13.6 3.87785 13.6439C3.83689 13.6599 3.79357 13.6688 3.74972 13.6701C3.66098 13.6693 3.57433 13.6418 3.50134 13.5911C3.35535 13.5079 3.26503 13.3527 3.26425 13.1847V9.69516C3.26425 9.42708 3.48165 9.20967 3.74973 9.20967C3.97081 9.21072 4.16222 9.36328 4.2129 9.57858L4.21289 9.57858ZM5.81634 9.20206C5.94658 9.20206 6.07182 9.25431 6.16372 9.34673C6.25562 9.43941 6.30656 9.56492 6.30551 9.69515V13.1846C6.30367 13.4462 6.0965 13.6601 5.83499 13.6701C5.61234 13.667 5.42092 13.5113 5.37209 13.2939C5.37419 13.255 5.37419 13.2159 5.37209 13.177V9.69513C5.37419 9.65627 5.37419 9.61742 5.37209 9.57855C5.42381 9.36404 5.61444 9.21201 5.83499 9.20965L5.81634 9.20206ZM8.45117 10.3314V13.0831H7.46497V10.3353C7.45289 10.1985 7.49884 10.063 7.59153 9.9617C7.68421 9.86061 7.81523 9.80311 7.95229 9.80311C8.08961 9.80311 8.22063 9.86061 8.31332 9.9617C8.406 10.063 8.45195 10.1985 8.43987 10.3353L8.45117 10.3314ZM2.1047 11.1293V13.1846C2.10418 13.2563 2.08764 13.3272 2.05587 13.3915C1.96581 13.5822 1.76206 13.6919 1.55331 13.6625C1.34457 13.6334 1.17916 13.4716 1.14503 13.2637C1.14319 13.2374 1.14319 13.2109 1.14503 13.1846V11.1293C1.13295 10.9928 1.1789 10.8573 1.27158 10.7559C1.36427 10.6548 1.49529 10.5971 1.63235 10.5971C1.76967 10.5971 1.90069 10.6548 1.99338 10.7559C2.08606 10.8573 2.13201 10.9928 2.11993 11.1293L2.1047 11.1293Z" fill="#2ADACC"/>
</svg>
