<svg width="39" height="35" viewBox="0 0 39 35" fill="none" xmlns="http://www.w3.org/2000/svg">
<path d="M27.0967 10.6235L30.1416 7.73853L30.762 8.39324L27.7172 11.2782L27.0967 10.6235Z" fill="#2ADACC"/>
<path d="M12.178 30.3094H13.08V32.5196H12.178V30.3094Z" fill="#2ADACC"/>
<path d="M20.5222 4.69081V14.2978L14.794 20.0257L14.839 20.0707L5.00646 20.071L0 24.7616V35H12.8093L17.8158 30.2641V20.0707H16.0568L21.1985 14.929H22.4614L19.5299 17.8156L20.1613 18.447L23.7243 14.929H31.888L30.3092 16.5077L30.9406 17.1392L33.1508 14.929H33.3311L38.3375 10.2384L38.3378 0H25.5285L20.5222 4.69081ZM5.36748 20.9731H16.1923L12.4487 24.5361H1.62391L5.36748 20.9731ZM12.4485 34.0981H0.902098V25.3932H12.1779V29.1818H13.0799V25.1676L16.9138 21.5143V29.9035L12.4485 34.0981ZM32.9705 14.0272H24.6715L26.2503 12.4484L25.6189 11.817L23.3637 14.0271H21.4241V5.32219H32.6999V9.11079H33.6019V5.0966L37.4358 1.48825V9.83236L32.9705 14.0272ZM36.7591 0.902138L32.9705 4.46513H22.1457L25.9343 0.902138H36.7591Z" fill="#2ADACC"/>
<path d="M32.7001 10.2385H33.6021V12.4487H32.7001V10.2385Z" fill="#2ADACC"/>
<path d="M15.7042 9.54747L17.9684 7.2832L18.6062 7.92093L16.3419 10.1852L15.7042 9.54747Z" fill="#2ADACC"/>
<path d="M11.003 14.1399L14.5305 10.6511L15.1647 11.2926L11.6373 14.7814L11.003 14.1399Z" fill="#2ADACC"/>
<path d="M7.1507 17.922L9.10665 15.9872L9.74123 16.6284L7.78528 18.5632L7.1507 17.922Z" fill="#2ADACC"/>
<path d="M22.7717 24.0585L28.6398 18.1903L29.2776 18.828L23.4094 24.6962L22.7717 24.0585Z" fill="#2ADACC"/>
<path d="M18.9395 27.8505L20.5022 26.2878L21.1399 26.9256L19.5772 28.4882L18.9395 27.8505Z" fill="#2ADACC"/>
<path d="M10.0582 9.24612V4.55554H5.36762L2.93188 6.99096V11.6819H7.62246L10.0582 9.24612ZM7.89332 10.1481V7.35178L9.15622 6.08889V8.88521L7.89332 10.1481ZM5.72845 5.45753H8.52477L7.26188 6.72042H4.46556L5.72845 5.45753ZM3.83411 7.6224H6.99126V10.7796H3.83411V7.6224Z" fill="#2ADACC"/>
<path d="M27.2426 25.6187V30.3093H31.9331L34.3685 27.8739L34.3689 23.2283H29.6783L27.2426 25.6187ZM28.1449 26.2502H31.302V29.4073H28.1449V26.2502ZM32.204 28.7759V25.9796L33.4669 24.7167V27.513L32.204 28.7759ZM32.8354 24.1302L31.5725 25.3931H28.7762L30.0391 24.1302H32.8354Z" fill="#2ADACC"/>
</svg>
