<svg width="981" height="653" viewBox="0 0 981 653" fill="none" xmlns="http://www.w3.org/2000/svg">
<path d="M1096.47 46.8591C1095.32 46.3146 1093.98 46.8302 1093.21 47.7368L1036.89 10.3672C1036.89 10.3672 1037.01 10.2556 1036.9 10.13C1037.59 8.62352 1036.74 6.90725 1035.23 6.22304C1034.18 5.80403 1033.1 6.09664 1032.23 6.64041L980.271 -44.037C980.522 -44.2602 980.536 -44.4973 980.551 -44.7345C981.235 -46.2409 980.386 -47.9572 978.879 -48.6415C977.373 -49.3257 975.656 -48.4753 974.972 -46.9689C974.832 -46.6202 974.803 -46.1458 974.775 -45.6714L923.983 -36.065C923.676 -36.9161 923.119 -37.5442 922.31 -37.9491C920.804 -38.6333 919.087 -37.7828 918.402 -36.2764C918.262 -35.9277 918.248 -35.6905 918.108 -35.3418L882.807 -32.077C882.627 -33.0398 881.958 -33.7934 880.911 -34.2123C880.214 -34.4916 879.503 -34.5338 878.888 -34.2132L855.93 -78.2941C856.307 -78.6289 856.81 -79.0751 856.964 -79.661C857.649 -81.1674 856.799 -82.8839 855.293 -83.568C854.01 -84.001 852.558 -83.6109 851.902 -82.5788L819.311 -100.812C819.995 -102.318 819.146 -104.035 817.639 -104.719C816.133 -105.403 814.416 -104.553 813.732 -103.046C813.326 -102.237 813.507 -101.275 813.827 -100.661L776.08 -74.3353C775.746 -74.7121 775.397 -74.8518 774.937 -75.1171C773.431 -75.8013 771.714 -74.951 771.029 -73.4445C770.344 -71.938 771.194 -70.2216 772.7 -69.5374C772.7 -69.5374 772.812 -69.4119 772.937 -69.5234L755.885 22.8832L755.648 22.8691L755.857 23.3574L755.646 24.892L756.289 24.0971L781.558 73.3131C781.181 73.6478 780.679 74.0941 780.525 74.6799C779.98 75.8377 780.383 77.0516 781.164 77.9308L755.827 113.678C755.716 113.552 755.715 113.552 755.478 113.538C753.972 112.854 752.255 113.704 751.57 115.211C751.011 116.606 751.638 118.071 752.781 118.853L657.126 190.302C656.903 190.05 656.443 189.785 656.094 189.645C654.588 188.961 652.871 189.812 652.187 191.318C651.502 192.825 652.351 194.541 653.858 195.225C654.444 195.379 655.029 195.533 655.518 195.323L690.604 287.485C689.99 287.806 689.487 288.252 689.207 288.95C688.928 289.647 689.011 290.247 689.094 290.847L650.741 307.378C650.421 306.764 649.849 306.373 649.263 306.22C647.757 305.535 646.04 306.386 645.356 307.892C644.936 308.938 645.103 310.138 645.883 311.018L620.622 339.51C620.51 339.385 620.273 339.37 620.05 339.119C618.544 338.435 616.827 339.285 616.142 340.792C615.457 342.298 616.307 344.015 617.813 344.699C617.925 344.824 618.05 344.713 618.162 344.839L609.946 412.778C608.76 412.708 607.644 413.475 607.21 414.758C606.525 416.264 607.375 417.981 608.881 418.665C609.927 419.084 610.89 418.903 611.756 418.359L639.121 446.398C638.87 446.621 638.73 446.97 638.59 447.319C638.031 448.714 638.532 450.29 639.913 451.086L629.222 472.706C628.483 473.138 627.952 474.059 627.895 475.008L578.364 477.43C578.266 477.067 578.281 476.83 578.058 476.579C577.305 475.225 575.436 474.638 574.082 475.391C572.98 475.921 572.434 477.079 572.601 478.279L564.479 480.773L519.85 494.79C519.097 493.437 517.34 492.976 515.874 493.603C514.52 494.356 513.933 496.225 514.685 497.578C514.894 498.067 515.117 498.318 515.577 498.583L493.361 539.87C492.664 539.591 491.715 539.535 490.85 540.079L474.78 518.183L422.025 556.71C421.133 555.705 419.599 555.495 418.482 556.262C417.868 556.582 417.477 557.154 417.086 557.726L380.971 548.685C381.125 548.1 381.042 547.5 380.596 546.997C379.844 545.644 377.974 545.057 376.621 545.81C376.006 546.13 375.49 546.814 375.336 547.4L315.743 534.946C315.771 534.471 315.688 533.872 315.367 533.258C314.615 531.904 312.746 531.317 311.392 532.07C310.038 532.823 309.451 534.692 310.203 536.046C310.524 536.66 310.984 536.925 311.555 537.316L298.913 575.719C298.327 575.565 297.601 575.76 296.987 576.081C295.759 576.722 295.199 578.117 295.589 579.568L207.995 619.602L208.092 619.965C207.549 619.099 206.754 618.457 205.805 618.401L204.259 580.467C204.622 580.37 204.859 580.384 205.11 580.16C206.464 579.408 207.052 577.538 206.299 576.185C205.547 574.831 203.678 574.245 202.324 574.997C201.458 575.541 200.942 576.225 200.885 577.173L118.974 575.774C118.877 575.411 118.78 575.048 118.557 574.797C118.027 573.695 116.87 573.15 115.67 573.317L109.014 539.246C109.139 539.134 109.139 539.134 109.376 539.148C110.73 538.395 111.318 536.526 110.566 535.172C109.813 533.819 107.944 533.232 106.59 533.985C105.85 534.417 105.334 535.101 105.166 535.924L6.52878 531.63C6.43141 531.267 6.45969 530.793 6.12514 530.416C5.37281 529.063 3.50371 528.476 2.14978 529.229C0.795845 529.982 0.208383 531.851 0.960717 533.204C1.49002 534.307 2.88478 534.865 4.08478 534.698L23.4408 599.272L23.3152 599.384C21.9612 600.137 21.3738 602.006 22.1261 603.36C22.6696 604.225 23.7015 604.881 24.6502 604.937L32.1412 676.901C31.9041 676.887 31.6528 677.11 31.4156 677.096C30.0617 677.849 29.4742 679.718 30.2265 681.071C30.9789 682.425 32.848 683.012 34.2019 682.259C34.6904 682.05 34.9417 681.827 35.2071 681.366L80.2522 706.287C79.8469 707.096 79.916 707.933 80.4595 708.798C81.2118 710.152 83.0809 710.738 84.4348 709.986C84.6861 709.763 85.049 709.665 85.1888 709.316L114.221 729.362C113.816 730.171 113.871 731.245 114.177 732.096C114.497 732.71 115.18 733.227 115.766 733.38L105.013 782.01C104.538 781.982 103.938 782.066 103.324 782.386C101.97 783.139 101.383 785.008 102.135 786.362C102.776 787.59 104.171 788.148 105.385 787.744L118.668 822.446C117.314 823.199 116.852 824.957 117.59 826.548C118.342 827.901 120.212 828.488 121.565 827.735C122.305 827.303 122.822 826.619 122.99 825.796L168.902 830.181C168.874 830.655 169.083 831.144 169.18 831.506C169.933 832.86 171.802 833.447 173.156 832.694C174.51 831.941 175.097 830.072 174.345 828.718L174.233 828.593L246.231 768.714L246.454 768.965L246.482 768.491L247.613 767.487L246.65 767.668L258.664 713.876C259.138 713.905 259.738 713.821 260.352 713.5C261.455 712.971 262 711.813 261.833 710.613L304.158 699.315C304.27 699.441 304.27 699.441 304.256 699.678C305.008 701.032 306.877 701.618 308.231 700.865C309.585 700.113 310.033 698.592 309.518 697.252L428.397 703.34C428.494 703.703 428.466 704.177 428.801 704.554C429.553 705.907 431.422 706.494 432.776 705.741C434.13 704.988 434.718 703.119 433.965 701.766C433.645 701.152 433.185 700.886 432.724 700.621L465.041 607.69C465.627 607.844 466.464 607.775 467.078 607.454C467.692 607.133 468.083 606.562 468.349 606.101L508.228 617.864C508.074 618.45 508.269 619.175 508.589 619.789C509.342 621.143 511.211 621.729 512.565 620.977C513.556 620.321 514.087 619.401 514.032 618.326L551.497 612.691C551.483 612.928 551.594 613.054 551.817 613.305C552.57 614.658 554.439 615.245 555.793 614.492C557.147 613.739 557.734 611.87 556.982 610.517C556.87 610.391 556.87 610.391 556.759 610.265L606.437 563.464C607.343 564.232 608.64 564.428 609.631 563.773C610.985 563.02 611.573 561.15 610.821 559.797C610.277 558.932 609.357 558.401 608.408 558.345L605.258 519.364C605.621 519.266 605.858 519.28 606.235 518.946C607.589 518.193 608.036 516.672 607.521 515.333L645.037 498.871L645.149 498.997C645.901 500.35 647.77 500.937 649.124 500.184C649.989 499.64 650.52 498.72 650.577 497.771C650.619 497.06 650.425 496.334 650.104 495.72L686.546 461.344C686.769 461.596 687.118 461.735 687.355 461.749C688.861 462.434 690.578 461.583 691.263 460.077C691.682 459.031 691.404 457.705 690.623 456.826L695.331 449.726L720.768 410.296C722.289 410.743 723.991 410.13 724.439 408.61C725.124 407.103 724.274 405.387 722.768 404.703C722.308 404.437 721.833 404.409 721.471 404.507L712.201 358.38C713.052 358.074 713.681 357.516 713.974 356.581L740.478 363.149L756.531 299.481C757.829 299.677 759.183 298.924 759.616 297.641C759.896 296.943 759.938 296.232 759.618 295.618L793.31 279.406C793.631 280.02 794.091 280.285 794.788 280.564C796.295 281.249 798.011 280.398 798.696 278.892C798.976 278.194 799.018 277.483 798.698 276.869L852.77 248.178C853.105 248.555 853.551 249.058 854.137 249.211C855.643 249.895 857.36 249.045 858.045 247.539C858.729 246.032 857.88 244.316 856.373 243.632C855.788 243.478 855.202 243.324 854.476 243.519L839.703 205.873C840.317 205.552 840.708 204.98 841.099 204.409C841.658 203.014 841.143 201.674 840 200.892L881.855 113.644L881.506 113.504C882.441 113.797 883.515 113.742 884.269 113.073L909.834 141.362C909.583 141.585 909.443 141.934 909.304 142.282C908.619 143.789 909.468 145.505 910.975 146.189C912.481 146.874 914.198 146.023 914.883 144.517C915.176 143.582 915.107 142.745 914.564 141.88L978.686 90.341C978.909 90.5923 979.258 90.7318 979.606 90.8715C980.652 91.2905 981.978 91.0119 982.857 90.2311L1009.86 112.299C1009.74 112.41 1009.85 112.536 1009.73 112.647C1009.04 114.154 1009.89 115.87 1011.4 116.554C1012.9 117.239 1014.62 116.388 1015.3 114.882C1015.71 114.073 1015.64 113.236 1015.21 112.496L1093.99 52.6619C1094.21 52.9131 1094.67 53.1784 1095.02 53.3181C1096.52 54.0022 1098.24 53.1518 1098.93 51.6454C1098.72 49.134 1098.11 47.4318 1096.47 46.8591ZM979.14 -43.033C979.503 -43.1305 979.754 -43.3536 979.88 -43.4652L1031.84 7.21225C1031.59 7.43537 1031.57 7.67249 1031.56 7.90968C1031.42 8.2584 1031.39 8.73281 1031.36 9.20715L992.57 17.1441L979.14 -43.033ZM879.386 -28.5906C879.735 -28.451 880.321 -28.2973 880.684 -28.3948L886.828 0.291469L874.644 -30.8944L877.505 -30.9631C877.56 -29.8887 878.34 -29.0096 879.386 -28.5906ZM925.733 8.42631C925.608 8.53783 925.593 8.77511 925.579 9.01223L891.079 4.82726C891.122 4.11573 890.69 3.37618 890.244 2.87376L902.547 -11.8678L925.873 8.07768C925.873 8.07768 925.859 8.31471 925.733 8.42631ZM931.187 10.7722L961.303 18.6247L929.302 12.4457C930.027 12.2506 930.781 11.5813 931.187 10.7722ZM926.596 11.9284L898.598 6.46253L925.411 9.83528C925.606 10.5608 925.912 11.412 926.596 11.9284ZM889.686 2.24574C889.575 2.12013 889.338 2.10613 889.226 1.98053C888.766 1.71523 888.292 1.68714 887.929 1.78466L881.409 -28.5898C881.772 -28.6873 882.023 -28.9104 882.4 -29.2451L901.99 -12.4959L889.686 2.24574ZM886.715 2.18879C886.226 2.3979 885.723 2.84413 885.57 3.42998L798.633 -29.4452L798.41 -29.6965L798.424 -29.9337L873.682 -30.7134L886.715 2.18879ZM885.29 4.12751C885.276 4.36462 885.262 4.60183 885.248 4.83896L823.711 14.9993L797.6 -28.0784C797.851 -28.3016 798.228 -28.6363 798.368 -28.985L885.29 4.12751ZM846.051 47.5006C845.968 46.9006 845.759 46.4123 845.424 46.0354L886.306 7.04366C886.529 7.29486 886.766 7.30895 887.115 7.44857C887.115 7.44857 887.227 7.57418 887.352 7.46258L880.037 48.323L846.051 47.5006ZM908.623 49.8967C908.721 50.2595 908.818 50.6224 908.915 50.9851L878.065 71.4116C877.731 71.0348 877.271 70.7696 876.922 70.63C876.922 70.63 876.811 70.5043 876.685 70.6159L880.455 49.2999L908.623 49.8967ZM784.67 73.0213L805.011 21.2701C805.597 21.4238 806.197 21.3402 806.685 21.1312L824.349 56.2116L785.799 74.0402C785.465 73.6634 785.13 73.2866 784.67 73.0213ZM807.299 20.8106C807.425 20.6991 807.551 20.5875 807.676 20.4759L840.415 46.2148C840.289 46.3264 840.275 46.5636 840.15 46.6752C839.87 47.3726 839.828 48.084 840.148 48.6981L824.851 55.7654L807.299 20.8106ZM808.305 19.9181C808.43 19.8066 808.445 19.5693 808.57 19.4578C808.71 19.1091 808.738 18.6347 808.878 18.286L823.418 15.9339L841.406 45.5595C841.281 45.6711 841.281 45.6711 841.155 45.7826L808.305 19.9181ZM824.018 15.8504L885.317 5.67609C885.414 6.03881 885.637 6.29003 885.734 6.65284L844.852 45.6445C844.629 45.3933 844.392 45.3793 844.043 45.2397C843.346 44.9604 842.509 45.0298 841.783 45.2249L824.018 15.8504ZM822.749 15.1803L808.446 17.5465C808.14 16.6953 807.582 16.0673 806.773 15.6624C806.425 15.5227 805.95 15.4946 805.476 15.4665L802.974 3.5372L796.608 -27.4231L796.734 -27.5347L822.749 15.1803ZM804.75 15.6615C803.899 15.9682 803.271 16.5259 802.977 17.4606C802.543 18.7439 802.933 20.195 804.076 20.9767L789.998 21.5711L795.646 -27.2422C795.646 -27.2422 795.646 -27.2422 795.883 -27.2282L804.75 15.6615ZM804.034 21.6883L783.973 72.742L789.844 22.157L804.034 21.6883ZM785.994 74.7658L824.655 57.0628L845.634 98.4086C845.257 98.7432 845.006 98.9664 844.74 99.4267L786.132 76.44C786.175 75.7284 786.203 75.2541 785.994 74.7658ZM825.395 56.6305L840.691 49.5633C841.026 49.9401 841.472 50.4425 842.058 50.5962C842.407 50.7358 842.644 50.7499 842.993 50.8895L846.736 97.8789C846.611 97.9904 846.499 97.8649 846.374 97.9764L825.395 56.6305ZM843.844 50.5829C843.969 50.4714 844.207 50.4854 844.332 50.3739L864.983 83.2512L849.094 98.2565C848.871 98.0053 848.634 97.9912 848.285 97.8516C847.936 97.7119 847.699 97.6979 847.351 97.5582L843.844 50.5829ZM865.918 83.5445L874.114 75.8187C874.225 75.9443 874.462 75.9583 874.574 76.0839C874.923 76.2235 875.397 76.2516 875.871 76.2797L881.162 107.296C881.037 107.407 880.925 107.282 880.799 107.393L865.918 83.5445ZM873.667 75.3163L865.597 82.9305L844.947 50.0532C845.072 49.9417 845.198 49.8301 845.449 49.607L873.28 71.8422C873.154 71.9538 873.154 71.9538 873.14 72.191C872.595 73.3487 872.887 74.4371 873.667 75.3163ZM845.84 49.0351C845.98 48.6864 845.994 48.4492 846.12 48.3377L879.869 49.1461L875.987 70.3366C875.039 70.2804 874.299 70.7126 873.671 71.2704L845.84 49.0351ZM878.386 72.0256L909.236 51.599C909.57 51.9758 910.031 52.2412 910.379 52.3808C910.616 52.3948 910.728 52.5204 911.077 52.6601L911.126 77.7724L878.664 73.3511C878.692 72.8768 878.72 72.4025 878.386 72.0256ZM880.623 48.4767L887.924 7.85348C888.398 7.88156 888.761 7.78405 889.124 7.68654L909.727 47.3441C909.35 47.6788 908.848 48.125 908.694 48.7109C908.68 48.9481 908.554 49.0597 908.54 49.2969L880.623 48.4767ZM889.864 7.25432C890.241 6.9196 890.743 6.47336 890.897 5.88753L891.023 5.77593L970.188 21.2929C970.16 21.7672 970.145 22.0043 970.243 22.3671L914.205 48.0854C913.885 47.4713 913.425 47.206 912.727 46.9267C912.03 46.6474 911.319 46.6053 910.704 46.9259L889.864 7.25432ZM914.4 48.8108L970.438 23.0927C970.758 23.7066 971.33 24.0975 971.916 24.2512C972.264 24.3908 972.613 24.5305 972.976 24.433L975.553 47.0769L914.498 49.1736C914.512 48.9365 914.4 48.8108 914.4 48.8108ZM1000.47 44.2685C1000.36 44.1429 1000.01 44.0032 999.902 43.8776C999.441 43.6124 998.967 43.5843 998.604 43.6818L992.765 17.8696L1031.56 9.93259C1031.65 10.2953 1031.88 10.5466 1032.1 10.7978L1000.47 44.2685ZM1031.02 12.8761L982.416 83.6598L997.902 49.4713C999.422 49.9184 1001.01 49.1796 1001.57 47.7846C1001.99 46.7385 1001.7 45.6502 1001.16 44.785L1031.02 12.8761ZM997.878 43.8769C997.516 43.9744 997.264 44.1975 997.139 44.309L975.669 23.1645C975.795 23.0529 975.935 22.7042 976.061 22.5926C976.2 22.2438 976.229 21.7695 976.257 21.2952L992.276 18.0788L997.878 43.8769ZM996.51 44.8668C996.259 45.09 996.245 45.3271 996.105 45.6758C995.965 46.0246 995.951 46.2617 995.937 46.4989L976.264 47.1191L973.687 24.4751C974.05 24.3776 974.539 24.1685 974.916 23.8339L996.51 44.8668ZM976.348 47.7189L995.909 46.9732C995.978 47.8103 996.536 48.4384 997.219 48.9549L981.188 84.3011C980.951 84.2871 980.602 84.1475 980.365 84.1334L976.348 47.7189ZM982.317 85.32L1032.88 11.6771C1032.99 11.8027 1032.99 11.8026 1033.23 11.8167C1033.23 11.8167 1033.23 11.8167 1033.34 11.9423L1020 74.1039L982.972 86.3108C982.763 85.8224 982.54 85.5712 982.317 85.32ZM978.177 -42.8519C978.303 -42.9635 978.303 -42.9635 978.177 -42.8519L991.844 17.3391L975.825 20.5556C975.519 19.7044 974.961 19.0765 974.027 18.7831C973.915 18.6575 973.678 18.6435 973.441 18.6295L978.177 -42.8519ZM977.466 -42.8941L972.841 18.7129C972.241 18.7964 971.752 19.0055 971.264 19.2145L945.573 -8.96307L976.294 -43.2014C976.405 -43.0758 976.754 -42.9363 976.866 -42.8107C977.117 -43.0338 977.354 -43.0197 977.466 -42.8941ZM924.33 -33.9024C924.469 -34.2511 924.498 -34.7254 924.526 -35.1998L975.207 -44.9319C975.304 -44.5691 975.528 -44.318 975.862 -43.9411L945.141 -9.70269L923.813 -33.219C923.939 -33.3306 924.078 -33.6793 924.33 -33.9024ZM970.761 19.6608C970.51 19.8839 970.496 20.121 970.244 20.3442L931.34 10.1864C931.509 9.36328 931.328 8.40062 930.659 7.647L945.07 -8.51691L970.761 19.6608ZM922.445 -32.229C922.808 -32.3265 923.059 -32.5496 923.296 -32.5356L944.736 -8.89374L930.199 7.38177C930.087 7.25616 929.738 7.11648 929.627 6.99087C929.278 6.85119 928.804 6.82317 928.567 6.80908L922.445 -32.229ZM921.608 -32.1595L927.618 6.75289C927.13 6.962 926.767 7.05952 926.39 7.39423L903.064 -12.5513L919.85 -32.6207C919.962 -32.495 920.199 -32.481 920.31 -32.3553C920.896 -32.2016 921.245 -32.062 921.608 -32.1595ZM883.057 -30.2772C883.197 -30.626 883.211 -30.8632 883.239 -31.3375L918.54 -34.6022C918.749 -34.1138 918.958 -33.6255 919.292 -33.2487L902.506 -13.1793L882.917 -29.9285C882.917 -29.9285 883.043 -30.0401 883.057 -30.2772ZM878.623 -33.7529C878.246 -33.4181 877.743 -32.9719 877.589 -32.386C877.575 -32.1488 877.436 -31.8001 877.421 -31.563L874.324 -31.5084L857.699 -74.0244L878.623 -33.7529ZM873.501 -31.6762L798.592 -30.7567C798.495 -31.1195 798.286 -31.6078 798.189 -31.9707L852.847 -78.4768C853.07 -78.2256 853.419 -78.0859 853.768 -77.9463C854.354 -77.7926 854.939 -77.6389 855.665 -77.8339L873.501 -31.6762ZM796.822 -33.0036L809.72 -75.6754L851.872 -80.0816C851.969 -79.7187 852.067 -79.356 852.29 -79.1048L797.631 -32.5987C797.282 -32.7383 797.171 -32.864 796.822 -33.0036ZM819.505 -100.086L852.097 -81.8532C851.957 -81.5045 851.943 -81.2673 851.914 -80.793L809.999 -76.373L816.686 -98.7063C817.76 -98.7617 818.737 -99.1799 819.505 -100.086ZM776.638 -73.7073L814.971 -99.8789C815.194 -99.6277 815.654 -99.3624 816.003 -99.2227L809.176 -76.5407L776.847 -73.219C776.735 -73.3446 776.75 -73.5817 776.638 -73.7073ZM776.734 -71.3216C776.874 -71.6703 776.888 -71.9075 776.916 -72.3818L808.882 -75.606L796.279 -33.8687L775.714 -70.192C776.203 -70.4011 776.468 -70.8613 776.734 -71.3216ZM773.886 -69.4672C774.361 -69.4391 774.723 -69.5366 775.086 -69.6342L795.651 -33.311C794.465 -33.3812 793.348 -32.6143 792.803 -31.4565C792.258 -30.2988 792.661 -29.0849 793.442 -28.2057L756.793 21.6279L773.886 -69.4672ZM794.251 -27.8008C794.362 -27.6752 794.488 -27.7867 794.6 -27.6611C794.711 -27.5355 794.837 -27.6471 794.948 -27.5215L789.175 21.4034L757.085 22.7162L794.251 -27.8008ZM756.917 23.5393L789.133 22.1148L783.275 72.4627C782.912 72.5602 782.675 72.5462 782.312 72.6437L756.917 23.5393ZM784.359 78.2389C784.973 77.9183 785.476 77.4721 785.867 76.9003L844.475 99.887C844.46 100.124 844.321 100.473 844.306 100.71L792.385 109.298L784.359 78.2389ZM845.365 102.915L824.357 133.92L818.099 143.07L807.008 159.43C806.423 159.277 805.837 159.123 805.348 159.332L792.579 110.023L844.39 101.31C844.584 102.036 844.905 102.65 845.365 102.915ZM756.524 113.957L781.861 78.2101C781.973 78.3357 781.973 78.3357 782.21 78.3497C782.67 78.615 783.145 78.6431 783.745 78.5596L791.77 109.618L757.388 115.436C757.179 114.948 756.859 114.334 756.524 113.957ZM757.275 117.334C757.415 116.985 757.443 116.511 757.583 116.162L791.965 110.344L804.734 159.653C804.483 159.876 804.246 159.862 803.994 160.085L795.406 152.436L757.01 117.794C757.135 117.683 757.15 117.445 757.275 117.334ZM756.493 118.478L794.555 152.743L803.589 160.894C803.463 161.005 803.449 161.243 803.324 161.354C803.17 161.94 803.141 162.414 803.225 163.014L778.871 172.282L756.116 118.812C756.242 118.701 756.367 118.589 756.493 118.478ZM706.816 217.163C706.941 217.052 707.067 216.94 707.193 216.829L731.54 233.621L748.342 245.208C748.217 245.319 748.217 245.319 748.203 245.556C747.797 246.365 747.978 247.328 748.41 248.068L733.473 259.083L706.816 217.163ZM732.733 259.516L694.022 288.045C693.799 287.793 693.338 287.528 692.99 287.389C692.99 287.389 692.878 287.263 692.753 287.375L704.75 217.874C705.225 217.902 705.713 217.693 706.076 217.595L732.733 259.516ZM731.708 232.798L707.695 216.382C707.821 216.271 707.821 216.271 707.835 216.034C707.975 215.685 708.003 215.211 708.032 214.736L752.893 206.802L750.702 243.562C749.864 243.632 749.25 243.952 748.622 244.51L731.708 232.798ZM752.479 183.81C752.813 184.187 753.162 184.326 753.622 184.591C753.86 184.606 753.971 184.731 754.208 184.745L752.936 206.09L707.837 214.011C707.725 213.885 707.739 213.648 707.628 213.522L752.479 183.81ZM706.736 212.517L720.109 185.82L751.727 182.456C751.712 182.693 751.935 182.945 751.921 183.182L707.182 213.02C707.196 212.783 706.847 212.643 706.736 212.517ZM754.92 184.787C755.757 184.718 756.622 184.174 757.139 183.491L787.751 198.989C787.737 199.226 787.835 199.589 788.058 199.84L753.898 205.909L754.92 184.787ZM753.73 206.732L788.49 200.579C788.601 200.705 788.713 200.83 788.824 200.956L752.696 244.037C752.585 243.912 752.348 243.898 752.236 243.772C751.999 243.758 751.887 243.633 751.65 243.619L753.73 206.732ZM753.142 244.54L777.218 215.977L789.507 201.473C789.507 201.473 789.507 201.473 789.619 201.598C789.968 201.738 790.205 201.752 790.442 201.766L793.392 246.09L754.104 246.382C753.797 245.531 753.588 245.042 753.142 244.54ZM757.419 182.793C757.573 182.207 757.601 181.733 757.518 181.133L778.34 173.203L788.367 196.645C788.116 196.868 787.976 197.217 787.836 197.566C787.822 197.803 787.696 197.914 787.682 198.151L757.419 182.793ZM779.192 172.896L803.308 163.614C803.517 164.103 803.851 164.479 804.311 164.745L791.395 195.753C790.572 195.586 789.735 195.655 788.995 196.087L779.192 172.896ZM792.204 196.158L804.995 165.261C805.692 165.54 806.529 165.471 807.143 165.15L828.531 201.641L793.612 198.503C793.431 197.54 793.013 196.563 792.204 196.158ZM754.902 119.216C755.027 119.105 755.139 119.23 755.265 119.119L778.02 172.589L757.197 180.519C756.877 179.905 756.431 179.403 755.733 179.123C755.496 179.109 755.385 178.984 755.148 178.97L754.902 119.216ZM753.842 119.035C753.953 119.16 754.079 119.049 754.19 119.174L754.325 178.802C753.25 178.857 752.371 179.638 751.951 180.684C751.811 181.033 751.672 181.382 751.769 181.745L720.64 184.899L753.842 119.035ZM657.81 190.818L752.334 120.373L719.551 185.192L658.004 191.544C658.018 191.306 657.921 190.944 657.81 190.818ZM658.199 192.269L719.272 185.889L705.927 212.113C704.644 211.68 703.067 212.181 702.522 213.339L658.031 193.092C658.171 192.743 658.185 192.506 658.199 192.269ZM656.62 194.794C657.109 194.585 657.486 194.25 657.751 193.79L702.242 214.036C701.794 215.557 702.533 217.148 703.927 217.706C703.927 217.706 704.039 217.832 704.164 217.72L692.167 287.221C691.929 287.207 691.692 287.193 691.329 287.29L656.62 194.794ZM690.879 292.857C691.339 293.122 691.939 293.038 692.413 293.067L697.478 309.908L661.029 318.46C660.918 318.334 660.82 317.971 660.709 317.846L689.958 292.326C690.181 292.577 690.53 292.717 690.879 292.857ZM650.935 310.127C651.214 309.429 651.131 308.829 651.048 308.229L689.401 291.698L689.512 291.824L660.263 317.343C660.04 317.092 659.691 316.952 659.342 316.813C658.296 316.394 657.333 316.575 656.468 317.118L650.529 310.936C650.669 310.587 650.92 310.364 650.935 310.127ZM648.45 311.884C649.05 311.8 649.538 311.591 650.027 311.382L655.965 317.565C655.714 317.788 655.7 318.025 655.56 318.374C655.28 319.071 655.35 319.908 655.544 320.634L647.784 325.053L648.45 311.884ZM657.12 322.155C657.231 322.281 657.231 322.281 657.12 322.155L643.809 393.72L647.615 325.876L655.865 321.248C656.199 321.625 656.534 322.001 657.12 322.155ZM648.975 370.939L658.054 322.448C658.529 322.476 659.129 322.393 659.617 322.184L692.159 367.19L645.466 397.864C645.131 397.487 644.671 397.222 644.322 397.082C644.322 397.082 644.211 396.957 644.085 397.068L648.975 370.939ZM621.305 340.027L646.566 311.534C646.678 311.66 646.915 311.674 647.138 311.925C647.375 311.939 647.487 312.065 647.724 312.079L647.03 325.723L621.528 340.278C621.305 340.027 621.305 340.027 621.305 340.027ZM620.562 344.505C621.176 344.184 621.567 343.612 621.847 342.915C622.126 342.217 622.057 341.38 621.862 340.655L646.876 326.309L643.039 396.649C642.802 396.635 642.676 396.747 642.439 396.733L620.562 344.505ZM641.699 397.165C641.085 397.486 640.694 398.057 640.414 398.755C640.135 399.452 640.092 400.164 640.413 400.778L632.932 404.5L620.351 346.039L641.699 397.165ZM642.638 445.297C642.526 445.172 642.401 445.283 642.289 445.158L643.397 402.621C643.76 402.523 644.123 402.426 644.611 402.216L668.904 433.882L643.99 446.567C643.781 446.079 643.335 445.577 642.638 445.297ZM642.1 402.425C642.337 402.439 642.448 402.564 642.686 402.579L641.466 444.99L632.903 404.974L640.622 401.266C641.068 401.769 641.514 402.271 642.1 402.425ZM619.111 344.895L619.348 344.909L632.206 404.695L612.722 414.132C612.513 413.644 611.941 413.253 611.244 412.974C611.132 412.848 611.006 412.96 610.895 412.834L619.111 344.895ZM612.398 417.564C612.649 417.341 612.663 417.104 612.803 416.755C613.083 416.058 613.125 415.346 612.805 414.732L632.164 405.407L640.74 445.185C640.378 445.282 640.015 445.38 639.763 445.603L612.398 417.564ZM640.401 450.877C640.75 451.017 641.098 451.156 641.461 451.059L644.956 478.279L637 481.973L633.154 476.628C634.159 475.736 634.369 474.201 633.603 473.085C632.962 471.857 631.679 471.424 630.479 471.591L640.764 450.779L640.401 450.877ZM636.26 482.405L622.917 488.636C622.806 488.511 622.694 488.385 622.583 488.259L629.665 477.255C630.474 477.659 631.548 477.604 632.288 477.172L636.26 482.405ZM628.55 475.999C628.773 476.25 628.87 476.613 629.219 476.752L623.576 485.581L628.55 475.999C628.55 475.999 628.438 475.873 628.55 475.999ZM623.418 490.213C623.433 489.976 623.335 489.613 623.349 489.376L636.692 483.145L645.389 494.965C645.138 495.188 645.123 495.425 644.984 495.774L630.56 492.183L623.418 490.213ZM646.017 494.407L637.544 482.838L645.136 479.242L646.994 493.989C646.52 493.961 646.269 494.184 646.017 494.407ZM578.433 478.267L628.007 475.133L621.914 487.506L621.802 487.38C620.407 486.822 618.942 487.449 618.16 488.592L578.433 478.267C578.433 478.267 578.307 478.378 578.433 478.267ZM520.17 495.404L532.534 491.614L572.67 479.116C572.782 479.241 572.767 479.478 572.879 479.604C573.422 480.469 574.106 480.986 575.166 481.167L574.14 508.358L520.253 496.004C520.142 495.879 520.156 495.641 520.17 495.404ZM520.197 496.953L574.097 509.07L572.545 549.081C572.182 549.179 571.819 549.276 571.331 549.485C571.205 549.597 571.08 549.708 570.954 549.82L519.777 497.999C519.931 497.413 520.182 497.19 520.197 496.953ZM550.108 570.125L512.175 601.556C511.841 601.179 511.255 601.026 510.795 600.761L514.564 545.529L569.878 551.898C569.85 552.373 570.058 552.861 570.267 553.349L570.379 553.475L550.108 570.125ZM568.452 555.86L522.301 605.369L512.997 603.747C513.025 603.273 512.942 602.673 512.733 602.184L512.621 602.059L568.452 555.86ZM574.131 554.411C574.745 554.091 575.136 553.519 575.416 552.821L583.507 554.847L555.854 607.475L572.22 554.536C572.917 554.815 573.517 554.732 574.131 554.411ZM575.696 552.124C575.85 551.538 575.766 550.938 575.32 550.436C575.209 550.31 574.986 550.059 574.874 549.933L602.831 518.149L583.898 554.276L575.696 552.124ZM517.684 499.184C518.046 499.087 518.409 498.989 518.661 498.766C518.912 498.543 519.275 498.445 519.289 498.208L570.354 549.904C570.103 550.127 569.837 550.587 569.809 551.061L514.606 544.817L517.684 499.184ZM494.936 541.392C494.728 540.903 494.504 540.652 494.044 540.387L516.261 499.1C516.498 499.114 516.609 499.239 516.846 499.253L513.657 544.761L495.103 542.592C495.243 542.243 495.159 541.643 494.936 541.392ZM495.172 543.429L513.726 545.598L509.957 600.83L509.72 600.816L504.197 581.687L493.622 545.479C493.747 545.367 493.747 545.367 493.873 545.256C494.487 544.935 495.004 544.252 495.172 543.429ZM467.04 602.097L473.945 586.083L507.347 602.698C507.333 602.936 507.207 603.047 507.193 603.284L468.462 604.204C468.364 603.841 468.267 603.478 468.044 603.227C467.835 602.739 467.501 602.362 467.04 602.097ZM474.225 585.386L491.362 545.464C491.71 545.604 492.185 545.632 492.659 545.66L503.345 581.993L508.883 600.885L508.758 600.997C508.269 601.206 507.892 601.541 507.752 601.889L474.225 585.386ZM422.457 557.449L474.71 519.369L490.347 540.525C489.719 541.083 489.425 542.017 489.494 542.854L422.792 557.826C422.68 557.7 422.569 557.575 422.457 557.449ZM422.861 558.663L489.563 543.692C489.675 543.817 489.661 544.054 489.772 544.18C489.981 544.668 490.315 545.045 490.776 545.31L473.527 585.107L422.679 559.723C422.819 559.375 422.847 558.9 422.861 558.663ZM379.281 551.084C379.407 550.973 379.407 550.973 379.532 550.861C380.147 550.541 380.538 549.969 380.929 549.397L417.043 558.438C416.889 559.023 416.973 559.623 417.419 560.126C417.516 560.489 417.851 560.865 418.199 561.005L394.117 597.66C393.657 597.394 392.945 597.352 392.345 597.436L379.281 551.084ZM331.571 614.781L324.297 638.984L299.915 630.757C300.069 630.171 300.098 629.697 299.889 629.208L329.493 613.706C329.939 614.209 330.622 614.725 331.571 614.781ZM332.283 614.823C332.645 614.726 333.008 614.628 333.259 614.405C333.385 614.294 333.511 614.182 333.762 613.959L347.145 644.978C346.657 645.187 346.266 645.759 346 646.219L325.008 639.026L332.283 614.823ZM333.891 609.802L359.94 574.096L390.112 598.969C389.846 599.43 389.692 600.016 389.65 600.727L353.077 607.368L334.546 610.792C334.546 610.792 334.546 610.792 334.434 610.667C334.225 610.178 334.114 610.053 333.891 609.802ZM389.97 601.341C390.082 601.467 390.068 601.704 390.179 601.829C390.291 601.955 390.402 602.081 390.514 602.206L365.463 629.164L334.964 611.769C334.978 611.532 334.866 611.406 334.88 611.169L389.97 601.341ZM364.709 629.834L350.34 645.286C349.657 644.77 348.708 644.713 347.871 644.783L334.39 613.401C334.642 613.178 334.656 612.941 334.796 612.592L364.709 629.834ZM351.468 648.328L404.676 654.097C404.662 654.334 404.648 654.571 404.871 654.822L377.627 666.656L351.425 649.039C351.44 648.802 351.454 648.565 351.468 648.328ZM351.636 647.505C351.664 647.03 351.567 646.668 351.358 646.179C351.246 646.054 351.135 645.928 350.912 645.677L365.406 630.113L404.998 652.688C404.872 652.799 404.858 653.036 404.858 653.036L351.636 647.505ZM365.909 629.667L390.946 602.946C391.518 603.337 392.341 603.504 393.052 603.547L398.645 623.513L406.506 651.349C406.38 651.46 406.38 651.46 406.255 651.572C405.892 651.67 405.515 652.004 405.375 652.353L365.909 629.667ZM399.287 622.718L393.792 603.114C393.918 603.003 393.918 603.003 394.043 602.891C394.783 602.459 395.425 601.664 395.593 600.841L414.093 601.936L407.72 650.945C407.483 650.931 407.483 650.931 407.246 650.917L399.287 622.718ZM395.636 600.13C395.539 599.767 395.567 599.292 395.232 598.916C395.009 598.664 394.912 598.302 394.563 598.162L418.645 561.507C418.882 561.521 418.994 561.647 419.231 561.661L414.247 601.351L395.636 600.13ZM378.556 551.279L391.494 597.742C391.368 597.854 391.368 597.854 391.243 597.965C391.117 598.077 390.866 598.3 390.74 598.412L360.456 573.413L376.784 551.056C377.244 551.321 377.956 551.363 378.556 551.279ZM315.575 535.769L375.168 548.223C375.139 548.697 375.223 549.297 375.543 549.911C375.766 550.162 375.863 550.525 376.101 550.539L359.773 572.897L315.309 536.229C315.435 536.118 315.449 535.88 315.575 535.769ZM314.29 537.359C314.416 537.247 314.667 537.024 314.793 536.913L359.256 573.58L333.208 609.285C332.748 609.02 332.162 608.866 331.562 608.95L313.927 537.456C313.927 537.456 314.053 537.345 314.29 537.359ZM312.727 537.623C312.964 537.637 312.964 537.637 313.201 537.651L330.836 609.145C330.71 609.256 330.599 609.131 330.473 609.242C330.348 609.354 330.222 609.465 330.096 609.577L304.933 584.524L312.727 537.623ZM300.962 577.268C300.642 576.654 300.182 576.389 299.61 575.998L311.54 539.576L304.375 583.896L300.778 580.351C301.421 579.556 301.617 578.259 300.962 577.268ZM329.468 610.135C328.825 610.93 328.643 611.99 328.95 612.841L299.457 628.469C299.025 627.729 298.453 627.338 297.756 627.059L304.639 585.459L329.468 610.135ZM298.685 581.536C299.047 581.439 299.41 581.341 299.773 581.244C299.899 581.132 300.024 581.021 300.15 580.909L304.081 584.831L297.437 624.422L298.685 581.536ZM208.19 620.327L295.798 580.056C296.23 580.796 297.039 581.201 297.862 581.369L296.696 626.877C296.333 626.975 295.97 627.072 295.607 627.17C294.742 627.714 294.225 628.397 294.168 629.346L208.482 621.416C208.496 621.179 208.524 620.704 208.19 620.327ZM294 630.169C294.112 630.294 293.986 630.406 294.098 630.531L246.022 644.464L228.704 649.508C228.592 649.382 228.592 649.382 228.481 649.256C227.728 647.903 225.859 647.316 224.505 648.069L207.155 623.717C207.657 623.271 208.048 622.699 208.202 622.113L294 630.169ZM295.645 632.527L274.108 678.377L228.911 652.019C229.177 651.559 229.093 650.959 229.122 650.484L264.972 639.993L275.509 636.928L294.404 631.383C294.738 631.759 295.184 632.262 295.645 632.527ZM219.501 747.972L184.051 781.692L183.939 781.567L204.451 742.916C205.149 743.195 206.097 743.251 206.963 742.707C208.191 742.066 208.75 740.671 208.347 739.457L219.501 747.972ZM208.738 738.886L256.725 712.453L220.018 747.289L208.738 738.886ZM189.789 653.51L200.783 652.733L195.647 690.986C195.41 690.972 195.172 690.958 195.047 691.069L187.959 656.258C188.084 656.146 188.084 656.146 188.322 656.16C189.187 655.617 189.844 654.585 189.789 653.51ZM163.036 627.174L202.124 580.341C202.236 580.466 202.473 580.48 202.696 580.732L187.084 650.97C186.61 650.942 186.01 651.025 185.396 651.346C185.27 651.458 185.27 651.458 185.144 651.569L163.036 627.174ZM188.619 651.18L204.28 624.023C204.392 624.149 204.517 624.037 204.629 624.163L200.826 652.022L189.594 652.785C189.482 652.659 189.497 652.422 189.385 652.296C189.176 651.808 188.842 651.431 188.619 651.18ZM104.044 666.521C103.415 667.079 103.01 667.888 102.954 668.837L81.5768 672.093L79.9045 634.27C80.1417 634.284 80.393 634.061 80.6302 634.075L104.044 666.521ZM86.7636 640.984L107.281 666.118C106.472 665.713 105.635 665.782 104.784 666.089L86.7636 640.984ZM107.319 671.475C107.444 671.364 107.57 671.252 107.696 671.14L131.422 696.346C131.031 696.918 130.751 697.615 130.709 698.327L111.941 701.737L106.719 671.559C106.956 671.573 107.193 671.587 107.319 671.475ZM108.324 670.583C108.841 669.899 109.009 669.076 108.828 668.113L126.795 690.122L108.324 670.583ZM81.4956 633.532C81.747 633.308 81.8867 632.96 82.1381 632.737L141.519 648.748C141.365 649.334 141.56 650.059 141.768 650.548C142.089 651.162 142.772 651.678 143.358 651.832L133.99 695.189C133.516 695.161 132.916 695.244 132.301 695.565L132.176 695.676L81.4956 633.532ZM113.936 578.451L93.7787 609.15L78.4271 597.173C78.8323 596.364 79.0004 595.541 78.6941 594.69L113.504 577.711C113.601 578.074 113.713 578.199 113.936 578.451ZM93.1504 609.707L80.5926 628.718C80.2439 628.578 79.658 628.425 79.2952 628.522L76.1935 598.707C76.4307 598.721 76.682 598.498 76.9192 598.512C77.1705 598.289 77.2962 598.177 77.5475 597.954L93.1504 609.707ZM82.0706 629.877C81.8475 629.625 81.7502 629.263 81.4015 629.123L93.8336 610.224L141.827 647.576C141.701 647.688 141.687 647.925 141.687 647.925L82.3061 631.913C82.3486 631.202 82.391 630.49 82.0706 629.877ZM167.174 669.545L135.608 695.999C135.385 695.747 134.924 695.482 134.576 695.342L143.958 651.748C144.432 651.776 145.032 651.693 145.646 651.372C145.772 651.261 146.023 651.038 146.149 650.926L167.174 669.545ZM146.763 650.606C146.903 650.257 147.154 650.034 147.183 649.559L183.831 653.633C183.803 654.108 184.012 654.596 184.109 654.959L184.221 655.085L167.691 668.862L146.763 650.606ZM136.652 698.44L192.812 694.626C192.909 694.989 192.895 695.226 193.118 695.477C193.55 696.217 194.122 696.607 194.819 696.887L189.714 730.619L136.358 699.375C136.498 699.026 136.638 698.678 136.652 698.44ZM195.53 696.929L195.768 696.943L204.414 737.558C204.288 737.67 204.051 737.656 203.925 737.768C203.562 737.865 203.185 738.2 203.046 738.548L190.397 731.135L195.53 696.929ZM192.743 693.789L136.583 697.603C136.486 697.241 136.5 697.003 136.277 696.752L136.165 696.627L167.857 670.062L193.19 692.268C192.925 692.729 192.771 693.314 192.743 693.789ZM168.485 669.504L184.904 655.601C185.587 656.118 186.396 656.522 187.359 656.341L194.447 691.153C194.447 691.153 194.447 691.153 194.321 691.264C194.195 691.376 193.944 691.599 193.819 691.71L168.485 669.504ZM183.874 652.922L147.225 648.848C147.253 648.373 147.044 647.885 146.947 647.522C146.836 647.397 146.612 647.146 146.501 647.02L162.519 627.857L184.53 651.89C184.279 652.113 184.139 652.462 183.874 652.922ZM145.943 646.392C145.26 645.875 144.549 645.833 143.586 646.014L117.242 578.884C117.368 578.773 117.368 578.773 117.493 578.661L161.85 627.104L145.943 646.392ZM142.972 646.335C142.72 646.558 142.595 646.67 142.343 646.893L94.3504 609.54L114.507 578.841C115.079 579.232 115.791 579.274 116.516 579.079L142.972 646.335ZM112.974 576.609L27.2764 600.809C27.1649 600.683 27.1649 600.683 27.0534 600.557C27.0534 600.557 27.0534 600.557 26.9419 600.432L76.8789 561.262L112.919 575.534C113.017 575.897 112.877 576.246 112.974 576.609ZM111.718 577.724L78.1365 594.062C77.2586 592.82 75.6266 592.247 74.2727 593C73.4072 593.544 72.7507 594.576 72.6941 595.525L29.411 600.935L111.718 577.724ZM75.6077 598.553L78.6952 628.606C78.458 628.592 78.2067 628.815 78.0811 628.926C77.5926 629.135 77.3413 629.358 77.0758 629.819L62.7812 622.07L74.7705 598.623C75.1333 598.525 75.3705 598.539 75.6077 598.553ZM76.6847 630.391C76.4051 631.088 76.3486 632.037 76.892 632.902C77.0035 633.028 77.115 633.153 77.2266 633.279L34.4988 677.278C34.4988 677.278 34.4988 677.278 34.3873 677.153L62.3901 622.642L76.6847 630.391ZM35.1538 678.269C35.0423 678.143 34.9308 678.018 34.8192 677.892L77.5611 633.656C78.0213 633.921 78.4815 634.186 79.0674 634.34L80.9768 672.176L35.4742 678.883C35.4883 678.646 35.3768 678.52 35.1538 678.269ZM81.7715 672.818L103.26 669.688C103.246 669.925 103.357 670.051 103.58 670.302C103.678 670.665 104.012 671.041 104.361 671.181L84.2716 704.74C83.9229 704.6 83.6857 704.586 83.337 704.447L81.7715 672.818ZM85.3867 705.996C85.2893 705.633 84.9548 705.256 84.6061 705.117L104.696 671.558C105.156 671.823 105.63 671.851 106.104 671.879L111.341 701.821L85.5956 706.484C85.4841 706.359 85.4982 706.122 85.3867 705.996ZM112.135 702.463L130.903 699.052C131.015 699.178 131.001 699.415 131.112 699.54C131.321 700.029 131.544 700.28 132.004 700.545L117.752 728.024C117.403 727.884 116.929 727.856 116.692 727.842L112.135 702.463ZM119.216 729.419C119.007 728.931 118.784 728.68 118.323 728.415L131.766 702.554L121.193 734.178L118.92 732.377C119.688 731.47 119.759 730.285 119.216 729.419ZM133.162 701.09C133.748 701.244 134.348 701.16 134.836 700.951L180.368 781.593L180.353 781.83L180.228 781.942L122.113 734.708L133.162 701.09ZM135.451 700.63C135.702 700.407 135.827 700.296 136.079 700.073L189.783 731.456L182.419 781.12C181.944 781.092 181.582 781.189 181.219 781.287L135.451 700.63ZM190.355 731.847L202.892 739.134C202.486 739.943 202.555 740.78 202.973 741.757C203.182 742.246 203.405 742.497 203.865 742.762L198.109 753.488L183.242 781.287C183.242 781.287 183.13 781.162 183.005 781.273L190.355 731.847ZM205.376 737.377L196.73 696.762C196.856 696.65 197.093 696.664 197.219 696.553C197.833 696.232 198.35 695.549 198.504 694.963L214.671 699.252L205.851 737.406C205.614 737.392 205.502 737.266 205.376 737.377ZM198.672 694.14C198.7 693.666 198.617 693.066 198.296 692.452C198.073 692.2 197.976 691.838 197.627 691.698L224.669 653.315C224.78 653.44 224.906 653.329 225.017 653.454L214.602 698.415L198.672 694.14ZM223.428 652.17C223.651 652.421 223.748 652.784 224.097 652.924L196.818 691.293C196.707 691.167 196.47 691.153 196.358 691.028L201.509 652.538L223.136 651.082C223.345 651.57 223.442 651.933 223.428 652.17ZM201.663 651.952L205.326 624.442C205.801 624.47 206.163 624.372 206.652 624.163L224.114 648.641C223.486 649.199 223.206 649.896 223.164 650.607L201.663 651.952ZM203.533 580.662L205.08 618.596C204.717 618.694 204.48 618.68 204.228 618.903C202.874 619.656 202.287 621.525 203.039 622.878C203.262 623.13 203.36 623.492 203.708 623.632L187.921 650.901L203.533 580.662C203.533 580.662 203.422 580.536 203.533 580.662ZM118.806 576.597L200.717 577.996C200.814 578.359 200.912 578.722 201.009 579.085C201.121 579.21 201.344 579.461 201.455 579.587L162.478 626.546L118.121 578.103C118.498 577.769 118.652 577.183 118.806 576.597ZM108.288 539.441L114.944 573.512C114.818 573.624 114.581 573.61 114.456 573.721C113.967 573.93 113.702 574.391 113.325 574.725L77.7444 560.718L105.833 538.7C106.391 539.328 107.325 539.622 108.288 539.441ZM6.48637 532.341L104.997 536.747C104.969 537.221 105.178 537.71 105.275 538.072L76.8098 560.425L6.47222 532.579C6.59788 532.467 6.59789 532.467 6.48637 532.341ZM4.81042 534.503L4.93608 534.392C5.42457 534.183 5.81567 533.611 6.08113 533.151L76.07 560.857L26.5099 599.692C25.8408 598.938 24.9063 598.645 23.9435 598.826L4.81042 534.503ZM27.5685 601.897L72.8747 596.488C72.8606 596.725 73.0836 596.976 73.0695 597.213C73.2784 597.701 73.6129 598.078 73.9616 598.218L61.9723 621.665L27.2607 603.069C27.5261 602.608 27.5403 602.371 27.5685 601.897ZM25.2502 604.854C25.4873 604.868 25.7387 604.645 25.9758 604.659C26.4643 604.449 26.7156 604.226 26.9811 603.766L61.6927 622.363L33.6899 676.873C33.3412 676.734 33.1041 676.72 32.8669 676.706L25.2502 604.854ZM80.4061 705.701L35.3611 680.78C35.5009 680.432 35.6407 680.083 35.5433 679.72L80.8087 672.999L82.137 704.613C81.7742 704.711 81.537 704.697 81.2857 704.92C81.0344 705.143 80.7831 705.366 80.4061 705.701ZM85.4542 708.856C85.7197 708.396 85.748 707.921 85.7762 707.447L111.521 702.783L115.84 728.149C115.715 728.26 115.477 728.246 115.352 728.358C115.1 728.581 114.738 728.678 114.598 729.027L85.4542 708.856ZM116.338 733.771C116.812 733.799 117.412 733.716 118.027 733.395C118.152 733.284 118.403 733.06 118.529 732.949L120.913 734.875L106.565 777.937L116.338 733.771ZM106.184 782.318L121.834 735.406L179.837 782.514C179.697 782.863 179.431 783.323 179.403 783.797L107.955 784.564C107.857 784.202 107.76 783.839 107.662 783.476C107.216 782.974 106.645 782.583 106.184 782.318ZM107.675 785.262L179.123 784.495C179.221 784.857 179.207 785.095 179.43 785.346L142.508 809.816L107.381 786.196C107.633 785.973 107.772 785.625 107.675 785.262ZM119.519 822.14L106.236 787.438C106.488 787.215 106.85 787.117 106.99 786.768L141.893 810.136L122.448 822.908C121.654 822.266 120.607 821.847 119.519 822.14ZM169.071 829.358L123.158 824.973C123.186 824.499 123.089 824.136 122.755 823.759L142.451 810.764L169.224 828.772C169.21 829.009 169.085 829.121 169.071 829.358ZM170.495 827.419C170.244 827.642 169.881 827.74 169.741 828.089L143.191 810.332L179.373 786.294L172.058 827.155C171.584 827.127 170.984 827.21 170.495 827.419ZM174.039 827.867C173.704 827.49 173.355 827.351 173.007 827.211L180.448 786.239C181.354 787.007 182.651 787.203 183.754 786.673C184.856 786.143 185.401 784.985 185.235 783.785L245.031 768.881L174.039 827.867ZM184.929 782.934C184.817 782.809 184.817 782.809 184.831 782.572C184.72 782.446 184.72 782.446 184.608 782.32L220.185 748.488L245.687 767.849L184.929 782.934ZM246.19 767.403L220.687 748.042L257.394 713.206C257.617 713.458 257.966 713.597 258.203 713.611L246.19 767.403ZM256.405 711.839L207.929 738.481C207.594 738.104 207.148 737.601 206.562 737.448L215.257 699.406L256.253 710.402C256.224 710.876 256.196 711.35 256.405 711.839ZM256.421 709.579L215.425 698.583L225.729 653.496C226.203 653.525 226.678 653.553 227.166 653.344L257.329 708.323C256.952 708.658 256.56 709.23 256.421 709.579ZM258.054 708.128L227.892 653.148C228.143 652.925 228.269 652.814 228.52 652.591L273.829 679.074L260.077 708.129C259.38 707.85 258.668 707.808 258.054 708.128ZM304.089 698.478L261.89 709.664C261.778 709.539 261.778 709.539 261.792 709.302C261.583 708.813 261.249 708.436 260.789 708.171L274.415 679.228L304.314 696.706C304.16 697.292 304.006 697.878 304.089 698.478ZM305.585 695.354C305.222 695.451 304.845 695.786 304.705 696.134L274.694 678.53L296.356 632.569C296.593 632.583 296.942 632.723 297.179 632.737L298.761 644.136L306.199 695.033C305.947 695.256 305.822 695.368 305.585 695.354ZM306.91 695.075L299.681 644.666L297.891 632.779C298.016 632.668 298.254 632.682 298.379 632.57C298.868 632.361 299.259 631.789 299.524 631.329L324.017 639.681L307.385 695.103C307.273 694.978 307.147 695.089 306.91 695.075ZM308.208 695.271L324.84 639.849L345.832 647.042C345.678 647.628 345.747 648.465 346.068 649.079C346.179 649.205 346.402 649.456 346.514 649.581L308.556 695.411C308.431 695.522 308.319 695.396 308.208 695.271ZM309.114 696.039L347.071 650.21C347.992 650.74 349.052 650.922 350.155 650.392C350.406 650.169 350.769 650.071 350.909 649.723L376.887 667.088L309.448 696.415C309.225 696.164 309.225 696.164 309.114 696.039ZM428.454 702.391L311.248 696.165L377.585 667.368L428.733 701.694C428.593 702.043 428.468 702.154 428.454 702.391ZM429.124 701.122L378.31 667.173L405.065 655.548C405.706 656.776 407.227 657.223 408.441 656.819L429.627 700.676C429.501 700.787 429.376 700.899 429.124 701.122ZM431.915 700.216C431.441 700.188 430.967 700.16 430.367 700.243L409.181 656.386C410.423 655.508 410.996 653.876 410.244 652.522L410.132 652.397L463.66 606.895C463.883 607.146 464.12 607.16 464.343 607.411L431.915 700.216ZM462.991 606.141L463.103 606.267L409.575 651.769C409.24 651.392 408.892 651.252 408.306 651.098L414.679 602.09L462.476 604.801C462.685 605.29 462.782 605.653 462.991 606.141ZM462.756 604.104L414.958 601.393L420.054 561.829C420.529 561.857 420.891 561.759 421.268 561.425C421.394 561.313 421.645 561.09 421.771 560.979L463.189 602.821C463.049 603.169 462.784 603.63 462.756 604.104ZM464.18 602.165C464.054 602.277 463.929 602.388 463.803 602.5L422.385 560.658L422.511 560.546L473.359 585.93L466.454 601.943C465.757 601.664 464.92 601.733 464.18 602.165ZM510.532 615.144C510.169 615.242 509.932 615.228 509.681 615.451C509.067 615.771 508.676 616.343 508.41 616.804L468.531 605.041C468.531 605.041 468.531 605.041 468.545 604.804L507.276 603.884C507.374 604.247 507.471 604.61 507.694 604.861C508.238 605.726 509.158 606.257 510.107 606.313L510.532 615.144ZM511.369 615.075L510.692 606.467C511.055 606.369 511.292 606.383 511.544 606.16C512.284 605.728 512.675 605.156 512.954 604.458L521.785 606.052L512.764 615.633C512.43 615.257 511.844 615.103 511.369 615.075ZM551.331 611.491L513.865 617.127C513.879 616.889 513.768 616.764 513.545 616.513C513.433 616.387 513.322 616.261 513.21 616.136L522.37 606.206L551.331 611.491C551.456 611.379 551.456 611.379 551.331 611.491ZM553.035 608.855C552.295 609.287 551.904 609.859 551.624 610.556L523.236 605.662L571.048 554.229C571.159 554.354 571.397 554.368 571.508 554.494L554.835 608.604C554.249 608.451 553.649 608.534 553.035 608.855ZM605.684 562.111C605.796 562.236 605.796 562.236 605.907 562.362L556.229 609.163L556.118 609.037L584.441 555.141L605.435 560.311C605.281 560.897 605.364 561.497 605.684 562.111ZM607.613 557.703C607.376 557.689 607.125 557.912 606.762 558.01C606.148 558.33 605.757 558.902 605.477 559.599L584.721 554.443L603.529 518.428C603.877 518.568 604.226 518.708 604.463 518.722L607.613 557.703ZM602.176 517.158C602.288 517.284 602.288 517.284 602.399 517.41L574.317 549.305C573.968 549.166 573.508 548.9 573.159 548.761L574.697 508.986L601.829 514.996C601.773 515.944 601.856 516.544 602.176 517.158ZM602.737 513.741C602.486 513.964 602.346 514.312 602.095 514.536L574.851 508.4L575.891 480.972C576.254 480.875 576.617 480.777 576.868 480.554C576.994 480.443 577.12 480.331 577.12 480.331L602.737 513.741ZM605.988 513.1C605.179 512.695 604.105 512.751 603.365 513.183L577.86 479.899C578.111 479.676 578.125 479.439 578.265 479.09L617.755 489.401C617.321 490.685 618.073 492.038 619.105 492.695L605.988 513.1ZM607.243 514.007L607.341 514.37C607.118 514.119 607.02 513.756 606.672 513.617L619.677 493.085C621.086 493.407 622.677 492.668 623.236 491.273C623.362 491.162 623.25 491.036 623.25 491.036L630.518 492.894L644.578 496.583C644.564 496.82 644.564 496.82 644.55 497.057C644.536 497.294 644.536 497.294 644.522 497.532L607.243 514.007ZM686.031 460.005L649.589 494.381C649.366 494.129 649.017 493.99 648.78 493.976C648.431 493.836 648.083 493.696 647.72 493.794L645.876 478.81L686.031 460.005ZM685.599 459.265L645.681 478.084L642.298 450.989C643.15 450.683 644.015 450.139 644.309 449.204L685.53 458.428C685.516 458.665 685.501 458.903 685.599 459.265ZM686.243 456.447C685.991 456.671 685.852 457.019 685.712 457.368C685.586 457.48 685.698 457.605 685.572 457.717L644.589 448.507C644.728 448.158 644.631 447.795 644.534 447.433L669.573 434.635L686.243 456.447ZM713.031 420.31L690.094 455.723C689.983 455.598 689.745 455.584 689.634 455.458C688.699 455.165 687.625 455.22 686.997 455.778L670.313 434.203L719.653 409.04C719.765 409.166 719.876 409.291 720.099 409.543L713.031 420.31ZM719.096 408.412L669.756 433.575L645.351 401.784C645.602 401.561 645.868 401.101 646.008 400.752C646.133 400.641 646.147 400.403 646.147 400.403L718.789 407.561C718.775 407.798 718.873 408.161 719.096 408.412ZM719.419 404.98C719.168 405.203 719.028 405.552 718.888 405.901C718.749 406.25 718.734 406.487 718.72 406.724L646.078 399.566C646.107 399.092 646.009 398.729 645.675 398.352L692.368 367.678L719.419 404.98ZM720.662 404.102C720.536 404.213 720.173 404.311 720.048 404.422L693.108 367.246L708.714 356.984C709.049 357.36 709.397 357.5 709.858 357.765C710.318 358.031 710.792 358.059 711.155 357.961L720.662 404.102ZM708.298 353.984C707.893 354.793 708.073 355.756 708.394 356.37L692.662 366.743L660.12 321.738C660.245 321.626 660.245 321.626 660.371 321.515L676.965 332.612L708.312 353.747C708.424 353.872 708.424 353.872 708.298 353.984ZM709.946 352.297C709.583 352.394 709.206 352.729 708.829 353.063L677.245 331.915L660.888 320.831C660.888 320.831 661.013 320.72 660.902 320.594C661.167 320.134 661.196 319.659 661.098 319.297L697.547 310.745L709.946 352.297ZM698.399 310.438L753.924 297.304C754.021 297.667 754.244 297.918 754.579 298.295L712.666 352.577C712.555 352.451 712.317 352.437 712.206 352.311C711.746 352.046 711.146 352.13 710.671 352.102L698.399 310.438ZM739.726 361.795L714.045 355.395C714.102 354.447 713.795 353.595 713.238 352.967L755.151 298.686C755.262 298.811 755.388 298.7 755.499 298.825L739.726 361.795ZM753.729 296.578L698.204 309.713L693.139 292.871C693.753 292.551 694.381 291.993 694.661 291.296C694.786 291.184 694.801 290.947 694.801 290.947L753.729 296.578C753.729 296.578 753.618 296.453 753.729 296.578ZM753.94 295.044C753.926 295.281 753.8 295.393 753.786 295.63L695.094 290.012C695.123 289.538 694.914 289.05 694.816 288.687L733.528 260.158L754.959 293.914C754.345 294.235 753.968 294.569 753.94 295.044ZM755.824 293.37C755.587 293.356 755.462 293.468 755.21 293.691L733.779 259.934L748.842 248.807C749.065 249.058 749.525 249.324 749.874 249.463C750.223 249.603 750.571 249.743 750.934 249.645L755.824 293.37ZM793.02 276.295C792.74 276.992 792.698 277.704 793.018 278.318L759.325 294.53C759.005 293.916 758.545 293.65 757.848 293.371C757.499 293.231 757.024 293.203 756.787 293.189L751.897 249.464C752.497 249.381 752.999 248.934 753.376 248.6L793.271 276.072C793.034 276.057 792.908 276.169 793.02 276.295ZM793.551 275.374L753.656 247.902C753.782 247.791 753.782 247.791 753.796 247.554C753.81 247.316 753.95 246.968 753.964 246.731L793.364 246.565L795.156 274.398C794.43 274.593 793.816 274.914 793.551 275.374ZM852.129 246.95L798.057 275.641C797.722 275.264 797.276 274.762 796.691 274.608C796.342 274.468 796.105 274.454 795.868 274.44L794.076 246.607L851.935 246.225C852.032 246.588 852.018 246.825 852.129 246.95ZM852.131 244.927C852.117 245.165 851.977 245.513 851.852 245.625L793.993 246.007L791.168 201.571C791.768 201.487 792.382 201.167 792.647 200.707L852.159 244.453C852.271 244.579 852.145 244.69 852.131 244.927ZM853.039 243.672C852.913 243.784 852.788 243.895 852.662 244.007L793.15 200.26C793.275 200.149 793.164 200.023 793.29 199.912C793.415 199.8 793.429 199.563 793.429 199.563L828.823 202.73L853.039 243.672ZM852.692 241.51L829.786 202.549L834.878 202.969C834.933 204.043 835.699 205.16 836.745 205.579C837.331 205.732 837.917 205.886 838.643 205.691L852.692 241.51ZM835.842 200.765C835.591 200.988 835.326 201.449 835.186 201.797C835.06 201.909 835.046 202.146 835.046 202.146L829.479 201.697L809.179 166.937L835.842 200.765ZM838.745 199.985C837.81 199.692 836.973 199.761 836.345 200.319L808.135 164.495C808.386 164.272 808.651 163.812 808.791 163.463C809.085 162.528 809.016 161.691 808.584 160.952L879.805 112.094C880.028 112.345 880.251 112.597 880.711 112.862L838.745 199.985ZM879.373 111.355L808.026 160.324C807.915 160.198 807.803 160.072 807.803 160.072L835.865 118.536L846.048 103.431C846.048 103.431 846.16 103.557 846.286 103.445C847.792 104.129 849.509 103.279 850.068 101.884L879.124 109.555C878.97 110.141 879.053 110.741 879.373 111.355ZM879.403 108.857L850.347 101.187C850.39 100.475 850.321 99.6382 849.763 99.0102L865.527 84.1163L880.422 107.728C879.934 107.937 879.669 108.397 879.403 108.857ZM909.78 140.287L884.214 111.998C884.465 111.775 884.605 111.426 884.745 111.078C885.43 109.571 884.58 107.855 883.074 107.171C882.725 107.031 882.376 106.891 882.014 106.989L876.722 75.9732L909.78 140.287ZM911.119 139.772C910.882 139.758 910.757 139.869 910.519 139.855L877.574 75.6666C877.951 75.3318 878.453 74.8856 878.607 74.2997C878.733 74.1881 878.621 74.0626 878.747 73.951L911.21 78.3724L911.119 139.772ZM977.696 88.9734L913.574 140.512C913.351 140.261 913.003 140.121 912.542 139.856C912.305 139.842 912.194 139.716 911.845 139.577L911.907 78.6517L977.307 87.5224C977.278 87.9967 977.487 88.4851 977.696 88.9734ZM977.377 86.3365C977.252 86.4481 977.363 86.5736 977.238 86.6852L911.838 77.8145L911.914 52.5906C912.751 52.5212 913.491 52.089 914.007 51.4056L977.377 86.3365C977.503 86.2249 977.503 86.2249 977.377 86.3365ZM977.894 85.6531L914.287 50.7082C914.427 50.3595 914.441 50.1223 914.455 49.8851L975.511 47.7884L979.514 84.44C979.025 84.649 978.285 85.0812 977.894 85.6531ZM1009.71 110.862L982.817 88.9196C982.942 88.8081 982.956 88.5709 983.082 88.4594C983.236 87.8734 983.264 87.3991 983.293 86.9248L1019.83 74.927L1012.27 109.942C1011.32 109.886 1010.34 110.304 1009.71 110.862ZM1092.89 51.1687L1014.11 111.003C1013.77 110.626 1013.42 110.486 1012.96 110.221L1020.55 74.7319L1092.77 51.0431C1092.9 50.9315 1092.77 51.0431 1092.89 51.1687ZM1092.8 48.5457C1092.65 49.1317 1092.62 49.606 1092.7 50.2059L1020.85 73.7973L1034.05 11.9845C1035 12.0406 1035.85 11.734 1036.5 10.9391L1092.82 48.3086C1092.69 48.4202 1092.69 48.4201 1092.8 48.5457Z" fill="url(#paint0_linear_38_114)" fill-opacity="0.3"/>
<defs>
<linearGradient id="paint0_linear_38_114" x1="252.874" y1="594.836" x2="876.112" y2="41.5053" gradientUnits="userSpaceOnUse">
<stop stop-color="#202932"/>
<stop offset="0.1801" stop-color="#425667"/>
<stop offset="0.486" stop-color="#2ADACC"/>
<stop offset="0.784108" stop-color="#425667"/>
<stop offset="0.810151" stop-color="#425667"/>
<stop offset="0.9994" stop-color="#425667"/>
</linearGradient>
</defs>
</svg>
