<svg width="25" height="26" viewBox="0 0 25 26" fill="none" xmlns="http://www.w3.org/2000/svg">
<path fill-rule="evenodd" clip-rule="evenodd" d="M25 13.2275C25 20.1311 19.4036 25.7275 12.5 25.7275C5.59644 25.7275 0 20.1311 0 13.2275C0 6.32397 5.59644 0.727539 12.5 0.727539C19.4036 0.727539 25 6.32397 25 13.2275ZM12.9479 9.9556C11.7321 10.4613 9.30221 11.5079 5.65821 13.0956C5.06648 13.3309 4.75651 13.5611 4.72829 13.7862C4.6806 14.1666 5.15697 14.3164 5.80567 14.5204C5.89391 14.5481 5.98535 14.5769 6.07909 14.6073C6.71732 14.8148 7.57585 15.0575 8.02216 15.0672C8.42701 15.0759 8.87887 14.909 9.37774 14.5664C12.7824 12.2682 14.54 11.1065 14.6503 11.0815C14.7282 11.0638 14.836 11.0416 14.9091 11.1066C14.9822 11.1715 14.975 11.2945 14.9673 11.3275C14.9201 11.5287 13.0501 13.2672 12.0824 14.1669C11.7807 14.4474 11.5667 14.6463 11.523 14.6917C11.425 14.7935 11.3251 14.8898 11.2291 14.9823C10.6362 15.5539 10.1916 15.9826 11.2538 16.6825C11.7641 17.0188 12.1725 17.297 12.5799 17.5744C13.025 17.8775 13.469 18.1798 14.0433 18.5564C14.1896 18.6523 14.3294 18.7519 14.4655 18.8489C14.9834 19.2181 15.4487 19.5499 16.0235 19.4969C16.3575 19.4662 16.7025 19.1521 16.8778 18.2154C17.2919 16.0016 18.1058 11.2051 18.294 9.22856C18.3104 9.05539 18.2897 8.83376 18.2731 8.73647C18.2564 8.63919 18.2216 8.50056 18.0952 8.39795C17.9454 8.27643 17.7142 8.25081 17.6108 8.25262C17.1406 8.26091 16.4193 8.51172 12.9479 9.9556Z" fill="#202932"/>
</svg>
