<svg width="272" height="58" viewBox="0 0 272 58" fill="none" xmlns="http://www.w3.org/2000/svg">
<path d="M59.3766 29.1037C59.029 12.7572 45.248 -0.177578 28.6613 0.386939C12.4718 0.926912 -0.340717 14.3281 0.00690965 30.3555C0.255214 42.1858 7.58021 52.2489 17.8849 56.6669C19.3499 54.8261 20.5665 51.5371 21.1625 49.6963C21.7584 48.1991 22.404 46.7265 23.0744 45.3029C26.0789 46.3338 30.1263 45.352 32.361 42.9712L32.4603 42.873C29.7787 41.7194 26.0789 42.3085 23.6455 44.1739C24.4649 42.4803 25.3588 40.8358 26.2776 39.2405C29.2324 40.4186 33.3294 39.6086 35.6386 37.3506L35.738 37.2524C33.1556 36.0006 29.5055 36.3933 26.9976 38.0623C27.9164 36.5651 28.8599 35.0925 29.8531 33.718C32.9321 34.6507 36.9795 33.4971 39.0901 31.0181L39.1646 30.92C36.6567 29.9627 33.3791 30.5273 31.045 32.1472C31.1195 32.049 31.2188 31.9263 31.2933 31.8281C31.8892 31.0672 32.51 30.3064 33.1308 29.57C36.756 28.5637 39.984 24.9066 40.5054 21.1268L40.5303 20.9796H40.5054C36.756 21.7159 33.2798 25.373 32.5845 29.2264C31.9886 29.9382 31.3926 30.65 30.8215 31.3863C31.7651 28.8828 31.5913 25.8148 30.2256 23.704L30.1511 23.8021C28.0902 26.3793 27.7674 30.5764 29.3565 33.3744C28.413 34.6998 27.4942 36.0497 26.6252 37.4733C27.1715 34.6261 26.2527 31.3127 24.2166 29.4473L24.167 29.57C22.8261 32.5399 23.5462 36.6388 25.7561 38.9705C24.887 40.4677 24.0676 42.014 23.2731 43.6093C23.7448 40.6395 22.6771 37.2033 20.5417 35.3625L20.4921 35.4852C19.2754 38.6023 20.2189 42.8239 22.5778 45.082C22.0564 46.1865 21.5598 47.291 21.088 48.4446C20.9638 48.3218 20.8149 48.2482 20.641 48.1746C20.0203 48.0028 19.176 47.6837 18.2325 47.1192C17.6117 46.751 16.9413 46.4565 16.2709 46.2356C13.5892 45.3765 13.9865 44.1002 12.596 41.5231C12.4966 41.3513 11.4041 40.2222 11.1558 40.0013C11.1061 39.9522 10.3861 39.535 10.0384 38.7987C9.71563 38.1114 9.51698 37.4733 9.46732 36.8597C9.368 36.0252 9.02037 35.4852 8.20097 35.1907C4.25292 33.8407 6.01589 28.7846 6.16487 28.1219C6.28902 27.5574 5.76758 26.3057 5.59377 25.6184C5.56894 25.5448 5.54411 25.4466 5.51928 25.2993C5.24614 23.9494 5.8669 22.7958 6.33868 22.3295C6.81046 21.8631 8.44927 21.1023 8.7969 20.6605C9.14453 20.2187 9.39283 19.7278 9.74046 19.3105C10.2122 18.746 11.6027 17.6415 13.5147 16.6352C14.6569 16.0216 14.8555 14.4508 15.3025 13.9599C16.0474 13.1254 17.1896 13.1254 18.0338 12.3891C18.456 12.0209 19.0767 11.8246 19.474 11.4318C21.4356 9.44376 24.0428 8.65835 26.6252 8.16746C28.3633 7.84839 30.3001 8.33927 32.1376 8.65835C32.4107 8.70743 32.659 8.75652 32.9073 8.83016C37.0043 8.97742 41.9208 9.81193 43.7086 11.53C44.8259 12.61 45.3722 13.7635 45.6205 14.5735C45.9185 15.4816 46.3158 16.3407 46.8124 17.1261L47.9049 18.8933C48.6002 19.9978 48.8236 21.3477 48.5257 22.624C48.3519 23.3603 48.2774 24.1212 48.476 24.5385C48.8236 25.2012 49.8665 26.2811 50.4873 26.8947C50.7852 27.1892 51.1329 27.4592 51.4805 27.6801C52.3247 28.1956 53.9139 29.2264 53.9139 29.3001C53.9139 29.4228 54.038 29.9137 53.3428 30.5273C52.6475 31.1409 51.3067 32.0981 51.3067 32.0981C51.3067 32.0981 51.3812 32.5399 51.555 32.8835C51.7536 33.2271 52.2006 33.7671 52.0516 34.2334C51.9026 34.6998 50.9342 35.0925 51.2074 35.6079C51.4805 36.1479 52.1757 36.2952 51.9771 36.786C51.7785 37.2524 50.8101 38.0869 50.9094 38.4305C51.0087 38.7741 51.8033 42.0631 49.9658 42.6276C48.6002 43.0694 44.8259 43.2903 43.063 43.3884C42.2932 43.4375 41.6228 43.8548 41.2503 44.5175C40.9772 45.0084 40.7041 45.6956 40.5799 46.6037C40.2323 48.9109 37.9231 54.237 37.9231 54.237C37.9231 54.237 37.8486 54.3843 37.7492 54.6052C37.5506 55.096 37.2526 55.8324 37.3023 56.1514C37.3271 56.3478 37.6003 56.7405 37.9975 57.2068C38.3203 57.575 38.8418 57.7223 39.3136 57.575C51.2074 53.4516 59.6497 42.1858 59.3766 29.1037Z" fill="#00DACC"/>
<path d="M85.7964 14.7944H92.5752L100.099 26.772L107.622 14.7944H114.426V43.1185H108.169V24.6367L100.099 36.737H99.925L91.9544 24.7594V43.1185H85.7716V14.7944H85.7964Z" fill="white"/>
<path d="M136.873 14.7944H158.475V20.3414H143.13V26.0848H156.638V31.6318H143.13V37.5715H158.674V43.1185H136.848V14.7944H136.873Z" fill="white"/>
<path d="M186.534 20.5378H177.818V14.7944H201.556V20.5378H192.841V43.1185H186.534V20.5378Z" fill="white"/>
<path d="M222.215 14.7944H228.522V43.1185H222.215V14.7944Z" fill="white"/>
<path d="M249.28 38.9704L253.005 34.5524C255.637 36.6632 258.294 37.9886 261.571 37.9886C264.204 37.9886 265.693 36.9823 265.693 35.3133V35.2397C265.693 33.6689 264.7 32.8098 259.933 31.6317C254.122 30.2081 250.447 28.5636 250.447 22.9676V22.8939C250.447 17.7642 254.569 14.3525 260.479 14.3525C264.7 14.3525 268.176 15.6534 271.131 17.9605L267.854 22.6485C265.271 20.9058 262.863 19.8504 260.404 19.8504C257.946 19.8504 256.73 20.9058 256.73 22.3294V22.403C256.73 24.293 257.946 24.8329 262.912 26.1338C268.723 27.6801 272 29.6927 272 34.6261V34.6997C272 40.3203 267.655 43.4865 261.472 43.4865C257.052 43.5111 252.707 42.063 249.28 38.9704Z" fill="white"/>
</svg>
