<svg width="321" height="85" viewBox="0 0 321 85" fill="none" xmlns="http://www.w3.org/2000/svg">
<g filter="url(#filter0_df_30_26)">
<circle cx="177.5" cy="7.5" r="1.5" fill="#56E2D6"/>
</g>
<path d="M157.808 8C170.028 8 179.057 8.10375 190.305 8.29812M217.186 8.96877C259.878 10.3901 289 13.2293 289 16.5C289 21.1944 229.006 25 155 25C80.9938 25 21 21.1944 21 16.5C21 14.2027 35.3671 12.1183 58.7126 10.5886M105.051 8.61016C97.3865 8.80558 90.0726 9.04464 83.1856 9.32248" stroke="white" stroke-opacity="0.2" stroke-width="2" stroke-linecap="round"/>
<path d="M104.899 8C97.2487 8.2027 89.948 8.45065 83.0735 8.73884M58.6445 10.0521C35.3411 11.6388 21 13.8008 21 16.1836C21 21.0527 80.8856 25 154.758 25C166.956 25 178.772 24.8924 190 24.6908" stroke="#2ADACC" stroke-width="2" stroke-linecap="round"/>
<defs>
<filter id="filter0_df_30_26" x="170" y="0" width="15" height="15" filterUnits="userSpaceOnUse" color-interpolation-filters="sRGB">
<feFlood flood-opacity="0" result="BackgroundImageFix"/>
<feColorMatrix in="SourceAlpha" type="matrix" values="0 0 0 0 0 0 0 0 0 0 0 0 0 0 0 0 0 0 127 0" result="hardAlpha"/>
<feOffset/>
<feGaussianBlur stdDeviation="3"/>
<feComposite in2="hardAlpha" operator="out"/>
<feColorMatrix type="matrix" values="0 0 0 0 0.164706 0 0 0 0 0.854902 0 0 0 0 0.8 0 0 0 1 0"/>
<feBlend mode="normal" in2="BackgroundImageFix" result="effect1_dropShadow_30_26"/>
<feBlend mode="normal" in="SourceGraphic" in2="effect1_dropShadow_30_26" result="shape"/>
<feGaussianBlur stdDeviation="1" result="effect2_foregroundBlur_30_26"/>
</filter>
</defs>
</svg>
