<svg width="47" height="48" viewBox="0 0 47 48" fill="none" xmlns="http://www.w3.org/2000/svg">
<path d="M38.3028 22.3103C38.5509 13.4285 32.1312 6.76828 23.9641 7.4343C15.7969 8.10033 8.97504 15.8404 8.72698 24.7222C8.47892 33.604 14.8986 40.2642 23.0658 39.5982C31.2329 38.9322 38.0548 31.1921 38.3028 22.3103Z" fill="url(#paint0_linear_29_98)"/>
<path d="M38.1504 17.7417C39.6938 25.8973 34.3086 34.6911 26.1349 37.3784C17.9494 40.0863 10.0587 35.6408 8.51521 27.4852C8.05188 25.037 8.20633 22.5347 8.88688 20.1576C10.4433 14.6104 14.8105 9.72921 20.5306 7.84854C26.6646 5.8318 32.6289 7.81312 35.8789 12.3764C36.984 13.9014 37.7638 15.6989 38.1504 17.7417Z" fill="url(#paint1_linear_29_98)"/>
<path d="M35.6675 18.5583C35.7059 18.761 35.7442 18.9637 35.7678 19.1713L35.7737 19.2025C36.6792 25.8124 32.261 32.748 25.6686 34.9155C19.0614 37.0878 12.7042 33.695 11.1483 27.299L11.1424 27.2678C11.0892 27.0699 11.0509 26.8672 11.0125 26.6645C9.72871 19.8808 14.1973 12.5477 21.0115 10.3073C27.8137 8.08734 34.3837 11.7746 35.6675 18.5583Z" fill="url(#paint2_linear_29_98)"/>
<path opacity="0.5" fill-rule="evenodd" clip-rule="evenodd" d="M35.5196 12.157C33.9637 16.5309 29.4772 20.6745 23.7204 22.5517C17.4377 24.6004 11.5476 23.3368 8.83734 19.7855C10.3615 14.3497 14.6787 9.56271 20.3332 7.71886C26.3967 5.74161 32.2924 7.68566 35.5196 12.157Z" fill="url(#paint3_linear_29_98)"/>
<path d="M35.7566 19.207L35.7625 19.2381C36.6669 25.8376 32.2541 32.7623 25.67 34.9263C19.071 37.0952 12.7217 33.7077 11.1678 27.3217L11.1619 27.2906C11.0235 26.228 11.012 25.1733 11.1245 24.1109C11.7284 18.6034 15.7185 13.4219 21.2545 11.6024C27.1006 9.68095 32.7711 12.1338 35.0576 17.1709C35.3497 17.8026 35.5886 18.4849 35.7566 19.207Z" fill="#557086"/>
<path opacity="0.2" fill-rule="evenodd" clip-rule="evenodd" d="M34.7875 17.0001C32.6704 20.389 28.8613 23.3709 24.2138 24.8868C19.0695 26.5649 14.186 26.0284 11.0946 23.8183C11.6927 18.4053 15.6428 13.3131 21.1233 11.5254C26.9107 9.63756 32.5242 12.0491 34.7875 17.0001Z" fill="url(#paint4_linear_29_98)"/>
<path d="M33.4363 19.4103C32.1956 13.5179 26.6352 10.3723 21.0377 12.4285C15.5733 14.4409 12.143 20.7253 13.36 26.4929C14.261 30.7562 17.4343 33.5759 21.2443 34.0308C21.6203 33.1942 21.81 31.8717 21.8901 31.1324C21.9938 30.518 22.1152 29.9144 22.2397 29.3263C23.3312 29.3653 24.639 28.5539 25.2309 27.4474L25.2546 27.4064C24.2577 27.2866 23.0565 27.9137 22.3552 28.8573C22.5181 28.1405 22.7017 27.4501 22.906 26.786C23.9916 26.8767 25.3289 26.1385 25.9564 25.0534L25.9801 25.0124C25.0217 24.8468 23.8057 25.3958 23.0629 26.2867C23.2702 25.6383 23.4952 25.0005 23.7409 24.3892C24.8413 24.3921 26.1373 23.5183 26.6908 22.3746L26.7145 22.3337C25.7915 22.2724 24.7205 22.8401 24.0458 23.6755C24.0665 23.6189 24.0902 23.578 24.1109 23.5214C24.2649 23.1723 24.4217 22.8389 24.5786 22.5054C25.7355 21.7271 26.582 20.056 26.4996 18.624L26.4878 18.5616C25.2659 19.2453 24.3335 20.9612 24.3627 22.4438C24.2029 22.7616 24.0608 23.0902 23.9187 23.4188C24.0728 22.4065 23.8039 21.3177 23.1858 20.7085L23.1622 20.7495C22.6441 21.9146 22.8123 23.4676 23.5516 24.3022C23.3148 24.8775 23.1135 25.4743 22.9003 26.0915C22.8976 24.9981 22.3448 23.9032 21.5373 23.4558L21.5314 23.5075C21.2766 24.7353 21.8087 26.1354 22.7078 26.7351C22.5153 27.3787 22.3406 28.033 22.1836 28.6981C22.1426 27.5676 21.5365 26.4405 20.6846 26.0076L20.6787 26.0593C20.4801 27.335 21.095 28.7576 22.0474 29.3066C21.9437 29.7552 21.8607 30.2302 21.7748 30.6895C21.7216 30.6573 21.6713 30.6407 21.6092 30.6445C21.3903 30.6502 21.0708 30.6226 20.7247 30.5374C20.491 30.465 20.2485 30.4287 19.997 30.4285C19.0356 30.4131 19.0802 29.901 18.4177 29.1406C18.3763 29.0879 17.915 28.8085 17.8262 28.7548C17.8085 28.7441 17.5423 28.6658 17.3589 28.4442C17.2081 28.2285 17.0899 28.0187 17.0337 27.8051C16.948 27.5182 16.7913 27.3542 16.4895 27.3374C15.0667 27.2913 15.3098 25.2549 15.3099 25.0062C15.3159 24.7886 15.0527 24.3944 14.9463 24.1641C14.9404 24.1329 14.9197 24.1065 14.9108 24.0597C14.7305 23.605 14.8579 23.1154 14.9881 22.8902C15.1183 22.665 15.6125 22.2041 15.7013 22.0091C15.7901 21.8141 15.8434 21.5976 15.9351 21.4182C16.0595 21.1618 16.456 20.6003 17.0242 20.0321C17.3674 19.6871 17.3321 19.0853 17.4475 18.8649C17.6429 18.4857 18.0275 18.3592 18.2702 17.981C18.3915 17.7919 18.5868 17.6613 18.6904 17.4615C19.2202 16.5246 20.0545 15.9517 20.8918 15.4774C21.4629 15.1736 22.161 15.1264 22.803 15.0314C22.8947 15.0178 22.9893 15.0198 23.081 15.0063C24.4804 14.5959 26.211 14.3584 26.9356 14.7833C27.3792 15.0519 27.6513 15.4101 27.7962 15.6775C27.9617 15.9712 28.1539 16.2396 28.3846 16.4622L28.8755 16.9806C29.189 17.3086 29.3545 17.7682 29.3396 18.2705C29.3306 18.5553 29.3542 18.846 29.4547 18.9621C29.6174 19.1573 30.0462 19.4308 30.2976 19.5969C30.4219 19.6721 30.5579 19.7268 30.691 19.7659C31.0075 19.8608 31.6257 20.0555 31.6316 20.0867C31.6405 20.1335 31.7174 20.2906 31.525 20.6026C31.3297 20.8989 30.9361 21.3931 30.9361 21.3931C30.9361 21.3931 30.9952 21.5395 31.078 21.6449C31.1608 21.7503 31.3589 21.8841 31.3471 22.0704C31.3352 22.2567 31.0215 22.5091 31.1605 22.6623C31.2847 22.8204 31.5332 22.805 31.5065 22.9962C31.4798 23.1873 31.1957 23.5958 31.249 23.7109C31.3022 23.8261 31.7929 24.9248 31.2278 25.3428C30.7987 25.6496 29.5295 26.1665 28.9437 26.3923C28.6952 26.4906 28.4881 26.7245 28.3993 27.0024C28.346 27.2189 28.3015 27.4822 28.3073 27.8451C28.3485 28.7268 27.9278 30.9045 27.9278 30.9045C27.9278 30.9045 27.907 30.9611 27.8922 31.0489C27.8508 31.2449 27.8152 31.555 27.8506 31.6594C27.8802 31.7326 27.9955 31.8439 28.1582 31.9562C28.2883 32.0627 28.4747 32.0511 28.6256 31.9352C32.3271 29.1595 34.423 24.1263 33.4363 19.4103Z" fill="#15ADA5"/>
<path d="M33.3683 18.7628C32.155 12.9159 26.5929 9.84244 20.9656 11.9415C15.4722 13.9958 11.9966 20.278 13.1868 26.001C14.0679 30.2313 17.2367 33.004 21.057 33.4192C21.4387 32.5837 21.6361 31.2669 21.7204 30.531C21.8278 29.9191 21.9529 29.3177 22.0809 28.7317C23.1759 28.7599 24.4924 27.9403 25.0923 26.8343L25.1162 26.7933C24.1167 26.6839 22.9081 27.3191 22.1993 28.2642C22.3666 27.5499 22.5545 26.8616 22.7631 26.1993C23.8519 26.2789 25.1976 25.5318 25.833 24.4468L25.857 24.4059C24.8963 24.2505 23.6733 24.8083 22.9232 25.7014C23.1347 25.0546 23.3639 24.4183 23.6137 23.808C24.7178 23.8001 26.0227 22.9186 26.5843 21.7761L26.6082 21.7351C25.6825 21.6832 24.6049 22.2582 23.9234 23.0953C23.9445 23.0389 23.9685 22.998 23.9896 22.9415C24.1459 22.5929 24.3051 22.2598 24.4643 21.9268C25.6292 21.1416 26.4876 19.4717 26.4126 18.0487L26.401 17.9867C25.1714 18.6784 24.2267 20.3937 24.248 21.8676C24.0859 22.1852 23.9416 22.5133 23.7972 22.8414C23.9573 21.8333 23.6934 20.7533 23.0765 20.1536L23.0525 20.1946C22.5265 21.3582 22.6869 22.9007 23.4242 23.7233C23.1835 24.2977 22.9783 24.893 22.7611 25.5088C22.7643 24.4216 22.2155 23.3384 21.4077 22.9014L21.4015 22.9528C21.1393 24.1761 21.6656 25.5632 22.5645 26.1507C22.3679 26.7925 22.1891 27.4448 22.0281 28.1076C21.9929 26.9839 21.3908 25.8691 20.5385 25.4471L20.5322 25.4985C20.3262 26.7689 20.9355 28.1775 21.8881 28.7141C21.7816 29.1611 21.6959 29.6342 21.6072 30.0917C21.5539 30.0602 21.5036 30.0442 21.4412 30.0486C21.2215 30.0564 20.9012 30.032 20.5544 29.9507C20.3203 29.8811 20.0771 29.8473 19.8248 29.8496C18.8603 29.8436 18.9077 29.334 18.2472 28.5844C18.2059 28.5324 17.7445 28.2591 17.6557 28.2065C17.638 28.196 17.3713 28.1208 17.1885 27.9023C17.0384 27.6893 16.9209 27.4818 16.8657 27.2699C16.7812 26.9855 16.6249 26.824 16.3222 26.8102C14.8948 26.7782 15.1497 24.751 15.1511 24.5037C15.1583 24.2873 14.8964 23.8979 14.7908 23.6699C14.7851 23.6389 14.7644 23.6129 14.7558 23.5665C14.5773 23.1161 14.7077 22.6281 14.8396 22.4029C14.9715 22.1777 15.4698 21.7146 15.5599 21.5198C15.65 21.3251 15.7047 21.1093 15.7977 20.93C15.9238 20.6738 16.3247 20.1117 16.8978 19.5412C17.2441 19.1948 17.2119 18.5967 17.3289 18.3765C17.5269 17.9975 17.9135 17.868 18.159 17.4895C18.2818 17.3003 18.4784 17.1686 18.5834 16.9688C19.12 16.0321 19.9603 15.4544 20.8029 14.9746C21.3775 14.6669 22.0782 14.6132 22.7228 14.5125C22.8149 14.4981 22.9099 14.4992 23.002 14.4848C24.4082 14.063 26.1459 13.81 26.8706 14.2255C27.3143 14.4882 27.5854 14.8418 27.7293 15.1062C27.8938 15.3967 28.0852 15.6617 28.3155 15.8807L28.8052 16.3914C29.118 16.7145 29.2816 17.1698 29.2639 17.6694C29.2534 17.9527 29.2755 18.2415 29.3758 18.356C29.5379 18.5485 29.9667 18.8163 30.2181 18.9789C30.3423 19.0525 30.4785 19.1056 30.6119 19.1432C30.9289 19.2345 31.5481 19.422 31.5539 19.453C31.5625 19.4994 31.6388 19.6549 31.4441 19.967C31.2466 20.2635 30.849 20.7588 30.849 20.7588C30.849 20.7588 30.9075 20.9037 30.99 21.0077C31.0726 21.1117 31.2707 21.2428 31.2577 21.4282C31.2448 21.6135 30.9288 21.8675 31.0674 22.0185C31.1912 22.1746 31.4406 22.1568 31.4128 22.3472C31.385 22.5375 31.0977 22.9464 31.1505 23.0604C31.2033 23.1743 31.6897 24.262 31.1205 24.6831C30.6884 24.9924 29.4121 25.5187 28.8232 25.7489C28.5733 25.8491 28.3642 26.0837 28.2736 26.3609C28.2189 26.5767 28.1729 26.839 28.1768 27.1997C28.2134 28.0761 27.7796 30.2455 27.7796 30.2455C27.7796 30.2455 27.7585 30.302 27.7431 30.3894C27.7005 30.5847 27.6631 30.8934 27.6981 30.9969C27.7274 31.0694 27.8425 31.1789 28.0051 31.289C28.1351 31.3935 28.3222 31.3802 28.4742 31.2635C32.203 28.4674 34.3358 23.4579 33.3683 18.7628Z" fill="url(#paint5_linear_29_98)"/>
<defs>
<linearGradient id="paint0_linear_29_98" x1="32.378" y1="35.8689" x2="24.708" y2="29.0051" gradientUnits="userSpaceOnUse">
<stop stop-color="#557086"/>
<stop offset="1" stop-color="#425667"/>
</linearGradient>
<linearGradient id="paint1_linear_29_98" x1="10.5643" y1="16.4585" x2="34.4413" y2="31.4224" gradientUnits="userSpaceOnUse">
<stop stop-color="#8CA2B5"/>
<stop offset="1" stop-color="#D9D9D9"/>
</linearGradient>
<linearGradient id="paint2_linear_29_98" x1="21.0115" y1="10.3073" x2="28.7673" y2="33.8967" gradientUnits="userSpaceOnUse">
<stop stop-color="#425667"/>
<stop offset="1" stop-color="#1A2228"/>
</linearGradient>
<linearGradient id="paint3_linear_29_98" x1="11.1443" y1="14.8761" x2="34.709" y2="15.8549" gradientUnits="userSpaceOnUse">
<stop stop-color="#D9F7F5"/>
<stop offset="1" stop-color="white"/>
</linearGradient>
<linearGradient id="paint4_linear_29_98" x1="13.8904" y1="12.8707" x2="31.9183" y2="20.2064" gradientUnits="userSpaceOnUse">
<stop stop-color="#DEFCFF"/>
<stop offset="1" stop-color="white"/>
</linearGradient>
<linearGradient id="paint5_linear_29_98" x1="15.8258" y1="14.9353" x2="31.6406" y2="28.466" gradientUnits="userSpaceOnUse">
<stop stop-color="#2ADACC"/>
<stop offset="1" stop-color="#56E2D6"/>
</linearGradient>
</defs>
</svg>
