<svg width="222" height="222" viewBox="0 0 222 222" fill="none" xmlns="http://www.w3.org/2000/svg">
<path d="M201.121 131.879C212.652 82.1065 181.651 32.4102 131.879 20.879C82.1065 9.34786 32.4101 40.3486 20.879 90.121C9.34784 139.893 40.3485 189.59 90.121 201.121C139.893 212.652 189.59 181.651 201.121 131.879Z" fill="url(#paint0_linear_29_70)"/>
<path d="M203.601 105.873C203.601 154.158 162.147 193.303 111.093 193.303C59.9459 193.395 18.4928 154.158 18.4928 105.873C18.4928 91.3785 22.1857 77.7147 28.833 65.7127C44.1586 37.6465 75.2715 18.4433 111.001 18.4433C149.315 18.4433 182.182 40.4161 196.215 71.806C201.015 82.3308 203.601 93.7789 203.601 105.873Z" fill="url(#paint1_linear_29_70)"/>
<path d="M188.09 105.873C188.09 107.073 188.09 108.274 187.998 109.474V109.658C185.967 148.157 152.269 178.716 111.093 178.716C69.8242 178.716 36.2186 148.157 34.1875 109.658V109.474C34.0952 108.274 34.0952 107.073 34.0952 105.873C34.0952 65.7127 68.5317 33.0303 111.093 33.0303C153.561 33.1226 188.09 65.7127 188.09 105.873Z" fill="url(#paint2_linear_29_70)"/>
<path opacity="0.5" fill-rule="evenodd" clip-rule="evenodd" d="M196.307 71.806C182.089 93.7789 150.699 109.012 114.324 109.012C74.6251 109.012 41.0195 90.9169 28.9252 65.7127C44.1585 37.6465 75.2713 18.4433 111 18.4433C149.314 18.4433 182.181 40.4161 196.307 71.806Z" fill="url(#paint3_linear_29_70)"/>
<path d="M187.905 109.474V109.658C185.874 148.157 152.176 178.716 111 178.716C69.7319 178.716 36.1263 148.157 34.0952 109.658V109.474C34.4645 103.288 35.5724 97.3795 37.4188 91.6554C47.1128 62.0197 76.3792 40.4161 111 40.4161C147.56 40.4161 178.212 64.5125 186.059 96.8255C187.075 100.888 187.721 105.135 187.905 109.474Z" fill="#557086"/>
<path opacity="0.2" fill-rule="evenodd" clip-rule="evenodd" d="M186.059 96.8255C169.626 112.151 143.59 122.03 114.232 122.03C81.734 122.03 53.2985 109.935 37.4189 91.6554C47.1129 62.0197 76.3793 40.4161 111 40.4161C147.56 40.4161 178.212 64.5125 186.059 96.8255Z" fill="url(#paint4_linear_29_70)"/>
<path d="M173.965 106.519C173.226 71.4367 144.052 43.7398 108.877 44.94C74.5328 46.1402 47.3898 74.8526 48.1284 109.197C48.6823 134.586 64.1926 156.097 86.0731 165.606C89.2121 161.636 91.7972 154.62 93.0897 150.65C94.3822 147.419 95.7671 144.28 97.1519 141.233C103.522 143.449 112.108 141.325 116.817 136.247L117.001 136.063C111.277 133.57 103.522 134.863 98.3521 138.833C100.106 135.14 101.953 131.631 103.891 128.308C110.169 130.8 118.848 129.139 123.741 124.245L123.926 124.061C118.479 121.383 110.723 122.214 105.369 125.815C107.307 122.584 109.339 119.445 111.462 116.49C117.925 118.521 126.511 116.029 131.034 110.674L131.219 110.489C125.864 108.458 118.94 109.658 114.047 113.074C114.232 112.797 114.416 112.613 114.601 112.336C115.893 110.674 117.186 109.104 118.479 107.535C126.141 105.319 132.973 97.5641 134.081 89.4397V89.0704C126.141 90.6399 118.756 98.4873 117.278 106.796C115.986 108.274 114.786 109.843 113.585 111.413C115.617 106.058 115.247 99.5029 112.293 94.9791L112.108 95.1637C107.769 100.703 107.03 109.658 110.446 115.659C108.415 118.429 106.569 121.383 104.63 124.43C105.83 118.337 103.799 111.228 99.5523 107.258L99.46 107.535C96.598 113.905 98.1675 122.676 102.784 127.661C100.937 130.893 99.183 134.216 97.5212 137.632C98.5368 131.262 96.2287 123.876 91.7049 119.906L91.6125 120.183C89.0275 126.923 91.0586 135.971 96.044 140.771C94.9362 143.079 93.9206 145.572 92.9051 147.973C92.6281 147.696 92.3511 147.511 91.9818 147.419C90.6893 147.049 88.8428 146.311 86.9041 145.203C85.6115 144.372 84.2267 143.726 82.7495 143.264C77.1178 141.418 77.9487 138.648 74.9021 133.201C74.7174 132.832 72.317 130.431 71.8554 129.97C71.7631 129.877 70.2859 128.954 69.455 127.384C68.8087 125.907 68.3471 124.522 68.2548 123.23C68.0702 121.476 67.3316 120.276 65.5774 119.629C57.2684 116.767 60.9613 105.873 61.2382 104.488C61.5152 103.288 60.4073 100.611 60.038 99.1336C60.038 98.949 59.9457 98.7643 59.9457 98.4873C59.3918 95.6253 60.6843 93.1326 61.6999 92.1171C62.7154 91.1015 66.1314 89.4397 66.87 88.5165C67.6085 87.5932 68.1625 86.4854 68.9011 85.6544C69.9166 84.4542 72.871 82.0538 76.8408 79.9304C79.2412 78.6379 79.7029 75.2219 80.6261 74.2064C82.1956 72.4522 84.596 72.4522 86.4424 70.7904C87.3657 69.9595 88.6582 69.5902 89.4891 68.667C93.6436 64.4201 99.183 62.7583 104.63 61.6504C108.323 61.0042 112.478 62.0197 116.355 62.666C116.909 62.7583 117.463 62.943 118.017 63.0353C126.695 63.3123 137.128 65.1587 140.913 68.8516C143.221 71.1597 144.421 73.6524 144.975 75.4066C145.622 77.3454 146.452 79.1918 147.56 80.8536L149.868 84.6389C151.346 87.0393 151.807 89.9013 151.161 92.671C150.792 94.2405 150.607 95.9023 151.069 96.7332C151.807 98.1181 154.023 100.426 155.315 101.811C155.962 102.457 156.7 103.011 157.439 103.473C159.193 104.581 162.609 106.796 162.609 106.981C162.609 107.258 162.886 108.274 161.409 109.658C159.932 110.951 157.07 112.982 157.07 112.982C157.07 112.982 157.254 113.905 157.624 114.644C157.993 115.382 159.008 116.49 158.731 117.506C158.454 118.521 156.331 119.352 156.977 120.46C157.531 121.568 159.008 121.937 158.639 122.953C158.27 123.969 156.146 125.723 156.331 126.461C156.516 127.2 158.177 134.216 154.392 135.509C151.53 136.432 143.498 136.986 139.805 137.171C138.236 137.263 136.759 138.186 135.928 139.571C135.374 140.679 134.82 142.064 134.45 144.095C133.712 149.08 128.819 160.436 128.819 160.436C128.819 160.436 128.634 160.713 128.449 161.175C127.988 162.19 127.434 163.852 127.526 164.498C127.619 164.96 128.172 165.791 129.003 166.714C129.65 167.545 130.758 167.822 131.773 167.453C156.608 158.774 174.519 134.586 173.965 106.519Z" fill="#15ADA5"/>
<path d="M173.965 103.288C173.226 68.2054 144.052 40.5085 108.877 41.7087C74.5328 42.9089 47.3898 71.6213 48.1284 105.966C48.6823 131.354 64.1926 152.866 86.0731 162.375C89.2121 158.405 91.7972 151.388 93.0897 147.419C94.3822 144.187 95.7671 141.048 97.1519 138.002C103.522 140.217 112.108 138.094 116.817 133.016L117.001 132.832C111.277 130.339 103.522 131.631 98.3521 135.601C100.106 131.908 101.953 128.4 103.891 125.076C110.169 127.569 118.848 125.907 123.741 121.014L123.926 120.83C118.479 118.152 110.723 118.983 105.369 122.584C107.307 119.352 109.339 116.213 111.462 113.259C117.925 115.29 126.511 112.797 131.034 107.443L131.219 107.258C125.864 105.227 118.94 106.427 114.047 109.843C114.232 109.566 114.416 109.381 114.601 109.104C115.893 107.443 117.186 105.873 118.479 104.304C126.141 102.088 132.973 94.3328 134.081 86.2084V85.8391C126.141 87.4086 118.756 95.256 117.278 103.565C115.986 105.042 114.786 106.612 113.585 108.181C115.617 102.827 115.247 96.2716 112.293 91.7478L112.108 91.9324C107.769 97.4718 107.03 106.427 110.446 112.428C108.415 115.198 106.569 118.152 104.63 121.199C105.83 115.105 103.799 107.997 99.5523 104.027L99.46 104.304C96.598 110.674 98.1675 119.445 102.784 124.43C100.937 127.661 99.183 130.985 97.5212 134.401C98.5368 128.031 96.2287 120.645 91.7049 116.675L91.6125 116.952C89.0275 123.692 91.0586 132.739 96.044 137.54C94.9362 139.848 93.9206 142.341 92.9051 144.741C92.6281 144.464 92.3511 144.28 91.9818 144.187C90.6893 143.818 88.8428 143.079 86.9041 141.972C85.6115 141.141 84.2267 140.494 82.7495 140.033C77.1178 138.186 77.9487 135.417 74.9021 129.97C74.7174 129.6 72.317 127.2 71.8554 126.738C71.7631 126.646 70.2859 125.723 69.455 124.153C68.8087 122.676 68.3471 121.291 68.2548 119.999C68.0702 118.244 67.3316 117.044 65.5774 116.398C57.2684 113.536 60.9613 102.642 61.2382 101.257C61.5152 100.057 60.4073 97.3795 60.038 95.9023C60.038 95.7177 59.9457 95.533 59.9457 95.256C59.3918 92.394 60.6843 89.9013 61.6999 88.8858C62.7154 87.8702 66.1314 86.2084 66.87 85.2852C67.6085 84.3619 68.1625 83.254 68.9011 82.4231C69.9166 81.2229 72.871 78.8225 76.8408 76.6991C79.2412 75.4066 79.7029 71.9906 80.6261 70.9751C82.1956 69.2209 84.596 69.2209 86.4424 67.5591C87.3657 66.7282 88.6582 66.3589 89.4891 65.4357C93.6436 61.1888 99.183 59.527 104.63 58.4191C108.323 57.7729 112.478 58.7884 116.355 59.4347C116.909 59.527 117.463 59.7117 118.017 59.804C126.695 60.081 137.128 61.9274 140.913 65.6203C143.221 67.9284 144.421 70.4211 144.975 72.1753C145.622 74.1141 146.452 75.9605 147.56 77.6223L149.868 81.4076C151.346 83.808 151.807 86.67 151.161 89.4397C150.792 91.0092 150.607 92.671 151.069 93.5019C151.807 94.8868 154.023 97.1948 155.315 98.5797C155.962 99.2259 156.7 99.7799 157.439 100.241C159.193 101.349 162.609 103.565 162.609 103.75C162.609 104.027 162.886 105.042 161.409 106.427C159.932 107.72 157.07 109.751 157.07 109.751C157.07 109.751 157.254 110.674 157.624 111.413C157.993 112.151 159.008 113.259 158.731 114.275C158.454 115.29 156.331 116.121 156.977 117.229C157.531 118.337 159.008 118.706 158.639 119.722C158.27 120.737 156.146 122.491 156.331 123.23C156.516 123.969 158.177 130.985 154.392 132.278C151.53 133.201 143.498 133.755 139.805 133.939C138.236 134.032 136.759 134.955 135.928 136.34C135.374 137.448 134.82 138.833 134.45 140.864C133.712 145.849 128.819 157.205 128.819 157.205C128.819 157.205 128.634 157.482 128.449 157.943C127.988 158.959 127.434 160.621 127.526 161.267C127.619 161.729 128.172 162.56 129.003 163.483C129.65 164.314 130.758 164.591 131.773 164.221C156.608 155.543 174.519 131.447 173.965 103.288Z" fill="url(#paint5_linear_29_70)"/>
<defs>
<linearGradient id="paint0_linear_29_70" x1="150.23" y1="197.471" x2="116.113" y2="141.736" gradientUnits="userSpaceOnUse">
<stop stop-color="#557086"/>
<stop offset="1" stop-color="#425667"/>
</linearGradient>
<linearGradient id="paint1_linear_29_70" x1="42.8135" y1="48.1686" x2="163.066" y2="178.555" gradientUnits="userSpaceOnUse">
<stop stop-color="#8CA2B5"/>
<stop offset="1" stop-color="#D9D9D9"/>
</linearGradient>
<linearGradient id="paint2_linear_29_70" x1="111.093" y1="33.0303" x2="111.093" y2="178.716" gradientUnits="userSpaceOnUse">
<stop stop-color="#425667"/>
<stop offset="1" stop-color="#1A2228"/>
</linearGradient>
<linearGradient id="paint3_linear_29_70" x1="48.218" y1="42.0884" x2="190.764" y2="77.2183" gradientUnits="userSpaceOnUse">
<stop stop-color="#D9F7F5"/>
<stop offset="1" stop-color="white"/>
</linearGradient>
<linearGradient id="paint4_linear_29_70" x1="66.4586" y1="34.6571" x2="167.119" y2="107.281" gradientUnits="userSpaceOnUse">
<stop stop-color="#DEFCFF"/>
<stop offset="1" stop-color="white"/>
</linearGradient>
<linearGradient id="paint5_linear_29_70" x1="75.5788" y1="48.8442" x2="147.528" y2="158.287" gradientUnits="userSpaceOnUse">
<stop stop-color="#2ADACC"/>
<stop offset="1" stop-color="#56E2D6"/>
</linearGradient>
</defs>
</svg>
