<svg width="97" height="96" viewBox="0 0 97 96" fill="none" xmlns="http://www.w3.org/2000/svg">
<path d="M70.2544 34.1233C64.2726 20.1733 49.7026 14.8725 37.7115 22.2838C25.7204 29.6951 20.8489 47.0119 26.8307 60.9619C32.8125 74.912 47.3825 80.2127 59.3736 72.8015C71.3647 65.3902 76.2362 48.0734 70.2544 34.1233Z" fill="url(#paint0_linear_29_84)"/>
<path d="M66.351 27.4996C74.3935 38.7862 72.5547 56.367 62.2596 66.7504C51.9613 77.1742 37.0669 76.4331 29.0244 65.1465C26.6101 61.7584 25.0789 57.8134 24.4202 53.656C22.8358 43.9787 25.9111 33.1622 33.1158 25.8957C40.8417 18.1034 51.1291 16.5552 59.1873 21.0385C61.9084 22.5223 64.3365 24.6725 66.351 27.4996Z" fill="url(#paint1_linear_29_84)"/>
<path d="M63.2239 30.6532C63.4238 30.9338 63.6237 31.2143 63.805 31.5136L63.8358 31.5568C69.8387 40.969 68.1334 54.9658 59.8301 63.3403C51.5082 71.7337 39.6415 71.4254 32.8194 62.8394L32.7887 62.7963C32.5701 62.5345 32.3702 62.2539 32.1703 61.9734C25.481 52.5859 26.9816 37.9425 35.5642 29.2863C44.1435 20.6704 56.5346 21.2657 63.2239 30.6532Z" fill="url(#paint2_linear_29_84)"/>
<path opacity="0.5" fill-rule="evenodd" clip-rule="evenodd" d="M59.0681 20.9681C59.8587 28.9731 56.0767 38.8899 48.7621 46.267C40.779 54.3182 31.0157 56.9159 24.3973 53.4939C22.7989 43.8627 25.8657 33.0768 33.0505 25.8307C40.755 18.0604 51.0139 16.5163 59.0681 20.9681Z" fill="url(#paint3_linear_29_84)"/>
<path d="M63.7898 31.5448L63.8205 31.588C69.8218 40.9977 68.117 54.9908 59.8159 63.3632C51.4962 71.7543 39.6327 71.4461 32.8125 62.8624L32.7817 62.8192C31.8262 61.2986 31.0656 59.6926 30.4847 57.9795C27.5041 49.0829 29.8068 38.0836 36.7864 31.0441C44.1568 23.6103 54.3486 23.009 61.3114 28.9645C62.1925 29.7073 63.03 30.5684 63.7898 31.5448Z" fill="#557086"/>
<path opacity="0.2" fill-rule="evenodd" clip-rule="evenodd" d="M61.2086 28.9279C60.4495 35.8334 56.8546 43.4166 50.9505 49.3711C44.4151 55.9624 36.6877 58.9105 30.4578 57.8701C27.4846 48.9958 29.7816 38.0241 36.744 31.0022C44.0963 23.5871 54.263 22.9873 61.2086 28.9279Z" fill="url(#paint4_linear_29_84)"/>
<path d="M60.4859 33.6761C54.4925 25.6244 43.9945 25.0838 37.1001 32.5195C30.3733 39.7863 29.6822 52.0202 35.5525 59.8991C39.8938 65.722 46.6055 67.596 52.6027 65.3683C52.5744 63.8017 51.9269 61.6354 51.5263 60.4444C51.2486 59.4261 51.005 58.4105 50.7768 57.4165C52.4307 56.6387 53.8086 54.3958 53.9124 52.2509L53.9188 52.1702C52.3491 52.7518 51.0003 54.6314 50.619 56.6112C50.3575 55.3911 50.1455 54.1953 49.9828 53.0239C51.6643 52.3296 53.1377 50.1758 53.3095 48.0365L53.3159 47.9558C51.7713 48.4378 50.3457 50.2096 49.8655 52.1406C49.7182 50.9908 49.6049 49.8438 49.541 48.7212C51.1828 47.8814 52.4992 45.5521 52.5196 43.38L52.5261 43.2993C51.1077 43.9137 49.9112 45.6028 49.4934 47.3967C49.4845 47.2944 49.4909 47.2137 49.482 47.1114C49.4659 46.46 49.4651 45.8301 49.4643 45.2003C50.6407 43.1235 50.7266 39.9208 49.5966 37.796L49.5351 37.7097C48.1952 39.6917 48.0129 43.0287 49.0992 45.2717C49.0846 45.88 49.104 46.4911 49.1234 47.1021C48.641 45.4371 47.4745 43.9798 46.1251 43.5231L46.1186 43.6038C46.1662 45.7815 47.5091 48.0254 49.1978 48.7335C49.2496 49.7942 49.3693 50.8605 49.4858 51.9671C48.7128 50.2984 47.1189 49.0496 45.601 48.9854L45.6285 49.0689C46.1125 51.1404 47.8902 52.8716 49.6517 53.0981C49.8176 54.2292 50.0175 55.363 50.2514 56.4997C49.395 54.8038 47.6991 53.5466 46.1254 53.5387L46.1529 53.6222C46.7543 55.7237 48.6712 57.4257 50.4764 57.534C50.6375 58.2989 50.8479 59.0883 51.043 59.8561C50.941 59.8476 50.8544 59.8608 50.7645 59.9143C50.4423 60.0909 49.9469 60.2939 49.3713 60.4292C48.9722 60.4979 48.5852 60.6285 48.2104 60.8211C46.7669 61.535 46.4731 60.7184 44.9512 60.0647C44.8525 60.016 43.9685 59.9431 43.7985 59.929C43.7645 59.9262 43.3127 60.0109 42.8837 59.813C42.5073 59.5991 42.1835 59.3692 41.9495 59.0858C41.6201 58.7133 41.2712 58.5829 40.8097 58.7887C38.6571 59.8098 37.5871 56.5117 37.4122 56.1316C37.2681 55.7947 36.5987 55.3941 36.2781 55.1239C36.2474 55.0807 36.198 55.0563 36.1518 54.9916C35.5633 54.4351 35.4087 53.5895 35.4444 53.1455C35.48 52.7015 35.8921 51.6181 35.8873 51.252C35.8825 50.8859 35.8096 50.5142 35.8202 50.1697C35.825 49.6826 36.021 48.5204 36.4679 47.2165C36.7367 46.426 36.2608 45.5335 36.2778 45.1083C36.3021 44.3789 36.7862 43.8907 36.8818 43.1265C36.9296 42.7445 37.1288 42.3952 37.1425 42.0104C37.273 40.1724 38.1133 38.6571 39.0274 37.2901C39.6645 36.3878 40.6716 35.7801 41.5613 35.1425C41.6884 35.0514 41.8309 34.9818 41.958 34.8907C43.7544 33.1902 46.1661 31.4997 47.5448 31.5931C48.3948 31.6632 49.0521 32.0018 49.456 32.2992C49.9094 32.621 50.3846 32.8837 50.8848 33.0468L51.9809 33.4623C52.6787 33.723 53.2486 34.2982 53.5797 35.0771C53.7667 35.5192 54.0063 35.9453 54.2378 36.0456C54.6175 36.2191 55.4488 36.308 55.9402 36.3689C56.1782 36.3885 56.4195 36.3677 56.6453 36.3254C57.1837 36.2276 58.2418 36.0508 58.2725 36.0939C58.3187 36.1587 58.5437 36.3398 58.4765 36.964C58.3939 37.5667 58.155 38.6237 58.155 38.6237C58.155 38.6237 58.346 38.802 58.5436 38.8995C58.7411 38.9971 59.1305 39.0495 59.2438 39.3432C59.3571 39.637 59.0673 40.2632 59.3822 40.3907C59.6785 40.5371 60.0379 40.3229 60.1326 40.6355C60.2273 40.948 60.0913 41.79 60.2515 41.9252C60.4118 42.0603 61.9159 43.3626 61.3678 44.4348C60.9443 45.2328 59.4167 46.9961 58.7026 47.7905C58.4014 48.1314 58.2573 48.6477 58.3204 49.1404C58.3933 49.5121 58.5123 49.9486 58.7761 50.4985C59.4577 51.8143 60.3626 55.4645 60.3626 55.4645C60.3626 55.4645 60.3715 55.5668 60.4111 55.7122C60.4872 56.0436 60.6523 56.5448 60.7786 56.6771C60.8741 56.7662 61.1243 56.8478 61.4457 56.8946C61.7144 56.9574 61.984 56.7968 62.1273 56.5039C65.6904 49.4232 65.2732 40.1249 60.4859 33.6761Z" fill="#15ADA5"/>
<path d="M59.941 32.9132C53.9476 24.8616 43.4496 24.321 36.5552 31.7567C29.8284 39.0235 29.1372 51.2574 35.0076 59.1363C39.3488 64.9592 46.0606 66.8332 52.0578 64.6054C52.0295 63.0388 51.382 60.8726 50.9813 59.6816C50.7037 58.6632 50.4601 57.6477 50.2318 56.6537C51.8858 55.8759 53.2637 53.6329 53.3674 51.488L53.3739 51.4073C51.8042 51.9889 50.4554 53.8686 50.074 55.8484C49.8126 54.6282 49.6006 53.4324 49.4379 52.261C51.1194 51.5668 52.5928 49.4129 52.7646 47.2736L52.771 47.1929C51.2264 47.675 49.8007 49.4468 49.3206 51.3778C49.1733 50.228 49.06 49.081 48.9961 47.9583C50.6379 47.1186 51.9543 44.7893 51.9747 42.6172L51.9812 42.5365C50.5628 43.1509 49.3662 44.84 48.9484 46.6339C48.9395 46.5316 48.946 46.4509 48.9371 46.3486C48.921 45.6971 48.9202 45.0673 48.9194 44.4374C50.0958 42.3607 50.1817 39.1579 49.0517 37.0332L48.9902 36.9468C47.6503 38.9289 47.468 42.2659 48.5543 44.5089C48.5397 45.1172 48.5591 45.7282 48.5785 46.3393C48.0961 44.6743 46.9296 43.2169 45.5802 42.7603L45.5737 42.841C45.6213 45.0187 46.9642 47.2626 48.6529 47.9707C48.7046 49.0313 48.8244 50.0976 48.9409 51.2043C48.1679 49.5356 46.574 48.2868 45.0561 48.2226L45.0836 48.3061C45.5676 50.3776 47.3453 52.1088 49.1068 52.3353C49.2727 53.4663 49.4726 54.6002 49.7065 55.7368C48.8501 54.041 47.1542 52.7838 45.5805 52.7759L45.608 52.8594C46.2093 54.9609 48.1262 56.6629 49.9315 56.7712C50.0926 57.5361 50.303 58.3255 50.4981 59.0932C50.3961 59.0848 50.3094 59.098 50.2196 59.1515C49.8974 59.3281 49.4019 59.531 48.8263 59.6664C48.4272 59.7351 48.0403 59.8657 47.6654 60.0582C46.222 60.7721 45.9282 59.9556 44.4063 59.3019C44.3075 59.2531 43.4235 59.1802 43.2535 59.1662C43.2195 59.1634 42.7678 59.2481 42.3388 59.0501C41.9623 58.8363 41.6385 58.6064 41.4046 58.323C41.0751 57.9505 40.7262 57.8201 40.2648 58.0259C38.1122 59.047 37.0421 55.7489 36.8673 55.3688C36.7232 55.0319 36.0537 54.6313 35.7332 54.3611C35.7024 54.3179 35.653 54.2935 35.6069 54.2288C35.0184 53.6723 34.8638 52.8267 34.8995 52.3827C34.9351 51.9386 35.3472 50.8553 35.3424 50.4892C35.3375 50.1231 35.2647 49.7514 35.2752 49.4069C35.2801 48.9198 35.4761 47.7576 35.923 46.4537C36.1918 45.6632 35.7159 44.7707 35.7329 44.3455C35.7572 43.6161 36.2413 43.1279 36.3369 42.3637C36.3847 41.9817 36.5838 41.6324 36.5976 41.2476C36.728 39.4096 37.5684 37.8943 38.4825 36.5273C39.1196 35.625 40.1267 35.0173 41.0164 34.3796C41.1435 34.2885 41.286 34.219 41.4131 34.1279C43.2095 32.4274 45.6212 30.7369 46.9999 30.8303C47.8499 30.9004 48.5072 31.239 48.9112 31.5364C49.3645 31.8582 49.8397 32.1209 50.3399 32.284L51.436 32.6994C52.1338 32.9601 52.7037 33.5353 53.0348 34.3143C53.2218 34.7564 53.4614 35.1824 53.6929 35.2828C54.0726 35.4563 54.9039 35.5452 55.3953 35.606C55.6333 35.6256 55.8746 35.6049 56.1004 35.5626C56.6388 35.4648 57.6969 35.2879 57.7276 35.3311C57.7738 35.3958 57.9988 35.5769 57.9316 36.2012C57.849 36.8038 57.6101 37.8608 57.6101 37.8608C57.6101 37.8608 57.8011 38.0391 57.9987 38.1367C58.1962 38.2342 58.5856 38.2866 58.6989 38.5804C58.8122 38.8742 58.5224 39.5004 58.8373 39.6279C59.1336 39.7742 59.493 39.5601 59.5877 39.8726C59.6824 40.1852 59.5464 41.0272 59.7066 41.1623C59.8669 41.2974 61.371 42.5998 60.8229 43.6719C60.3994 44.4699 58.8717 46.2333 58.1577 47.0277C57.8565 47.3685 57.7124 47.8848 57.7755 48.3776C57.8484 48.7493 57.9673 49.1857 58.2312 49.7357C58.9128 51.0515 59.8177 54.7016 59.8177 54.7016C59.8177 54.7016 59.8266 54.8039 59.8662 54.9494C59.9423 55.2807 60.1074 55.7819 60.2337 55.9142C60.3292 56.0033 60.5794 56.0849 60.9007 56.1317C61.1695 56.1945 61.4391 56.0339 61.5824 55.741C65.1455 48.6603 64.7437 39.3836 59.941 32.9132Z" fill="url(#paint5_linear_29_84)"/>
<defs>
<linearGradient id="paint0_linear_29_84" x1="70.9192" y1="59.7513" x2="54.3396" y2="54.9568" gradientUnits="userSpaceOnUse">
<stop stop-color="#557086"/>
<stop offset="1" stop-color="#425667"/>
</linearGradient>
<linearGradient id="paint1_linear_29_84" x1="24.3172" y1="46.7118" x2="70.3684" y2="51.9911" gradientUnits="userSpaceOnUse">
<stop stop-color="#8CA2B5"/>
<stop offset="1" stop-color="#D9D9D9"/>
</linearGradient>
<linearGradient id="paint2_linear_29_84" x1="35.5642" y1="29.2863" x2="64.8272" y2="58.3003" gradientUnits="userSpaceOnUse">
<stop stop-color="#425667"/>
<stop offset="1" stop-color="#1A2228"/>
</linearGradient>
<linearGradient id="paint3_linear_29_84" x1="24.353" y1="44.0747" x2="61.1469" y2="28.9265" gradientUnits="userSpaceOnUse">
<stop stop-color="#D9F7F5"/>
<stop offset="1" stop-color="white"/>
</linearGradient>
<linearGradient id="paint4_linear_29_84" x1="26.8299" y1="38.6938" x2="59.2303" y2="36.899" gradientUnits="userSpaceOnUse">
<stop stop-color="#DEFCFF"/>
<stop offset="1" stop-color="white"/>
</linearGradient>
<linearGradient id="paint5_linear_29_84" x1="31.0281" y1="40.1983" x2="64.3762" y2="48.8053" gradientUnits="userSpaceOnUse">
<stop stop-color="#2ADACC"/>
<stop offset="1" stop-color="#56E2D6"/>
</linearGradient>
</defs>
</svg>
