<svg width="75" height="76" viewBox="0 0 75 76" fill="none" xmlns="http://www.w3.org/2000/svg">
<g filter="url(#filter0_d_29_112)">
<path d="M62.0671 49.2524C66.8343 36.0407 59.8178 20.1883 46.3954 13.8452C32.9729 7.50201 18.2274 13.0701 13.4603 26.2818C8.69314 39.4936 15.7096 55.3459 29.132 61.6891C42.5545 68.0322 57.3 62.4641 62.0671 49.2524Z" fill="url(#paint0_linear_29_112)"/>
<path d="M63.8164 42.0261C62.275 55.3779 49.4521 63.6395 35.1982 60.483C20.9155 57.3463 10.5948 43.9335 12.1362 30.5816C12.5989 26.5735 14.0661 23.0235 16.3051 20.1157C21.4797 13.3023 30.7792 9.91578 40.7543 12.1248C51.4512 14.4936 59.9259 22.6016 62.8418 32.1491C63.8462 35.3563 64.2024 38.6817 63.8164 42.0261Z" fill="url(#paint1_linear_29_112)"/>
<path d="M59.4862 41.0669C59.4479 41.3988 59.4096 41.7307 59.3455 42.0569L59.3396 42.108C57.5435 52.6286 47.1596 58.9956 35.6632 56.4498C24.1411 53.8982 15.734 43.3699 16.396 32.5981L16.4019 32.5471C16.4144 32.2095 16.4527 31.8776 16.491 31.5457C17.7731 20.44 28.431 13.5314 40.314 16.1628C52.1682 18.8141 60.7683 29.9612 59.4862 41.0669Z" fill="url(#paint2_linear_29_112)"/>
<path opacity="0.5" fill-rule="evenodd" clip-rule="evenodd" d="M62.9255 31.6082C58.3001 36.7089 49.141 38.9386 39.0856 36.7313C28.1115 34.3224 19.3942 27.3721 16.8483 19.7978C21.9471 13.1049 31.1553 9.78104 41.032 11.9491C51.6233 14.2739 60.0138 22.2318 62.9255 31.6082Z" fill="url(#paint3_linear_29_112)"/>
<path d="M59.271 42.0797L59.2651 42.1306C57.4709 52.6359 47.0983 58.9936 35.6146 56.4515C24.1051 53.9037 15.7072 43.3907 16.3684 32.6347L16.3743 32.5837C16.6746 30.8985 17.172 29.3353 17.8695 27.8688C21.5181 20.284 30.3693 16.1254 40.0249 18.2629C50.2212 20.52 58.0012 29.066 59.1594 38.4731C59.3131 39.6575 59.3579 40.8701 59.271 42.0797Z" fill="#557086"/>
<path opacity="0.2" fill-rule="evenodd" clip-rule="evenodd" d="M59.1807 38.0422C54.1521 41.2062 46.641 42.3081 38.5236 40.5256C29.5382 38.5526 22.0587 33.5419 18.2466 27.6137C21.8645 20.1546 30.64 16.0649 40.2125 18.1669C50.321 20.3866 58.0334 28.791 59.1807 38.0422Z" fill="url(#paint4_linear_29_112)"/>
<path d="M55.5305 40.3811C56.4451 30.6257 49.1792 21.1545 39.3135 19.3096C29.6799 17.5161 21.1792 23.7827 20.2882 33.3336C19.6318 40.3946 23.2778 47.3081 29.0871 51.2942C30.0909 50.3897 31.0373 48.6078 31.5253 47.5891C31.9896 46.7748 32.4768 45.9917 32.9611 45.2343C34.6701 46.2418 37.1367 46.1855 38.6144 45.0716L38.6719 45.0319C37.1524 43.9877 34.9444 43.8655 33.3731 44.6442C33.9812 43.7307 34.6091 42.874 35.257 42.0742C36.9313 43.1526 39.409 43.2298 40.9324 42.1784L40.9899 42.1388C39.5536 41.0606 37.3604 40.8106 35.7493 41.4757C36.3943 40.7014 37.062 39.9583 37.7496 39.2721C39.4903 40.2343 41.9688 40.0758 43.4037 38.8738L43.4612 38.8341C42.0301 37.9405 40.0572 37.8441 38.581 38.4867C38.6415 38.4215 38.6989 38.3818 38.7594 38.3166C39.1736 37.9366 39.5848 37.5823 39.9961 37.2279C42.2078 37.0889 44.3643 35.3654 44.9334 33.1855L44.9452 33.0833C42.6768 33.0262 40.3626 34.741 39.6844 36.9492C39.2761 37.278 38.8906 37.6381 38.5051 37.9982C39.2437 36.6419 39.3499 34.8049 38.6691 33.37L38.6116 33.4097C37.2223 34.6742 36.7298 37.107 37.4925 38.9793C36.8365 39.6201 36.2262 40.3235 35.5872 41.0467C36.1172 39.4346 35.7769 37.3414 34.7172 35.9798L34.6826 36.0508C33.6795 37.6367 33.8377 40.1612 34.9681 41.8267C34.349 42.6068 33.7527 43.418 33.1793 44.2606C33.6666 42.5604 33.2577 40.3734 32.1207 38.9947L32.086 39.0656C31.1485 40.7709 31.4269 43.4007 32.6663 45.0379C32.2831 45.6081 31.9197 46.2352 31.5593 46.8367C31.4907 46.7429 31.4192 46.6746 31.319 46.6262C30.9697 46.444 30.4774 46.1253 29.9712 45.6987C29.6366 45.3887 29.2703 45.1242 28.8724 44.905C27.358 44.0454 27.6786 43.3303 27.0015 41.6341C26.9617 41.5205 26.3677 40.7076 26.2535 40.5513C26.2307 40.52 25.8475 40.1731 25.6655 39.6872C25.5321 39.2384 25.4474 38.8266 25.4629 38.4631C25.4673 37.9662 25.2993 37.5883 24.8299 37.3009C22.5999 35.9945 23.9798 33.208 24.1014 32.8419C24.2171 32.5268 23.9931 31.7173 23.9371 31.2856C23.943 31.2345 23.9232 31.1777 23.932 31.101C23.8687 30.2746 24.3094 29.6647 24.6256 29.4465C24.9418 29.2283 25.9493 28.9798 26.1851 28.77C26.421 28.5602 26.6111 28.2879 26.844 28.1036C27.1661 27.8343 28.0682 27.3528 29.2451 27.0108C29.9571 26.8017 30.1952 25.8848 30.4856 25.6609C30.9801 25.2726 31.6507 25.4211 32.2197 25.0755C32.5042 24.9027 32.8771 24.8805 33.1388 24.6764C34.4352 23.7581 36.0359 23.6411 37.5931 23.6716C38.6455 23.7213 39.7738 24.2595 40.8364 24.6784C40.9882 24.7382 41.1371 24.8236 41.2889 24.8834C43.7047 25.4972 46.5604 26.654 47.4999 27.9103C48.071 28.692 48.3267 29.4561 48.4254 29.9759C48.544 30.5525 48.7172 31.1149 48.9736 31.6434L49.4975 32.8339C49.8335 33.5897 49.871 34.4104 49.602 35.1369C49.4486 35.5484 49.344 35.9969 49.4464 36.2555C49.6085 36.6845 50.1538 37.4604 50.4706 37.9237C50.6306 38.1425 50.8192 38.3415 51.0108 38.515C51.4655 38.9302 52.3491 39.7549 52.3432 39.806C52.3343 39.8826 52.3792 40.1808 51.9223 40.4727C51.4683 40.739 50.6038 41.124 50.6038 41.124C50.6038 41.124 50.6259 41.3909 50.7055 41.6182C50.785 41.8455 51.0334 42.2149 50.9235 42.4789C50.8137 42.7428 50.1939 42.8413 50.3391 43.1879C50.4584 43.5289 50.8593 43.7225 50.7237 43.9807C50.5881 44.2389 49.9388 44.593 49.9668 44.8088C49.9948 45.0246 50.2349 47.0694 49.136 47.1929C48.3069 47.2712 46.0452 46.9274 45.0075 46.75C44.5661 46.6784 44.1239 46.8424 43.8475 47.1743C43.6574 47.4466 43.4584 47.7956 43.2903 48.3349C42.9246 49.669 41.1948 52.509 41.1948 52.509C41.1948 52.509 41.1343 52.5742 41.068 52.6905C40.9066 52.943 40.6987 53.3687 40.7039 53.5532C40.7149 53.6867 40.8431 53.951 41.0458 54.2579C41.1998 54.5279 41.5004 54.6731 41.796 54.6337C49.0117 53.769 54.7886 48.1831 55.5305 40.3811Z" fill="#15ADA5"/>
<path d="M55.766 39.6347C56.6224 29.9757 49.2609 20.4998 39.336 18.5521C29.6446 16.6583 21.1433 22.7677 20.3093 32.2244C19.695 39.2157 23.4029 46.1127 29.2656 50.1339C30.2685 49.2495 31.208 47.4945 31.6918 46.4906C32.1531 45.689 32.6376 44.9187 33.1194 44.1736C34.843 45.1929 37.3211 45.1669 38.7988 44.0805L38.8563 44.0418C37.3227 42.9885 35.1034 42.8407 33.5296 43.5937C34.1347 42.6955 34.7602 41.8539 35.406 41.0688C37.0953 42.158 39.5854 42.2644 41.1094 41.2405L41.1669 41.2019C39.7168 40.1159 37.5114 39.8416 35.8969 40.4815C36.5399 39.7217 37.2061 38.9932 37.8927 38.3213C39.6479 39.296 42.1372 39.1687 43.5714 37.9945L43.6289 37.9559C42.1851 37.0529 40.2022 36.9336 38.723 37.5528C38.7833 37.4888 38.8408 37.4502 38.9011 37.3863C39.3149 37.0146 39.7258 36.6683 40.1368 36.322C42.3582 36.2109 44.514 34.5284 45.0718 32.3744L45.083 32.2732C42.8034 32.1893 40.489 33.8612 39.8218 36.042C39.4136 36.363 39.0286 36.7153 38.6436 37.0676C39.377 35.7321 39.472 33.9124 38.7787 32.4819L38.7212 32.5205C37.3333 33.7572 36.8541 36.1628 37.6324 38.0279C36.9774 38.6553 36.3687 39.3451 35.7313 40.0543C36.2535 38.4627 35.8981 36.3837 34.8246 35.0213L34.7902 35.0912C33.7924 36.6511 33.9677 39.1555 35.1142 40.8201C34.4971 41.5858 33.9031 42.3828 33.3324 43.2111C33.8111 41.5316 33.3862 39.3588 32.2349 37.9785L32.2005 38.0484C31.2694 39.7275 31.566 42.3376 32.8219 43.9755C32.4405 44.5361 32.0794 45.1533 31.7211 45.7451C31.6516 45.6513 31.5793 45.5828 31.4783 45.5336C31.1262 45.3488 30.6295 45.027 30.118 44.598C29.7799 44.2867 29.4102 44.02 29.0089 43.798C27.4817 42.9276 27.7993 42.2226 27.108 40.5332C27.0673 40.4201 26.4653 39.6071 26.3495 39.4508C26.3264 39.4195 25.9391 39.071 25.7531 38.5872C25.6162 38.1407 25.5285 37.7315 25.5417 37.3714C25.543 36.8789 25.3718 36.5023 24.8982 36.2117C22.6492 34.8899 24.0177 32.1443 24.1376 31.7829C24.2519 31.472 24.0216 30.6668 23.9626 30.2382C23.9682 30.1876 23.9478 30.1311 23.9562 30.0552C23.8873 29.2353 24.3263 28.636 24.6426 28.4235C24.9589 28.211 25.9696 27.9768 26.2052 27.7717C26.4408 27.5666 26.6302 27.2989 26.863 27.1191C27.1849 26.856 28.0882 26.3896 29.2687 26.0648C29.9827 25.866 30.216 24.9601 30.5064 24.7416C31.0008 24.3626 31.6756 24.518 32.2451 24.1822C32.5298 24.0143 32.9044 23.9968 33.166 23.7976C34.4627 22.903 36.0704 22.8063 37.6353 22.8553C38.693 22.9172 39.8302 23.4643 40.9007 23.8923C41.0536 23.9535 41.2037 24.0399 41.3566 24.101C43.7879 24.7385 46.6647 25.9196 47.6169 27.1762C48.1957 27.9579 48.4575 28.7185 48.56 29.2349C48.6829 29.8079 48.8605 30.3675 49.1216 30.8945L49.6556 32.0809C49.9981 32.8341 50.041 33.648 49.7754 34.365C49.624 34.7711 49.5216 35.2144 49.6262 35.4719C49.7918 35.8991 50.3447 36.6748 50.6661 37.1378C50.8282 37.3567 51.019 37.5563 51.2126 37.7305C51.6722 38.1476 52.5653 38.9757 52.5597 39.0262C52.5513 39.1021 52.5983 39.3983 52.1411 39.6821C51.6866 39.9406 50.8204 40.3118 50.8204 40.3118C50.8204 40.3118 50.8443 40.5767 50.9258 40.8029C51.0072 41.0291 51.2591 41.3984 51.1504 41.6587C51.0417 41.919 50.4196 42.0092 50.5677 42.3545C50.6898 42.6939 51.0939 42.8906 50.9592 43.145C50.8246 43.3993 50.1745 43.7424 50.204 43.9567C50.2335 44.171 50.4879 46.2008 49.3845 46.3099C48.552 46.3776 46.2772 46.0096 45.2334 45.8212C44.7894 45.7449 44.3461 45.9022 44.0705 46.2278C43.8812 46.4955 43.6835 46.839 43.518 47.3716C43.1592 48.6896 41.4392 51.4839 41.4392 51.4839C41.4392 51.4839 41.3789 51.5478 41.313 51.6623C41.1524 51.9107 40.9463 52.3301 40.9527 52.5131C40.9646 52.6456 41.0951 52.9091 41.3007 53.2158C41.4572 53.4852 41.7603 53.6328 42.057 53.5973C49.3018 52.8271 55.0678 47.3848 55.766 39.6347Z" fill="url(#paint5_linear_29_112)"/>
</g>
<defs>
<filter id="filter0_d_29_112" x="7.96594" y="11.2247" width="60.0027" height="61.0847" filterUnits="userSpaceOnUse" color-interpolation-filters="sRGB">
<feFlood flood-opacity="0" result="BackgroundImageFix"/>
<feColorMatrix in="SourceAlpha" type="matrix" values="0 0 0 0 0 0 0 0 0 0 0 0 0 0 0 0 0 0 127 0" result="hardAlpha"/>
<feOffset dy="4"/>
<feGaussianBlur stdDeviation="2"/>
<feComposite in2="hardAlpha" operator="out"/>
<feColorMatrix type="matrix" values="0 0 0 0 0 0 0 0 0 0 0 0 0 0 0 0 0 0 0.25 0"/>
<feBlend mode="normal" in2="BackgroundImageFix" result="effect1_dropShadow_29_112"/>
<feBlend mode="normal" in="SourceGraphic" in2="effect1_dropShadow_29_112" result="shape"/>
</filter>
<linearGradient id="paint0_linear_29_112" x1="45.8974" y1="64.4292" x2="39.2469" y2="46.3103" gradientUnits="userSpaceOnUse">
<stop stop-color="#557086"/>
<stop offset="1" stop-color="#425667"/>
</linearGradient>
<linearGradient id="paint1_linear_29_112" x1="20.7683" y1="16.1287" x2="48.6084" y2="60.6014" gradientUnits="userSpaceOnUse">
<stop stop-color="#8CA2B5"/>
<stop offset="1" stop-color="#D9D9D9"/>
</linearGradient>
<linearGradient id="paint2_linear_29_112" x1="40.314" y1="16.1628" x2="31.5921" y2="55.5482" gradientUnits="userSpaceOnUse">
<stop stop-color="#425667"/>
<stop offset="1" stop-color="#1A2228"/>
</linearGradient>
<linearGradient id="paint3_linear_29_112" x1="22.9288" y1="14.5568" x2="62.3329" y2="29.8854" gradientUnits="userSpaceOnUse">
<stop stop-color="#D9F7F5"/>
<stop offset="1" stop-color="white"/>
</linearGradient>
<linearGradient id="paint4_linear_29_112" x1="28.0792" y1="13.8986" x2="53.5738" y2="39.7705" gradientUnits="userSpaceOnUse">
<stop stop-color="#DEFCFF"/>
<stop offset="1" stop-color="white"/>
</linearGradient>
<linearGradient id="paint5_linear_29_112" x1="29.7587" y1="18.352" x2="43.4996" y2="54.2048" gradientUnits="userSpaceOnUse">
<stop stop-color="#2ADACC"/>
<stop offset="1" stop-color="#56E2D6"/>
</linearGradient>
</defs>
</svg>
